<svg viewBox="0 0 364 227.5"><g data-name="Lockup"><path data-name="Heading - border" d="M364 222.3H0v-20.9h364zM.8 221.5h362.4v-19.3H.8z" opacity=".5"/><path data-name="Heading - text" d="M12.7 225.6a13.4 13.4 0 0 1-5.6-5.2 14.8 14.8 0 0 1 0-15.2 12.8 12.8 0 0 1 5.6-5.2 16.3 16.3 0 0 1 8-1.9 18.6 18.6 0 0 1 7.3 1.4 13.8 13.8 0 0 1 5.3 4.2l-6 5.4a7.5 7.5 0 0 0-6.1-3.3 6.2 6.2 0 0 0-4.8 1.9 7.1 7.1 0 0 0-1.8 5.1 7.2 7.2 0 0 0 1.8 5.1 6.2 6.2 0 0 0 4.8 1.9 7.5 7.5 0 0 0 6.1-3.3l6 5.4a13.8 13.8 0 0 1-5.3 4.2 18.6 18.6 0 0 1-7.3 1.4 16.3 16.3 0 0 1-8-1.9zm23.4-26.9h9.4v20.8h12.7v7.4H36.1zM80.4 222H69.7l-1.9 4.9h-9.6l12.3-28.2h9.3l12.3 28.2h-9.8zm-2.6-6.9l-2.7-7-2.8 7zm43.6-16.4v28.2h-7.8l-10.7-12.8v12.8h-9.3v-28.2h7.8l10.7 12.8v-12.8zm62.4 0l-9 28.2h-10.2l-4.6-15.1-4.7 15.1h-10.2l-9-28.2h9.8l4.9 16 5.2-16h8.7l4.9 16.2 5.2-16.2zM204 222h-10.7l-1.9 4.9h-9.6l12.3-28.2h9.3l12.3 28.2h-9.8zm-2.6-6.9l-2.7-7-2.8 7zm27.9 4.7h-2.6v7.1h-9.5v-28.2h13.6a17 17 0 0 1 6.7 1.3 9.8 9.8 0 0 1 4.5 3.7 9.7 9.7 0 0 1 1.6 5.6 10 10 0 0 1-1.4 5.3 9.7 9.7 0 0 1-3.9 3.6l5.9 8.7h-10.1zm3.7-12.9a3.9 3.9 0 0 0-2.8-.9h-3.5v6.6h3.5a3.9 3.9 0 0 0 2.8-.8 3 3 0 0 0 1-2.5 3 3 0 0 0-1-2.4zm23.6-1v4.8h11.8v7.2h-11.8v9h-9.4v-28.2H270v7.2zm34.6 16.1h-10.7l-1.9 4.9H269l12.3-28.2h9.3l12.3 28.2h-9.8zm-2.6-6.9l-2.8-7-2.7 7zm27.9 4.7h-2.6v7.1h-9.5v-28.2h13.5a17.5 17.5 0 0 1 6.8 1.3 10.4 10.4 0 0 1 4.5 3.7 10.5 10.5 0 0 1 1.6 5.6 10 10 0 0 1-1.4 5.3 9.7 9.7 0 0 1-3.9 3.6l5.9 8.7h-10.2zm3.7-12.9a4 4 0 0 0-2.9-.9h-3.4v6.6h3.4a4 4 0 0 0 2.9-.8 3 3 0 0 0 1-2.5 3 3 0 0 0-1-2.4zm37.5 12.8v7.2h-23.4v-28.2h22.9v7.2h-13.5v3.3h11.8v6.8h-11.8v3.7z"/><path data-name="Kicker - border" d="M360.4 185.3H4.4v-4h356z" opacity=".75"/><path data-name="Kicker - text" d="M9.5 163.4h5.1a6.6 6.6 0 0 1 3.2.7A4.6 4.6 0 0 1 20 166a6 6 0 0 1 0 6 4.6 4.6 0 0 1-2.2 1.9 6.6 6.6 0 0 1-3.2.7H9.5zm5 9.1a3.6 3.6 0 0 0 2.6-.9 3.5 3.5 0 0 0 1.1-2.6 3.1 3.1 0 0 0-1.1-2.5 3.3 3.3 0 0 0-2.6-1h-2.4v7zm23.3 0v2.1h-8.7v-11.2h8.5v2.1h-5.9v2.4h5.2v2h-5.2v2.6zm9.6 2a7.5 7.5 0 0 1-2-1l.9-1.9 1.7.8 2 .3a3.7 3.7 0 0 0 1.7-.3 1.1 1.1 0 0 0 .5-.9.7.7 0 0 0-.3-.6l-.8-.5-1.3-.3-2.1-.6a4 4 0 0 1-1.5-1 3.5 3.5 0 0 1-.5-1.8 2.7 2.7 0 0 1 .5-1.8 3.4 3.4 0 0 1 1.6-1.2 5.3 5.3 0 0 1 2.6-.5l2.1.2a7.5 7.5 0 0 1 1.8.8l-.8 2a6.1 6.1 0 0 0-3.1-.9 3.2 3.2 0 0 0-1.6.3 1.2 1.2 0 0 0-.6 1 .9.9 0 0 0 .6.8l1.9.6 2.1.6a3.3 3.3 0 0 1 1.4 1 2.4 2.4 0 0 1 .6 1.7 2.8 2.8 0 0 1-.6 1.8 4.3 4.3 0 0 1-1.6 1.3 6.8 6.8 0 0 1-2.6.4 11.5 11.5 0 0 1-2.6-.3zm17.7-9h-3.6v-2.1h9.8v2.1h-3.6v9.1h-2.6zm14-2.1h2.6v11.2h-2.6zm22 0v11.2H99l-5.6-6.8v6.8h-2.6v-11.2h2.1l5.6 6.8v-6.8zm14.5 7.2v4H113v-4l-4.4-7.2h2.8l3 5 3-5h2.5z"/></g><path data-name="Icon" d="M183.3 158.9h1.2v15.6h-5.4v-15.6zm-3 17.5h-1.2v4.6a20.7 20.7 0 0 0 .6 5 15.5 15.5 0 0 0 .6 2.3 23.9 23.9 0 0 0 1.5 3.7 23.9 23.9 0 0 0 1.5-3.7 8.6 8.6 0 0 0 .6-2.3 20.7 20.7 0 0 0 .6-5v-4.6zM136.2 39.7h92.4a2.1 2.1 0 0 0 2.1-2.1 2.1 2.1 0 0 0-2.1-2.1h-92.4a2.1 2.1 0 0 0-2.1 2.1 2.1 2.1 0 0 0 2.1 2.1zm95.8 3.6a2.1 2.1 0 0 1-1.9 2.1v109.3h-40.8V51.2h-.1a18.3 18.3 0 0 0-4.7 7.4v98.2h-5.4V58.7a19.4 19.4 0 0 0-4.7-7.4v103.4h-40.9V45.3a2 2 0 0 1-1.5-2 2.1 2.1 0 0 1 1.5-2h26.9a24 24 0 0 1 13.5 4.2l.5.3a26.7 26.7 0 0 1 6.8 7.4l.6 1.3.7-1.3a25.3 25.3 0 0 1 6.8-7.4l.4-.3a24.6 24.6 0 0 1 13.6-4.2h26.9a2.1 2.1 0 0 1 1.8 2zm-82.1 23a5.3 5.3 0 0 0-4.6-2.6 5.4 5.4 0 0 0-2.7.7 5.2 5.2 0 0 0-1.9 7.2 5.3 5.3 0 0 0 4.5 2.7 5 5 0 0 0 2.7-.8 5.2 5.2 0 0 0 2-7.2zm13.6 13.6a5.4 5.4 0 0 0-2.7-.7 5.3 5.3 0 0 0-4.6 2.6 5.4 5.4 0 0 0 2 7.3 5.9 5.9 0 0 0 2.6.7 5.4 5.4 0 0 0 4.6-2.7 5.2 5.2 0 0 0-1.9-7.2zm3.6-33.3a18.9 18.9 0 0 0-6.7-1.2h-24.5c1.7 1.5 8.6 2.7 16.9 2.7a56.6 56.6 0 0 0 14.3-1.5zm40.8 35.2a5.4 5.4 0 0 0-4.6-2.7 6.8 6.8 0 0 0-2.7.7 5.4 5.4 0 0 0-1.9 7.3 5.3 5.3 0 0 0 4.6 2.6 4.8 4.8 0 0 0 2.6-.7 5.3 5.3 0 0 0 2-7.2zm13.5-17.6a4.8 4.8 0 0 0-2.6-.7 5.4 5.4 0 0 0-4.6 2.7 5.3 5.3 0 0 0 1.9 7.2 5.6 5.6 0 0 0 2.7.8 5.1 5.1 0 0 0 4.5-2.7 5.4 5.4 0 0 0-1.9-7.3zm6.4-18.8h-24.5a19.1 19.1 0 0 0-6.8 1.2 57.1 57.1 0 0 0 14.3 1.5c8.3 0 15.2-1.2 17-2.7zm-85.2-14.3a5.4 5.4 0 0 0 2.6.7 5.1 5.1 0 0 0 4.6-2.6 5.4 5.4 0 0 0-1.9-7.3 6.8 6.8 0 0 0-2.7-.7 5.1 5.1 0 0 0-4.5 2.7 5.2 5.2 0 0 0 1.9 7.2zm18.2-14.8a4.8 4.8 0 0 0 2.6-.7 5.5 5.5 0 0 0 2-7.3 5.3 5.3 0 0 0-4.6-2.6 5.4 5.4 0 0 0-2.7.7 5.2 5.2 0 0 0-1.9 7.2 5.4 5.4 0 0 0 4.6 2.7zm53.3 12.8a5.2 5.2 0 0 0 4.6 2.6 5.3 5.3 0 0 0 4.6-8h-.1a5.2 5.2 0 0 0-4.6-2.6 4.8 4.8 0 0 0-2.6.7 5.4 5.4 0 0 0-1.9 7.3zm-13.7-13.6a5.4 5.4 0 0 0 2.7.7 5.2 5.2 0 0 0 4.6-2.7 5.3 5.3 0 0 0-2-7.2 5.1 5.1 0 0 0-2.6-.7 5.2 5.2 0 0 0-4.6 2.7 5.3 5.3 0 0 0 1.9 7.2zM182 10.6a5.3 5.3 0 0 0 5.3-5.3A5.3 5.3 0 0 0 182 0a5.3 5.3 0 0 0-5.3 5.3 5.3 5.3 0 0 0 5.3 5.3z"/></svg>