<svg viewBox="0 0 124 129"><path class="foreground" d="M124 23.7c0 1.7-.1 3.4-.2 5-.4-1.6-1.5-3-3-3.7-.4-.2-.8-.4-1.2-.5l-56-16.4c-.2 0-.4-.1-.6-.1h-1.8c-.2 0-.4.1-.6.1L4.4 24.5c-.4.1-.8.3-1.2.5-1.5.7-2.6 2.2-3 3.7-.1-1.6-.1-3.3-.2-5v-.3c0-2.2 1.3-4.3 3.2-5.3.4-.2.8-.4 1.2-.5L60.5.1c.2 0 .4-.1.6-.1H63c.2 0 .4.1.6.1l56 17.5c.4.1.8.3 1.2.5 1.9 1 3.2 3.1 3.2 5.3v.3z"/><path class="background" d="M124 30v.3c-.2 8.2-.8 15.6-1.9 22.4-7.4 50.2-36.1 65.9-57.4 75.6-.3.1-1.1.5-2 .7-.2 0-.5.1-.7.1s-.5-.1-.7-.1c-.9-.2-1.7-.6-2-.7C38 118.6 9.4 103 1.9 52.7.9 45.8.3 38.4.1 30.3V30c0-.4.1-.8.2-1.2.4-1.6 1.5-3 3-3.7.4-.2.8-.4 1.2-.5l56-16.5c.2 0 .4-.1.6-.1H63c.2 0 .4.1.6.1l56 16.4c.4.1.8.3 1.2.5 1.5.7 2.6 2.2 3 3.7.1.4.2.8.2 1.3z"/></svg>