<svg viewBox="0 0 124 129"><path class="foreground" d="M124 23.4v.3c0 1.5-.1 2.9-.1 4.3-.4-1.6-1.5-3-3.1-3.7-.4-.2-.8-.4-1.2-.4l-56-15.7c-.2-.1-.4-.2-.6-.2h-1.8c-.2 0-.4.1-.6.1L4.4 23.8c-.4.1-.8.3-1.2.4C1.6 25 .5 26.4.1 28c0-1.4-.1-2.8-.1-4.3v-.3c0-2.2 1.3-4.3 3.2-5.3.4-.2.8-.4 1.2-.5L60.5.1c.2 0 .4-.1.6-.1H63c.2 0 .4.1.6.1l56 17.5c.4.1.8.3 1.2.5 1.9 1 3.2 3.1 3.2 5.3zm-59.3 99.9c-.3.1-1.1.5-2 .6-.2 0-.5.1-.7.1s-.5-.1-.7-.1c-.9-.2-1.7-.5-2-.6-16.4-7.1-37-17.6-49.1-43.9 12.1 29.2 32.8 40.9 49.1 48.8.3.1 1.1.5 2 .7.2 0 .5.1.7.1s.5-.1.7-.1c.9-.2 1.7-.6 2-.7 16.4-7.9 37.1-19.6 49.2-48.8-12.2 26.2-32.9 36.8-49.2 43.9z"/><path class="background" d="M124 29.1v.3c-.2 7.8-.8 14.9-1.9 21.5-1.7 11.2-4.6 20.6-8.3 28.5-12.1 26.3-32.8 36.8-49.2 43.9-.3.1-1.1.5-2 .6-.2 0-.5.1-.7.1s-.5-.1-.7-.1c-.9-.2-1.7-.5-2-.6-16.4-7.1-37-17.6-49.1-43.9-3.7-8-6.6-17.3-8.3-28.5C.8 44.3.2 37.2 0 29.4v-.3c0-.4.1-.7.1-1.1.4-1.6 1.5-3 3.1-3.7.4-.2.8-.4 1.2-.4L60.5 8.1c.2 0 .4-.1.6-.1H63c.2 0 .4.1.6.1l56 15.7c.4.1.8.3 1.2.4 1.6.7 2.7 2.1 3.1 3.7 0 .4.1.8.1 1.2z"/></svg>