<svg viewBox="0 0 267 141"><path d="M16.5 64.6H0V1.3h16.5v63.3zm68.5 0H68.6L39.2 25.3v39.3H22.8V1.3h16.6l29.2 39.4V1.3H85v63.3zm48.9-20c0 6.5-2.2 11.7-6.7 15.5-4.5 3.9-10.5 5.8-18 5.8-4.4 0-8.4-.7-11.9-2.2-3.5-1.5-7-3.8-10.5-7.1l7.7-11.9c2.3 2.6 4.7 4.6 7.2 5.8 2.4 1.3 5.1 1.9 7.9 1.9 2.3 0 4.2-.6 5.6-1.8 1.5-1.2 2.2-2.8 2.2-4.7 0-2.1-.7-3.7-2-4.9-1.3-1.2-4.2-2.3-8.6-3.4-5.9-1.5-10.2-3.8-13-6.7-2.8-2.9-4.1-6.8-4.1-11.6 0-5.9 2-10.6 6.1-14.1 4-3.6 9.4-5.4 15.9-5.4 3.5 0 6.9.5 10 1.4 3.1.9 6 2.3 8.8 4.2L125 18.2c-1.9-1.6-3.8-2.8-5.9-3.6-2.1-.8-4.1-1.3-6.2-1.3-2.2 0-3.9.4-5.2 1.3-1.3.9-2 2-2 3.5 0 2.8 3.1 5 9.3 6.7.4.1.7.2.9.2 6.4 1.7 11 4.1 13.8 7.2 2.9 3.1 4.2 7.2 4.2 12.4zm39.4 20H137V1.3h36.2v14h-19.8v10.6h19v13.5h-19v11.4h19.8v13.8zm54.1 0h-19.5L193.3 40v24.6h-16.5V1.3h19.4c10.3 0 17.5 1.6 21.7 4.8 4.2 3.2 6.3 8.3 6.3 15.2 0 4.9-1.2 8.9-3.6 11.9-2.4 3.1-5.9 5.1-10.5 6.1l17.3 25.3zM207 23.4c0-3.1-.8-5.4-2.4-6.7-1.6-1.4-4.2-2-8-2h-3.3v16.8h3c3.6 0 6.3-.7 8.1-2 1.8-1.3 2.6-3.3 2.6-6.1zm60-7.7h-12.9v48.7h-16.5V15.7h-13V1.3H267v14.4zm-46.8 117c0 1.9-.7 3.5-2 4.9-1.3 1.4-3 2-4.9 2-1.9 0-3.5-.7-4.9-2-1.3-1.3-2-3-2-4.9s.7-3.5 2-4.9c1.3-1.3 3-2 4.9-2 1.9 0 3.5.7 4.9 2 1.4 1.3 2 3 2 4.9zm-1.2 0c0-1.6-.6-2.9-1.7-4s-2.4-1.7-4-1.7-2.9.6-4 1.7-1.7 2.4-1.7 4 .6 2.9 1.7 4 2.4 1.7 4 1.7 2.9-.6 4-1.7c1.2-1.1 1.7-2.4 1.7-4zm-2.2 4.1h-2.1l-2-3.7v3.7h-1.9v-8.4h2.6c.9 0 1.6.2 2.1.7s.8 1 .8 1.7c0 .6-.2 1.1-.5 1.5-.3.4-.8.7-1.3.7l2.3 3.8zm-2.5-6c0-.3-.1-.6-.2-.7-.1-.1-.5-.2-.9-.2h-.5v1.8h.5c.4 0 .7-.1.9-.2.2-.2.2-.4.2-.7z"/><path d="M114.8 105.4c-1.4-16.2-15-29-31.6-29-17.6 0-31.7 14.1-31.7 31.7s14.2 31.7 31.7 31.7c1.8 0 3.5-.2 5.2-.4l26.4-34zm-64.9 31.7c-2 1.3-4.5 2.3-7.3 2.9-2.9.7-6 1-9.5 1-9.3 0-17.1-3.1-23.2-9.4C3.8 125.3.7 117.5.7 108S3.9 90.7 10 84.4c6.2-6.3 13.9-9.5 23.2-9.5 3.6 0 6.8.3 9.6 1s5.3 1.6 7.3 3v18.7c-1.9-2.1-4.2-3.8-6.8-5-2.6-1.2-5.4-1.8-8.2-1.8-5.1 0-9.2 1.6-12.3 4.8-3.1 3.2-4.7 7.5-4.7 12.7 0 4.9 1.6 8.9 4.8 12 3.2 3.1 7.3 4.7 12.3 4.7 2.8 0 5.5-.6 8.2-1.8 2.7-1.2 5-2.8 6.9-5v18.9h-.4zm85.3 2.6h-16.5V76.4h16.5v63.3zm68.6 0h-16.5L158 100.4v39.3h-16.5V76.4h16.6l29.2 39.4V76.4h16.5v63.3z" fill="#ccbe00"/></svg>