<svg width="200" height="384" viewBox="0 0 200 384"><path data-name="Icon" d="M102.7 317.7h2.3v31.4H94.3v-31.4zm-6.1 35.1h-2.3v9.2a54.5 54.5 0 0 0 1 9.9 36.2 36.2 0 0 0 1.3 4.7 47.8 47.8 0 0 0 3 7.4 60.7 60.7 0 0 0 3.1-7.4c.4-1.5.9-3.1 1.2-4.7a46.2 46.2 0 0 0 1.1-9.9v-9.2zM8.3 79.4h184.9a4.1 4.1 0 0 0 4.1-4.1v-.2a4.1 4.1 0 0 0-4.1-4.1H8.3a4.1 4.1 0 0 0-4.1 4.1v.2a4.1 4.1 0 0 0 4.1 4.1zM200 86.6a4.2 4.2 0 0 1-3.8 4.2v218.5h-81.7V102.6a38.9 38.9 0 0 0-9.4 14.8v196.5H94.3V117.4a40.1 40.1 0 0 0-9.4-14.8l-.2-.2v206.9H3.1V90.7A4.3 4.3 0 0 1 0 86.6a4.2 4.2 0 0 1 3.1-4v-.2h53.7a48.6 48.6 0 0 1 27.1 8.4l.9.7a47.5 47.5 0 0 1 13.5 14.7l1.4 2.5 1.4-2.5a47.4 47.4 0 0 1 13.5-14.7l.9-.7a48.6 48.6 0 0 1 27.1-8.4h53.7a4.4 4.4 0 0 1 3.7 4.2zm-164.3 46a10.6 10.6 0 0 0-18.4 10.6 10.7 10.7 0 0 0 9.2 5.2 10 10 0 0 0 5.3-1.4 10.6 10.6 0 0 0 3.9-14.4zM63 159.8a10.5 10.5 0 0 0-5.4-1.5 10.3 10.3 0 0 0-9.1 5.4 10.4 10.4 0 0 0 9.1 15.8 10.6 10.6 0 0 0 5.4-19.7zm7.2-66.6a39.9 39.9 0 0 0-13.5-2.4h-49c3.5 3.1 17.3 5.4 33.9 5.4 11.9 0 22.4-1.2 28.6-3zm81.6 70.3a10.8 10.8 0 0 0-9.2-5.3 10.1 10.1 0 0 0-5.3 1.5 10.6 10.6 0 0 0 5.3 19.8 10.4 10.4 0 0 0 5.3-1.5 10.7 10.7 0 0 0 3.9-14.5zm27.1-35a10.7 10.7 0 0 0-5.3-1.5 10.4 10.4 0 0 0-9.2 5.4 10.7 10.7 0 0 0 3.8 14.5 10.7 10.7 0 0 0 14.5-3.8 10.7 10.7 0 0 0-3.8-14.6zm12.6-37.7h-49a41.3 41.3 0 0 0-13.5 2.4c6.3 1.8 16.7 3 28.6 3 16.6 0 30.4-2.3 33.9-5.4zM21.2 62.2a10.3 10.3 0 0 0 14.4-3.8 10.6 10.6 0 1 0-18.3-10.7 10.5 10.5 0 0 0 3.9 14.5zm36.4-29.6a9.8 9.8 0 0 0 5.2-1.5 10.5 10.5 0 0 0-5.2-19.7 10.3 10.3 0 0 0-5.3 1.4h-.1a10.6 10.6 0 0 0-3.8 14.5 10.7 10.7 0 0 0 9.2 5.3zm106.6 25.6a10.7 10.7 0 0 0 9.2 5.2 10.3 10.3 0 0 0 5.3-1.4 10.6 10.6 0 0 0 3.8-14.5.1.1 0 0 0-.1-.1 10.5 10.5 0 0 0-9.1-5.3 10.7 10.7 0 0 0-9.1 16.1zM136.9 31a9.9 9.9 0 0 0 5.2 1.4 10.8 10.8 0 0 0 9.3-5.3 10.6 10.6 0 0 0-3.9-14.4h-.1a10.3 10.3 0 0 0-5.3-1.4 10.7 10.7 0 0 0-9.2 5.3 10.6 10.6 0 0 0 4 14.4zM100 21.2a10.5 10.5 0 0 0 10.6-10.6A10.5 10.5 0 0 0 100 0h-.1a10.5 10.5 0 0 0-10.6 10.6A10.7 10.7 0 0 0 100 21.2z"/></svg>