<svg viewBox="0 0 124 129"><path d="M86.4 50.7h-11V33.8h2.4v-7.3H63.3v7.3h2.4v2.4h-11c-2.1 0-3.7 1.6-3.7 3.6v3.6c0 2 1.6 3.6 3.7 3.6h2.4c2.1 0 3.7-1.6 3.7-3.6h4.9v7.3h-28c-2.1 0-3.7 1.6-3.7 3.6v2.4c0 2 1.6 3.6 3.7 3.6H39c.5 9.2 7 16.7 15.6 18.8l-2.2 15.1h-2.6c-2.1 0-3.7 1.6-3.7 3.6v3.6h31.7v-3.6c0-2-1.6-3.6-3.7-3.6h-2.6l-2.2-15.1C78 76.9 84.4 69.4 85 60.3h1.3c2.1 0 3.7-1.6 3.7-3.6v-2.4c.1-2-1.5-3.6-3.6-3.6zM65.7 28.9h9.7v2.4h-9.7v-2.4zM58.4 41v2.4c0 .7-.6 1.2-1.3 1.2h-2.4c-.7 0-1.3-.6-1.3-1.2v-3.6c0-.7.6-1.2 1.3-1.2h11c1.4 0 2.4-1.1 2.4-2.4v-2.4H73v3.6c0 2-1.6 3.6-3.7 3.6H58.4zm9.7 2.4h1.3c1.4 0 2.6-.5 3.7-1.2v8.5h-4.9c-.1 0-.1-7.3-.1-7.3zm1.1 50.8h-9.6v2.4h14.7c.7 0 1.3.6 1.3 1.2V99H48.7v-1.2c0-.7.6-1.2 1.3-1.2h7.3v-2.4H55l2-14.6c.8.1 1.7.2 2.5.2h4.9c.9 0 1.7-.1 2.5-.2l2.3 14.6zm18.5-37.5c0 .7-.6 1.2-1.3 1.2h-6.1v2.4h2.4c-.7 9.4-8.6 16.9-18.2 16.9h-4.9c-9.7 0-17.6-7.5-18.2-16.9H78V58H37.7c-.7 0-1.3-.6-1.3-1.2v-2.4c0-.7.6-1.2 1.3-1.2h48.8c.7 0 1.3.6 1.3 1.2v2.3z"/></svg>