<svg viewBox="0 0 124 129"><path opacity=".5" d="M98 36.6L80 68.2 62 99.9 44 68.2 26 36.6h72m0-2H26c-.7 0-1.4.4-1.7 1-.4.6-.4 1.4 0 2l18 31.6 18 31.7c.4.6 1 1 1.7 1s1.4-.4 1.7-1l18-31.7 18-31.6c.4-.6.3-1.4 0-2-.3-.6-1-1-1.7-1zm0 4z"/><path opacity=".75" d="M81.2 89l3.1 1.8-5.8 10.1-3.1-1.9 5.8-10zm-6 10.4c-.6-.3-1.5-.1-1.9.7-.4.8-.2 1.7.4 2l3.1 1.8c.6.3 1.5.1 1.9-.7.4-.8.2-1.7-.4-2l-3.1-1.8zM89.6 90l-.1.2-10.3-5.9.1-.2c.3-.6.2-1.2-.2-1.4-.4-.2-1-.1-1.3.5l-1.6 2.7c-.3.6-.2 1.2.2 1.4.4.2 1 .1 1.3-.5l.1-.2 10.3 5.9-.1.2c-.3.6-.2 1.2.2 1.4.4.2 1 .1 1.3-.5l1.6-2.7c.3-.6.2-1.2-.2-1.4-.4-.4-.9-.1-1.3.5zm19.1-45l-.7 8.4-20.2 35-6.1-3.4 20.2-35 6.8-5zm-5.1 9c-.2-.1-.5 0-.7.4L93 71.6l-1.6 2.7-.4.8-1.6 2.7-3 5.2c-.2.4-.1.7.1.8.2.1.5 0 .7-.4l2.9-5 1.6-2.7.4-.9 1.7-2.7 9.9-17.2c.1-.4.1-.7-.1-.9zM39.5 90.8l3.1-1.8 5.8 10-3.1 1.8-5.8-10zm6 10.4c-.6.3-.8 1.3-.4 2 .4.8 1.4 1 1.9.7l3.1-1.8c.6-.3.8-1.3.4-2-.4-.8-1.4-1-1.9-.7l-3.1 1.8zM44.6 84l.1.2-10.3 5.9-.1-.2c-.3-.6-.9-.7-1.3-.5-.4.2-.6.8-.2 1.4l1.6 2.7c.3.6.9.7 1.3.5.4-.2.6-.8.2-1.4l-.1-.2 10.3-5.9.1.2c.3.6.9.7 1.3.5.4-.2.6-.8.2-1.4l-1.6-2.7c-.3-.6-.9-.7-1.3-.5-.5.1-.5.8-.2 1.4zM15.2 45l6.9 4.8 20.2 35-6 3.6-20.3-35-.8-8.4zm5.2 8.9c-.2.1-.3.4-.1.8l10 17.3 1.6 2.7.4.8 1.6 2.7 3 5.2c.2.4.5.5.7.4.2-.1.3-.4.1-.8l-2.9-5-1.6-2.7-.6-.8-1.5-2.9-9.9-17.2c-.3-.5-.6-.6-.8-.5z"/><path d="M38.6 39.5L60 51.9V25.2L36.9 38.5l1.7 1zm11.9-3.3l1.6-3.2 1.4 3.1 3.5.6-2.5 2.4.7 3.5-3.1-1.7-3.2 1.7.7-3.5-2.6-2.4 3.5-.5zm13.4 22.3v26.6L87 71.8l-1.7-1-21.4-12.3zm11.3 18.1l-3.1-1.7-3.2 1.7.7-3.5-2.6-2.4 3.5-.5 1.6-3.2 1.4 3.1 3.5.6-2.5 2.4.7 3.5zm-38.3-4.8L60 85.1V58.5L38.6 70.8l-1.7 1zm13.6-1.6l1.6-3.2 1.4 3.1 3.5.6-2.5 2.4.7 3.5-3.1-1.7-3.2 1.7.7-3.5-2.6-2.4 3.5-.5zm36.6-31.7L63.9 25.2v26.7l21.4-12.3 1.8-1.1zm-11.9 4.1l-3.1-1.7-3.2 1.7.7-3.5-2.6-2.4 3.5-.5 1.6-3.2 1.4 3.1 3.5.6-2.5 2.4.7 3.5z"/><path opacity=".9" d="M35 41.8v26.7l1.7-1 21.5-12.3-21.5-12.4-1.7-1zm6.5 11.4l1.6-3.2 1.4 3.1 3.5.6-2.5 2.4.7 3.5-3.1-1.7-3.2 1.7.7-3.5-2.6-2.4 3.5-.5zm45.8-10.3L65.9 55.2l21.4 12.3 1.7 1V41.9l-1.7 1zm-3.1 16.7l-3.1-1.7-3.2 1.7.7-3.5-2.6-2.4 3.5-.5 1.6-3.2 1.4 3.1 3.5.6-2.5 2.4.7 3.5zM63.5 87.1L62.1 84l-1.6 3.2-3.5.5 2.6 2.4-.7 3.5 3.2-1.7 3.1 1.7-.7-3.5 2.5-2.4-3.5-.6zm.7 13.3l-2.1-4.5-2.3 4.6-5 .7 3.7 3.5-.9 5 4.5-2.4 4.5 2.4-1-5 3.6-3.5-5-.8zm22.3-73.3L85.1 24l-1.6 3.2-3.5.5 2.6 2.4-.7 3.5 3.2-1.7 3.1 1.7-.7-3.5 2.5-2.4-3.5-.6zm-45 0L40.1 24l-1.6 3.2-3.5.5 2.6 2.4-.7 3.5 3.2-1.7 3.1 1.7-.7-3.5 2.5-2.4-3.5-.6z"/></svg>