<svg viewBox="0 0 124 129"><path d="M60.3 52c0-.9.8-1.7 1.7-1.7.9 0 1.7.8 1.7 1.7 0 .9-.8 1.7-1.7 1.7-1 0-1.7-.8-1.7-1.7zM62 66.3c.9 0 1.7-.8 1.7-1.7 0-.9-.8-1.7-1.7-1.7-.9 0-1.7.8-1.7 1.7 0 1 .7 1.7 1.7 1.7zm0-25.2c.9 0 1.7-.8 1.7-1.7s-.8-1.7-1.7-1.7c-.9 0-1.7.8-1.7 1.7s.7 1.7 1.7 1.7zm0-12.7c.9 0 1.7-.8 1.7-1.7 0-.9-.8-1.7-1.7-1.7-.9 0-1.7.8-1.7 1.7 0 1 .7 1.7 1.7 1.7zm-27.9 3c-.9 0-1.7.8-1.7 1.7 0 .9.8 1.7 1.7 1.7.9 0 1.7-.8 1.7-1.7 0-1-.7-1.7-1.7-1.7zm55.7 3.3c.9 0 1.7-.8 1.7-1.7 0-.9-.8-1.7-1.7-1.7-.9 0-1.7.8-1.7 1.7 0 1 .7 1.7 1.7 1.7zm-55.7 3c-.9 0-1.7.8-1.7 1.7s.8 1.7 1.7 1.7c.9 0 1.7-.8 1.7-1.7s-.7-1.7-1.7-1.7zm55.7 0c-.9 0-1.7.8-1.7 1.7s.8 1.7 1.7 1.7c.9 0 1.7-.8 1.7-1.7s-.8-1.7-1.7-1.7zM34.1 44c-.9 0-1.7.8-1.7 1.7 0 .9.8 1.7 1.7 1.7.9 0 1.7-.8 1.7-1.7 0-.9-.7-1.7-1.7-1.7zm55.7 0c-.9 0-1.7.8-1.7 1.7 0 .9.8 1.7 1.7 1.7.9 0 1.7-.8 1.7-1.7 0-.9-.8-1.7-1.7-1.7zm-55.7 6.3c-.9 0-1.7.8-1.7 1.7 0 .9.8 1.7 1.7 1.7.9 0 1.7-.8 1.7-1.7 0-.9-.7-1.7-1.7-1.7zm55.7 0c-.9 0-1.7.8-1.7 1.7 0 .9.8 1.7 1.7 1.7.9 0 1.7-.8 1.7-1.7 0-.9-.8-1.7-1.7-1.7zm-55.7 6.4c-.9 0-1.7.8-1.7 1.7s.8 1.7 1.7 1.7c.9 0 1.7-.8 1.7-1.7s-.7-1.7-1.7-1.7zm55.7 0c-.9 0-1.7.8-1.7 1.7s.8 1.7 1.7 1.7c.9 0 1.7-.8 1.7-1.7s-.8-1.7-1.7-1.7zM34.1 63c-.9 0-1.7.8-1.7 1.7 0 .9.8 1.7 1.7 1.7.9 0 1.7-.8 1.7-1.7 0-1-.7-1.7-1.7-1.7zm55.7 0c-.9 0-1.7.8-1.7 1.7 0 .9.8 1.7 1.7 1.7.9 0 1.7-.8 1.7-1.7 0-1-.8-1.7-1.7-1.7zm-55.7 6.3c-.9 0-1.7.8-1.7 1.7 0 .9.8 1.7 1.7 1.7.9 0 1.7-.8 1.7-1.7 0-.9-.7-1.7-1.7-1.7zm55.7 0c-.9 0-1.7.8-1.7 1.7 0 .9.8 1.7 1.7 1.7.9 0 1.7-.8 1.7-1.7 0-.9-.8-1.7-1.7-1.7zm-55.7 6.3c-.9 0-1.7.8-1.7 1.7 0 .9.8 1.7 1.7 1.7.9 0 1.7-.8 1.7-1.7 0-.9-.7-1.7-1.7-1.7zm55.7 0c-.9 0-1.7.8-1.7 1.7 0 .9.8 1.7 1.7 1.7.9 0 1.7-.8 1.7-1.7 0-.9-.8-1.7-1.7-1.7zm-55.7 6.3c-.9 0-1.7.8-1.7 1.7s.8 1.7 1.7 1.7c.9 0 1.7-.8 1.7-1.7s-.7-1.7-1.7-1.7zm55.7 0c-.9 0-1.7.8-1.7 1.7s.8 1.7 1.7 1.7c.9 0 1.7-.8 1.7-1.7s-.8-1.7-1.7-1.7zm-55.7 6.4c-.9 0-1.7.8-1.7 1.7 0 .9.8 1.7 1.7 1.7.9 0 1.7-.8 1.7-1.7 0-1-.7-1.7-1.7-1.7zm55.7 0c-.9 0-1.7.8-1.7 1.7 0 .9.8 1.7 1.7 1.7.9 0 1.7-.8 1.7-1.7 0-1-.8-1.7-1.7-1.7zm-55.7 6.3c-.9 0-1.7.8-1.7 1.7 0 .9.8 1.7 1.7 1.7.9 0 1.7-.8 1.7-1.7 0-1-.7-1.7-1.7-1.7zm55.7 0c-.9 0-1.7.8-1.7 1.7 0 .9.8 1.7 1.7 1.7.9 0 1.7-.8 1.7-1.7 0-1-.8-1.7-1.7-1.7zM52.7 47.4c.9 0 1.7-.8 1.7-1.7 0-.9-.8-1.7-1.7-1.7-.9 0-1.7.8-1.7 1.7 0 .9.8 1.7 1.7 1.7zm18.5 0c.9 0 1.7-.8 1.7-1.7 0-.9-.8-1.7-1.7-1.7-.9 0-1.7.8-1.7 1.7 0 .9.8 1.7 1.7 1.7zM48 53.7c.9 0 1.7-.8 1.7-1.7 0-.9-.8-1.7-1.7-1.7-.9 0-1.7.8-1.7 1.7.1.9.8 1.7 1.7 1.7zm27.9 0c.9 0 1.7-.8 1.7-1.7 0-.9-.8-1.7-1.7-1.7-.9 0-1.7.8-1.7 1.7 0 .9.7 1.7 1.7 1.7zM45.3 60c.9 0 1.7-.8 1.7-1.7s-.8-1.7-1.7-1.7-1.7.8-1.7 1.7.7 1.7 1.7 1.7zm11.1 0c.9 0 1.7-.8 1.7-1.7s-.8-1.7-1.7-1.7c-.9 0-1.7.8-1.7 1.7s.8 1.7 1.7 1.7zm11.1 0c.9 0 1.7-.8 1.7-1.7s-.8-1.7-1.7-1.7c-.9 0-1.7.8-1.7 1.7s.8 1.7 1.7 1.7zm9.5-1.7c0 .9.8 1.7 1.7 1.7.9 0 1.7-.8 1.7-1.7s-.8-1.7-1.7-1.7c-1 .1-1.7.8-1.7 1.7zm-33.6 8c.9 0 1.7-.8 1.7-1.7 0-.9-.8-1.7-1.7-1.7-.9 0-1.7.8-1.7 1.7 0 1 .8 1.7 1.7 1.7zm9.3 0c.9 0 1.7-.8 1.7-1.7 0-.9-.8-1.7-1.7-1.7-.9 0-1.7.8-1.7 1.7 0 1 .8 1.7 1.7 1.7zm18.5 0c.9 0 1.7-.8 1.7-1.7 0-.9-.8-1.7-1.7-1.7-.9 0-1.7.8-1.7 1.7 0 1 .8 1.7 1.7 1.7zm7.6-1.6c0 .9.8 1.7 1.7 1.7.9 0 1.7-.8 1.7-1.7 0-.9-.8-1.7-1.7-1.7-.9 0-1.7.7-1.7 1.7zm-36.7 8c.9 0 1.7-.8 1.7-1.7 0-.9-.8-1.7-1.7-1.7s-1.7.8-1.7 1.7c0 .9.8 1.7 1.7 1.7zm6.2-1.7c0 .9.8 1.7 1.7 1.7.9 0 1.7-.8 1.7-1.7 0-.9-.8-1.7-1.7-1.7-.9 0-1.7.8-1.7 1.7zm8 0c0 .9.8 1.7 1.7 1.7.9 0 1.7-.8 1.7-1.7 0-.9-.8-1.7-1.7-1.7-1 0-1.7.8-1.7 1.7zm9.6 1.7c.9 0 1.7-.8 1.7-1.7 0-.9-.8-1.7-1.7-1.7s-1.7.8-1.7 1.7c0 .9.8 1.7 1.7 1.7zm6.3-1.7c0 .9.8 1.7 1.7 1.7.9 0 1.7-.8 1.7-1.7 0-.9-.8-1.7-1.7-1.7-1 0-1.7.8-1.7 1.7zm7.9 0c0 .9.8 1.7 1.7 1.7.9 0 1.7-.8 1.7-1.7 0-.9-.8-1.7-1.7-1.7-.9 0-1.7.8-1.7 1.7zm-39 4.6c-.9 0-1.7.8-1.7 1.7 0 .9.8 1.7 1.7 1.7.9 0 1.7-.8 1.7-1.7 0-.9-.8-1.7-1.7-1.7zM48 79c.9 0 1.7-.8 1.7-1.7 0-.9-.8-1.7-1.7-1.7-.9 0-1.7.8-1.7 1.7.1.9.8 1.7 1.7 1.7zm27.9-3.4c-.9 0-1.7.8-1.7 1.7 0 .9.8 1.7 1.7 1.7.9 0 1.7-.8 1.7-1.7-.1-.9-.8-1.7-1.7-1.7zm8.6 1.7c0-.9-.8-1.7-1.7-1.7-.9 0-1.7.8-1.7 1.7 0 .9.8 1.7 1.7 1.7.9 0 1.7-.8 1.7-1.7zm-44.2 4.6c-.9 0-1.7.8-1.7 1.7s.8 1.7 1.7 1.7c.9 0 1.7-.8 1.7-1.7s-.7-1.7-1.7-1.7zm45 1.7c0-.9-.8-1.7-1.7-1.7-.9 0-1.7.8-1.7 1.7s.8 1.7 1.7 1.7c.9 0 1.7-.7 1.7-1.7zm-45.6 4.7c-.9 0-1.7.8-1.7 1.7 0 .9.8 1.7 1.7 1.7.9 0 1.7-.8 1.7-1.7 0-1-.8-1.7-1.7-1.7zm46.2 1.6c0-.9-.8-1.7-1.7-1.7s-1.7.8-1.7 1.7c0 .9.8 1.7 1.7 1.7s1.7-.7 1.7-1.7zm-46.7 4.7c-.9 0-1.7.8-1.7 1.7 0 .9.8 1.7 1.7 1.7.9 0 1.7-.8 1.7-1.7 0-1-.8-1.7-1.7-1.7zm5.1 0c-.9 0-1.7.8-1.7 1.7 0 .9.8 1.7 1.7 1.7.9 0 1.7-.8 1.7-1.7-.1-1-.8-1.7-1.7-1.7zm35.4 0c-.9 0-1.7.8-1.7 1.7 0 .9.8 1.7 1.7 1.7.9 0 1.7-.8 1.7-1.7-.1-1-.8-1.7-1.7-1.7zm5 0c-.9 0-1.7.8-1.7 1.7 0 .9.8 1.7 1.7 1.7.9 0 1.7-.8 1.7-1.7 0-1-.8-1.7-1.7-1.7zm-9.8 2c-.8 2.8.3 4.1.3 4.1s-.3 2.9-1.3 4.2c-.9 1.3-5.4-.9-5.4 4 0 0-1.7 1.3-6.5 1.3-4.7 0-6.5-1.3-6.5-1.3 0-4.8-4.5-2.7-5.4-4-.9-1.3-1.3-4.2-1.3-4.2s1.1-1.4.2-4.2c-.5-1.4-2.3-4.1-2.3-8.9C46.8 83 52.6 76 62 76s15.2 7 15.2 11.7-1.8 7.5-2.3 8.9zm-15.7.6c0-1.2-.6-2.5-1.4-3.1-.8-.5-2.5-.6-3.8-.2-1.3.4-2.5 1.6-2.7 2.6-.2 1-.1 2.4.2 3.2s1.3 1.5 2.3 1.5 2.6-.4 3.6-1c1-.5 1.8-1.9 1.8-3zm4.8 7.3s-.1-4.9-2-4.9-2 4.9-2 4.9.4.6 2 .6 2-.6 2-.6zm8.8-8.1c-.2-.9-1.4-2-2.7-2.5-1.3-.4-3-.3-3.8.2-.8.5-1.4 1.9-1.4 3s.8 2.5 1.8 3 2.6 1 3.6 1 2-.7 2.3-1.5c.3-.8.3-2.3.2-3.2z"/></svg>