<svg viewBox="0 0 124 129"><path d="M62.2 52.8C56.1 52.8 51 57.9 51 64s5 11.2 11.2 11.2S73.4 70.1 73.4 64s-5.1-11.2-11.2-11.2zm0 18.6c-4 0-7.4-3.3-7.4-7.4s3.3-7.4 7.4-7.4c4 0 7.4 3.3 7.4 7.4-.1 4-3.4 7.4-7.4 7.4zm3.7-7.4c0 2.1-1.8 3.7-3.7 3.7-1.9 0-3.7-1.8-3.7-3.7 0-1.9 1.8-3.7 3.7-3.7 1.9 0 3.7 1.6 3.7 3.7zm24.2-1.9h-9.5c-.9-8.8-7.9-15.8-16.7-16.7v-9.5c0-1.1-.9-1.9-1.9-1.9s-1.9.9-1.9 1.9v9.5c-8.8.9-15.8 7.9-16.7 16.7h-9.5c-1.1 0-1.9.9-1.9 1.9 0 1.1.9 1.9 1.9 1.9h9.5c.9 8.8 7.9 15.8 16.7 16.7v9.5c0 1.1.9 1.9 1.9 1.9s1.9-.9 1.9-1.9v-9.5c8.8-.9 15.8-7.9 16.7-16.7h9.5c1.1 0 1.9-.9 1.9-1.9 0-1.1-.9-1.9-1.9-1.9zM62.2 78.9c-8.2 0-14.9-6.7-14.9-14.9S54 49.1 62.2 49.1 77.1 55.8 77.1 64s-6.7 14.9-14.9 14.9zM36.7 58c2.3-9.5 9.8-17.2 19.5-19.5 1.1-.2 1.9.4 2.3 1.4.2 1.1-.4 1.9-1.4 2.3-8.2 1.9-14.7 8.4-16.7 16.7-.2.9-1.1 1.4-1.8 1.4h-.4c-.9-.3-1.6-1.2-1.5-2.3zm21.8 30c-.2.9-1.1 1.4-1.8 1.4h-.4c-9.5-2.3-17.2-9.8-19.5-19.5-.2-1.1.4-1.9 1.4-2.3 1.1-.2 1.9.4 2.3 1.4 1.9 8.2 8.4 14.7 16.7 16.7.9.2 1.5 1.3 1.3 2.3zm29.1-18c-2.3 9.5-9.8 17.2-19.5 19.5h-.5c-.9 0-1.6-.5-1.8-1.4-.2-1.1.4-1.9 1.4-2.3 8.2-1.9 14.7-8.4 16.7-16.7.2-1.1 1.2-1.6 2.3-1.4.9.3 1.6 1.2 1.4 2.3zM65.9 40c.2-1.1 1.2-1.6 2.3-1.4 9.5 2.3 17.2 9.8 19.5 19.5.2 1.1-.4 1.9-1.4 2.3h-.4c-.9 0-1.6-.5-1.8-1.4-1.9-8.2-8.4-14.7-16.7-16.7-1.2-.2-1.7-1.3-1.5-2.3z"/></svg>