<svg viewBox="0 0 124 129"><path opacity=".5" d="M98 36.6L80 68.2 62 99.9 44 68.2 26 36.6h72m0-2H26c-.7 0-1.4.4-1.7 1-.4.6-.4 1.4 0 2l18 31.6 18 31.7c.4.6 1 1 1.7 1s1.4-.4 1.7-1l18-31.7 18-31.6c.4-.6.3-1.4 0-2-.3-.6-1-1-1.7-1zm0 4z"/><path opacity=".25" d="M63.9 83.1v2.1l23.2-13.4-1.7-1-21.5-12.3v24.6zM38.6 70.8l-1.7 1 23.2 13.3V58.5L38.6 70.8z"/><path opacity=".5" d="M35 68.5l1.7-1 21.5-12.3-21.5-12.4-1.7-1v26.7zm52.3-25.6L65.9 55.2l21.4 12.3 1.7 1V41.9l-1.7 1z"/><path d="M38.6 39.5L60 51.9V25.2L36.9 38.5l1.7 1zm11.9-3.3l1.6-3.2 1.4 3.1 3.5.6-2.5 2.4.7 3.5-3.1-1.7-3.2 1.7.7-3.5-2.6-2.4 3.5-.5zm36.6 2.3L63.9 25.2v26.7l21.4-12.3 1.8-1.1zm-11.9 4.1l-3.1-1.7-3.2 1.7.7-3.5-2.6-2.4 3.5-.5 1.6-3.2 1.4 3.1 3.5.6-2.5 2.4.7 3.5z"/><path opacity=".75" d="M34.7 89.7c1-3.3.1-6.9-2.5-9.3-2.2 3.6.1 7.7 2.5 9.3zm-6.2-14.6c-1.1 1.1-2.8 5.7.9 9.4 1.2-2.6 1.5-6.7-.9-9.4zm-3.4-32.8c-4.8 4.6-5.4 8.2-4 12.8 2.1-1.9 3.9-7.3 4-12.8zM25 78c1.7-2.2 2.9-5 .7-8.3-2.5 1.3-2.2 5.8-.7 8.3zm.3-13.9c-2.8 1.3-4.1 4.6-3.1 7.3 1.9-1.4 4.3-4.6 3.1-7.3zm-.2-6.3c-1.1.3-4.4 2.8-3.8 7.3 2.2-1.1 4.8-3.2 3.8-7.3zm.7-6c-2.1.6-4.6 4.1-4.5 7.4 2-.9 5.1-4.5 4.5-7.4zm9.4 38.7c-3-2.8-7.9-3.7-10.2-2.8 1.9 3.4 6.4 4.8 10 3 0-.1.1-.2.2-.2zm1.7-4.3c-.7 1.3-.9 5.2 3.9 7.6.3-2.6-.8-6.8-3.9-7.6zm-5.8 7.4c2.9 2.7 7.4 3.1 10.8.9-2.2-1-7.5-2.4-10.8-.9zm16.4 2.9c-.2-2.6-1.7-5.9-5.6-6.7-.3 1.5.2 5.3 5.6 6.7zm1.1.7c-2.4-.7-9.1-1.4-12 .8 3.8 2.4 8.8 2.1 12-.8zm.2-4.3c-.2 3.2 3.2 5 7.1 5.3-.8-3.2-4.3-4.7-7.1-5.3zm7 5.7c-2.5-.2-8.5-.6-10 1.4 7.1 2.6 9.9.2 10-1.4zM29.6 85.5c-.9-1.1-5.9-5.3-8.7-5.2-.3 5.6 5.9 5.2 8.7 5.2zm-4.2-6.2c-1.2-2.2-4.3-6.3-7.7-6.7-.2 4.5 3.9 6.8 7.7 6.7zm-3.3-6.8c-.6-2-1.2-5.4-4.7-7.1-1.2 4 2.6 6.8 4.7 7.1zm-1-6.4c-.2-2.1-1.6-6.3-3.7-7-1.8 5 2.3 6.5 3.7 7zm-.2-5.5c.2-1.9.4-6.4-2.4-9.1-1.9 6.2 1.4 8.7 2.4 9.1zm68.3 28.3c2.4-1.7 4.7-5.7 2.5-9.2-2.6 2.5-3.6 6-2.5 9.2zm6.2-14.3c-2.4 2.7-2.1 6.7-.9 9.2 3.8-3.5 2-8 .9-9.2zm3.4-32.3c.2 5.3 1.9 10.7 4 12.6 1.3-4.5.7-8.1-4-12.6zm-.7 26.8c-2.2 3.3-.9 6 .7 8.2 1.6-2.3 1.9-6.8-.7-8.2zm.5-5.3c-1.2 2.8 1.1 5.8 3.1 7.2 1.1-2.9-.3-6-3.1-7.2zm.2-6.2c-.9 3.9 1.7 6.1 3.8 7.2.5-4.5-2.7-7-3.8-7.2zm-.7-6c-.6 3 2.5 6.5 4.5 7.3.2-3.2-2.4-6.8-4.5-7.3zm.8 35.3c-2.2-.9-7.2.1-10.2 2.8 3.6 2 8 .9 10.1-2.6.1.1.1-.1.1-.2zm-15.9 6c4.9-2.3 4.7-6.1 3.9-7.5-3 .9-4.1 5-3.9 7.5zm9.8-.1c-3.4-1.6-8.6-.1-10.8.9 3.3 2.1 7.9 1.8 10.8-.9zm-16.4 2.8c5.5-1.4 6-5.1 5.6-6.6-3.9.8-5.4 4.2-5.6 6.6zm-1.1.7c3.4 3 8.3 3.2 12 .8-3-2.3-9.7-1.5-12-.8zm-.2-4.2c-2.8.6-6.4 2.1-7.1 5.2 3.9-.2 7.5-2.1 7.1-5.2zm-7 5.6c0 1.6 2.9 3.9 10 1.4-1.4-1.9-7.4-1.6-10-1.4zm34.9-18c-2.8-.1-7.9 4-8.7 5.1 2.8 0 9 .4 8.7-5.1zm3.2-7.6c-3.5.4-6.5 4.5-7.7 6.6 3.8.1 7.9-2.2 7.7-6.6zm.2-7.1c-3.4 1.7-4.1 5-4.7 7 2.2-.3 6-3 4.7-7zm.1-6.2c-2.2.7-3.6 4.8-3.7 6.9 1.4-.5 5.5-1.9 3.7-6.9zm-3.5 1.5c1-.4 4.3-3 2.4-9-2.8 2.8-2.6 7.2-2.4 9z"/></svg>