<svg viewBox="0 0 124 129"><path d="M91 51.4c-1.4-1.4-2-4.2-1.2-6 .8-1.8 0-4-2-4.8-1.8-.8-3.4-3.2-3.4-5.2s-1.6-3.8-3.8-3.8c-2 0-4.4-1.6-5.2-3.4-.8-1.8-3-2.8-4.8-2-1.8.8-4.6.2-6-1.2-1.4-1.4-3.8-1.4-5.2 0-1.4 1.4-4.2 2-6 1.2-1.8-.8-4 0-4.8 2-.8 1.8-3 3.4-5.2 3.4s-3.8 1.6-3.8 3.8c0 2.2-1.4 4.4-3.4 5.2-1.8.8-2.8 3-2 4.8s.2 4.6-1.2 6c-1.4 1.4-1.4 3.8 0 5.2 1.4 1.4 2 4.2 1.2 6s0 4 2 4.8c1.8.8 3.4 3.2 3.4 5.2s1.6 3.8 3.8 3.8c2.2 0 4.4 1.6 5.2 3.4.8 1.8 3 2.8 4.8 2 1.8-.8 4.6-.2 6 1.2 1.4 1.4 3.8 1.4 5.2 0 1.4-1.4 4.2-2 6-1.2 1.8.8 4 0 4.8-2 .8-1.8 3-3.4 5.2-3.4 2 0 3.8-1.6 3.8-3.8s1.4-4.4 3.4-5.2c1.8-.8 2.8-3 2-4.8-.8-1.8-.2-4.6 1.2-6 1.3-1.4 1.3-3.6 0-5.2zM82.4 56c-1 1-1.4 3-.8 4.2.6 1.4 0 2.8-1.4 3.4-1.4.6-2.4 2.2-2.4 3.6s-1.2 2.6-2.6 2.6c-1.4 0-3 1-3.6 2.4-.6 1.4-2.2 2-3.4 1.4-1.4-.6-3.2-.2-4.2.8s-2.6 1-3.8 0c-1-1-3-1.4-4.2-.8-1.2.6-2.8 0-3.4-1.4-.6-1.4-2.2-2.4-3.6-2.4s-2.6-1.2-2.6-2.6c0-1.6-1-3.2-2.4-3.6s-2-2.2-1.4-3.4c.6-1.4.2-3.2-.8-4.2s-1-2.6 0-3.8c1-1.2 1.4-3 .8-4.2-.6-1.4 0-2.8 1.4-3.4 1.4-.6 2.4-2.2 2.4-3.6s1.2-2.6 2.6-2.6c1.4 0 3-1 3.6-2.4.6-1.4 2.2-2 3.4-1.4 1.2.6 3.2.2 4.2-.8s2.6-1 3.8 0c1.2 1 3 1.4 4.2.8 1.4-.6 2.8 0 3.4 1.4.6 1.4 2.2 2.4 3.6 2.4s2.6 1.2 2.6 2.6 1 3.2 2.4 3.6c1.4.4 2 2.2 1.4 3.4-.6 1.4-.2 3.2.8 4.2s1 2.6 0 3.8zM59.2 86.6c-1.6-1.6-4.6-2.2-6.6-1.4-2.2.8-4.4-.2-5.4-2.2-.8-1.6-2.4-3.2-4.2-3.6l-6.4 18.8L49 94.4l7.6 9.6 5-16c-1-.4-1.8-.8-2.4-1.4zm18-3.6c-.8 2.2-3.2 3.2-5.4 2.2-2.2-.8-5.2-.2-6.6 1.4-.8.8-2.2 1.4-3.4 1.2l8 16 6.6-10.4 11.2 1L80 80c-1.4.6-2.4 1.8-2.8 3zM58.6 63.8c-.8 0-1.4-.2-1.8-.8l-5.4-5.2c-1-1-1-2.8 0-3.8s2.8-1 3.8 0l3.4 3.4L69 46c1-1 2.6-1.2 3.8-.2 1 1 1.2 2.6.2 3.8L60.6 63c-.6.6-1.4.8-2 .8z"/></svg>