<svg viewBox="0 0 124 129"><path opacity=".5" d="M81.5 98.5h-39l-1-.6L22 64.1V63l19.5-33.9 1-.6h39l1 .6L102 62.9V64L82.5 97.9l-1 .6zm-38.4-2.2h37.7l18.9-32.8-18.8-32.8H43.1L24.3 63.5l18.8 32.8z"/><path opacity=".25" d="M31.1 50.3L22 34.6h35.6l-8.8 15.1-9 15.7-8.7-15.1zm53.1 15.1L93 50.3l9-15.7H66.4l8.8 15.2 9 15.6z"/><path d="M71 52.2l9.1 15.7H43.8l9.1-15.7 8.8-15.1.3-.6.3.6L71 52.2zm-4.9 6.2l4.2-4-5.8-.8-2.5-5.3-2.6 5.3-5.8.8 4.2 4-1.1 5.8 5.2-2.8 5.2 2.8c.1 0-1-5.8-1-5.8zM43.9 72.6l9 15.7 9.1 15.6 9-15.6 9.1-15.7H43.9zm-7.1 3.2l-2.6-5.2-2.5 5.3-5.8.8 4.2 4-1.1 5.8 5.2-2.8 5.2 2.8-1.1-5.8 4.3-4-5.8-.9zm55.5 0l-2.5-5.2-2.6 5.3-5.8.8 4.3 4-1.1 5.8 5.2-2.8 5.2 2.8-1.1-5.8 4.2-4-5.8-.9z"/></svg>