<svg viewBox="0 0 453 80"><g data-name="Lockup"><path data-name="Heading - border" d="M453 73.6H0v-26h453zm-452-1h451v-24H1z" opacity=".5"/><path data-name="Heading - text" d="M15.8 77.7a16.9 16.9 0 0 1-7-6.5 17.7 17.7 0 0 1-2.5-9.5 17.4 17.4 0 0 1 2.5-9.4 16.9 16.9 0 0 1 7-6.5 20.8 20.8 0 0 1 10-2.4 22.1 22.1 0 0 1 9.1 1.8 17.8 17.8 0 0 1 6.6 5.2L34 57.1a9.5 9.5 0 0 0-7.6-4.1 7.8 7.8 0 0 0-6 2.4 8.6 8.6 0 0 0-2.2 6.3 8.9 8.9 0 0 0 2.2 6.4 7.8 7.8 0 0 0 6 2.4 9.5 9.5 0 0 0 7.6-4.1l7.5 6.6a16.8 16.8 0 0 1-6.6 5.2 22.1 22.1 0 0 1-9.1 1.8 20.8 20.8 0 0 1-10-2.3zm29.1-33.5h11.8v25.9h15.8v9.1H44.9zm55.2 28.9H86.8l-2.4 6.1h-12l15.3-35h11.6l15.3 35h-12.2zm-3.3-8.5l-3.4-8.8-3.4 8.8zM151 44.2v35h-9.7L128 63.3v15.9h-11.5v-35h9.7l13.3 15.9V44.2zm77.7 0l-11.2 35h-12.7l-5.6-18.7-6 18.7h-12.6l-11.2-35h12.1l6.1 19.9 6.5-19.9h10.8l6.1 20.2 6.5-20.2zm25.2 28.9h-13.3l-2.4 6.1h-12l15.3-35h11.6l15.3 35h-12.2zm-3.3-8.5l-3.4-8.8-3.4 8.8zm34.7 5.8h-3.2v8.8h-11.8v-35h16.9a21.7 21.7 0 0 1 8.4 1.6 12.8 12.8 0 0 1 5.6 4.6 12.7 12.7 0 0 1 1.9 7 12 12 0 0 1-1.7 6.6 11.1 11.1 0 0 1-4.9 4.4l7.4 10.8h-12.6zm4.7-16a5.3 5.3 0 0 0-3.6-1.1h-4.3v8.2h4.3a5.3 5.3 0 0 0 3.6-1 4.1 4.1 0 0 0 1.2-3.1 3.8 3.8 0 0 0-1.2-3zm29.4-1.3v6H334V68h-14.6v11.2h-11.8v-35H336v8.9zm43 20h-13.3l-2.4 6.1h-12l15.3-35h11.6l15.3 35h-12.2zm-3.3-8.5l-3.4-8.8-3.4 8.8zm34.7 5.8h-3.2v8.8h-11.8v-35h16.9a21.7 21.7 0 0 1 8.4 1.6 12.8 12.8 0 0 1 5.6 4.6 12.7 12.7 0 0 1 1.9 7 12 12 0 0 1-1.7 6.6 11.1 11.1 0 0 1-4.9 4.4l7.4 10.8h-12.6zm4.7-16a5.3 5.3 0 0 0-3.6-1.1h-4.3v8.2h4.3a5.3 5.3 0 0 0 3.6-1 4.1 4.1 0 0 0 1.2-3.1 3.8 3.8 0 0 0-1.2-3zm46.7 15.9v8.9h-29.1v-35h28.4v8.9h-16.8v4.1h14.8v8.5h-14.8v4.6z"/><path data-name="Kicker - border" d="M448.5 27.6H5.5v-5h443z" opacity=".75"/><path data-name="Kicker - text" d="M11.8.2h6.4a8.7 8.7 0 0 1 4 .9 7.2 7.2 0 0 1 2.7 2.5 6.9 6.9 0 0 1 1 3.6 7.3 7.3 0 0 1-1 3.7 7.2 7.2 0 0 1-2.7 2.5 8.7 8.7 0 0 1-4 .8h-6.4zM18 11.6a4.5 4.5 0 0 0 3.3-1.2 3.9 3.9 0 0 0 1.3-3.2 3.9 3.9 0 0 0-1.3-3.1A4.5 4.5 0 0 0 18 2.9h-3v8.7zm29.1 0v2.6H36.3V.2h10.5v2.6h-7.3v3.1H46v2.5h-6.5v3.2zM59 14a9 9 0 0 1-2.4-1.1l1-2.5a7.6 7.6 0 0 0 2.2 1.1 10.1 10.1 0 0 0 2.5.4 4.6 4.6 0 0 0 2-.4 1.5 1.5 0 0 0 .7-1.1 1.5 1.5 0 0 0-.4-.9l-1-.5-1.7-.4-2.6-.8a3 3 0 0 1-1.7-1.2 3.3 3.3 0 0 1-.8-2.2 3.2 3.2 0 0 1 .7-2.2 4.1 4.1 0 0 1 2-1.6 7.6 7.6 0 0 1 3.2-.6 10.9 10.9 0 0 1 2.6.3 7.9 7.9 0 0 1 2.3.9l-1 2.5a8.2 8.2 0 0 0-3.9-1.1 3.5 3.5 0 0 0-2 .4 1.5 1.5 0 0 0-.7 1.2c0 .5.3.8.8 1.1l2.3.7 2.6.7a4.3 4.3 0 0 1 1.7 1.2 3.3 3.3 0 0 1 .8 2.2 4.2 4.2 0 0 1-2.7 3.8 8.1 8.1 0 0 1-3.3.6A11.9 11.9 0 0 1 59 14zM81.1 2.9h-4.5V.2h12.2v2.7h-4.5v11.3h-3.2zM98.5.2h3.2v14h-3.2zm27.3 0v14h-2.6l-7-8.5v8.5H113V.2h2.7l6.9 8.5V.2zm18 9.1v4.9h-3.2v-5l-5.4-9h3.4l3.7 6.3 3.8-6.3h3.1z"/></g></svg>