<svg viewBox="0 0 276 162.1"><g data-name="Lockup"><path data-name="Heading - border" d="M276 158.2H0v-15.8h276zM.6 157.6h274.8V143H.6z" opacity=".5"/><path data-name="Heading - text" d="M9.6 160.7a9.9 9.9 0 0 1-4.2-3.9 10.6 10.6 0 0 1-1.6-5.8 10.3 10.3 0 0 1 1.6-5.8 9.9 9.9 0 0 1 4.2-3.9 12.5 12.5 0 0 1 6.1-1.5 14.3 14.3 0 0 1 5.6 1.1 11.3 11.3 0 0 1 4 3.2l-4.6 4.1a5.6 5.6 0 0 0-4.6-2.5 4.9 4.9 0 0 0-3.7 1.4 6.5 6.5 0 0 0 0 7.8 5.3 5.3 0 0 0 3.7 1.4 5.6 5.6 0 0 0 4.6-2.5l4.6 4.1a11.1 11.1 0 0 1-4 3.1 12.7 12.7 0 0 1-5.6 1.1 12.5 12.5 0 0 1-6.1-1.4zm17.7-20.4h7.2v15.8h9.7v5.5H27.3zM61 157.9h-8.1l-1.5 3.7h-7.3l9.4-21.3h7l9.3 21.3h-7.4zm-2-5.1l-2.1-5.4-2 5.4zm33-12.5v21.3h-5.9L78 152v9.6h-7v-21.3h5.9L85 150v-9.7zm47.3 0l-6.8 21.3h-7.7l-3.4-11.3-3.7 11.3H110l-6.8-21.3h7.4l3.7 12.1 3.9-12.1h6.7l3.7 12.3 3.9-12.3zm15.4 17.6h-8.1l-1.5 3.7h-7.3l9.4-21.3h7l9.3 21.3h-7.4zm-2-5.1l-2.1-5.4-2 5.4zm21.1 3.5h-1.9v5.3h-7.2v-21.3H175a11.6 11.6 0 0 1 5.1 1 7.3 7.3 0 0 1 3.4 2.8 7.5 7.5 0 0 1 1.2 4.3 8.8 8.8 0 0 1-1 4 7.9 7.9 0 0 1-3 2.7l4.4 6.5h-7.6zm2.9-9.8a3.4 3.4 0 0 0-2.2-.6h-2.6v5h2.6a3.4 3.4 0 0 0 2.2-.7 2.1 2.1 0 0 0 .7-1.8 2.5 2.5 0 0 0-.7-1.9zm17.9-.8v3.7h8.9v5.4h-8.9v6.8h-7.2v-21.3h17.3v5.4zm26.2 12.2h-8.1l-1.4 3.7h-7.4l9.4-21.3h7l9.4 21.3h-7.5zm-2-5.1l-2.1-5.4-2 5.4zm21.1 3.5H238v5.3h-7.2v-21.3h10.3a11.6 11.6 0 0 1 5.1 1 7.3 7.3 0 0 1 3.4 2.8 7.5 7.5 0 0 1 1.2 4.3 8.8 8.8 0 0 1-1 4 7.9 7.9 0 0 1-3 2.7l4.5 6.5h-7.7zm2.9-9.8a3.4 3.4 0 0 0-2.2-.6H238v5h2.6a3.4 3.4 0 0 0 2.2-.7 2.1 2.1 0 0 0 .7-1.8 2.5 2.5 0 0 0-.7-1.9zm28.4 9.7v5.4h-17.7v-21.3h17.3v5.4h-10.2v2.5h9v5.2h-9v2.8z"/><path data-name="Kicker - border" d="M273.3 130.2H3.4v-3.1h269.9z" opacity=".75"/><path data-name="Kicker - text" d="M7.2 113.5h3.9a6 6 0 0 1 2.4.5 5 5 0 0 1 1.7 1.5 4.4 4.4 0 0 1 .6 2.3 4 4 0 0 1-.6 2.2 3.5 3.5 0 0 1-1.7 1.5 4.7 4.7 0 0 1-2.4.5H7.2zm3.8 6.9a2.7 2.7 0 0 0 2-.7 2.6 2.6 0 0 0 .8-1.9 2.8 2.8 0 0 0-.8-2 3.2 3.2 0 0 0-2-.7H9.2v5.3zm17.7.1v1.5h-6.6v-8.5h6.4v1.6h-4.4v1.8H28v1.6h-3.9v2zm7.3 1.4a3.5 3.5 0 0 1-1.5-.7l.6-1.5 1.3.7 1.5.2 1.3-.2a1 1 0 0 0 .4-.7.5.5 0 0 0-.3-.5.9.9 0 0 0-.6-.3l-1-.3-1.6-.5a2.3 2.3 0 0 1-1-.7 2.2 2.2 0 0 1-.5-1.4 2.8 2.8 0 0 1 .4-1.3 4 4 0 0 1 1.2-1 6 6 0 0 1 2-.3 4.1 4.1 0 0 1 1.6.2l1.4.5-.6 1.5a5.3 5.3 0 0 0-2.4-.6c-.6 0-1 0-1.2.2a.8.8 0 0 0 0 1.4l1.4.4 1.6.5a2.6 2.6 0 0 1 1.1.7 1.8 1.8 0 0 1 .4 1.3 2.3 2.3 0 0 1-.4 1.4 2.3 2.3 0 0 1-1.2.9 4 4 0 0 1-2 .4 5.8 5.8 0 0 1-1.9-.3zm13.4-6.8h-2.7v-1.6h7.4v1.6h-2.7v6.9h-2zm10.6-1.6h2v8.5h-2zm16.7 0v8.5H75l-4.2-5.1v5.1h-2v-8.5h1.7l4.2 5.2v-5.2zm10.9 5.5v3h-1.9v-3l-3.3-5.5h2l2.3 3.8 2.3-3.8h1.9z"/></g><path data-name="Icon" d="M138.9 111.2h.8v11H136v-11zm-2.1 12.3h-.8v3.2a13.9 13.9 0 0 0 .4 3.5 9.4 9.4 0 0 0 .4 1.6 11.9 11.9 0 0 0 1.1 2.6 20 20 0 0 0 1-2.6 9.8 9.8 0 0 0 .5-1.6 20.7 20.7 0 0 0 .3-3.5v-3.2zm-30.9-95.7h64.7a1.5 1.5 0 0 0 1.5-1.5 1.5 1.5 0 0 0-1.5-1.5h-64.7a1.5 1.5 0 0 0-1.4 1.5 1.5 1.5 0 0 0 1.4 1.5zm67.1 2.5a1.5 1.5 0 0 1-1.3 1.5v76.5h-28.6V35.9h-.1a14.4 14.4 0 0 0-3.3 5.2v68.8H136V41.1a14.4 14.4 0 0 0-3.3-5.2v72.4h-28.6V31.7a1.4 1.4 0 0 1-1.1-1.4 1.6 1.6 0 0 1 1.1-1.4h18.8a17.2 17.2 0 0 1 9.5 2.9l.3.2a16.7 16.7 0 0 1 4.7 5.2l.5.8.5-.8a16.7 16.7 0 0 1 4.7-5.2l.3-.2a17.2 17.2 0 0 1 9.5-2.9h18.8a1.4 1.4 0 0 1 1.3 1.4zm-57.5 16.1a3.6 3.6 0 0 0-3.2-1.8 3.4 3.4 0 0 0-1.9.5 3.6 3.6 0 0 0-1.3 5 3.7 3.7 0 0 0 3.2 1.9 3.8 3.8 0 0 0 3.2-5.6zm9.5 9.5a3.7 3.7 0 0 0-1.8-.5 3.6 3.6 0 0 0-3.2 1.9 3.8 3.8 0 0 0 1.3 5.1 4.1 4.1 0 0 0 1.9.4 3.6 3.6 0 0 0 3.2-1.8 3.7 3.7 0 0 0-1.4-5.1zm2.6-23.3a15 15 0 0 0-4.7-.8h-17.2c1.2 1.1 6.1 1.9 11.9 1.9a36.8 36.8 0 0 0 10-1.1zm28.5 24.6a3.8 3.8 0 0 0-3.2-1.8 3.4 3.4 0 0 0-1.9.5 3.7 3.7 0 0 0 1.9 6.9 3.4 3.4 0 0 0 1.9-.5 3.8 3.8 0 0 0 1.3-5.1zm9.5-12.2a3.1 3.1 0 0 0-1.8-.5 3.7 3.7 0 0 0-1.9 6.9 3.1 3.1 0 0 0 1.8.5 3.7 3.7 0 0 0 3.2-1.8 3.5 3.5 0 0 0-1.3-5.1zm4.4-13.2h-17.1a14.5 14.5 0 0 0-4.7.8 35.8 35.8 0 0 0 10 1.1c5.8 0 10.6-.8 11.8-1.9zm-59.6-10a4.5 4.5 0 0 0 1.9.5 3.7 3.7 0 0 0 3.2-1.9 3.7 3.7 0 0 0-1.4-5 3.1 3.1 0 0 0-1.8-.5 3.5 3.5 0 0 0-3.2 1.8 3.6 3.6 0 0 0 1.3 5.1zm12.7-10.4a4.1 4.1 0 0 0 1.9-.5 3.7 3.7 0 0 0 1.4-5.1 3.8 3.8 0 0 0-3.3-1.8 3.1 3.1 0 0 0-1.8.5 3.8 3.8 0 0 0-1.4 5.1 4 4 0 0 0 3.2 1.8zm37.4 9a3.8 3.8 0 0 0 3.2 1.8 3.8 3.8 0 0 0 3.2-5.6 3.9 3.9 0 0 0-3.3-1.9 3.2 3.2 0 0 0-1.8.6 3.6 3.6 0 0 0-1.3 5.1zm-9.6-9.6a3.2 3.2 0 0 0 1.8.6 3.9 3.9 0 0 0 3.3-1.9 3.8 3.8 0 0 0-1.4-5.1 4.1 4.1 0 0 0-1.9-.4 3.7 3.7 0 0 0-3.2 1.8 3.6 3.6 0 0 0 1.4 5zM138 7.4a3.6 3.6 0 0 0 3.7-3.7A3.7 3.7 0 0 0 138 0a3.7 3.7 0 0 0-3.7 3.7 3.6 3.6 0 0 0 3.7 3.7z"/></svg>