<svg viewBox="0 0 453 427.4"><g data-name="Lockup"><path data-name="Heading - border" d="M453 420.9H0v-26h453zm-452-1h451v-24H1z" opacity=".5"/><path data-name="Heading - text" d="M15.8 425a16.9 16.9 0 0 1-7-6.5 19.1 19.1 0 0 1 0-18.9 16.9 16.9 0 0 1 7-6.5 20.8 20.8 0 0 1 10-2.3 22.1 22.1 0 0 1 9.1 1.8 16.8 16.8 0 0 1 6.6 5.2l-7.5 6.6a9.5 9.5 0 0 0-7.6-4.1 7.8 7.8 0 0 0-6 2.4 8.9 8.9 0 0 0-2.2 6.4 8.8 8.8 0 0 0 2.2 6.3 7.8 7.8 0 0 0 6 2.4 9.5 9.5 0 0 0 7.6-4.1l7.5 6.7a17.8 17.8 0 0 1-6.6 5.2 22.1 22.1 0 0 1-9.1 1.8 20.8 20.8 0 0 1-10-2.4zm29.1-33.4h11.8v25.8h15.8v9.2H44.9zm55.2 28.9H86.8l-2.4 6.1h-12l15.3-35h11.6l15.3 35h-12.2zm-3.3-8.5l-3.4-8.8L90 412zm54.2-20.4v35h-9.7L128 410.7v15.9h-11.5v-35h9.7l13.3 15.9v-15.9zm77.7 0l-11.2 35h-12.7l-5.6-18.7-6 18.7h-12.6l-11.2-35h12.1l6.1 19.9 6.5-19.9h10.8l6.1 20.1 6.5-20.1zm25.2 28.9h-13.3l-2.4 6.1h-12l15.3-35h11.6l15.3 35h-12.2zm-3.3-8.5l-3.4-8.8-3.4 8.8zm34.7 5.8h-3.2v8.8h-11.8v-35h16.9a20 20 0 0 1 8.4 1.6 12.2 12.2 0 0 1 5.6 4.6 12.5 12.5 0 0 1 1.9 7 11.7 11.7 0 0 1-1.7 6.5 11.3 11.3 0 0 1-4.9 4.5l7.4 10.8h-12.6zm4.7-16.1a5.3 5.3 0 0 0-3.6-1h-4.3v8.2h4.3a5.3 5.3 0 0 0 3.6-1.1 3.8 3.8 0 0 0 1.2-3 4 4 0 0 0-1.2-3.1zm29.4-1.2v6H334v8.9h-14.6v11.2h-11.8v-35H336v8.9zm43 20h-13.3l-2.4 6.1h-12l15.3-35h11.6l15.3 35h-12.2zm-3.3-8.5l-3.4-8.8-3.4 8.8zm34.7 5.8h-3.2v8.8h-11.8v-35h16.9a20 20 0 0 1 8.4 1.6 12.2 12.2 0 0 1 5.6 4.6 12.5 12.5 0 0 1 1.9 7 11.7 11.7 0 0 1-1.7 6.5 11.3 11.3 0 0 1-4.9 4.5l7.4 10.8h-12.6zm4.7-16.1a5.3 5.3 0 0 0-3.6-1h-4.3v8.2h4.3a5.3 5.3 0 0 0 3.6-1.1 3.8 3.8 0 0 0 1.2-3 4 4 0 0 0-1.2-3.1zm46.7 16v8.9h-29.1v-35h28.4v8.9h-16.8v4.1h14.8v8.5h-14.8v4.6z"/><path data-name="Kicker - border" d="M448.5 374.9H5.5v-5h443z" opacity=".75"/><path data-name="Kicker - text" d="M11.8 347.6h6.4a8.7 8.7 0 0 1 4 .8 7.2 7.2 0 0 1 2.7 2.5 7.3 7.3 0 0 1 1 3.7 6.9 6.9 0 0 1-1 3.6 7.2 7.2 0 0 1-2.7 2.5 8.7 8.7 0 0 1-4 .9h-6.4zm6.2 11.3a4.5 4.5 0 0 0 3.3-1.2 3.9 3.9 0 0 0 1.3-3.1 3.9 3.9 0 0 0-1.3-3.2 4.5 4.5 0 0 0-3.3-1.2h-3v8.7zm29.1.1v2.6H36.3v-14h10.5v2.6h-7.3v3H46v2.5h-6.5v3.3zm11.9 2.3a6.7 6.7 0 0 1-2.4-1.1l1-2.5a7.6 7.6 0 0 0 2.2 1.1 6.9 6.9 0 0 0 2.5.4 3.5 3.5 0 0 0 2-.4 1.5 1.5 0 0 0 .7-1.1 1.2 1.2 0 0 0-.4-.8 3.3 3.3 0 0 0-1-.6l-1.7-.4-2.6-.8a3 3 0 0 1-1.7-1.2 3.1 3.1 0 0 1-.8-2.2 3.4 3.4 0 0 1 .7-2.2 4.1 4.1 0 0 1 2-1.6 7.6 7.6 0 0 1 3.2-.6 10.9 10.9 0 0 1 2.6.3 8 8 0 0 1 2.3 1l-1 2.4a8.2 8.2 0 0 0-3.9-1.1 3.4 3.4 0 0 0-2 .5 1.2 1.2 0 0 0-.7 1.1c0 .5.3.8.8 1.1l2.3.7 2.6.7a4.3 4.3 0 0 1 1.7 1.2 3.4 3.4 0 0 1 .8 2.3 3.8 3.8 0 0 1-.7 2.1 4.1 4.1 0 0 1-2 1.6 8.1 8.1 0 0 1-3.3.6 11.9 11.9 0 0 1-3.2-.5zm22.1-11.1h-4.5v-2.6h12.2v2.6h-4.5v11.4h-3.2zm17.4-2.6h3.2v14h-3.2zm27.3 0v14h-2.6l-7-8.5v8.5H113v-14h2.7l6.9 8.5v-8.5zm18 9v5h-3.2v-5l-5.4-9h3.4l3.7 6.2 3.8-6.2h3.1z"/></g><path data-name="Icon" d="M229.2 317.7h2.3v31.4h-10.7v-31.4zm-6.1 35.1h-2.3v9.2a54.5 54.5 0 0 0 1 9.9 36.2 36.2 0 0 0 1.3 4.7 47.8 47.8 0 0 0 3 7.4 60.7 60.7 0 0 0 3.1-7.4c.4-1.5.9-3.1 1.2-4.7a46.2 46.2 0 0 0 1.1-9.9v-9.2zM134.8 79.4h184.9a4.1 4.1 0 0 0 4.1-4.1v-.2a4.1 4.1 0 0 0-4.1-4.1H134.8a4.1 4.1 0 0 0-4.1 4.1v.2a4.1 4.1 0 0 0 4.1 4.1zm191.7 7.2a4.2 4.2 0 0 1-3.8 4.2v218.5H241V102.6a38.9 38.9 0 0 0-9.4 14.8v196.5h-10.8V117.4a40.1 40.1 0 0 0-9.4-14.8l-.2-.2v206.9h-81.6V90.7a4.3 4.3 0 0 1-3.1-4.1 4.2 4.2 0 0 1 3.1-4v-.2h53.7a48.6 48.6 0 0 1 27.1 8.4l.9.7a47.5 47.5 0 0 1 13.5 14.7l1.4 2.5 1.4-2.5a47.4 47.4 0 0 1 13.5-14.7l.9-.7a48.6 48.6 0 0 1 27.1-8.4h53.7a4.4 4.4 0 0 1 3.7 4.2zm-164.3 46a10.6 10.6 0 0 0-18.4 10.6 10.7 10.7 0 0 0 9.2 5.2 10 10 0 0 0 5.3-1.4 10.6 10.6 0 0 0 3.9-14.4zm27.3 27.2a10.5 10.5 0 0 0-5.4-1.5 10.3 10.3 0 0 0-9.1 5.4 10.4 10.4 0 0 0 9.1 15.8 10.6 10.6 0 0 0 5.4-19.7zm7.2-66.6a39.9 39.9 0 0 0-13.5-2.4h-49c3.5 3.1 17.3 5.4 33.9 5.4 11.9 0 22.4-1.2 28.6-3zm81.6 70.3a10.8 10.8 0 0 0-9.2-5.3 10.1 10.1 0 0 0-5.3 1.5 10.6 10.6 0 0 0 5.3 19.8 10.4 10.4 0 0 0 5.3-1.5 10.7 10.7 0 0 0 3.9-14.5zm27.1-35a10.7 10.7 0 0 0-5.3-1.5 10.4 10.4 0 0 0-9.2 5.4 10.7 10.7 0 0 0 3.8 14.5 10.7 10.7 0 0 0 14.5-3.8 10.7 10.7 0 0 0-3.8-14.6zM318 90.8h-49a41.3 41.3 0 0 0-13.5 2.4c6.3 1.8 16.7 3 28.6 3 16.6 0 30.4-2.3 33.9-5.4zM147.7 62.2a10.3 10.3 0 0 0 14.4-3.8 10.6 10.6 0 1 0-18.3-10.7 10.5 10.5 0 0 0 3.9 14.5zm36.4-29.6a9.8 9.8 0 0 0 5.2-1.5 10.5 10.5 0 0 0-5.2-19.7 10.3 10.3 0 0 0-5.3 1.4h-.1a10.6 10.6 0 0 0-3.8 14.5 10.7 10.7 0 0 0 9.2 5.3zm106.6 25.6a10.7 10.7 0 0 0 9.2 5.2 10.3 10.3 0 0 0 5.3-1.4 10.6 10.6 0 0 0 3.8-14.5.1.1 0 0 0-.1-.1 10.5 10.5 0 0 0-9.1-5.3 10.7 10.7 0 0 0-9.1 16.1zM263.4 31a9.9 9.9 0 0 0 5.2 1.4 10.8 10.8 0 0 0 9.3-5.3 10.6 10.6 0 0 0-3.9-14.4h-.1a10.3 10.3 0 0 0-5.3-1.4 10.7 10.7 0 0 0-9.2 5.3 10.6 10.6 0 0 0 4 14.4zm-36.9-9.8a10.5 10.5 0 0 0 10.6-10.6A10.5 10.5 0 0 0 226.5 0h-.1a10.5 10.5 0 0 0-10.6 10.6 10.7 10.7 0 0 0 10.7 10.6z"/></svg>