<svg viewBox="0 0 24 24"><path d="M2.4 6.3c-.3-.2-.4-.4-.4-.7 0-.1 0-.3.1-.4.1.4.4.5.7.7.5.3 1 .5 1.6.7l2.1 1.2c.9.4 1.7.9 2.5 1.5.1.1.2.1.3.2 0 0 .1 0 .1.1l-.1-.1c-1-.7-2-1.4-3-2-.8-.5-1.5-.9-2.2-1.3-.2-.1-.4-.2-.6-.4-.4-.3-.6-.7-.5-1.2 0-.5.3-.9.5-1.3.1.3.2.5.3.8.1.2.3.4.5.6C5.8 5.8 7.2 7 8.6 8.2l.1.1-.1-.1c-.1-.2-.4-.5-.6-.7l-.8-.8c-.2-.2-.5-.5-.8-.7.3 0 .5.1.7.1.4.1.8.1 1.2.2.4.1.7.3 1 .7l.3.3c.2-.7.2-1.4.3-2.1-.2.2-.2.4-.3.6-.3-.6-.1-1.1.3-1.5-.3.1-.7.2-.9-.2h.2c.2 0 .3-.1.4-.2.1-.1.1-.2.2-.4 0-.1.1-.2.2-.3v-.1c-.1-.3-.3-.6-.5-.8-.1-.1-.3-.1-.4 0h-.3c-.1 0-.3 0-.4-.1L8.2 2c-.2-.1-.4-.1-.5.2 0 .1-.1.1-.1.2-.2-.1-.2-.5-.2-.8v-.2c.1-.4.4-.6.8-.7.1 0 .2 0 .3-.1.1-.1.2-.1.3-.1.5 0 1 .1 1.4.1.5 0 .7-.1.8-.6v-.1c.1.2.1.5 0 .6-.1.2-.3.3-.6.3.2.1.4.2.7.2-.1.1-.2.1-.2.2.2.1.3.2.5.3.1.1.2.2.3.4-.2-.2-.5-.4-.8-.2v.1c.3.3.5.8.7 1.2.1.2.2.5.3.7-.2-.1-.4-.2-.5-.4.3.5.6.9.5 1.5-.1-.2-.2-.5-.4-.6-.1.9.3 1.6.6 2.3.4-.7.7-1.4.6-2.2-.2.2-.3.4-.4.6-.1-.6.2-1 .4-1.5-.2.1-.3.3-.5.4.1-.3.3-.6.4-.9.2-.4.3-.8.6-1.1-.2-.1-.3-.1-.8.2.2-.3.4-.5.8-.6-.1 0-.1-.1-.2-.2.2-.1.4-.2.7-.2-.2-.1-.4-.1-.6-.3-.1-.2-.1-.4 0-.7v.2c.1.3.3.5.7.5.4 0 .8-.1 1.2-.1h.4c.1 0 .2.1.3.1.1 0 .1.1.2.1s.2 0 .2.1c.6.1.7 1.1.4 1.5 0-.1-.1-.2-.1-.2-.2-.3-.4-.3-.6-.2-.1.1-.2.1-.3.2-.1.1-.2.1-.4.1-.1 0-.3-.1-.4-.1-.2 0-.3 0-.4.2-.1.2-.3.4-.3.6v.2c.1.1.1.2.2.3 0 .1.1.2.1.3.1.3.3.3.6.3h.2c-.3.3-.6.2-.9.2 0 .1.1.1.2.2.1.2.3.4.3.6 0 .2 0 .5-.2.7 0-.2 0-.4-.2-.6.1.7.1 1.4.2 2l.1-.1c.2-.2.3-.5.6-.7.3-.2.6-.2.9-.3.5-.1 1-.2 1.4-.2-.8.7-1.6 1.5-2.3 2.2l.1-.1c1.4-1.2 2.8-2.3 4.3-3.4.5-.3.7-.8.8-1.4v-.1c.4.6.7 1.2.5 1.9-.1.3-.2.5-.5.6-.4.3-.9.5-1.4.8-1.5.8-3 1.7-4.4 2.8-.1 0-.1.1-.2.1h.1c1-.8 2.1-1.3 3.2-2 1-.6 2.1-1.2 3.2-1.7.2-.1.4-.2.6-.4.1-.1.2-.2.2-.3.3.7.3 1.2-.1 1.4-.5.3-1 .7-1.5 1.1-1 .8-2.1 1.3-3.4 1.6-.4.1-.8.2-1.1.3h-.1c.7-.1 1.3-.3 2-.4-.2.2-.4.3-.6.5-.2.2-.5.4-.7.5-.3.3-.7.4-1.2.3h-.3s-.1 0-.1.1c0 0 0 .1.1.1.3 0 .7.1 1 0 .2 0 .3-.1.5-.2.2-.2.5-.2.8-.3.9 0 1.8 0 2.7-.1h.3l-.1.1c-.6.4-1.1.8-1.7 1.2-.4.3-.8.3-1.2.2-.8-.2-1.5-.4-2.2-.6h-.1c0 .2 0 .2.1.2.8.2 1.5.5 2.3.7h.1l-.6.3c-.4.1-.8.1-1.2.1-.4 0-.8-.1-1.1-.1-.1 0-.1 0-.2.1-.2.3-.4.6-.7.9 0 0 0 .1-.1.2v.8l-.6-.3v1.7c0 .2.1.3.3.3.1 0 .3.1.4.2.2.2.4.4.7.5-.6.2-1.1-.1-1.5-.5v.1c0 .4 0 .8.1 1.1.2.4.3.8.4 1.2.1.2 0 .4-.1.6-.3.3-.6.7-.9 1l-.2-.2c-.2-.3-.5-.5-.7-.8-.2-.2-.2-.4-.1-.7.2-.4.3-.9.5-1.3.1-.3.1-.7.1-1-.2.2-.4.4-.7.5-.3.1-.5 0-.8.1 0 0 .1 0 .1-.1.2-.2.4-.3.6-.5.1-.1.2-.1.4-.2.1 0 .3-.1.3-.3v-1.7l-.6.3v-.6c0-.2 0-.4-.2-.6-.2-.2-.4-.5-.5-.7 0-.1-.1-.1-.2-.1-.5 0-.9.1-1.4.1-.5 0-1-.1-1.5-.3l-.1-.1.9-.3c.5-.2 1-.3 1.5-.5.1 0 .2-.1.1-.2h-.1c-.7.2-1.5.4-2.2.6-.5.1-.9.1-1.3-.2-.5-.4-1.1-.8-1.6-1.2 0 0-.1 0-.1-.1h.1c1 0 2 .1 3 .1.2 0 .5.1.6.3.2.2.4.3.7.3.3 0 .6 0 .9-.1 0 0 0-.1.1-.1h-.3c-.5.1-.9-.1-1.3-.4-.3-.3-.7-.5-1-.8-.1 0-.1-.1-.2-.1.6.1 1.3.2 1.9.4 0 0-.1 0-.1-.1-.9 0-1.5-.2-2-.3-1-.3-1.8-.8-2.6-1.4-.6-.4-1.2-.8-1.7-1.2zm12.7-5.2c-.2-.1-.4 0-.6.1.4.2.7.2 1 0-.2 0-.3-.1-.4-.1zm-5.5.1c-.2-.1-.3-.2-.4-.2-.2 0-.4.1-.6.2v.1c.1 0 .3.1.4.1.2 0 .4-.1.6-.2zM11.7 7c-1.2.2-2 1.1-1.9 2.4.1 1.3 1.2 1.9 2 1.9 0-.2-.2-.4-.4-.5-.5-.2-.8-.5-1-1-.2-.4-.2-.8 0-1.2.2-.3.3-.6.7-.9.4-.3.9-.3 1.4-.2.2 0 .5.2.7.5.2.2.4.5.4.8.1.5 0 1-.4 1.5-.2.3-.5.4-.7.6-.2.1-.3.3-.4.5 1.2-.1 2.1-1.1 2-2.3 0-1.4-1.1-2.3-2.4-2.1zm10.5 4.4c.1 0 .1 0 .1.1v.4c-.1.4-.3.8-.6 1.1-1 1.3-1.9 2.6-2.9 3.8 0 0-.1.1 0 .1.1.3.1.4-.2.5 0 .2 0 .2-.2.3-.1 0-.1 0-.2.1s-.2.1-.3.1c-.1 0-.1.1-.2.1-.2.2-.3.4-.4.6.1.3.3.3.5.5h.1c.2-.1.3 0 .4.2-.1.2-.3.4-.4.6-.1-.1-.3-.1-.3-.3 0 0 0-.1-.1-.1-.2-.1-.4-.3-.6-.4h-.1c-.1 0-.2.1-.2.1-.3.3-.6.7-.8 1-.1.2-.3.4-.4.5l.2.2c-.1.2-.2.3-.3.4-.2 0-.4 0-.5-.1-.1-.1-.1-.3-.2-.5.1-.1.2-.3.3-.4.1 0 .1.1.2.1h.1c.3-.4.6-.7.8-1.1l.3-.6c.1-.1 0-.2-.1-.3-.2-.1-.3-.3-.5-.4 0 0-.1-.1-.1 0-.2.1-.3 0-.4-.2.1-.2.3-.4.4-.5.1.1.3.1.2.3 0 .1.4.4.5.4h.1c.2-.2.4-.5.5-.7-.5-.5-1.1-1-1.9-1.1-.1 0-.3-.1-.4-.1-.1 0-.1 0-.2-.1.1-.1.1-.2.2-.4l-.6-.3c-.1 0-.1-.1-.1-.2v-.4c0-.2-.1-.4-.3-.5-.1-.1-.2-.1-.3-.2l-.1-.1v-.7c.1 0 .1 0 .1.1.3.2.5.3.8.5.1.1.1 0 .2-.1.1-.2.1-.3.2-.5s.1-.4 0-.6c.1.1.2.1.3.1l1.8.9c.1.1.3.2.4.3.1.1.1.3.1.4 0 .4-.1.5-.1.7-.1.2 0 .4.2.5-.2.2-.5.1-.8-.2-.1.2-.1.4 0 .6-.2 0-.3-.1-.4-.3 0 0 0 .1-.1.1l-.2-.2c-.1.1-.1.2 0 .3 0 .1.1.2.1.2.3.2.5.4.8.5.3.1.6.1.9-.2l.1-.1.1-.1c.1.1.2-.1.2-.1l3-3.9c.2-.2.4-.4.7-.6.2 0 .4-.1.6-.1zm-13.1 9c.1.1.2.3.3.4v.1c-.1.1-.1.3-.2.4-.1 0-.3.1-.4.1h-.1c-.1-.1-.2-.3-.3-.4.1 0 .1-.1.2-.2-.2-.3-.5-.7-.7-1-.2-.2-.3-.4-.5-.6l-.1-.1c-.2-.1-.3-.1-.4 0-.1.1-.3.2-.4.3-.1.1-.2.2-.2.3 0 .1-.1.2-.2.2-.2-.2-.3-.4-.4-.6.1-.1.2-.2.4-.2h.1c.1-.1.2-.2.4-.3 0 0 .1-.1.1-.2-.2-.2-.3-.4-.5-.7h-.1c-.2.1-.3.1-.4-.1h-.1c-.2 0-.2-.1-.2-.3h-.1c-.2-.1-.2-.3-.1-.5.1-.1 0-.1 0-.2-.8-1.1-1.7-2.2-2.5-3.3-.3-.4-.6-.8-.8-1.2-.1-.2-.2-.5-.2-.7 0-.2 0-.2.2-.1.3 0 .5.2.7.4.2.1.4.4.6.7.9 1.2 1.8 2.4 2.7 3.5 0 .1.1.2.2.1l.1.1c.1.1.3.3.4.3.1.1.3.1.4 0 .3-.1.6-.3.9-.5.2-.1.2-.3.1-.5 0 .1-.1.1-.1.2 0 0 0-.1-.1-.1 0 .2-.1.3-.3.3.1-.2.1-.4 0-.6-.1.2-.3.3-.5.3-.1 0-.2 0-.3-.1.3-.2.4-.4.2-.7 0-.1-.1-.2-.1-.4-.1-.1 0-.3 0-.4.2-.1.3-.3.5-.3.7-.4 1.3-.7 2-1h.1c-.2.5.1.8.2 1.2.3-.2.7-.4 1-.6v.7s0 .1-.1.1c-.1.1-.2.1-.4.2s-.3.3-.3.4v.4c0 .1 0 .2-.1.2-.2.1-.4.2-.6.4.1.1.1.2.2.4-.1 0-.1.1-.2.1-.3.1-.5.1-.8.2-.6.2-1.1.5-1.5 1 .2.2.4.5.5.7.3 0 .4-.2.6-.3l.1-.1c0-.2.1-.2.2-.3.1.2.3.4.4.5-.1.1-.2.2-.4.2h-.1c-.2.1-.4.3-.6.4-.1.1-.1.1-.1.2s0 .1.1.2c.2.3.3.5.5.8.2.3.4.5.6.7.3 0 .3 0 .5-.1-.1 0-.1 0 0 0zm3.8-.2c.1.3.1.7.2 1 .1.4 0 .7-.1 1l-.9 1.8c-.1-.2-.2-.3-.3-.5-.2-.4-.4-.7-.6-1.1-.3-.5-.3-1-.2-1.5.1-.4.1-.9.2-1.3v-.1c.2.2.3.4.5.5.2.2.2.4.3.6.1-.5.5-.8.8-1.1 0 .3 0 .5.1.7zm3.4-15.3c.3-.4.7-.6 1.1-.7.2 0 .4-.1.5-.2.3-.3.6-.6 1-.9.2-.2.3-.4.5-.6.1.2.2.4.2.6.1.4 0 .8-.2 1.2-.1.2-.3.4-.5.6-.2.2-.5.4-.7.6-.2.2-.5.2-.7.3-.7.1-1.4.3-2.1.4.1-.1.2-.2.2-.3.3-.4.5-.7.7-1zM5 4.9c-.6-.6-.8-1.3-.5-2.1 0-.1.1-.2.1-.4.4.7 1 1.2 1.6 1.7 0 0 .1 0 .2.1.3 0 .6.1.8.3.1.1.3.2.4.4l.9 1.2.1.1c-.4-.1-.8-.2-1.1-.3-.3-.1-.7-.1-1-.2-.3 0-.6-.1-.8-.3-.2-.2-.5-.4-.7-.5zm15.3 3.6c.7-.1 1.5-.2 2.2-.3h.2c-.2.3-.4.6-.7.8-.6.4-1.3.6-2 .7-.7.1-1.3.1-2 .1-.3 0-.6 0-.9.1H17c.2-.1.3-.2.5-.4.4-.4.9-.6 1.5-.7.4-.1.8-.2 1.3-.3zM6.9 9.8C6 9.8 5 9.7 4 9.7c-.9-.1-1.7-.4-2.3-1-.2-.1-.3-.3-.4-.5.3 0 .7.1 1 .1l2.4.3c.6.1 1.2.3 1.7.7.2.2.4.3.5.5.1 0 .1 0 0 0zm16-3.3c.1.4.1.7 0 1.1 0 .1-.1.1-.2.2-1.2.2-2.4.4-3.7.6h-.1c.5-.3 1-.7 1.4-1 .6-.3 1.1-.7 1.7-1 .2-.1.3-.3.3-.5v-.1c.4.2.5.5.6.7zm-18 1.9c0-.1 0-.1 0 0-1-.7-2-1.3-3-1.9-.3-.2-.4-.4-.5-.7-.1.1-.1.2-.1.2-.3.6-.4 1.1-.2 1.7 0 .1 0 .1.2.1.8.1 1.7.3 2.6.4.3.1.7.1 1 .2zm6 10.7c.1.1.2.3.1.5-.1.6-.2 1.2-.4 1.8l-.1-.1c-.1-.2-.3-.3-.4-.5-.5-.6-.5-1.2-.1-1.9.3-.5.7-1 1.1-1.5-.1.4-.3.8-.4 1.1 0 .2 0 .3.2.6-.1-.1 0-.1 0 0zm2.3-1.2l.6.9c.5.6.5 1.4 0 2-.2.2-.3.4-.5.6l-.3-1.2c0-.2-.1-.4-.1-.6 0-.2 0-.3.1-.4l.1-.1c.1-.1.1-.3.1-.5-.1-.4-.3-.8-.4-1.1.2 0 .3.2.4.4zm3-14.7c0 .5.1 1-.1 1.5-.1.2-.1.3-.2.4-.3.5-.7.9-1 1.4 0-.4 0-.8.1-1.3 0-.2.1-.5.3-.6.2-.5.6-.9.9-1.4zM8.7 4.5c.3.3.4.7.4 1.1v.9c-.1-.1-.2-.2-.3-.4-.2-.3-.4-.6-.7-.9-.2-.3-.3-.6-.3-1v-.9s0 .1.1.1c.2.3.5.7.8 1.1zm1.4 11.2c0-.4-.1-.6-.1-.9 0-.2.1-.3.2-.4.3-.2.5-.3.8-.5 0 0 .1 0 .1-.1v1c0 .1-.1.2-.2.3-.2.3-.5.5-.8.6zm2.8-1.8c.4.2.6.4.9.5.1.1.2.2.2.3v1c-.3-.2-.6-.3-.9-.5-.1-.1-.2-.2-.2-.3v-1zm2.3 3.6h-.7c-.1 0-.3-.1-.4-.2-.2-.2-.4-.4-.7-.6h.6c.2 0 .3.1.4.2.4.2.6.4.8.6zm-4.8-.6c-.2.1-.3.3-.5.4-.1.1-.3.2-.5.2h-.6c.2-.3.5-.5.7-.7.1-.1.3-.1.4-.1h.6c0 .1-.1.1-.1.2zm-.5 1.3c0-.5.1-.9.5-1.2.2-.1.4-.3.6-.5 0 .2 0 .4-.1.6 0 .1-.1.3-.2.3l-.8.8zm3.7-.5c-.3-.2-.5-.6-.5-1v-.2c.2.1.3.2.4.3.1.1.2.1.3.2.2.1.3.3.3.5s0 .4.1.6c-.1-.1-.2-.2-.3-.2-.1 0-.2-.1-.3-.2zM8.9 1.2c.1.1.3 0 .4 0-.2-.2-.3 0-.4 0zm5.8 0c.1 0 .3.1.4 0-.1 0-.2-.2-.4 0z"/></svg>