<svg viewBox="0 0 24 24"><path d="M16 11.4l-.1.1c-.2.1 0-.2.1-.2v.1zm-5.7-4.9c-.2 0-.3.2-.5.4.1.1.2.3.4.4.2-.1.4-.2.5-.4 0-.3-.2-.4-.4-.4zm-.3-.4c-.5.3-1.3.5-1.8.1.5-.4 1.2-.5 1.8-.1zm.8-4.1c-.6.2-1.4-.1-1.9-.5v-.1c.7-.2 1.5 0 1.9.6zM6.4 4.1c-.3.2-.7.5-.8.9.9.1 1.9-.3 2.3-1.1-.5 0-1 0-1.5.2zm-.1-.8c-.6-.2-1.4 0-1.9.3l.1.1c.7.2 1.4.1 2-.3-.1 0-.1 0-.2-.1zm10.5 1.3c.5.3 1.1.4 1.7.4-.4-.9-1.4-1.2-2.4-1.1.1.3.4.5.7.7zm-1.7-3.2c-.7-.3-1.5 0-2 .5.7.3 1.5 0 2-.5zm.8 4.8c-.5-.5-1.2-.5-1.8-.2v.1c.5.3 1.2.4 1.8.1zm3.7-2.5v-.2c-.6-.3-1.3-.4-1.9-.2 0 0-.1.1-.2.1.7.4 1.4.5 2.1.3zM9 9.7c.3.4 1 .1.9-.4 0-.3-.3-.3-.6-.2-.2.1-.3.3-.3.6zM7.7 8.5c.5-.2 1-.1 1.5-.1-.6.7-1.5 1-2.4.9.3-.2.6-.5.9-.8zm7.1-.2c.9-.2 1.9.2 2.4 1-.9.2-1.9-.2-2.4-1zm5.7 5.6c.5 0 1 .2 1.4.2.3 0 .6.2.8.3-.1-.3-.2-.7-.5-.8-.8-.5-1.8-.3-2.6-.6.9.2 1.8 0 2.7.4.2.1.3.2.5.4 0-.3.1-.7.3-1-.4-.2-.9-.5-1.3-.8v-.1c.5.2.9.7 1.4.8-.1-.5 0-1-.1-1.6 0-.2-.2-.2-.3-.3-.1-.1-.3-.1-.4-.2.1-.1.2-.2.3-.2v-.1c-.3.2-.7.3-1.1.4-.4.1-.6-.4-.8-.7-.3-.7-.1-1.4-.1-2.1-.1-.2-.2-.4-.3-.7-.1.2-.3.3-.4.5-.4.7-.8 1.4-1.3 2.1-.6.2-1 .5-1.6.8-.3.2-.7.4-1 .6v.2c-.1.1-.3.3-.3.4 0-.1-.1-.1-.1-.2-.1.2-.3.4-.5.5-.3.2-.6.2-.9.3-.5.2-.9.4-1.4.7v.3c.1 0 .2 0 .2-.1 0 .1-.1.2-.1.2.3.3.5.6.9.9l.1-.2c.1.1.3.2.4.2V14c.2-.1.4-.1.5.1.1-.3.4-.3.6 0 0-.1 0-.3.2-.3.1-.1.3.1.3.2v-.4c.2-.1.3.1.5.2.1-.2.1-.2.2-.3.1 0 .2.1.2.2l.1.1-.1-.1c-.1 0-.1.1-.1.1.1.2.2.4.2.6-.1.2-.2.3-.3.4-.1-.1-.2-.2-.3-.2 0 .2.1.3-.1.4-.2.1-.3-.2-.4-.3v.3c-.2.1-.3-.1-.5-.2h-.1c0 .1.2.3-.1.3-.2-.1-.3-.2-.5-.3v.4c-.1 0-.2-.1-.3-.1 0 .3 0 .5.1.8.1.2.3.4.5.3.5-.1.9-.3 1.4-.3.3-.1.6.1.9.2.4.2.8.1 1.2.3 0-.4-.5-.4-.7-.8.2.2.4.3.6.4.3.2.3.5.5.7.3.3.5.7.6 1.1h.1c0-.2 0-.3-.1-.5l.5.5.3.3c.1-.2.2-.4.3-.7 0-.3-.1-.6-.2-.9l.3.6.1-.1c.3-.2.6-.2.9-.3-.1-.2-.1-.3-.1-.5.1-.3.3-.5.4-.7-.3.1-.6.2-.9.1-.3-.2-.3-.5-.5-.8-.1-.2-.3-.2-.5-.3.3 0 .5.1.7.3.2.2.3.6.6.7.3 0 .7-.1.8-.4.2-.3.4-.6.6-.8-.9-.1-1.6-.2-2.3-.4zm1.1-2.5c.4-.1.8.3 1 .7-.3-.2-.5-.5-.9-.6-.2 0-.5-.1-.7 0 .1-.2.4-.1.6-.1zm-7.8 2.7c.1-.1.3-.1.3.1 0 .1-.4.1-.3-.1zm.1-1.3c.1-.1.1-.1.2 0 .2.2-.2.2-.2 0zm.3-.1c0-.1.2-.1.3-.1 0 .2-.2.2-.3.1zm.6 2.9c.1-.2.2-.3.3-.3l-.3.3zm.4-.1c0-.1.1-.2.2-.2.3-.1 0 .4-.2.2zm5-6.2c.1-.4.2-.8.2-1.2.1.3 0 .7-.1 1-.1.4-.4.7-.7.8.3-.2.5-.4.6-.6zm-.2-.6c-.1.2-.3.4-.5.6.1-.3.2-.5.5-.6zm-2.6 2h-.2c.5 0 .9.1 1.4-.1.1-.1.3-.1.4-.1-.3.2-.5.3-.9.3-.2 0-.4 0-.6-.1l-.2.2c.3.1.6.2.9.2-.5.1-.9-.2-1.3-.2.2 0 .3 0 .5-.2zm-2 1.6c.1-.1.4-.1.5 0h-.5zm.5-.6c.1-.2.3-.3.5-.3-.1.2-.3.3-.5.3zm.4.9c.1 0 .3 0 .4.2-.1.1-.4 0-.4-.2zm-.1-.3c.1-.2.2-.4.4-.5.2 0 .4.1.5.1-.2.2-.5.3-.9.4zm1-.6c.2 0 .4.2.5.3v.1c-.1-.1-.3-.2-.5-.4zm.5 3.4c.2.2.5.4.8.5-.3-.1-.6-.2-.8-.5zm.5-3.5c.5 0 .9-.1 1.3-.2-.3.3-.8.3-1.3.2zm.6.2c.3-.1.5-.1.8-.1-.3.2-.6.1-.8.1zm1.4 2.6c.3-.1.6-.1.8.2-.3-.1-.5-.2-.8-.2zm.8-.2c-.5 0-1 .2-1.5.1-.1 0-.2-.1-.3-.2.5.3 1 .1 1.5.1.3 0 .6.1.8.3-.2-.1-.4-.2-.5-.3zM9.9 12.5c-.5-.2-1-.3-1.4-.7-.3-.2-.4-.7-.8-.8.1.2.3.3.4.6l-.4-.5V11c-.4 0-.7-.4-1.1-.6-.5-.2-.9-.5-1.4-.7-.5-.6-1-1.4-1.3-2.1-.1-.2-.3-.3-.4-.5-.1.3-.3.5-.3.8 0 .5.1 1.1 0 1.6-.1.4-.4.7-.6 1-.5 0-1-.2-1.4-.4l.3.3c-.2.2-.4.3-.6.4-.1.5-.1 1.1-.1 1.7.5-.1.8-.5 1.2-.7-.4.3-.9.6-1.3.8.2.4.3.8.3 1.1.2-.2.4-.3.7-.4.8-.3 1.7-.1 2.5-.4-.8.4-1.8.2-2.6.6-.3.1-.5.5-.6.8.7-.3 1.6-.3 2.4-.5-.7.3-1.4.3-2.1.6.3.3.5.5.6.8.1.2.2.2.3.3v.2c.3.3.5.7.3 1.1.3.1.7.1 1 .3.1-.4.3-.7.6-1-.3.3-.5.6-.6 1-.1.3.2.6.3.8.3-.3.4-.7.8-.9 0 .2 0 .4-.1.6.2-.3.3-.8.6-1.1.2-.2.3-.5.4-.7.3-.2.5-.3.8-.5-.2.4-.8.4-.9.9.4-.2.8-.2 1.2-.3.3-.1.5-.2.8-.2.6.1 1.1.3 1.7.4.4-.2.5-.7.5-1.1-.1 0-.2.1-.3.1v-.4c-.3.1-.4.3-.7.4 0-.1.1-.3.1-.4-.2.1-.3.4-.6.3v-.4c-.1.2-.3.4-.6.2v-.3c-.1.1-.2.2-.3.2-.1-.1-.3-.2-.3-.4 0-.3.1-.5.3-.7 0 .1.1.2.1.3l.3-.3c.1 0 .2.1.2.1v.3c.1-.2.3-.2.5-.2v.2c.2-.2.6-.3.6.1l.2-.2.4.1v.4c.1-.1.2-.2.3-.2l.2.2c.3-.2.5-.5.7-.7.1-.1.1-.3.1-.4.1 0 .2.1.2.1v-.3c-.4-.2-.7-.4-1.1-.6zm-.8 3c-.1.1-.2-.1-.3-.1-.1-.3.4-.1.3.1zm-.3 0c-.1-.1-.3-.2-.4-.3.1.1.3.2.4.3zm-1.7-4.6c-.5 0-.9.3-1.4.2.5-.1.9-.3 1.4-.2zm-1.4-.2h.9c-.3.1-.6.1-.9 0-.3 0-.5-.1-.8-.3.2.1.5.2.8.3zM4.5 9.2c-.3-.1-.4-.4-.6-.6.3.1.4.3.6.6zm-2.4 2.4h.5v-.2c-.2 0-.5 0-.7.1-.3.1-.5.3-.7.5.2-.3.6-.7 1-.6.2 0 .5-.1.7 0h-.3l.1.2c.2-.1.4-.2.6-.2-.3.2-.7.3-1.2.2zm1.4-2.5c0-.3-.2-.7 0-1.1 0 .4.1.9.2 1.3.1.3.3.4.5.6-.3-.2-.6-.4-.7-.8zm-.2 6c-.1.2-.3.6-.6.7-.2 0-.4 0-.6-.1.3 0 .5.1.7 0 .2-.2.3-.5.5-.7.1-.2.4-.2.6-.2-.2-.1-.5 0-.6.3zm.4-.9c-.1 0-.1.1-.2.1l.2-.1.2.1c-.3 0-.7-.1-1 .2.1-.2.4-.3.6-.3V14c-.2.1-.4 0-.6.1-.1.1-.3.2-.4.2.4-.5 1-.3 1.6-.2.3.1.5-.1.7-.2-.3.5-.8.4-1.1.3zm1.5-2.3c-.3 0-.7 0-.9-.2l.6.1v-.1c-.2 0-.5 0-.6-.2.3.1.6.2.9.2.1 0 .3 0 .3.1H5c.1-.1.2 0 .2.1zm.3 3.6c.3-.1.5-.3.8-.5-.2.3-.5.5-.8.5zm.7-3.5c.1-.2.3-.3.6-.4-.2.2-.4.3-.6.4zm.7 1.6c.1-.1.1-.2.3-.1 0 .2-.5.5-.3.1zm.3-.8c0-.1.1-.1 0 0 .1-.1.2-.1.3-.1l.1.1h-.4zm-.5-.9c.2 0 .4-.2.6 0 .1.1.2.3.3.4-.2-.1-.6-.2-.9-.4zm.8-.5c.2.1.4.2.5.3-.2-.1-.4-.2-.5-.3zm.5.9c.2-.1.4-.2.5 0H8zm1.3.3h.5c-.1.2-.4.2-.5 0zm.6.1c.1-.1.3 0 .2.1-.2.2-.5.1-.2-.1zm-.1 1.4h.3c0 .1-.2 0-.3 0zM5.7 8c.6-.4 1.4-.4 2.1-.4-.5.7-1.5.7-2.1.4zm8.4 1.2c.3-.2.9.2.8.6-.2.3-.6.2-.8 0-.1-.2-.2-.5 0-.6zm2.2-1.5c.6-.1 1.1-.1 1.7.2.1.1.3.1.4.2-.7.2-1.6.2-2.1-.4zm4.4 12.6c.9-1 1.7-2.1 2.2-3.4.4-.9.7-1.8.9-2.7v-.1c0-.2.1-.3.1-.5s0-.3.1-.4c0-.4.1-.8.1-1.2v-.8c-.2-2.4-1.2-4.8-2.8-6.7-1.8-2.1-4.3-3.7-7-4.2-.2 0-.4-.1-.6-.1h-.1c-.1 0-.3 0-.4-.1-.4-.1-.8-.1-1.2-.1h-.7c-.6 0-1.2.2-1.7.3C6.5 1 3.7 2.9 2 5.6.8 7.3.1 9.4 0 11.6v.4c0 .6.1 1.2.1 1.8 0 .1 0 .2.1.3v.1c.1.7.3 1.4.6 2.1.5 1.4 1.3 2.7 2.3 3.8 2.1 2.2 4.9 3.7 8.2 3.9h1.6c3.1-.3 5.8-1.6 7.8-3.7zm.7-14.9c-.7 0-1.4.1-2.1.2.3-.5.7-1 1-1.5.4.4.8.8 1.1 1.3zm-5.3-3.7c.2-.2.6-.2.9-.1.3.2.6.3.9.5v.1l-3 1.2c.4-.7.7-1.3 1.2-1.7zm-.2 1.8c-.6 1.2-1.6 1.9-2.8 2.4.7-1.1 1.7-2 2.8-2.4zM7.5 1.3c.6.6 1.2 1.3 1.6 2-1-.3-2-.7-3-1.1.5-.3 1-.6 1.4-.9zm3.4 4.6c-1.2-.5-2.3-1.3-2.8-2.5 1.2.5 2.1 1.4 2.8 2.5zM3.7 4.1c.4.4.7.9 1 1.4-.4 0-.8 0-1.2-.1h.1c-.3 0-.5 0-.8-.1h-.3c.4-.3.8-.8 1.2-1.2zm7.8 10.7c-.1 1.6-.1 3.3-.1 5-.1.9-.1 1.9-.5 2.8-.1.2-.3.3-.5.4-.8.3-1.7.1-2.4-.5-.2-.2-.3-.4-.3-.7 0-.5.3-.9.4-1.4-.4.2-.7.7-1.1 1 .3-.8.6-1.6 1.2-2.3.5-.4 1.2-.2 1.8 0 .1 0 .3 0 .4.1-.3-.3-.8-.5-1.1-.9-.3.2-.6.3-1 .5-.2-.2-.4-.4-.6-.5v.8l-.6 1.5c-.9-.5-1.8-1.2-2.1-2.2-.3.5 0 1.2.3 1.6-.4-.2-.8-.4-1.1-.7-.4-.4-.3-1.1-.6-1.6-.2.4-.1.9.1 1.3.3.5.8.9 1.2 1.3.3.1.7.2 1 .4.8.5 1.2 1.4 1.8 2.1-1.6-.8-3-1.8-4.2-3.1-1-1.2-1.9-2.6-2.4-4.1.1-.1 0-.1 0-.2-.5-1.7-.6-3.4-.4-5.1.2-1.2.5-2.3 1.1-3.4.2-.3.4-.7.8-.8.9-.2 1.9-.2 2.8.1.6.2 1.2.6 1.9.8.9.4 1.9.6 2.7 1.2 1 .8 1.5 2.2 1.6 3.5 0 1-.1 2-.1 3.1zM9.9 7.4c-.6-.3-1.3-.5-1.8-1v-.2c-.3-.4-.7-1-1.2-1.2.3.5.6 1.1.9 1.6-.9-.4-1.9-.7-2.7-1.4-.4-.3-.8-.8-.9-1.4.2-.7 1.1-1.3 1.8-1 .7.2 1.5.3 2 .9.3.3.4.7.6 1-.3 0-.6 0-.9.1l.1.1c1 .3 1.9.8 2.9 1.3.3.2.5.4.6.8.2.6.2 1.2.3 1.9-.5-.6-1-1.2-1.7-1.5zm-.1-4.1c1 .5 1.6 1.6 1.9 2.6-.6-.8-1.3-1.7-1.9-2.6zm3-1.5c.1-.3.3-.5.3-.8-.5.3-.8 1-1.2 1.5-.3-.5-.6-1.1-1-1.5.1.7.5 1.3.6 2 .2.6.3 1.3.2 1.9-.1-.1-.2-.3-.3-.4-.3-.6-.7-1.2-1-1.8-.1-.1-.1-.2-.2-.2 0 .3.1.7.2 1-1-.4-1.7-1.3-2.1-2.2.9-.3 1.8-.5 2.7-.6.6-.1 1.3-.1 1.9 0 .9 0 1.8.2 2.7.6-.4 1-1.2 1.8-2.1 2.2.1-.3.2-.7.2-1-.1.1-.2.2-.2.3-.4.7-.9 1.5-1.3 2.2-.1-1.2.2-2.3.6-3.2zm1.4 1.5c-.6.9-1.2 1.9-2 2.7.4-1.1 1-2.2 2-2.7zM12.7 7c.1-.2.2-.4.3-.5.9-.7 2-1.1 3-1.5.1-.1.3 0 .3-.2-.3-.1-.6-.1-.9-.1.3-.5.6-1.1 1.1-1.4.6-.3 1.3-.6 1.9-.6.4 0 .7.2 1 .4.1.1.1.2.2.3.2.2.2.6.1.8-.2.4-.5.7-.8 1-.8.7-1.8 1-2.7 1.4.3-.5.7-1 .9-1.7-.8.4-1.1 1.4-1.9 1.9-.2.1-.3.2-.6.2-.5.1-.9-.4-1.4-.5.1.3.3.4.5.6-.2.8-1 1.1-1.5 1.7.3-.6.3-1.2.5-1.8zm3.8 15.9c.6-.8 1-1.7 1.9-2.2.3-.2.8-.2 1.1-.5.4-.4.9-.8 1.1-1.3.1-.3.1-.8-.1-1.1-.1.2-.1.4-.2.7-.1.3-.1.7-.3.9-.3.3-.8.5-1.2.8.1-.3.3-.6.4-1 0-.3 0-.7-.3-.9v.9l-.2.2c-.6.4-1.1.9-1.7 1.3-.2-.5-.5-1.1-.6-1.6v-.8c-.2.1-.4.3-.6.4-.5-.1-1.1-.5-1.6-.1-.2.2-.5.3-.6.6.6-.2 1.1-.4 1.8-.3.4.1.6.4.9.7.3.5.5 1.2.8 1.8-.4-.3-.6-.7-1-.9.1.5.4.9.4 1.4-.2.7-1 1-1.7 1.1-.3.1-.6.1-.9 0-.5-.2-.8-.6-.9-1-.3-1-.3-2.1-.3-3.2v-2.3c.1-1.4-.1-2.9 0-4.3 0-.8.1-1.6.3-2.3.3-.8.8-1.5 1.5-1.9 1-.6 2.1-.7 3.1-1.3.7-.3 1.5-.7 2.3-.7.5-.1 1-.1 1.5.1.5 0 .9.4 1.1.8.4.8.8 1.7.9 2.7.1.3.1.6.2.9 0 .2.1.4.1.7.1.6.1 1.3 0 1.9-.1 1.3-.5 2.6-1 3.8-1.4 2.7-3.7 4.7-6.2 6z"/></svg>