<svg viewBox="0 0 24 24"><path d="M12 0v.4c-2.5-.1-2.6 4 0 3.9v.5C8.9 4.8 8.7.1 12 0zm0 7.4V7c2.6 0 2.6-3.9 0-3.9v-.4c1.3 0 2.3 1 2.4 2.2.1 1.3-.9 2.5-2.4 2.5zm7.7-2.2c.6 0 .9 0 1.4.1 0 .4.1 1.4.1 1.4s-.7.8-.9 1c-2.2 2.2-4.6 4.7-6.8 6.8.9 1 1.9 2 2.9 3 .5-.4.9-1 1.4-1.3.1.1.1.2.2.2-.5.7-1.4 1.4-2.1 2.1l-1.6 1.6c-.2.2-.5.6-.8.2.3-.5.9-.9 1.3-1.4-.8-.8-1.7-1.7-2.5-2.6-.1-.1-.3-.4-.4-.4-.1 0-.6.6-.8.7l-2.2 2.2c.4.5 1 .9 1.3 1.4-.2.4-.5 0-.8-.3-.3-.2-1-.9-1.4-1.3-.6-.7-1.5-1.4-2-2.1.1-.1.2-.1.2-.2.5.3.9.9 1.4 1.3 1-1 2-2 2.9-3C8.3 12.4 6 10 3.7 7.7c-.3-.3-.9-.8-.9-1-.1-.5.2-1 .1-1.4.5 0 .9-.3 1.4-.1.3.1.7.7 1 1 2.1 2.1 4.1 4.2 6.3 6.3.1.1.4.5.5.5.1 0 .9-.9 1-1 2.1-2.2 4.4-4.6 6.6-6.8zm-8.7 8c.2.1.3.5.5.4 0-.1.1-.1.1-.1.1-.2-.2-.3-.3-.5C9 10.5 6.5 8 4.2 5.7h-.5c2.3 2.5 4.8 5 7.3 7.5zm8.8-7.5c-2.1 2.1-4.5 4.5-6.6 6.7-.3.3-.6.6-.9 1 .1.1.2.1.2.2.4-.2.7-.6 1-.9 2.3-2.3 4.6-4.7 6.8-7-.1 0-.4-.1-.5 0zM4.1 7.5c2.2 2.2 4.5 4.6 6.6 6.8.2 0 .2-.2.3-.3-1.2-1.4-2.6-2.6-3.8-4C6 8.7 4.6 7.4 3.4 6.1h-.1c-.2.6.4 1 .8 1.4zm15.8 0c.3-.3.9-1.1.9-1.1V6c-1.3 1.3-2.6 2.6-3.9 4-1.3 1.3-2.7 2.5-3.8 3.9l.3.3c2-2.1 4.3-4.5 6.5-6.7zm-8.2 6.4l.3.3.3-.3-.3-.3-.3.3zm-.6.7l.3.3.3-.3c-.2-.4-.5-.4-.6 0zm1.2 0l.3.3.3-.3c-.1-.4-.4-.4-.6 0zm-1.6.3c-.9 1-2 1.9-2.9 3 .1.1.2.1.3.2 1.1-.9 1.9-2 3-2.9-.1-.1-.2-.3-.4-.3zm1 .3c.2.3.4.3.6 0-.2-.3-.4-.3-.6 0zm1.5-.3c-.1.1-.2.2-.2.3 1 .9 1.9 2 3 2.9l.3-.3c-1-1-2.1-1.9-3.1-2.9zm-1.9.6c-.9 1-2 1.9-2.9 3 .1.1.2.2.4.3.9-1 1.9-1.9 2.9-3-.1-.1-.1-.3-.4-.3zm1.3 0c0 .1-.3.2-.3.3 0 .1.6.6.7.7.7.8 1.6 1.6 2.1 2.2.2 0 .3-.2.4-.3-.9-.9-1.9-2-2.9-2.9zm-4.3.6c-.1.2-.2.3-.4.4-.6-.8-2.5-.8-3 0-.2-.1-.2-.2-.4-.3.6-1 3-1 3.8-.1zm11.3.1c-.1.1-.2.3-.4.4-.5-.8-2.5-.8-3 0-.2-.1-.3-.2-.4-.4.8-1 3-1 3.8 0zm-9.8 4.7c0 .2-.2.2-.3.4l-1-1-.3-.3c-.2 0-.7.7-.8.8-.8.8-1.7 1.8-2.4 2.4.1.2.2.2.3.4-1.3 1.3-3.4-.7-2.3-2.1.2 0 .2.2.4.3l2.9-2.9.4-.4c0-.1-.6-.6-.6-.7-.3-.3-.5-.4-.7-.6 0-.2.2-.2.3-.3 1.4 1.3 2.7 2.7 4.1 4zM3.7 22c-.1 0-.2-.3-.4-.3-.7 1 .6 2.3 1.6 1.5.1 0-.2-.1-.2-.2l.4-.4c.9-1 2.1-2 2.8-2.9l-.3-.3c-1.2 1-2.2 2.2-3.3 3.3 0-.1-.3-.2-.3-.3l.4-.4c.7-.7 1.4-1.4 2-2.1.2-.2.8-.7.8-.8 0-.1-.3-.2-.4-.3-.9 1.1-2 2.2-3.1 3.2zm14.9-4.9c-.2.3-.4.4-.6.7-.1.1-.7.5-.7.6 0 .1.4.4.4.4.8.8 1.6 1.6 2.4 2.5.1.1.3.4.4.4.2 0 .3-.4.4-.3 1.1 1.5-.9 3.4-2.3 2.2.1-.2.2-.2.3-.4-.8-.8-1.9-2-2.8-2.9l-.4-.4c-.1 0-.6.6-.7.6-.3.3-.4.5-.6.7l-.3-.3c1.3-1.5 2.8-2.8 4.2-4.2.2.2.3.3.3.4zM17 18.8c0 .1-.3.2-.3.3l.4.4c.7.7 1.3 1.4 2 2.1.1.1.8.7.8.8 0 .1-.3.2-.4.3-1.1-1.1-2.1-2.2-3.3-3.3l-.3.3c.6.8 1.6 1.7 2.4 2.5.1.1.8.7.8.9 0 .1-.4.2-.3.3 1 .8 2.4-.5 1.6-1.5-.2-.1-.2.2-.4.3-.8-1.3-1.9-2.3-3-3.4zm-6.5 3.3c-.2-.1-.3-.2-.4-.4.8-.6.8-2.5 0-3.1.1-.1.2-.2.3-.4 1.1.8 1 3.1.1 3.9zm3.4-.3c-.1.2-.2.3-.4.4-.9-.8-.9-3 0-3.8 0 0 .4.2.4.3 0 0-.5.7-.6.9-.2.8.1 1.7.6 2.2z"/></svg>