<svg viewBox="0 0 24 24"><path d="M3.9.5H20v17.1c0 1-1.2 2.3-4 3.9-2 1.1-4 2-4 2h-.1s-2-.9-4-2c-2.8-1.6-4-2.9-4-3.9V.5zM3.5.2v17.4c0 1.3 1.5 2.7 4.3 4.3 2 1.2 4 2 4 2s.1.1.3 0c.3-.2 2.1-.9 4.2-2 2.8-1.6 4.3-3 4.3-4.3V.2c0-.1-.1-.2-.2-.2H3.7c-.1 0-.2.1-.2.2zm1.3 13.3L12 9.7l7.2 3.8v.7L12 10.6l-7.2 3.7v-.8zm0-3.3L12 6.4l7.2 3.8v.8L12 7.3 4.8 11v-.8zm0-8.9h14.3v6.4L12 4 4.8 7.7V1.3zm0 15.5L12 13l7.2 3.8v.4c0 1-1.2 2.1-3.6 3.5-1.7 1-3.5 1.7-3.5 1.7h-.2s-1.8-.8-3.5-1.7c-2.4-1.4-3.6-2.5-3.6-3.5v-.4z"/></svg>