<svg viewBox="0 0 60 60"><path d="M50.3 29.2c-.1-.1-2.3-2.8-5.9-5.5-4.8-3.6-9.8-5.6-14.4-5.6s-9.6 1.9-14.4 5.6c-3.6 2.7-5.8 5.4-5.9 5.5L9 30l.7.8c.1.1 2.3 2.8 5.9 5.5 4.8 3.6 9.8 5.6 14.4 5.6s9.6-1.9 14.4-5.6c3.6-2.7 5.8-5.4 5.9-5.5l.7-.8-.7-.8zm-19-6.8c3.2.5 5.8 3.1 6.3 6.3h-2.5c-.5-1.9-2-3.4-3.8-3.8v-2.5zm-2.6 0v2.5c-1.9.5-3.4 2-3.8 3.8h-2.5c.5-3.2 3.1-5.8 6.3-6.3zM17.2 34.3C15 32.6 13.3 31 12.4 30c.9-1 2.6-2.6 4.8-4.3 1.6-1.2 3.7-2.6 6.1-3.5-2.2 1.9-3.6 4.7-3.6 7.8s1.4 5.9 3.6 7.8c-2.4-1-4.5-2.3-6.1-3.5zm11.5 3.3c-3.2-.5-5.8-3.1-6.3-6.3h2.5c.5 1.9 2 3.4 3.8 3.8v2.5zM27.3 30c0-1.5 1.2-2.7 2.7-2.7s2.7 1.2 2.7 2.7c0 1.5-1.2 2.7-2.7 2.7s-2.7-1.2-2.7-2.7zm4 7.6v-2.5c1.9-.5 3.4-2 3.8-3.8h2.5c-.5 3.2-3.1 5.8-6.3 6.3zm11.5-3.3c-1.6 1.2-3.7 2.6-6.1 3.5 2.2-1.9 3.6-4.7 3.6-7.8s-1.4-5.9-3.6-7.8c2.4 1 4.4 2.3 6.1 3.5 2.2 1.7 3.9 3.3 4.8 4.3-.9 1-2.6 2.6-4.8 4.3zM31.3 15h-2.6V9.7h2.6V15zm6 1.6L35 15.3l2.6-4.6 2.3 1.3-2.6 4.6zm-14.6 0L20.1 12l2.3-1.3 2.6 4.6-2.3 1.3zm6 28.4h2.6v5.3h-2.6V45zm8.6-1.6l2.6 4.6-2.3 1.3-2.6-4.6 2.3-1.3zm-14.6 0l2.3 1.3-2.6 4.6-2.3-1.3 2.6-4.6z"/></svg>