<svg viewBox="0 0 60 60"><path d="M30 9C18.4 9 9 18.4 9 30s9.4 21 21 21 21-9.4 21-21S41.6 9 30 9zM12.8 30c0-4.2 1.6-8.1 4.1-11.1l.1.1.4.4 6.2 6.2 2-2.8.3-.3-.4-.4-.4-.4-5.4-5.5.9-.6c.1-.1.3-.2.4-.3.2-.2.5-.3.7-.4.1-.1.2-.1.3-.2.3-.2.7-.4 1.1-.5.2-.1.4-.2.7-.3.2-.1.4-.1.5-.2.2-.1.4-.1.6-.2.2-.1.4-.1.6-.2.2-.1.4-.1.6-.2.2-.1.5-.1.7-.1.2 0 .4-.1.6-.1.3 0 .6-.1.8-.1h.5c.4 0 .9-.1 1.3-.1.5 0 1.1 0 1.6.1h.3c.5 0 .9.1 1.4.2.2 0 .3.1.5.1l1.2.3c.2.1.4.1.6.2.2.1.5.2.7.2.4.1.7.3 1.1.4.2.1.3.1.5.2.4.2.9.5 1.3.7.1.1.2.1.3.2.3.2.5.3.8.5 1.4 1 2.7 2.3 3.8 3.7l-12.4 8.3-.2.1-.1-.5-1.5-6.4-2.1 2.8-2.3 3.1-9.5 13c-2-2.8-3.2-6.2-3.2-9.9zm34.3 1.8c0 .3-.1.6-.1.8 0 .2-.1.4-.1.6 0 .2-.1.4-.1.7-.1.2-.1.5-.2.7 0 .1-.1.3-.1.4-.5 1.6-1.2 3.1-2.1 4.5-.2.3-.4.6-.7.9l-5.3-5.3-.4-.4-.4-.4-.6-.6-2.3 3.1 6 6 .4.4c-3 2.5-6.9 4.1-11.1 4.1-5.7 0-10.7-2.8-13.9-7l12.7-8.5 1.6 6.9L33 35l2.3-3.1L44 20c.6.8 1.1 1.7 1.5 2.6v.1c.2.3.3.7.4 1 0 .1.1.2.1.3.2.4.3.9.4 1.4.1.3.2.6.2.9 0 .2.1.4.1.6.1.3.1.7.2 1 0 .2 0 .3.1.5 0 .5.1 1 .1 1.6 0 .4 0 .9-.1 1.3.1.2.1.3.1.5z"/></svg>