<svg viewBox="0 0 60 60"><path d="M43.9 22.6c0 .5-.1 1-.1 1h-.2v.5c.1 0 .1.1.1.2v.4c0 .1-.1.2-.2.2v.4c0 .3-.3.7-.6.7-.8 0-3.8.2-3.8.2l-2.5.1h-1.4s-.9.1-1 .8c-.1.6-.1 1.2 0 1.6 0 .4.1.8.2 1.1.1.2 0 .4-.1.4l-1-1.2c.1-.1.1-.2.2-.3.1-.3 0-.5 0-1.1 0-.6-.3-.8-.4-.9-.1-.2-.4-.3-.6-.3-.4-.1-1.3.1-1.4.1h-.3l-5.3-5.3h16.7l.3-.4h.2l.5.4h.2c.2 0 .4.3.4.4h.2c-.2 0-.1.5-.1 1zm-26 10.3c-1.4 2.1-1.6 3.6-1.6 3.6s-.3.7-.1 1c.3.4.8.8 1.2.8h.9s-.4.5-.5.6c-.1.1 0 .3.1.4.1.1.4 0 .4 0h4s.5 0 .7-.1c.2-.1.2-.2.2-.2v-.7h.2c.4-.2.6-.4.6-.6 0-.1 0-.2.1-.5.1-1.4.6-1.8.7-2 .1-.2.4-.3.4-.3s.2 0 .2-.2c0-.1-.2-.4-.2-.6 0-.3.3-.9.4-1.1.1-.2.6-.4.6-.4s.2-.1.1-.2c-.1-.2-.2-.4-.2-.6 0-.2.1-.4.3-.9.2-.4.3-.5.5-.8 0-.1.1-.1.2-.1l-8.6-8.5c-.1.1-.1.2-.1.2v2.5h.1c-.1 0-.4.4-.5.6 0 .1 0 .4.1.5.2.1.8.1 1.4.6l.4.4c.5.6 0 1.8-.1 2.4s-.6 2-1.9 4.2zM51 30c0 11.6-9.4 21-21 21S9 41.6 9 30 18.4 9 30 9s21 9.4 21 21zm-9.9 13.1L16.9 18.9c-2.5 3-4.1 6.9-4.1 11.1 0 9.5 7.7 17.2 17.2 17.2 4.2 0 8.1-1.6 11.1-4.1zM47.2 30c0-9.5-7.7-17.2-17.2-17.2-3.9 0-7.5 1.3-10.3 3.5l24 24.1c2.2-2.9 3.5-6.5 3.5-10.4z"/></svg>