<svg viewBox="0 0 60 60"><path d="M37.3 21.5L33 24.8l1.5 4.8-4-4-3.7-3.7-.6-.6h2.1L30 16l1.8 5.3 5.5.2zM51 30c0 7-3.4 13.1-8.6 16.9-.9.7-1.8 1.2-2.8 1.8-.7.4-1.5.7-2.3 1-.3.1-.6.2-.8.3-2 .6-4.2 1-6.4 1s-4.4-.4-6.4-1c-.3-.1-.6-.2-.8-.3-.8-.3-1.5-.6-2.3-1-1-.5-1.9-1.1-2.8-1.8C12.4 43.1 9 37 9 30 9 18.4 18.4 9 30 9s21 9.4 21 21zM39.3 44.4c.6-.4 1.2-.8 1.8-1.3l-3.8-3.8-1.6-1.6-.7-.7-3.9-3.9-.2-.2-1.3-1.3-.2-.2-.1-.1L27 29l-1-1-3-3-1.6-1.6-4.6-4.6c-2.5 3-4.1 6.9-4.1 11.1 0 6.1 3.2 11.5 8 14.5.9.6 2 1.1 3 1.5.4.2.9.3 1.4.5 1.5.4 3.1.7 4.8.7h.4c1.6 0 3.2-.2 4.6-.7.5-.1.9-.3 1.4-.5 1-.4 2-.9 3-1.5zM47.2 30c0-9.5-7.7-17.2-17.2-17.2-3.9 0-7.5 1.3-10.3 3.5l4.7 4.7.3.3 1.3 1.3 3.7 3.7 1.3 1.3 6.4 6.4.8.8 1.6 1.6 3.9 3.9c2.2-2.8 3.5-6.4 3.5-10.3zm-15 5.7l-2.1-2.1-1.1-1.1c-1.5 4.5-4.6 8.3-7.6 11.2.9.6 2 1.1 3 1.4 1.5-1.6 2.6-2.9 2.6-2.9-.5 1.2-1 2.3-1.5 3.3 1.4.4 2.8.6 4.3.6h.4c1.4 0 2.8-.2 4.1-.6-.5-1-1.1-2.1-1.5-3.3 0 0 1.1 1.4 2.6 3 1-.4 2.1-.9 3-1.4-2.2-2.3-4.5-5-6.2-8.1zm-6.5-6.6l-.3.9.7-.5-.4-.4z"/></svg>