<svg viewBox="0 0 60 60"><path d="M28.5 22.5c.1 0 .1 0 0 0h.3l.1-.1.1-.1v-.4L20.9 16c0-.5.1-1 .3-1.3.2-.4.6-.6 1.1-.8l3.9 2.8c.1.1.3.1.4.1.1-.1.2-.2.3-.4 0-.1 0-.3-.2-.4l-3.3-2.4c.2-1.1.8-1.7 1.3-1.9l3.7 2.7c.2.1.5.1.6-.1.1-.2.1-.4-.1-.6l-3.2-2.4c0-.4.1-.8.3-1 .2-.2.5-.4.8-.6l3.6 2.6c.2.2.5.1.6-.1.1-.2.1-.4-.1-.6L28.6 10c-.1-.3 0-.6.1-.7.1-.2.3-.3.6-.3.5.3 2.7 1.5 5.1 3.2 1.6 1.1 2.8 2.1 3.8 3.1 1.2 1.1 1.9 2.2 2.1 3l.8 3.1-3.2 5.6c-1-.4-6.8-2.3-9.1-3l-2-.5c0-.2.1-.5.2-.9 0-.2.1-.4.2-.6.5.2.8.3 1 .3.2.2.3.2.3.2zm21 6.1c-.2-.1-.4-.1-.7 0L47.4 31c-.1.2-.4.2-.6.1-.2-.1-.3-.3-.2-.6l2.2-3.8c-.2-.3-.4-.6-.6-.7-.2-.2-.6-.2-1-.2l-2 3.5c-.1.1-.2.2-.3.2h-.3c-.1-.1-.2-.1-.2-.2V29l2.3-4c-.2-.5-.9-1-2-1.1l-2 3.5c-.1.1-.2.2-.4.2s-.3-.1-.4-.2c-.1-.1-.1-.3 0-.4l2.4-4.2c-.2-.5-.5-.9-.9-1.1-.3-.2-.6-.2-1-.2h-.3l-4.9 8.6c-.2.2-.4.2-.5.1-.2-.1-.3-.3-.1-.6.2-.4.5-1.3.4-1.7l-1.5-.5-.2.7-.4 2.3c-.4 2.5-1.2 7.5-1.3 7.6 0 .1-.1.2-.1.2-.2.2-.5.4-.7.5-.1.1-.2.1-.3.2-.1 0-.1.1-.1.1l5.2 4.8s.1-.1.1-.2c.1-.1.2-.2.2-.3.1-.2.3-.4.5-.6 0 0 .1-.1.2-.1l3.1-1.2c.8-.3 1.8-1.1 2.8-2.4.8-1.1 1.7-2.5 2.7-4.1 1.5-2.7 2.5-5.1 2.7-5.5-.1-.5-.2-.7-.4-.8zm-26.8.4h.2l.1.1.1.1v.5c0 .2-.1.5-.2 1 0 .2 0 .2.1.4.1.1.3.3.5.4.3.1.5.2.6.2l.2-.5.4-2.3c.5-2.4 1.7-7 1.9-7.7l-5.9-4.3-2.4.8c-.8.3-1.8 1.1-2.8 2.4-.9 1.1-1.8 2.4-2.8 4.1-1.5 2.6-2.6 5.1-2.8 5.4.1.3.2.5.3.6.2.1.4.1.7 0l1.4-2.4c.1-.2.4-.2.6-.1.2.1.3.3.1.6L11.1 32c.2.3.4.6.6.8.2.2.6.2 1 .3l2.1-3.5c.1-.2.4-.2.6-.1.2.1.3.3.1.6L13 34c.2.5.8 1 1.9 1.2l2.1-3.5c.1-.2.4-.2.6-.1.2.1.3.3.1.6l-2.5 4.1c.2.5.5.9.9 1.1.3.2.8.3 1.3.3l3.9-6.6c.3-.3.6-.8.8-1.3.1-.2.2-.3.3-.5v-.1c.2-.1.2-.1.3-.2zm8.1 9.4l-.1-.2v-.1l.1-.2.1-.1c.1 0 .1-.1.1-.1h.5c.1 0 .3.1.7.3.1.1.3 0 .3 0 .2 0 .5-.3.6-.4.1-.2.1-.3.1-.4v-.1l-.2-.2-2-.9c-2.4-1-7-2.9-7-2.9-.1 0-.2-.1-.2-.2L22.5 31c-.1.2-.2.3-.2.4v.1l-3.7 6.3.3 2.5c.1.9.7 2 1.7 3.3.8 1.1 2 2.3 3.4 3.5 2.2 2 4.3 3.6 4.7 3.8.3 0 .5-.1.7-.2.1-.1.2-.4.2-.7l-2-1.9c-.2-.2-.2-.4 0-.6.1-.1.4-.2.6 0l3.2 3c.3-.1.6-.2.8-.5.2-.2.4-.5.4-.9l-2.9-2.7c-.2-.2-.2-.4 0-.6.1-.1.4-.2.6 0l3.4 3.2c.5-.1 1.2-.6 1.5-1.7l-2.9-2.8c-.2-.2-.2-.4 0-.6.1-.1.4-.2.6 0l3.5 3.3c.5-.1.9-.3 1.2-.7.3-.3.4-.7.5-1.2l-7.3-6.9c.1.1.1.1 0 0z"/></svg>