<svg viewBox="0 0 60 60"><path d="M30 27.7c-1.3 0-2.3 1-2.3 2.3 0 1.3 1 2.3 2.3 2.3s2.3-1 2.3-2.3c0-1.3-1-2.3-2.3-2.3M43 43c-3.3 3.3-7.6 5.2-12.2 5.4v-3.1c0-.4-.4-.8-.8-.8s-.8.4-.8.8v3.1c-4.6-.2-9-2.1-12.2-5.4-3.3-3.3-5.2-7.6-5.4-12.2h3.1c.4 0 .8-.4.8-.8s-.4-.8-.8-.8h-3.1c.2-4.6 2.1-8.9 5.4-12.2 3.3-3.3 7.6-5.2 12.2-5.4v3.1c0 .4.4.8.8.8s.8-.4.8-.8v-3.1c4.6.2 9 2.1 12.2 5.4 3.3 3.3 5.2 7.6 5.4 12.2h-3.1c-.4 0-.8.4-.8.8s.4.8.8.8h3.1c-.2 4.6-2.1 8.9-5.4 12.2m7-13s0-.1 0 0c0-5.4-2.1-10.4-5.9-14.1-3.8-3.8-8.7-5.8-14-5.9h-.2c-5.3 0-10.3 2.1-14 5.9-3.8 3.8-5.8 8.7-5.9 14.1v.2c0 5.3 2.1 10.3 5.9 14.1C19.6 47.9 24.7 50 30 50c5.3 0 10.4-2.1 14.1-5.9C47.9 40.4 50 35.4 50 30c0 .1 0 0 0 0m-15.8 1.4l-1.8.5c-.3.1-.5.3-.6.6l-.5 1.8-1.3 5.1-1.9-7c-.1-.3-.3-.5-.6-.6l-7-1.9 7-1.9c.3-.1.5-.3.6-.6l1.9-7 1.4 5.1.5 1.8c.1.2.2.4.5.5h.1l1.8.5 5.1 1.4-5.2 1.7zm8.4-2.2l-7-1.9 2.7-4.6c.2-.3.1-.7-.1-.9-.3-.3-.6-.3-.9-.1l-4.6 2.7-1.9-7c-.1-.3-.4-.6-.8-.6s-.7.2-.8.6l-1.9 7-4.6-2.7c-.3-.2-.7-.1-.9.1-.3.3-.3.6-.1.9l2.7 4.6-7 1.9c-.3.1-.6.4-.6.8s.2.7.6.8l7 1.9-2.7 4.6c-.2.3-.1.7.1.9.2.2.4.2.6.2.1 0 .3 0 .4-.1l4.6-2.7 1.9 7c.1.3.4.6.8.6s.7-.2.8-.6l1.9-7 4.6 2.7c.1.1.3.1.4.1.2 0 .4-.1.6-.2.3-.3.3-.6.1-.9l-2.7-4.6 7-1.9c.3-.1.6-.4.6-.8-.2-.4-.4-.7-.8-.8z"/></svg>