<svg viewBox="0 0 60 60"><path d="M46.4 44.9c-1.5-.1-1.7 0-5.4-.3.2-.1.3-.2.3-.2s-.2-.1-.5-.3c2.3.2 2.9.2 4.7.2.5 0 .8.3.9.6zm-5.5-.8c-1.2-.9-4.6-3.7-9.2-5.2-1.1-.4-2.3-.7-3.4-1.2l1.3 2.4-2.5-2.8c-.6-.2-1.2-.5-1.7-.7l-3.3-1.5c.2 1.2-.4 1.4-.4 1.4-.3-.7-.5-1.4-.8-1.9-5.6-2.4-6.7-3-7.9-2.2l2.2 2.5-2.9-1.2c-.1.6.1 1.4.7 2.2l.1.1c.4.5.8 1.1 1.3 1.7l2.2.1-1.6.5c2.5 2.5 6.5 5.4 11.9 7.2.6-.3 1.2-.7 1.8-1.4 0 0 .2 0-.9 1.7 5.7 1.8 10.7 1.1 13.3-1.1-11.4-1.1-18.5-4.8-24-8.6 6.4 4.2 13.3 7.3 23.8 8zm5.4-9.2c-1.8-.1-2.4-.1-4.7-.2.3.2.4.3.5.3 0 0-.1.1-.3.2 3.7.3 3.9.3 5.4.3-.2-.3-.6-.6-.9-.6zm-32.7-8.4c.4.5.8 1.1 1.3 1.7l2.2.1-1.5.7c2.5 2.5 6.5 5.4 11.9 7.2.6-.3 1.2-.7 1.8-1.4 0 0 .2 0-.9 1.7 5.7 1.8 10.7 1.1 13.3-1.1-11.4-1.1-18.5-4.8-24-8.6 6.4 4.2 13.3 7.3 23.8 8-1.2-.9-4.6-3.7-9.2-5.2-1.1-.4-2.3-.7-3.4-1.2l1.3 2.4-2.5-2.8c-.6-.2-1.2-.5-1.7-.7l-3.3-1.5c.2 1.2-.4 1.4-.4 1.4-.3-.7-.5-1.4-.8-1.9-5.6-2.4-6.7-3-7.9-2.2l2.2 2.5-2.9-1.2c-.1.5.1 1.2.7 2.1 0-.1.1 0 0 0zm29.1-.9s-.1.1-.3.2c3.7.3 3.9.3 5.4.3-.1-.4-.5-.7-.9-.6-1.8-.1-2.4-.1-4.7-.2.3.3.5.4.5.3zm-28.4-8.5c.4.5.8 1.1 1.3 1.7l2.2.1-1.5.7c2.5 2.5 6.5 5.4 11.9 7.2.6-.3 1.2-.7 1.8-1.4 0 0 .2 0-.9 1.7 5.7 1.8 10.7 1.1 13.3-1.1-11.4-1.1-18.5-4.8-24-8.6 6.4 4.2 13.3 7.3 23.8 8-1.2-.9-4.6-3.7-9.2-5.2-1.1-.4-2.3-.7-3.4-1.2l1.3 2.4-2.5-2.8c-.6-.2-1.2-.5-1.7-.7l-3.3-1.5c.2 1.2-.4 1.4-.4 1.4-.3-.7-.5-1.4-.8-1.9-5.6-2.4-6.7-3-7.9-2.2l2.2 2.5-2.9-1.2c-.1.5.1 1.2.7 2.1z"/></svg>