<svg viewBox="0 0 60 60"><path d="M22.8 34.8c-1.2-5.6-5.6-9.9-11.2-11.2-.4-.1-.7-.5-.7-.9s.3-.8.7-.9c5.6-1.2 9.9-5.6 11.2-11.2.1-.4.5-.7.9-.7s.8.3.9.7c.6 2.6 1.8 4.9 3.6 6.9.3.4.3.9 0 1.3-.4.3-.9.3-1.3 0-1.4-1.4-2.4-3.1-3.2-4.9-1.7 4-4.9 7.2-8.9 8.9 4 1.7 7.2 4.9 8.9 8.9 1.7-4 4.9-7.2 8.9-8.9-.7-.3-1.5-.7-2.2-1.1-.4-.3-.6-.8-.3-1.2.3-.4.8-.6 1.2-.3 1.4.8 2.8 1.4 4.4 1.7.4.1.7.5.7.9s-.3.8-.7.9c-5.6 1.2-9.9 5.6-11.2 11.2-.1.4-.5.7-.9.7-.3-.1-.7-.4-.8-.8zm25.6-.6c-3.6-.8-6.3-3.6-7.1-7.1-.1-.4-.5-.7-.9-.7s-.8.3-.9.7c-.8 3.6-3.6 6.3-7.1 7.1-.4.1-.7.5-.7.9s.3.8.7.9c1.4.3 2.7.9 3.8 1.8.4.3 1 .2 1.3-.1.3-.4.2-1-.1-1.3-.6-.5-1.3-.9-2-1.3 2.2-1.1 4-2.9 5.1-5.1 1.1 2.2 2.9 4 5.1 5.1-2.2 1.1-4 2.9-5.1 5.1-.2-.4-.4-.7-.6-1.1-.3-.4-.8-.5-1.2-.3-.4.3-.5.8-.3 1.2.6.9 1 2 1.3 3 .1.4.5.7.9.7s.8-.3.9-.7c.8-3.6 3.6-6.3 7.1-7.1.4-.1.7-.5.7-.9-.2-.3-.5-.7-.9-.8zm-16.1 9.7c0 .4-.3.8-.7.9-2.3.5-4 2.3-4.5 4.5-.1.4-.5.7-.9.7s-.8-.3-.9-.7c-.5-2.3-2.3-4-4.5-4.5-.4-.1-.7-.5-.7-.9s.3-.8.7-.9c2.3-.5 4-2.3 4.5-4.5.1-.4.5-.7.9-.7s.8.3.9.7c.5 2.3 2.3 4 4.5 4.5.4.1.7.5.7.9zm-3.3 0c-1.1-.7-2.1-1.6-2.8-2.8-.7 1.1-1.6 2.1-2.8 2.8 1.1.7 2.1 1.6 2.8 2.8.7-1.2 1.7-2.1 2.8-2.8zm-11.8-7c0-.1 0-.1-.1-.2l-.1-.1c-.3-.3-.9-.3-1.3 0l-.1.1s-.1.1-.1.2 0 .1-.1.2v.2c0 .1 0 .2.1.3 0 .1.1.2.2.3.2.2.4.3.6.3.2 0 .5-.1.6-.3.1-.1.1-.2.2-.3 0-.1.1-.2.1-.3v-.4zm20.5-17.6c.2.2.4.3.6.3.2 0 .5-.1.6-.3.2-.2.3-.4.3-.6v-.2c0-.1 0-.1-.1-.2 0-.1 0-.1-.1-.2l-.1-.1-.1-.1s-.1-.1-.2-.1h-.7c-.1 0-.1.1-.2.1l-.1.1-.1.1s-.1.1-.1.2v.4c0 .1 0 .2.1.3.1.2.1.3.2.3zm-2.4 23.3c0-.1 0-.1-.1-.2l-.1-.1c-.3-.3-.9-.3-1.3 0l-.1.1s-.1.1-.1.2 0 .1-.1.2v.6c0 .1.1.1.1.2l.1.1c.1.1.2.1.3.2.1 0 .2.1.3.1.1 0 .2 0 .3-.1.1 0 .2-.1.3-.2l.1-.1s.1-.1.1-.2v-.6c.3-.1.3-.2.2-.2zm-3.9-13.1l-.1-.1-.1-.1s-.1-.1-.2-.1h-.2c-.3-.1-.6 0-.8.2l-.1.1s-.1.1-.1.2v.8c0 .1 0 .1.1.2l.1.1.1.1s.1.1.2.1h.4c.2 0 .5-.1.6-.3l.1-.1s.1-.1.1-.2 0-.1.1-.2v-.4c0-.1 0-.1-.1-.2-.1 0-.1 0-.1-.1z"/></svg>