<svg viewBox="0 0 60 60"><path d="M51 33.7l-.5.6-.3-.3-.2.1.1.6-6.9 6.9c-.5.5-1.1.6-1.4.7-.2.2-3.8 3.4-3.8 3.4L35.3 43s3.4-3.4 3.4-3.7c.2-.2.3-1 .7-1.4l6.9-6.9.6.1.2-.2-.3-.3.6-.6 3.6 3.7zM34.4 44c-1.7 1.5-3.9 5.3-3.3 5.9s4.4-1.6 5.9-3.2l.6-.6-2.6-2.7-.6.6zm9.1-18h-5.3l-.9-.7-1.2-4.5-1.2 4.5-.8.7h-3l-1.9 6.9h-1.6l-3.2-12-1.2 4.5-.9.6h-5.8C20.1 33.7 30 38.7 30 38.7s9.9-5 13.5-12.7zm-27.8-1.5h6.1l1.9-6.9H25l3.4 12.7 1.4-5.2.7-.6h3.2l1.8-6.9h1.4l1.9 6.9h5.7v-.1c.4-1.3.6-2.6.6-3.9 0-5-3.9-9.1-8.7-9.1-2.4 0-4.6 1-6.3 2.7-1.7-1.8-3.9-2.7-6.3-2.7-4.8 0-8.8 4.1-8.8 9.1 0 1.2.2 2.5.7 3.9v.1zM25.6 44l-.6-.6-2.6 2.7.6.6c1.5 1.6 5.3 3.8 5.9 3.2s-1.6-4.3-3.3-5.9zm-4.3-4.7c-.2-.2-.3-1-.7-1.4L13.7 31l-.6.1-.2-.2.3-.3-.6-.6L9 33.7l.5.6.3-.3.2.2v.5l6.9 6.9c.5.5 1.1.6 1.4.7.2.2 3.8 3.4 3.8 3.4l2.8-2.6c-.2-.1-3.5-3.5-3.6-3.8z"/></svg>