<svg viewBox="0 0 60 60"><path d="M36.5 31.5c1.5-.8 3.2-.6 4.8-.3 3.3.9 5.9 3.7 6.6 7 .6 2.8 0 6-2.1 8.1-2.3 2.6-6.4 3.4-9.5 2-2.8-1.3-4.8-4.2-4.7-7.3-.1-2.3 1.1-4.6 3-6.1 2.2-1.8 5.5-1.9 8-.5 2.7 1.5 4.1 5 3.2 8-.7 2.5-3.1 4.4-5.7 4.4-1.6.2-3.2-.4-4.4-1.4-1.9-1.6-2.5-4.4-1.6-6.7-2 3.8 1.2 8.6 5.3 8.6 3.6.4 7-2.5 7.5-6 .4-3.1-1-6.4-3.6-8.3-2-1.5-4.4-1.7-6.8-1.5m-.5 6.9c-1 1.1-.9 2.7-.6 4.1.9 2.4 4.4 3.6 6.4 1.9l-1 .3c-2 1-4.7-.6-4.9-2.8-.4-2 1.3-3.7 3.2-3.9-.6.7-1.7 1.3-1.7 2.3-.2 1.6 1 3.4 2.7 3 2-.1 2.6-2.8 1.6-4.4-1-2-4.2-2.3-5.7-.5zm-7.8-23.8c1.6-1.4 3.3-2.6 5.1-3.6-.5 1.5-1 3-.8 4.6.2 1.4.6 2.8 1.4 4 .3-1 .3-2.1.4-3 .8 1.6 1.5 3.2 2.2 4.8.6 1.5.3 3.2-.3 4.6-.8 1.6-2.6 2.6-4.3 3 1.1-1 1.4-2.5.8-3.8-.8-1.4-1.6-2.8-2.6-4-1 1.4-2 2.8-2.6 4.3-.5 1.2-.1 2.4.6 3.3-1.4-.4-2.8-1.3-3.6-2.6-1-1.7-1-3.9-.4-5.8.6-2.3 2.2-4.2 4.1-5.8zM18 31c1 1 1.9 2 2.9 3 .3.3.7.6.8 1.2 1-1 1.9-2 3-2.8 0 1.9.1 3.6.1 5.4l-.6.6h4.5c-1.2 1.2-2.6 2.4-3.8 3.6-.4 0-.8 0-1.2.1 1 1 2 1.9 3 2.9l-4.7.1-.6-.6V49c-1.2-1.1-2.3-2.3-3.4-3.5-.4-.3-.2-.9-.2-1.2-1.1.8-2 2-3 2.8 0-1.6-.1-3.2-.1-4.7.2-.2.4-.4.6-.7h-4.5c1.2-1.2 2.6-2.4 3.8-3.6h1.2c-1-1-2-1.9-3-3 1.6-.1 3.2-.1 4.7-.2l.6.6c-.1-1.5-.2-3.1-.1-4.5m1 7.2c-.8.4-1.6.6-2.3 1.1.4.4 1 .8 1.3 1.3.4.8.7 1.5 1 2.3.6-.5 1.1-1.2 1.9-1.5.6-.3 1.2-.5 1.8-.8-.4-.4-1-.8-1.3-1.3-.4-.8-.7-1.5-1-2.3-.6.4-1 .9-1.4 1.2z"/></svg>