<svg viewBox="0 0 60 60"><path d="M46 26.5c-.2 0-.4-.1-.5-.2-.3-.3-6.9-7.8-15.5-7.8-8.5 0-15.2 7.5-15.5 7.8-.3.3-.7.3-1 .1-.3-.3-.3-.7-.1-1C13.8 25 20.8 17 30 17c9.2 0 16.2 8 16.5 8.3.3.3.2.7-.1 1-.1.1-.2.2-.4.2zm-19.4 4c0 1.9 1.5 3.4 3.4 3.4s3.4-1.5 3.4-3.4-1.5-3.4-3.4-3.4c-1.9-.1-3.4 1.5-3.4 3.4zm-14.3.4c-.2-.3-.2-.6 0-.9.3-.4 8-10.1 17.7-10.1S47.4 29.6 47.7 30c.2.3.2.6 0 .9-.3.4-8 10.1-17.7 10.1s-17.4-9.7-17.7-10.1zM30 37.5c3.9 0 7.1-3.2 7.1-7.1 0-3.9-3.2-7.1-7.1-7.1-3.9 0-7.1 3.2-7.1 7.1 0 4 3.2 7.1 7.1 7.1zm-14.9 3.3c-.3.4-2.9 4.4-2.9 6.3 0 2.1 1.6 3.9 3.5 3.9s3.5-1.7 3.5-3.9c0-1.9-2.6-5.9-2.9-6.3-.1-.2-.4-.3-.6-.3-.2 0-.5.1-.6.3z"/></svg>