<svg viewBox="0 0 60 60"><path d="M47.1 16.5c-.1-.1-.2-.1-.3-.1l-16.3-5.1h-.9l-16.3 5.1c-.1 0-.2.1-.3.1-.6.3-.9.9-.9 1.5v.1c.1 2.5.2 4.8.5 6.9C14.7 40.6 23 45.5 29.2 48.5c.1 0 .3.1.6.2h.4c.3-.1.5-.2.6-.2 6.2-3 14.5-7.8 16.7-23.4.3-2.1.5-4.4.6-6.9v-.1c-.1-.7-.5-1.3-1-1.6zm-4.9 8.1l-1.3 1.7-.4-1.5-1.3 1.6-.3-1.4-1.2 1.6-.4-1.5-1.3 1.6-.4-1.5-1.2 2.2-.1 2.1 1.2-1.7.4 1.5 1.2-1.7.4 1.3 1.2-1.5.4 1.5 1.4-1.7.3 1.3c-.2.6-.6 1.2-1 1.8-3.2.2-5.6.6-7.9 1.2l-1.2.5h-.1c-.9.3-1.8.7-2.7 1.2l.6-2.7.1-.5-.5-.1c-.7-.1-1.3-.1-1.9.1l1.5-3-.9-.4-2 4-.6 1.2 1.2-.5c.7-.2 1.3-.5 2-.5l-.7 3.2-.2 1.2 1-.6c.5-.4 1-.7 1.6-.9-1.1 2.3-1.7 4.7-1.7 7-1.1-1.4-1.7-2.9-1.9-4.5-1.6 1-3.3 2.8-4.6 4.2.1-1.9.7-4.2 1.9-5.9-2 0-3.5.1-5.4 1 1.3-3.1 2.7-4.8 4.6-6-1.3-.3-2.9-.2-4.7.3 1.7-2.1 3.5-3.2 4.9-3.7-1.3-1.2-2.3-1.9-4-2.4 1.9-.2 3.7-.2 5.5.1.1.7.4 1.3.7 2l.9-.5c-.2-.4-.3-.7-.4-1-.6-2.6-.2-4.8 1-6.7l2.2 4.7c.6-.1 1.1-.2 1.7-.2 1.6 0 3.2.4 4.6 1.2 2.5-.2 5.1-.7 8.1-.5 0 .6-.1 1.3-.3 1.8zm-11-1.4c.8 0 1.6.3 2.4.6-.2.7-.7 1-1.3 1.1-.9-.2-1.5-.8-1.8-1.6.2-.1.5-.1.7-.1z"/></svg>