<svg viewBox="0 0 60 60"><path d="M20.9 27.4zm7.3-2.4c-.4-1.3-1.2-2.2-2.1-2.7.9-.5 1.5-1.4 1.5-2.5 0-1.6-1.3-2.8-2.9-2.8s-2.9 1.3-2.9 2.8c0 1.1.6 2 1.5 2.5-1.4.8-2.4 2.8-2.5 5.1H27c.4-.9.7-1.7 1.2-2.4zm17.3 2.4zM38.2 25c.5.7.9 1.6 1.2 2.4h6.1c-.1-2.4-1.1-4.4-2.5-5.1.9-.5 1.5-1.4 1.5-2.5 0-1.6-1.3-2.8-2.9-2.8-1.6 0-2.9 1.3-2.9 2.8 0 1.1.6 2 1.5 2.5-.8.5-1.6 1.4-2 2.7zm-9.2.1c-.5.7-.9 1.6-1.1 2.5-.2.8-.3 1.7-.3 2.6v.1H39c0-1.3-.1-1.8-.3-2.6-.3-.9-.7-1.8-1.2-2.6-.6-.9-1.4-1.6-2.3-2.1 1.1-.7 1.9-1.9 1.9-3.3 0-2.1-1.7-3.8-3.8-3.8-2.1 0-3.5 1.4-3.8 3.8-.2 1.4.8 2.6 1.9 3.3-1 .5-1.8 1.2-2.4 2.1zm19.2 10.4c-.8-1.4-4.2-1.1-8.9 1.2v.3c-.2 1.4-3.1 2-10.5.1l1.1.1 2.5.3c1 .1 5 .5 6.2-.7.2-.2.1-.9.1-1-.2-1.3-1.5-1.4-4.8-1.9-.1 0-2.8-.8-2.9-.8-2-.5-2.6-.7-4.1-1-1.7-.4-2.1-.3-3-.3-1.2.1-1.8.1-2.8.5-3.7 1.2-5.3 2.2-8.7 4.1l-1.2.6 3.9 6.9.9-.6c2.6-1.7 4.3-3.1 5.1-3 1 0 3.6 1.1 6.2 1.9 2.3.7 2.8.7 5.1 1.4 3.2.9 2.8.6 5.5-.7 1.6-.9 2-1.2 3.1-1.8 6.6-3.9 8.2-3.8 7.2-5.6z"/></svg>