<svg viewBox="0 0 60 60"><path fill-rule="evenodd" clip-rule="evenodd" d="M43.2 24.4c0-.1 6.6-3.9 4.3 5.6-.6 2.3 1.7 2.9-7.9 8.5l-3 1.7c-2.2.6-2.1 3.3-5.7 2.8-.4-.1-.7-.2-.7-.5-.4-1.1 6.4-5.2 10.5-9.6.8-.9 1.7-2.2 2.4-2.6 1.4-.9 2-2.6.1-5.9zm-6.3 11.7c-.9.2-1.7.5-3.2.1-1.3-.3-2.5-.9-3.9-1.1-1.4-.4-2.7-.7-4.2-1.2-3-1.1-7.1-3.3-6.6-4.9.4-1.1-2.8-2.3-3.1-4.5L12 26.9c-.2.6 1.8 5.4 5.4 6 5.5.9 7.4 2.9 11.6 3.1-4.3.1-8.7-2.5-10-2.2-.6.1-.7 2.3 1.4 4.7 1.9 2.1 7.6 4.3 9.2 3.3l4.3-3.4 3-2.3zm6-11.4c2.2 3.8.5 5.1.1 4.9-1.1-.6-2.3 3.7-8 3-2.5.4-5.4 1-7.6.7-5.9-1-9.2-3.7-4.7-2.5 3 .6 14.3 1.6 16.2-.9l4-5.2zm-.1 5.1c-.3-.2-2.3 3.8-7 3.2l-.7-.1c-6.1 1.1-6.8 1.2-12.7-.7 5.2 2.6 6.3 1.8 10.2 3.4 4.4 1.6 5.8-1.3 9.2-4.6l1-1.2zm-4.3-12.7c2.4-1.2 4.3 1.5 4.5 3.5.3 3.8-3.1 8.9-6.4 9.8-.8.3 3-5.8 3.3-6.5.6-1 1-2-.2-2.5-.2-.1-.8-.2-.6-.5.5-1.7-.8-3.7-.6-3.8zm.3 4.7c-.2-.5 2.2.2 1 1.2-5.3 5-9.4 5.6-9.3 5.5 2.2-.1 4.9-1.7 6.7-2.9.5-.4 2.7-2.1 2.6-1.9-.3 1-3.4 5.6-4.2 6.7-.5.7-6.7.6-8.1.5-1.7-.1-3.7-.7-4.9-2-1.1-1.2-.6-.8-2-1.7-1.3-.8-1.2-1.7-1.1-3.1.1-.2.1-.2.3 0 1.9 2.8 7.4 5.3 10.6 5.5.4 0 3.7-.1 3.9-.4.1-.5-3.2.1-3.9 0-.3 0-.7-.2-.6-.5.1-.3 3.5-1.7 5.8-3.1 1.3-.8 3.6-2.1 3.2-3.8zm-.1.3l-.1.1c0 .1 0 .1 0 0l.1-.1zm-16.2 7.3c-.4-.4-.5-.9-1-1.3-.3-.2-.8-.5-1.1-.6-2.1-1.9-.5-3.4-.9-4.6-.7-2 .1-3.4 1.4-4.9.1-.2.1-.2-.3 0-1.2.5-4.3 1.7-4.6 3.2-.2 1.1.2 3.4 1 4.5.6.9 2 1.9 2.4 2.8 0 .2.2 1.9.6 1.7 1.3-.5 3.8.3 4.2.3.3.1-1.5-1-1.7-1.1zm10.9-3.2c-.7.3-3.8 1.5-3.9 2.2-.1.1 0 .6 0 .6-.6.1-4.4-1.5-5-1.9-1.3-.6-3.5-1.9-4.5-3.1-.4-.6-.5-1.2-.4-1.7 0-.3.2-.6.5-.8s.7-.3 1.2-.4h1.1c.3.1.4.1.5.1v.2c0 .3-.3.9-.2 1.6.1 1 .6 2 .5 2-.4.4-2.1-2-2.4-2.4v.3c.3 1 2 2.2 2.9 2.7 1.4.9 2.8 1.5 4.4 2.4.5.3-4-2.5-4-2.5.2-.2 3.4.2 4.5.2 1.7-.3 7 1 6.2-3.9 0-.3 0-1.5-.9-2.6-.2-.1.6.1 1.3.4.8.4 1.8 1.1 1.8 1.8-.1 1.3-1.3 1.9-1.5 3-.1 1.1-.9 1.1-2.1 1.8zM24 24.3c-.1-.7-.5-1.8-.5-2.8 0-.9.5-1.7 1.1-2.2.4-.5 1-.7 1.5-.9 1.6-.4 3.9 1.2 4.2 1 .2 0-3.1-1.5-3-1.7 1.5-1.4 7.3-1.7 9.1-1.2 1.7.6 1.9 1.5 1.9 3.1 0 .8-.1 2.5-.5 3.2-.3.6-1.4 1.8-1.9 2.4-.2.2-.2.2-.2 0 .3-1.6 1-1.6 1.5-2.9.5-1.4-1.1-3.1-2.2-3.2-.9-.1-1.2-.6-1.5-.7-.6-.3 1 2 1 2.8 0 0-1-.6-2-.9-2.1-.5-2.6-.1-4.4.4-.5.1-1.5-.5-2-.3-.4.2-.3.6-.5.8-.4.7-1 .9-1.1 1.8 0 .3 0 .6.2.9.1.2.4.4.6.4.2 0 .3-.2.4-.4h.4c.8.1 1.7.3 2.6.5.7.2 1.6.3 2.3.1.3 0 1.5-.4 1.4-.8-.2-1.2-3.1-2-4.1-2.3-.2-.1 3 .1 3.9 1.5 0 0 0-.4-.4-.6-.4-.3-1.2-.7-2-.9-.7-.1-1.5-.2-1.6-.3-.2-.2 1-.7 2.4-.8 1.3-.1 2.7.4 3.5 1.2.4.4.6 1.5.3 2.2-.2.6-.7 1-.9 1-2.2 1.2-5.7 0-7.7.2-.3.1-.9.3-1.2.3-.3 0-.3-.3-.6-.9zM21.2 18c2.8-4.8 5.8-3.9 10.2-2.6 1 .3-1.3-.5-1.4-.5-.4-.2-.7-.4-.7-.5.1-.1.4-.4 1-.7 3.4-1.5 4.1.5 6.4 2.5.3.2.2.2 0 .1-2-.6-4.1-.6-6-.2-.8.1-4.1.8-4 1.6-.1.2-1.2-.1-3.1 1.9-.4.4-.3 1-.8 1.1-.3 0-1.9-.2-3.4.4 0 0 1.6-2.9 1.8-3.1zm4.4 5.5c-.5.3-.8.4-.8-.5 0-.5.3-.9.7-1.2.1-.1.2-.2.4-.3.7-.2 1.6 0 2.3.4.7.2 2.6.6 3 1.1.7.6-.2 1.2-.9 1.2-.4.1-3.1-.5-3.2-.6 0-.3 1-.1 1.2-.1.3.1 2.1.4 2.3-.2 0 0-1.9 0-2.2-.3-.3-.2-.7-.7-1.2-.6-.2.1-.5.3-.7.4-.2 0-.2-.4-.3-.6-.1-.1-.5.9-.6.8l-.1-.2s-.3.4 0 .4c.4 0 .8-.2 1 0 .1 0 .2.1.2.2h-.6c-.1.1-.4.2-.5.1zm5.9 19.9c-.1-.1 0 0 .3-.1 1.6.1 2.2-.7 3.3-1.9.2-.1.2-.1.3 0 0 0 0 .1.2.2 2.2 1.3 3.8-1 3.8-.8.1.4-.6 1.1-.9 1.3-1.3.9-3 0-3.1.3 0 .6.8.9 1.2 1.1 1.8.3 3.4-1.4 4.6-2.7.2-.2 1.3-2.1 1.3-2.1.8-.3-1.6 3.8-3.5 5-1.1.6-1.9.8-3 .3-.5-.2-.9-.7-1.2-.7-.2-.1.6.7.7.9.7.7 1 2.8.6 2.7-.2-.1-.3-2.2-1.5-2.4-1.2-.2-2.3.1-3.1-1.1zm-17-7.9c.9.3 2.3 1.8 3.2 2.3.4.2 1.3-.2 1.5 0 1 1.3 2.1 2 2.3 2.2.9.6 1.9 1.1 2.3 1.2.3.2-.5.4-1 .5-1.6 0-2.5-.8-4-1-.9-.1-1.8 0-2-.1-.2 0 .2-.3.8-.3.4-.1 2.3.1 2.4 0 .3-.1-1.1-2.2-2.4-1.7-1.1.4-3.8.6-2.9.3.3-.1 2-.8 2-.9 0-.3-1.7-1.4-2.2-1.9-.1-.3-.3-.7 0-.6z"/></svg>