<svg viewBox="0 0 60 60"><path d="M22.3 42.8v-3.4c0-.2-.1-.4-.3-.6l-3.4-2.7V15l.9.9c.1.1.3.2.5.2.1 0 .4-.1.5-.2.3-.3.3-.7 0-1l-2.1-2.1c-.1-.2-.3-.3-.6-.3s-.5.1-.6.3l-2.1 2.1c-.3.3-.3.7 0 1 .3.3.7.3 1 0l.9-.9v21.2l-3.4 2.7c-.2.1-.3.4-.3.6v7.2c0 .3.2.5.4.7.1.1.2.1.3.1.1 0 .4-.1.5-.1l3.2-2.5 3.2 2.5c.1.1.3.1.4.1.1 0 .2 0 .4-.1.3-.1.4-.4.4-.7v-3.6c.3-.1.3-.2.2-.3zm-1.4-1.2l-2.2-1.8v-1.7l2.2 1.8v1.7zm-3.7-3.5v1.8L15 41.6v-1.8l2.2-1.7zM15 43.5l2.2-1.8v1.8L15 45.2v-1.7zm5.9 1.7l-2.1-1.7v-1.8l2.1 1.7v1.8zm8-34.2h2.2v7.4h-2.2V11zm2.2-.2c.5 0 .9-.4.9-1 0-.5-.4-1-.9-1h-2.3c-.5 0-.9.4-.9 1 0 .5.4 1 .9 1h2.3zm3.2 10.5c.3 0 .6-.3.6-.7v-2c0-.4-.3-.7-.6-.7s-.6.3-.6.7v.2h-7.5v-.2c0-.4-.3-.7-.6-.7s-.6.3-.6.7v2c0 .4.3.7.6.7s.6-.3.6-.7v-.2h7.5v.2c.1.3.3.7.6.7zm-6.5 25V20.6h4.5v25.7L30 51.2l-2.2-4.9zm2.5-2.3V29.5v14-20.3c0-.2-.1-.4-.3-.4-.2 0-.3.2-.3.4V44c0 .2.1.4.3.4.2 0 .3-.1.3-.4zm16-1.2v-3.4c0-.2-.1-.4-.3-.6l-3.4-2.7V15l.9.9c.1.1.3.2.5.2.1 0 .4-.1.5-.2.3-.3.3-.7 0-1l-2.1-2.1c-.1-.2-.3-.3-.6-.3s-.5.1-.6.3l-2.1 2.1c-.3.3-.3.7 0 1 .3.3.7.3 1 0l.9-.9v21.2l-3.4 2.7c-.2.1-.3.4-.3.6v7.2c0 .3.2.5.4.7.1.1.2.1.3.1.1 0 .4-.1.5-.1l3.2-2.5 3.2 2.5c.1.1.3.1.4.1.1 0 .2 0 .4-.1.3-.1.4-.4.4-.7v-3.6c.3-.1.3-.2.2-.3zm-1.4-1.2l-2.2-1.8v-1.7l2.2 1.8v1.7zm-3.7-3.5v1.8L39 41.6v-1.8l2.2-1.7zM39 43.5l2.2-1.8v1.8L39 45.2v-1.7zm5.9 1.7l-2.1-1.7v-1.8l2.1 1.7v1.8z"/></svg>