<svg viewBox="0 0 60 60"><path d="M22.4 41.5l.6-.6-.3-.3.2-.2.6.1.4-.4 6.9-6.9c.4-.4.5-1.2.7-1.4.1-.2 3.6-3.9 3.6-3.9L32.2 25s-3.7 3.4-3.9 3.6c-.2.1-1 .3-1.4.7L20 36.2l-.4.4.1.6-.2.2-.3-.3-.6.6 3.8 3.8zm13.1-14.2l.6-.6c1.7-1.6 4-5.6 3.4-6.3-.7-.7-4.6 1.7-6.3 3.4l-.6.6 2.9 2.9zm-7.3 19.9l.6-.6-.3-.3.2-.2.6.1.4-.4 6.9-6.9c.4-.4.5-1.2.7-1.4.1-.2 3.6-3.9 3.6-3.9L38 30.7s-3.7 3.4-3.9 3.6c-.2.1-1 .3-1.4.7l-6.9 6.9-.4.4.1.6-.3.1-.3-.3-.6.6 3.9 3.9zm13.1-14.1l.6-.6c1.7-1.6 4-5.6 3.4-6.3s-4.6 1.7-6.3 3.4l-.6.6 2.9 2.9zM33.9 53l.6-.6-.3-.4.2-.2.6.1.4-.4 6.9-6.9c.4-.4.5-1.2.7-1.4.1-.2 3.6-3.9 3.6-3.9l-2.9-2.9S40 39.8 39.8 40c-.2.1-1 .3-1.4.7l-6.9 6.9-.4.4.1.6-.2.2-.3-.3-.8.5 4 4zM47 38.8l.6-.6c1.7-1.6 4-5.6 3.4-6.3s-4.6 1.7-6.3 3.4l-.6.6 2.9 2.9zm-30.3-3l.6-.6-.3-.4.2-.2.6.1.4-.4 6.9-6.9c.4-.4.5-1.2.7-1.4.1-.2 3.6-3.9 3.6-3.9l-2.9-2.9s-3.7 3.4-3.9 3.6c-.2.1-1 .3-1.4.7l-6.9 6.9-.4.4.1.6-.2.2-.3-.3-.6.6 3.8 3.9zm13.1-14.2l.6-.6c1.7-1.6 4-5.6 3.4-6.3s-4.6 1.7-6.3 3.4l-.6.6 2.9 2.9zM11 30.1l.6-.6-.3-.3.2-.2.6.1.4-.4 6.9-6.9c.4-.4.5-1.2.7-1.4.1-.2 3.6-3.9 3.6-3.9l-2.9-2.9s-3.7 3.4-3.9 3.6c-.2.1-1 .3-1.4.7l-6.9 6.9-.4.4.1.6H8l-.3-.3-.7.6 4 4zm13.1-14.2l.6-.6c1.7-1.6 4-5.6 3.4-6.3-.7-.7-4.6 1.7-6.3 3.4-.5.6-.6.6-.6.6l2.9 2.9z"/></svg>