<svg viewBox="0 0 60 60"><path d="M40.2 39.5s1 2.8 5.8 3.2c0 0-4.3-4.5-4.4-6.3-.2-1.7-2.5-3.5-4.6-4.3-1.6-.6-3.4-1.1-4.4-2.2 1-1.1 2.8-1.6 4.4-2.2 2.1-.7 4.4-2.5 4.6-4.3.2-1.7 4.4-6.3 4.4-6.3-4.7.4-5.8 3.2-5.8 3.2-.7 1.7-5.8 2.5-4.6 2.1 1.3-.4 2.8-2.4 3.4-3.9.9-2.2 6.1-3.3 6.1-3.3s-.9-.5-4.3-.5c-3.4.1-3.1 2.6-4.7 4.4-1 1.1-1.9.6-3.5 1.9-1.8 1.5-2.4 4.4-2.6 6.1-.2-1.6-.8-4.6-2.6-6.1-1.6-1.3-2.5-.8-3.5-1.9-1.6-1.8-1.4-4.3-4.7-4.4-3.4-.1-4.3.5-4.3.5s5.2 1.2 6.1 3.3c.6 1.5 2.2 3.5 3.4 3.9 1.3.4-3.8-.4-4.6-2.1 0 0-1-2.8-5.8-3.2 0 0 4.3 4.5 4.4 6.3.2 1.7 2.5 3.5 4.6 4.3 1.6.6 3.4 1.1 4.4 2.2-1 1.1-2.8 1.6-4.4 2.2-2.1.7-4.4 2.5-4.6 4.3-.2 1.7-4.4 6.3-4.4 6.3 4.7-.4 5.8-3.2 5.8-3.2.7-1.7 5.8-2.5 4.6-2.1-1.3.4-2.8 2.4-3.4 3.9-.9 2.2-6.1 3.3-6.1 3.3s.9.5 4.3.5 3.1-2.6 4.7-4.4c1-1.1 1.9-.6 3.5-1.9 1.8-1.5 2.4-4.4 2.6-6.1.2 1.6.8 4.6 2.6 6.1 1.6 1.3 2.5.8 3.5 1.9 1.6 1.8 1.4 4.3 4.7 4.4 3.4.1 4.3-.5 4.3-.5s-5.2-1.2-6.1-3.3c-.6-1.5-2.2-3.5-3.4-3.9-1.2-.4 3.8.3 4.6 2.1zm-4.9-15c2.1 2-3.8 3.2-3.8 3.2s1.7-5.3 3.8-3.2zm-10.6 0c2.1-2 3.8 3.2 3.8 3.2s-5.9-1.2-3.8-3.2zm0 10.9c-2.1-2 3.8-3.2 3.8-3.2s-1.7 5.2-3.8 3.2zm5.3-3.8c-.9 0-1.5-.7-1.5-1.5s.7-1.5 1.5-1.5 1.5.7 1.5 1.5-.6 1.5-1.5 1.5zm5.3 3.8c-2.1 2-3.8-3.2-3.8-3.2s5.9 1.2 3.8 3.2z"/></svg>