<svg viewBox="0 0 60 60"><path d="M44.5 23.8c-.7-.7-1-2.1-.6-3 .4-.9 0-2-1-2.4-.9-.4-1.7-1.6-1.7-2.6s-.8-1.9-1.9-1.9c-1 0-2.2-.8-2.6-1.7-.4-.9-1.5-1.4-2.4-1-.9.4-2.3.1-3-.6-.7-.7-1.9-.7-2.6 0-.7.7-2.1 1-3 .6-.9-.4-2 0-2.4 1-.4.9-1.5 1.7-2.6 1.7s-1.9.8-1.9 1.9-.7 2.2-1.7 2.6c-.9.4-1.4 1.5-1 2.4.4.9.1 2.3-.6 3-.7.7-.7 1.9 0 2.6.7.7 1 2.1.6 3-.4.9 0 2 1 2.4.9.4 1.7 1.6 1.7 2.6s.8 1.9 1.9 1.9 2.2.8 2.6 1.7c.4.9 1.5 1.4 2.4 1 .9-.4 2.3-.1 3 .6.7.7 1.9.7 2.6 0 .7-.7 2.1-1 3-.6.9.4 2 0 2.4-1 .4-.9 1.5-1.7 2.6-1.7 1 0 1.9-.8 1.9-1.9s.7-2.2 1.7-2.6c.9-.4 1.4-1.5 1-2.4-.4-.9-.1-2.3.6-3 .7-.7.7-1.8 0-2.6zm-4.3 2.3c-.5.5-.7 1.5-.4 2.1.3.7 0 1.4-.7 1.7-.7.3-1.2 1.1-1.2 1.8s-.6 1.3-1.3 1.3c-.7 0-1.5.5-1.8 1.2-.3.7-1.1 1-1.7.7-.7-.3-1.6-.1-2.1.4s-1.3.5-1.9 0c-.5-.5-1.5-.7-2.1-.4s-1.4 0-1.7-.7c-.3-.7-1.1-1.2-1.8-1.2s-1.3-.6-1.3-1.3c0-.8-.5-1.6-1.2-1.8s-1-1.1-.7-1.7c.3-.7.1-1.6-.4-2.1s-.5-1.3 0-1.9.7-1.5.4-2.1c-.3-.7 0-1.4.7-1.7.7-.3 1.2-1.1 1.2-1.8s.6-1.3 1.3-1.3c.7 0 1.5-.5 1.8-1.2.3-.7 1.1-1 1.7-.7s1.6.1 2.1-.4 1.3-.5 1.9 0 1.5.7 2.1.4c.7-.3 1.4 0 1.7.7.3.7 1.1 1.2 1.8 1.2s1.3.6 1.3 1.3c0 .7.5 1.6 1.2 1.8s1 1.1.7 1.7c-.3.7-.1 1.6.4 2.1s.5 1.3 0 1.9zM28.6 41.4c-.8-.8-2.3-1.1-3.3-.7-1.1.4-2.2-.1-2.7-1.1-.4-.8-1.2-1.6-2.1-1.8l-3.2 9.4 6.2-1.9 3.8 4.8 2.5-8c-.5-.2-.9-.4-1.2-.7zm9-1.8c-.4 1.1-1.6 1.6-2.7 1.1-1.1-.4-2.6-.1-3.3.7-.4.4-1.1.7-1.7.6l4 8 3.3-5.2 5.6.5-3.8-7.2c-.7.3-1.2.9-1.4 1.5zM28.3 30c-.4 0-.7-.1-.9-.4L24.7 27c-.5-.5-.5-1.4 0-1.9s1.4-.5 1.9 0l1.7 1.7 5.2-5.7c.5-.5 1.3-.6 1.9-.1.5.5.6 1.3.1 1.9l-6.2 6.7c-.3.3-.7.4-1 .4z"/></svg>