<svg viewBox="0 0 60 60"><path d="M26.3 15v-1.5c0-.4.3-.8.7-.8h6c.4 0 .7.3.7.8V15c0 .4-.3.8-.7.8h-1.5V17c-.5-.1-.9-.1-1.5-.1s-1 0-1.5.1v-1.2H27c-.4-.1-.7-.4-.7-.8zm14.3 4.9l-.6.6c.4.3.8.6 1.1 1l.6-.6.7.7c.1.1.3.1.5 0l.5-.5c.1-.1.1-.4 0-.5L40.8 18c-.1-.1-.4-.1-.5 0l-.5.5c-.1.1-.1.1-.1.2s0 .2.1.3l.8.9zm-9.1 12.3c0-.8-.7-1.5-1.5-1.5s-1.5.7-1.5 1.5.7 1.5 1.5 1.5 1.5-.6 1.5-1.5zm-18.7-3.7h4.5c.4 0 .7-.3.7-.7 0-.4-.3-.8-.7-.8h-4.5c-.4 0-.7.3-.7.8-.1.3.2.7.7.7zm8.2 3c0-.4-.3-.7-.8-.7H9.8c-.4 0-.7.3-.7.7 0 .4.3.8.7.8h10.5c.4-.1.7-.4.7-.8zm2.3 3H12.8c-.4 0-.7.3-.7.7 0 .4.3.7.7.7h10.5c.4 0 .7-.3.7-.7 0-.4-.3-.7-.7-.7zM19.5 39c0-.4-.3-.7-.7-.7h-7.5c-.4 0-.7.3-.7.7 0 .4.3.8.7.8h7.5c.4-.1.7-.4.7-.8zm7.9-5.3l-5.1 5.1-.3.3.3.3c2 2.1 4.8 3.3 7.7 3.3 5.8 0 10.5-4.7 10.5-10.5S35.8 21.7 30 21.7h-.7v7.6c.5-.1 1-.1 1.5 0 1.6.4 2.6 2.1 2.1 3.7-.3 1.3-1.5 2.2-2.9 2.2-.5 0-1-.1-1.5-.4-.5-.2-.8-.6-1.1-1.1zM44.8 30c0-.3-.1-.5-.1-.8-.2-.9-.5-1.8-.8-2.7-.2-.4-.4-.9-.6-1.3-.1-.2-.2-.3-.3-.5 0-.1-.1-.1-.1-.2-.1-.2-.2-.4-.4-.6-.1-.2-.3-.4-.4-.6-.4-.6-.9-1.1-1.4-1.6-.3-.3-.7-.7-1.1-1l-.4-.4c-.4-.3-.9-.7-1.4-1-.2-.1-.3-.2-.5-.3l-.5-.3c-.2-.1-.4-.2-.5-.3l-.2-.1-.1.2-.6-.3-.5-.2-.5-.2c-.3-.1-.6-.2-.8-.2-.2 0-.3-.1-.5-.1s-.4-.1-.7-.1c-.2 0-.6-.1-.9-.1-.5-.1-1-.1-1.5-.1s-1 0-1.5.1c-.3 0-.5.1-.8.1-.2 0-.5.1-.8.1h-.2c-.2 0-.4.1-.6.1-.1 0-.2.1-.3.1-.2 0-.3.1-.5.2l-.3.2c-.2.1-.4.1-.6.2-.8.3-1.6.7-2.3 1.1-.3.2-.5.3-.8.5-.2.2-.5.3-.7.5l-.1.1c-.2.2-.4.3-.6.5-.2.2-.5.4-.7.6-.2.2-.4.4-.6.7-.2.2-.4.5-.6.7-.2.2-.3.5-.5.7v.1l1.2.8 1.2.8c3.7-5.5 11.2-6.9 16.7-3.2s6.9 11.2 3.2 16.7c-2.2 3.3-6 5.3-10 5.3-3.3 0-6.5-1.3-8.8-3.8l-1.1 1-1.1 1c5.7 6 15.2 6.3 21.2.7 3-2.8 4.7-6.8 4.7-11 .3-.6.2-1.4.1-2.1z"/></svg>