<svg viewBox="0 0 60 60"><path d="M46.6 28.6H13.4v-4c0-.7.5-1.2 1.2-1.2h.8V23c0-3.9 3.2-7.1 7.1-7.1h20.2c.9 0 1.6.7 1.6 1.6v.8c0 .9-.7 1.6-1.6 1.6H22.5c-1.7 0-3.2 1.4-3.2 3.2v.4h26.1c.7 0 1.2.5 1.2 1.2v3.9zm-1.2 9.9v-9.1H14.6v9.1h2v-2.8h.8v2.8H19v-5.9h.8v5.9h1.6v-4.4h.8v4.4h1.6v-5.9h.8v5.9h1.6v-5.1h.8v5.1h1.6v-4.4h.8v4.4H31v-2.8h.8v2.8h1.6v-5.9h.6v5.9h1.6v-4.4h.8v4.4H38v-5.9h.8v5.9h1.6v-5.1h.8v5.1h1.6v-4.4h.8v4.4h1.8zm-23.3 4v-.4c0-.9-.7-1.6-1.6-1.6h-7.9c-.4 0-.8-.4-.8-.8v-.8c0-.4.4-.8.8-.8h.4v-.8h-.4c-.9 0-1.6.7-1.6 1.6v.8c0 .9.7 1.6 1.6 1.6h7.9c.4 0 .8.4.8.8v.4c0 .9.7 1.6 1.6 1.6h12.7v-.8H22.9c-.5 0-.8-.4-.8-.8zm25.3-5.6h-1.7v.8h1.7c.4 0 .8.4.8.8v.8c0 .4-.4.8-.8.8H28.8v.8h18.6c.9 0 1.6-.7 1.6-1.6v-.8c0-.9-.7-1.6-1.6-1.6z"/></svg>