<svg viewBox="0 0 60 60"><path d="M51.9 29c-1 .4-1.9.7-3 1.1.4-.4.7-.9 1-.9 1.3-.1 1.7-1.1 2.1-2.4-1 .4-1.8.7-2.8 1.1.8-1.3 3-1.4 2.3-3.4-.9.5-1.7 1-2.6 1.6-.2-.2-.5-.5-.8-.9 1.8-.1 3.3-.9 2.9-3.1-.8.7-1.5 1.3-2.3 1.8.1-.4.3-.9.6-1.1.9-.6 1-1.4.9-2.6-.8.6-1.3 1.1-1.9 1.5.2-.6.7-.9 1-1.4.2-.5.2-1.1.3-1.9-.6.2-.8.3-1.1.5v-2c-.4.1-.6.1-.8.2-.1-.6-.2-1.1-.3-1.6-.2-.1-.3-.2-.5-.2-.1.4-.3.8-.4 1.1-.9-.6-1.5-1-2.1-1.5-.1.1-.2.1-.3.2.2.7.4 1.3.6 2-.3.1-.6.3-.7.3.6 1.5 1 3 1.7 4.4.8 1.5.2 3.4 1.2 4.7-.5 2.6-.9 5-1.2 6.6-1.5 2.5-2.6 4.4-3.7 6.1-.1-.1-.2-.3-.6-.7-.4.9-.8 1.7-1.1 2.3-.1-.1-.2-.4-.5-.8-.5.6-.9 1.2-1.3 1.7-.7-.3-.7-.3-1.9 1-1.4-.6-2.7.9-2.5 3-3 1.4-5.9 1.3-8.9-.1.6-1.2 0-2-.9-2.6-.8-.6-2.2-.5-2.8-1.5l-.6.3c-.4-.6-.9-1.1-1.3-1.7-.2.2-.3.3-.3.4-.1.2-.1.4-.1.4-.3-.7-.7-1.5-1.1-2.5-.1.4-.3.6-.3.6-1.1-1.8-2.2-3.7-3.6-5.9-.3-1.3-.7-3.2-1.1-5.4 0-.4.1-.9.1-1.3s.1-.9.1-1.3c.3-2.6 1.1-5.3 2.8-7.7-.2-.1-.5-.2-.7-.4-.1 0-.1-.1-.2-.1.2-.7.4-1.3.6-2-.1-.1-.2-.2-.3-.2-.6.4-1.2.8-1.8 1.3-.2-.1-.3-.2-.5-.2-.2-.2-.4-.3-.7-.6v.6c-.1.5-.2.8-.2 1.2-.3 0-.5-.1-.9-.1v1.9l-.9-.3c-.1.1-.2.2-.4.3.4.9.8 1.7 1.2 2.5v.2l-1.5-1.2c-.6 1.3.4 2 1.1 2.8 0 .1 0 .2-.1.3-.7-.5-1.3-.9-1.9-1.4-.1 1.6.2 2.2 1.3 2.7l.3.3c.2.2.3.5.5.7-.1 0-.1.1-.2.1-.1-.1-.3-.2-.4-.3-.7-.4-1.3-.8-2-1.2-.5 2 1.4 2.3 2.1 3.3-.8-.3-1.5-.6-2.2-.8-.3 2.1 1.9 1.9 2.7 3.1-1.1-.3-2-.6-3-.9.3 2 1.8 2.2 3 2.8-.8-.1-1.7-.2-2.6-.4.3 2.1 2.2 1.8 3.3 2.5H9.1c.5 2.2 2.6 1.2 4 2.1-1.3.1-2.3.1-3.3.2v.4c1 .6 1.6 1.8 3.2 1 .2-.1.7.2 1.1.4-1.2.2-2.1.4-3 .6v.4c1 .5 1.9 1.6 3.3.6.2-.1.6.2 1 .3-1.1.4-1.9.7-2.7 1 0 .1.1.3.1.4 1 .4 2 1.2 3.2.2.2-.2.7.1 1.3.1-1.2.6-2.1 1-3.1 1.5 1.8 1 2.5 1 3.8.1.3-.2.7 0 1.4 0-1.2.8-2 1.3-2.8 1.9 1.4.6 2.7 1.1 3.7-.4.1-.2.7-.1 1.3-.1-1 .8-1.7 1.5-2.4 2.1.1.1.1.2.2.3 1.2-.1 2.5.5 3.3-1.1.1-.2.7-.1 1.2-.2-.8.9-1.4 1.6-2.2 2.4 2 .4 2.7 0 3.9-1.8 1.1.3 2.1.5 3.3.8-1.8 1.2-3.4 2.2-5.1 3.3l.3.6c.4-.2.9-.4 1.3-.6 1.3-.8 2.5-1.7 3.8-2.4.5-.2 1.3-.3 1.7 0 1.3.7 2.6 1.6 3.9 2.4.4.2.9.3 1.3.5 0-.1.1-.2.1-.3-.1-.1-.2-.3-.3-.4-1.5-1-3-2-4.7-3.1 1.2-.3 2.3-.6 3.4-.8.7 1.9 1.9 2.1 3.8 1.9-.8-.9-1.4-1.6-2.3-2.5.6.1 1.2.1 1.3.3.8 1.6 2.1 1.1 3.3 1.2.1-.1.1-.3.2-.4-.7-.6-1.5-1.2-2.2-1.8.4-.2.9-.2 1.2 0 1.2 1.1 1.9 1.2 3.7.3-.9-.6-1.7-1.1-2.5-1.6.4-.2.9-.4 1.1-.2 1.1.9 2.3.9 3.7-.2-1-.5-1.9-.9-2.7-1.3.4-.2.8-.4 1.1-.2 1.2.6 2.1.5 3.2-.7-.9-.3-1.8-.6-2.6-.9 1.4-.3 3.1.5 4.2-1.3-.9-.2-1.8-.4-2.7-.5.2-.3.6-.5.9-.4 1.4.4 2.1.1 3.1-1.4h-3.1c0-.1 0-.2-.1-.4.4-.1.8-.5 1.2-.4 1.5.5 2-.6 2.8-1.3 0-.1-.1-.3-.1-.4-.9 0-1.7.1-2.6.1 1.2-.7 3-.4 3.3-2.5-.9.1-1.7.3-2.6.4.9-1 2.6-1 2.7-3.1zM13.7 16l-.1.1c-.1-.1-.2-.2-.4-.3.2 0 .3.1.5.2zm-2.9 7.3c0-.1 0-.2.1-.3.2.2.3.4.4.7-.2-.1-.4-.3-.5-.4zm.5-2v-.2c.1.1.1.2.2.3-.1 0-.2 0-.2-.1zm18.9 19.8c8 0 14.3-6.1 14.3-14 0-7.8-6.4-14.1-14.2-14.1-7.9 0-14.2 6.3-14.3 14 0 8 6.3 14.1 14.2 14.1zm-9.1-23c3.9-3.8 8.6-4.8 13.7-2.9 4.9 1.8 7.8 5.5 8.3 10.8.5 5.5-1.9 9.7-6.6 12.3-4.8 2.6-9.5 2.2-14-.9-.2-.1-.4-.3-.8-.7 2.6-.8 4.9-1.9 7.6-1.2 2.6.7 5.1-.1 7.5-1 1-.4 1.6-2 2.4-3-1.8-1-2.7-.8-3.8.3-.8.8-2 1.6-3.1 1.8-3.8.6-6.5-.7-8.1-4.3-.2-.5-.7-.9-.8-1.4-.1-.8-.2-1.5-.3-2.3-.6.2-1.4.2-1.6.6-.6 1.1.2 1.6.8 2 .4 1 .7 2.1 1.1 3 .5 1.1.4 1.8-.8 2.2-3.5 1.1-3.4 1.7-4.8-2.3-1.6-4.9-.4-9.4 3.3-13zm3.8 7.8c.2-2.9 3.1-5.4 6.1-5.2 3.2.2 5.6 2.8 5.5 5.8-.2 3.5-2.8 6-6.2 5.7-2.9-.3-5.7-2.3-5.4-6.3zM40 28.1c-1.3-2.3-2.8-4.8-4.4-7.6 1.1.7 2.5 1 3 1.9 1.1 1.7 2.1 3.7 1.4 5.7zm-1.2 1.7c-2-.4-1-1.9-1.2-2.9 1 .8 1.6 1.6 1.2 2.9zm-15.4-5.2l-.5-.5c.7-.6 1.3-1.3 2-1.9.1.1.2.3.3.4-.6.7-1.2 1.4-1.8 2zm6.6-5.3c-.3 0-.6-.4-.8-.6.3-.3.5-.7.8-.8.2-.1.6.4 1 .7-.4.3-.7.7-1 .7z"/></svg>