<svg viewBox="0 0 60 60"><path d="M43 33.5c.5-1.4 2.3-4.2 2.3-8.9s-5.8-11.7-15.2-11.7c-9.4 0-15.2 7-15.3 11.6 0 4.8 1.8 7.5 2.3 8.9.9 2.8-.2 4.2-.2 4.2s.4 2.9 1.3 4.2c.9 1.3 5.4-.8 5.4 4 0 0 1.8 1.3 6.5 1.3 4.8 0 6.5-1.3 6.5-1.3 0-4.9 4.5-2.7 5.4-4 1-1.3 1.3-4.2 1.3-4.2s-1.1-1.3-.3-4.1zM24 15.2h12v4.7l-6-2.7-6 2.7v-4.7zm0 6.6l6-2.8 6 2.8v.5l-6-2.7-6 2.7v-.5zm0 2.4l6-2.8 6 2.8v.6L30 22l-6 2.7v-.5zm0 2.4l6-2.8 6 2.8v.3c0 .7-1 1.6-3 2.6-1.4.7-2.9 1.3-2.9 1.3h-.2s-1.5-.6-2.9-1.3c-2-1-3-1.9-3-2.6v-.3zm1.5 10.5c-1 .6-2.6 1-3.6 1s-2-.7-2.3-1.5-.4-2.2-.2-3.2 1.4-2.2 2.7-2.6 3-.3 3.8.2c.8.6 1.4 1.9 1.4 3.1-.1 1.1-.8 2.5-1.8 3zM30 42c-1.6 0-2-.6-2-.6s.1-4.9 2-4.9 2 4.9 2 4.9-.3.6-2 .6zm10.7-5.5c-.3.8-1.3 1.5-2.3 1.5s-2.6-.5-3.6-1-1.8-1.9-1.8-3 .6-2.5 1.4-3c.8-.5 2.5-.6 3.8-.2 1.3.5 2.5 1.6 2.7 2.5.1.9.1 2.4-.2 3.2z"/></svg>