<svg viewBox="0 0 60 60"><path d="M24.9 20.2c0-2.3-1.9-4.2-4.2-4.2s-4.2 1.9-4.2 4.2 1.9 4.1 4.2 4.2c2.3 0 4.2-1.9 4.2-4.2zm-6.9 0c0-1.5 1.2-2.8 2.8-2.8 1.5 0 2.8 1.2 2.8 2.8 0 1.5-1.3 2.8-2.8 2.8S18 21.7 18 20.2zm2.6-1.1c-.4-.1-.8.2-.9.5-.1.2-.2.3-.4.3h-.1c-.2-.1-.4-.3-.3-.5.2-.8 1.1-1.4 1.9-1.1.2.1.4.3.3.5 0 .2-.2.4-.5.3zm1.9 14.3c2.4 0 4.3-1.9 4.3-4.3s-1.9-4.3-4.3-4.3-4.3 1.9-4.3 4.3 1.9 4.3 4.3 4.3zm0-7.3c1.7 0 3 1.4 3 3 0 1.7-1.4 3-3 3s-2.9-1.3-3-3c0-1.7 1.4-3 3-3zm-1.9 2.6c.2-.9.9-1.5 1.8-1.5.2 0 .4.2.4.5 0 .2-.2.4-.5.4-.4-.1-.8.3-.8.7 0 .2-.2.4-.5.4h-.1c-.2-.1-.3-.3-.3-.5zm11.2 4.6c-2 0-3.8 1.1-4.8 2.8-.1 0-.1.1-.1.1l-.3.9h-.5c-3.8 0-7 3.1-7 7s3.1 7 7 7 7-3.1 7-7V44c.5-.1.8-.2 1.1-.4 1.9-1 3.1-2.8 3.1-4.9-.1-3-2.5-5.4-5.5-5.4zm-5.7 16.4c-3.1 0-5.7-2.5-5.7-5.7 0-3.1 2.5-5.7 5.7-5.7 3.1 0 5.7 2.5 5.7 5.7s-2.5 5.7-5.7 5.7zm7.5-7.3c-.1.1-.4.2-.6.2-.6-2.5-2.5-4.6-5-5.3l.2-.7c.8-1.3 2.1-2.1 3.6-2.1 2.2 0 4.1 1.8 4.1 4.1 0 1.6-.8 3.1-2.3 3.8zm-7.4-1.7c-.1.2-.3.4-.5.3-.9-.2-1.8.3-2 1.2-.1.2-.2.3-.4.3h-.1c-.2-.1-.4-.3-.3-.5.3-1.4 1.7-2.1 3.1-1.8.1.1.3.3.2.5zM31 43c.2 0 .4.2.4.5 0 .2-.2.4-.5.4h-.1c-2.2-.4-3.9-2.1-4.2-4.4 0-.2.2-.5.4-.5s.5.2.5.4c.2 1.7 1.6 3.3 3.5 3.6zm1.4-7.2c.2.2.3.5.2.7-.1.2-.4.3-.6.2-.3-.2-.6-.2-.8-.1-.3.1-.5.3-.7.6-.1.2-.2.2-.4.2-.1 0-.2 0-.2-.1-.2-.1-.3-.4-.2-.6.2-.5.6-.8 1.1-1.1.6-.1 1.2-.1 1.6.2zm4.1-23.5c-.7 0-1.5.1-2.1.3-.8-2.1-2.8-3.6-5.1-3.6-3 0-5.4 2.4-5.4 5.4 0 3 2.4 5.4 5.4 5.4 2.3 0 4.3-1.4 5-3.4.4-.5 1-.7 1.6-.5.2.1.5-.1.5-.3.1-.2-.1-.5-.3-.5-.5-.2-1.1-.1-1.5.1.1-.3.1-.5.1-.8v-.5c.6-.2 1.2-.3 1.8-.3 3.1 0 5.7 2.5 5.7 5.7 0 3.1-2.5 5.7-5.7 5.7-.2 0-.7 0-1.1-.1-.2-2.2-2.1-3.9-4.3-3.9-2.4 0-4.3 1.9-4.3 4.3s1.9 4.3 4.3 4.3c2.1 0 3.7-1.5 4.2-3.4.3.1.7.1.9.1h.2c3.9 0 7-3.1 7-6.9s-3-7.1-6.9-7.1zm-7.2 6.3c-2.3 0-4.1-1.8-4.1-4.1s1.8-4.1 4.1-4.1 4.1 1.8 4.1 4.1-1.8 4.1-4.1 4.1zm1.9 9.6c-1.7 0-3-1.4-3-3 0-1.7 1.4-3 3-3s3 1.3 3 3-1.3 3-3 3zm-1.8-16.3c-.1.2-.3.4-.5.3-.6-.2-1.2.2-1.4.8-.1.2-.2.3-.4.3H27c-.2-.1-.4-.3-.3-.5.3-1.1 1.4-1.8 2.4-1.5.2.1.4.4.3.6zm3.2 1.9c.1-.2.4-.1.5.1.2.2.1.5-.1.6-1.1.8-1.8 1.9-2.1 3.2-.1.3-.2.3-.4.3h-.1c-.2-.1-.4-.3-.3-.5.4-1.5 1.2-2.8 2.5-3.7zm-1.2 9.9c.1.2-.2.4-.4.4-.5-.1-.8.3-.8.7 0 .2-.2.4-.5.4h-.1c-.2 0-.4-.2-.4-.5.1-.9.8-1.5 1.8-1.5.3 0 .4.3.4.5z"/></svg>