<svg viewBox="0 0 60 60"><path d="M21.2 39.1c.4-.3.9-.7 1.3-1.1 1-1 2-2.1 2.8-3.2 1.5-2 2.8-4.2 4.4-6.3.4-.6.9-1.1 1.4-1.6-2.6-7.6.7-10.5.7-10.5s-2.5.9-3.4 3.1c-.9 2.3 0 6.1-1.4 3.3-1.7-3.3-.4-8.4.9-9.8 0 0-3 1.9-4.1 4.7-.9 2.5 0 6.3.7 9.4.6 2.9 1 5.2-.4 5.3-2 .2-.7-2.2-.3-5.9.4-3.7-5.1-6.5-5.1-6.5 3.8 5.9-.1 6-1.5 13.1-1 3.8 1.3 5.4 4 6zm0-18.4c-2.1-3.1-3-5.7-2.6-7.7 0 0-1.9 3.2-.7 4.9 1.2 1.7 3.3 2.8 3.3 2.8zm27-5.1l-2.2-.1c.7 4.2.4 6.3-1.9 9-2.1-.9-4.7.8-4.7.8 2.8.3 4.8 1.6 5.5 4.5 0 0 2.6-2.2.4-4.6l-.1-.1c3.4-2.7 3.7-5 3-9.5zm-9.8 10.2c-6.2-1.2-8.8 8.4-14.5 13.7S11.5 45 11.5 45s2.7 2.8 11.3 1.8c4.7-.6 25.1-9.2 20.5-17.6-.8-1.5-2.3-2.9-4.9-3.4zM22.2 42.6s1.6-1.3 3.4-2.9l.8 1c-1.3.8-2.7 1.6-4.2 1.9zm5.8-3.3l-1-1.2c.4-.4.7-.9 1.1-1.3 1.6-2.2 3.3-5.5 5.5-7.7l1.8 2.1c-2.6 2.6-4.8 5.7-7.4 8.1zm9.3-9.7l-1.7-1.9c.9-.5 1.8-.8 3-.8l1.2 1c-.9.4-1.7 1-2.5 1.7z"/></svg>