<svg viewBox="0 0 60 60"><path d="M23 12.7c3-1.6 6.6-1.3 9.8-.7 6.7 1.8 12 7.5 13.6 14.3 1.3 5.8-.1 12.3-4.4 16.6-4.8 5.3-13.1 7-19.5 4-5.7-2.6-9.8-8.6-9.6-14.9-.3-4.8 2.2-9.5 6.1-12.4 4.6-3.6 11.3-3.9 16.3-1.1 5.6 3 8.4 10.3 6.5 16.3-1.5 5.1-6.3 9.1-11.7 9.1-3.3.4-6.5-.9-9.1-2.9-3.8-3.3-5.1-9-3.3-13.7-4 7.7 2.5 17.6 10.9 17.7 7.4.8 14.3-5.1 15.4-12.3.9-6.3-2.1-13.1-7.3-17-3.9-3-8.9-3.4-13.7-3m-1 14.1c-2 2.2-1.8 5.6-1.2 8.4 1.9 5 9 7.4 13.2 3.8l-2 .7c-4.1 2.1-9.6-1.2-10-5.7-.8-4 2.6-7.6 6.5-8-1.3 1.5-3.4 2.6-3.4 4.8-.4 3.3 2.1 6.9 5.6 6.2 4.1-.3 5.4-5.8 3.3-9-2.4-4.3-9-4.9-12-1.2z"/></svg>