<svg viewBox="0 0 60 60"><path d="M23.4 11.1c-2 3.1-2.7 6.7-1.7 10.9.2.6.4 1.1.7 1.7l-1.4.8c-.6-1-1-2.1-1.2-3.2-2.9-.5-5.9-.6-9-.2 2.9.9 4.5 2 6.6 4-2.3.8-5.2 2.6-8 6 3-.8 5.5-1 7.7-.5-3.2 1.9-5.5 4.8-7.6 9.8 3.1-1.5 5.6-1.6 8.8-1.6-2 2.8-3 6.6-3.1 9.7 2.1-2.2 4.9-5.1 7.5-6.8.3 2.6 1.3 5 3.1 7.3 0-3.7.9-7.6 2.7-11.4-.9.4-1.8.9-2.6 1.5l-1.6 1 .4-1.9 1.2-5.3c-1 0-2.1.4-3.2.8l-1.9.8.9-1.9L25 26l1.4.7-2.4 4.9c1-.3 2-.4 3.1-.2l.8.1-.2.8-1 4.4c1.4-.8 2.9-1.4 4.4-1.9h.1l2.1-.6c3.7-.9 7.7-1.6 12.9-1.9.7-1.1 1.2-2.1 1.6-3l-.5-2.1L45 30l-.7-2.4-1.9 2.5-.6-2.2-2 2.7-.7-2.4-2 2.7.1-3.5 1.9-3.6.7 2.4 2-2.7.7 2.4 2-2.6.6 2.3 2.1-2.6.7 2.4 2.1-2.7c.2-.9.4-1.9.6-3.1-4.8-.3-9.1.4-13.2.8-2.3-1.3-5-1.9-7.6-1.9-1 0-1.9.1-2.8.3l-3.6-7.7zm8.6 9.3c1.3 0 2.6.5 3.9.9-.4 1.2-1.1 1.6-2.1 1.8-1.4-.4-2.4-1.3-2.9-2.6.3-.1.7-.1 1.1-.1z"/></svg>