<svg viewBox="0 0 124 129"><path opacity=".5" d="M78.9 89.1H45.1l-.9-.5-16.8-29.3v-1L44.3 29l.9-.5H79l.9.5 16.9 29.3v1L79.7 88.6l-.8.5zm-33.3-1.9h32.6l16.4-28.4-16.3-28.4H45.6L29.4 58.8l16.2 28.4z"/><path opacity=".25" d="M35.3 47.4l-7.9-13.6h30.8l-7.6 13-7.8 13.6-7.5-13zm45.9 13l7.6-13 7.8-13.6H65.8l7.6 13.1 7.8 13.5zm-38.4 8.4l7.8 13.6 7.6 13H27.4l7.9-13.6 7.5-13zm30.6 13.5l-7.6 13.1h30.8l-7.8-13.6-7.6-13-7.8 13.5z"/><path opacity=".75" d="M36.5 67.5c.1-.5.1-1 .1-1.5 0-1.7-1.4-3.9-3.7-5.3-.9-.5-2-.9-3.2-1.1-.5 0-1-.1-1.6-.1-.6 0-1.2 0-1.7.1-1.2.2-2.3.7-3.2 1.2-2.3 1.4-3.7 3.6-3.7 5.2 0 .5 0 1 .1 1.5.3 1.7 1 2.8 1.2 3.4.3 1 .2 1.6.1 2-.1.3-.2.4-.2.4s.2 1.6.7 2.3c.2.2.6.3 1.1.3.9 0 2 .1 2 1.9 0 0 .6.4 2 .6.4.1 1 .1 1.6.1.6 0 1.2 0 1.6-.1 1.4-.2 2-.6 2-.6 0-1.7 1-1.8 1.9-1.9.5 0 .9 0 1.1-.3.5-.7.7-2.3.7-2.3s-.1-.1-.2-.4c-.2-.4-.3-1 0-1.9.2-.7.9-1.8 1.3-3.5zm-11 5.6c-.5.2-1.2.4-1.7.5h-.3c-.6 0-1.1-.3-1.3-.8s-.2-1.2-.1-1.8c0-.2 0-.3.1-.4.3-.5.8-.9 1.4-1.1.3-.1.7-.1 1-.1.4 0 .8 0 1.1.2.5.3.8 1 .8 1.7-.1.6-.5 1.4-1 1.8zm2.5 2.6c-.9 0-1.1-.3-1.1-.3s0-2.7 1.1-2.7c1 0 1.1 2.7 1.1 2.7s-.2.3-1.1.3zm5.9-3.1c-.2.4-.7.8-1.3.8h-.4c-.5-.1-1.2-.3-1.6-.5-.6-.3-1-1.1-1-1.7 0-.6.4-1.4.8-1.7.2-.1.6-.2 1.1-.2.4 0 .7 0 1 .1.5.2 1 .6 1.3 1 .1.1.2.3.2.4.1.5.1 1.4-.1 1.8zm70.6-5.1c.1-.5.1-1 .1-1.5 0-1.7-1.4-3.9-3.7-5.3-.9-.5-2-.9-3.2-1.1-.5 0-1-.1-1.6-.1-.6 0-1.2 0-1.7.1-1.2.2-2.3.7-3.2 1.2-2.3 1.4-3.7 3.6-3.7 5.2 0 .5 0 1 .1 1.5.3 1.7 1 2.8 1.2 3.4.3 1 .2 1.6.1 2-.1.3-.2.4-.2.4s.2 1.6.7 2.3c.2.2.6.3 1.1.3.9 0 2 .1 2 1.9 0 0 .6.4 2 .6.4.1 1 .1 1.6.1.6 0 1.2 0 1.6-.1 1.4-.2 2-.6 2-.6 0-1.7 1-1.8 1.9-1.9.5 0 .9 0 1.1-.3.5-.7.7-2.3.7-2.3s-.1-.1-.2-.4c-.2-.4-.3-1 0-1.9.2-.7.9-1.8 1.3-3.5zm-11 5.6c-.5.2-1.2.4-1.7.5h-.3c-.6 0-1.1-.3-1.3-.8s-.2-1.2-.1-1.8c0-.2 0-.3.1-.4.3-.5.8-.9 1.4-1.1.3-.1.7-.1 1-.1.4 0 .8 0 1.1.2.5.3.8 1 .8 1.7-.1.6-.5 1.4-1 1.8zm2.5 2.6c-.9 0-1.1-.3-1.1-.3s0-2.7 1.1-2.7c1 0 1.1 2.7 1.1 2.7s-.2.3-1.1.3zm5.9-3.1c-.2.4-.7.8-1.3.8h-.4c-.5-.1-1.2-.3-1.6-.5-.6-.3-1-1.1-1-1.7 0-.6.4-1.4.8-1.7.2-.1.6-.2 1.1-.2.4 0 .7 0 1 .1.5.2 1 .6 1.3 1 .1.1.2.3.2.4.1.5.1 1.4-.1 1.8z"/><path d="M69.8 49l7.9 13.6H46.2L54.1 49l7.6-13.1.3-.5.3.5L69.8 49zm-4.3 5.4l3.6-3.5-5-.7-2.1-4.6-2.2 4.6-5 .7 3.6 3.5-1 5 4.5-2.4 4.5 2.4c.1 0-.9-5-.9-5zM46.3 66.7l7.8 13.5L62 93.8l7.8-13.6 7.9-13.5H46.3zm17.9 35.7l-2.1-4.5-2.3 4.6-5 .7 3.7 3.5-.9 5 4.5-2.4 4.5 2.4-1-5 3.6-3.5-5-.8zm-.7-77.3L62.1 22l-1.6 3.2-3.5.5 2.6 2.4-.7 3.5 3.2-1.7 3.1 1.7-.7-3.5 2.5-2.4-3.5-.6z"/><path opacity=".9" d="M25.2 45.4l-2.3-4.5-2.1 4.6-5 .7 3.6 3.5-1 5 4.5-2.4 4.5 2.4-.9-5 3.7-3.5-5-.8zm78 0l-2.1-4.5-2.3 4.6-5 .7 3.7 3.5-.9 5 4.5-2.4 4.5 2.4-1-5 3.6-3.5-5-.8zm-26.7 54.7L75.1 97l-1.6 3.2-3.5.5 2.6 2.4-.7 3.5 3.2-1.7 3.1 1.7-.7-3.5 2.5-2.4-3.5-.6zm-26 0L49.1 97l-1.6 3.2-3.5.5 2.6 2.4-.7 3.5 3.2-1.7 3.1 1.7-.7-3.5 2.5-2.4-3.5-.6z"/></svg>