<svg viewBox="0 0 124 129"><path opacity=".5" d="M99.9 37.3L81 70.5l-19 33.4-19-33.4-19-33.3h75.9m0-2H24.1c-.7 0-1.5.4-1.8 1.1-.4.6-.4 1.5 0 2.1l19 33.3 19 33.4c.4.6 1.1 1.1 1.8 1.1s1.5-.4 1.8-1.1l19-33.4 19-33.3c.4-.6.3-1.5 0-2.1-.5-.7-1.2-1.1-2-1.1z"/><path opacity=".25" d="M63.6 52.8V24.3l20.2 8.4-20.2 20.1zm-3.2-28.6l-20.2 8.4 20.2 20.2V24.2z"/><path opacity=".5" d="M58.2 55.1H29.7l8.4-20.2 20.1 20.2zm36.3 0L86 34.8 65.8 55.1h28.7z"/><path d="M40.2 80.6L60.4 89V60.5L40.2 80.6zm16.2 1.1l-3.3-1.8-3.4 1.8.7-3.7-2.7-2.4 3.7-.5 1.7-3.4 1.5 3.3 3.7.6-2.6 2.4.7 3.7zM29.6 58.2L38 78.4l20.2-20.2H29.6zm10.9 10.2l-3.4 1.8.7-3.7-2.6-2.5 3.7-.5 1.7-3.4 1.5 3.3 3.7.6-2.6 2.4.7 3.7c-.1 0-3.4-1.7-3.4-1.7zm23.1 20.7l20.2-8.4-20.2-20.3v28.7zm5.8-14l1.7-3.4 1.5 3.3 3.7.6-2.7 2.4.7 3.7-3.3-1.8-3.4 1.8.7-3.7-2.7-2.4 3.8-.5zm-3.6-16.9L86 78.4l8.4-20.2H65.8zm17.9 10.2l-3.4 1.8.7-3.7-2.7-2.5 3.7-.5 1.7-3.4 1.5 3.3 3.7.6-2.6 2.4.7 3.7-3.3-1.7z"/></svg>