<svg viewBox="0 0 60 60"><path d="M26.7 10c2.4 2.2 4.5 4.6 6.7 6.9.8.8 1.7 1.5 1.9 2.7 2.3-2.2 4.5-4.6 6.9-6.6 0 4.3.1 8.5.3 12.7-.5.5-1 1-1.4 1.5h10.6c-2.9 2.8-5.9 5.7-8.8 8.4-.9 0-1.8 0-2.7.1 2.3 2.3 4.6 4.5 6.9 6.7l-11.1.4c-.5-.5-1-1-1.5-1.4V52c-2.8-2.5-5.3-5.5-8-8.1-.9-.8-.4-2-.5-2.9-2.5 1.9-4.6 4.6-7 6.6 0-3.7-.1-7.4-.3-11.1.5-.5.9-1 1.4-1.7H9.5c2.9-2.8 5.9-5.7 8.8-8.4H21c-2.3-2.3-4.7-4.5-6.9-6.9 3.7-.3 7.4-.3 11.1-.4l1.5 1.5c0-3.6-.2-7.2 0-10.6M29 26.9c-1.8 1-3.7 1.5-5.5 2.5 1 1 2.2 1.9 3.1 3.1.9 1.8 1.7 3.6 2.4 5.3 1.5-1.3 2.5-2.9 4.5-3.6 1.4-.6 2.8-1.1 4.2-1.9-1-1-2.2-1.9-3.1-3.1-.9-1.8-1.7-3.6-2.4-5.3C31 25 30 26 29 26.9z"/></svg>