<svg viewBox="0 0 60 60"><path d="M34.1 27.7c0-.8-.7-1.5-1.5-1.5l-3.3.4c-.3.3-.5.9-.6 1.5l.6 1.7s.1.3-.1.4H29c.1.1 0 .2-.1.2-.7-.3-1.2-1.1-1.4-2-.1 0-.1-.1-.1-.2s0-.1.1-.2c0-.1-.1-.2-.2-.3-.3.6-.2 1.2-.2 1.2 0 .8.8 1.6 1.6 1.6l3.8-.1c.8 0 1.6-.7 1.6-1.5v-1.2zm13-8.4h.6s.3 0 .3.3.1.1.1.2v.2s.3.5.2 1-.1 1-.1 1l-.1.2H48v.8h-.2l-.1.1v.1s.1 0 .1.3-.2 1.3-.2 1.3 0 .6-1 .6c-1 .1-10.1.4-10.1.4s-.9.3-1.2.8c-.2.5-.2 1.4-.2 1.8 0 1.3.3 1.9.3 1.9l.1.3-.2.3s-5.2.2-5.5.2c-.3 0-1.4 0-1.7-.1-.3-.1-.9-.5-1.4-.5-.5 0-.9.3-1.3 1.1-.7 1.4-.2 2-.2 2s.1.2-.3.4-.6.5-.9 1.1c-.5 1 0 1.5 0 1.5s0 .1-.2.3c-.2.1-.6.3-.8.9-.3.6-.6 1.5-.6 1.7v.9c0 .3-.1.6-.3.8-.2.2-.7.4-.7.4l-.1.8s.1.7-1.1.8c-1.2.1-5.7 0-5.7 0s-.8 0-.8-.5.5-.9.5-.9v-.1h-1.1s-1-.4-1.3-1c-.3-.6-.2-1.4-.2-1.4l.1-.3.1-.2-.1-.1v-.2c.1 0 .1 0 .1-.1l-.1-.1c0-.1 0-.2.1-.3.1 0 .1 0 .1-.1v-.1c0-.1.1-.2.1-.3 0 0 .1 0 .1-.1s.1-.2.1-.3c0 0 .1 0 .1-.1s.1-.2.1-.3c.1 0 .1 0 .1-.1v-.1l.1-.3c.1 0 .1-.1.1-.1V36l.1-.3c.1 0 .1-.1.1-.1l-.1-.1.1-.3c.1 0 .2-.1.2-.1s0-.1-.1-.1l.1-.3c.1 0 .2-.1.2-.1s0-.1-.1-.1l.1-.3c.1 0 .2-.1.2-.1s0-.1-.1-.1l.2-.3c.1 0 .2-.1.2-.1s0-.1-.1-.1l.1-.2c.2 0 .3-.1.3-.1l-.1-.1.1-.2c.1 0 .3-.1.3-.1l-.1-.1.1-.2c.2 0 .3-.1.3-.1l-.1-.1.1-.2c.2 0 .3-.1.3-.1 0-.1-.1-.1-.2-.1l.1-.2c.2 0 .3-.1.3-.1 0-.1-.1-.1-.2-.1l.1-.2c.2 0 .3-.1.3-.1 0-.1-.1-.1-.2-.1.7-1.3 1-2.2 1.2-3.3.3-1.9.1-3.1-1.1-3.5C14.2 24 14 24 14 24s-.3 0-.3-.4c0-.5.3-.6.3-.6v-.9.5-2.9s.1-.4.5-.4h1l.3-.8h.6l.3.8h29.1l.4-.7h.2l.7.7z"/></svg>