<svg viewBox="0 0 60 60"><path d="M26.7 31.3l.3.3s0 .1.1.1c.1.1 0 .1-.1 0 0 0-.2-.1-.3-.4zm2.1 2.1v.8c0 .2.2.2.2.2l.6-.1-.8-.9zM45 27.6v.9s0 .1-.1.1h-1.7s-.1 0-.1-.1v-.1h-1.3v.1h-.4v-.1h-1.1v.1h-.4v-.1h-.1v.6c0 .1-.1.3-.3.3h-.2s0 .1-.1.1c0 0-.1 0-.1-.1h-.3s0 .1-.1.1c0 0-.1 0-.1-.1h-.3s0 .1-.1.1c0 0-.1 0-.1-.1h-.3s0 .1-.1.1c0 0-.1 0-.1-.1h-.3s0 .1-.1.1c0 0-.1 0-.1-.1h-.3s0 .1-.1.1c0 0-.1 0-.1-.1h-.3s0 .1-.1.1-.1 0-.1-.1h-.3s0 .1-.1.1c0 0-.1 0-.1-.1h-.3s0 .1-.1.1c0 0-.1 0-.1-.1h-.3s0 .1-.1.1c0 0-.1 0-.1-.1h-.2l-2.9-2.9c.1 0 .2-.1.3-.1.1-.1.1-.2.1-.3 0-.2-.2-.4-.4-.4h-.9l-.4-.4c.9.1 1.5.1 1.5.1s.8 0 .8.7v1.1h.1v-.3l.9.3V27c0-.1.1-.3.3-.3h.3s0-.1.1-.1h.1c.1 0 0 0 0 .1h.3s0-.1.1-.1h.1v.1h.3s0-.1.1-.1h.1v.1h.3s0-.1.1-.1h.1v.1h.3s0-.1.1-.1h.1v.1h.3s0-.1.1-.1h.1v.1h.3s0-.1.1-.1h.1v.1h.3s0-.1.1-.1h.1v.1h.3s0-.1.1-.1h.1v.1h.3s0-.1.1-.1h.1v.1h.3s0-.1.1-.1h.1c.1 0 0 0 0 .1h.2c.1 0 .3.1.3.3v.6h.1V27c0-.2.1-.2.2-.3s.8-1.1.9-1.3c.2-.2.2-.4.5-.4.4 0 .4.5.4.5v2.1h1.3v-.1s0-.1.1-.1l1.7.2c0-.1 0 0 0 0zm-3.8 0c0-.1 0-.1 0 0l-.8-.1h-.1v.1s0 .1.1.1l.8-.1c0 .1 0 .1 0 0zm.3-1c0-.2-.3-.1-.3-.3V26c0-.1-.2-.3-.4 0s-.5.6-.6.8c-.2.2-.1.4.1.4h1.1c.1 0 .1-.1.1-.1v-.5zm2.9 1.5c0-.1 0-.1 0 0l-.8-.1h-.1v.1s0 .1.1.1l.8-.1c0 .1 0 0 0 0zm.4 0c0-.1 0-.1 0 0l-.2-.1h-.1v.1s0 .1.1.1l.2-.1c0 .1 0 0 0 0zm-17.4 4h-1.3c-.1 0-.5 0-.6.1-.1.1-.2.4-.3.6s0 .3.1.4c.1.1 0 .2-.1.2s-.4.1-.4.2c-.1.1-.6 1.1-.7 1.2-.1.1.1.3.1.4 0 .1 0 .2-.2.2s-1-.1-1.3-.2-1-.3-1.1-.3c-.1-.1-.1-.1-.1-.2.1-.1 2.2-3.2 2.3-3.4s.1-.2.1-.7c0-.6-.6-.7-.9-.7h-.1.1s-.2 0-.2-.2V29h-.3c-.1 0-.1-.1-.1-.1v.4s0 .2-.2.2h-.9v1c0 .2-.1.2-.1.2h-.7v.4H20v-.4h-.3s-.1 0-.3.1C19.2 31 18 32 18 32v-.9l-.4.2s-1.1 1.5-1.3 1.9c-.3.4-.6.5-.6.2-.1-.4-.7-3.7-.7-5 0-.3.2-.8.2-1 0-.2.2-.2.3-.2.1 0 .4.2.9.2h6.3l3.5 3.5c-.1.1-.1.3-.1.4 0 .4.3.7.8.7l.5.1zm-9.9-2.4s0-.1 0 0l-.1-.1h-1.5c-.1 0-.1.1-.1.1v.1h1.6s.1 0 .1-.1zM51 30c0 5.6-2.2 10.9-6.2 14.8-4 4-9.2 6.2-14.8 6.2s-10.9-2.2-14.8-6.2c-4-4-6.2-9.2-6.2-14.8s2.2-10.9 6.2-14.8S24.4 9 30 9s10.9 2.2 14.8 6.2S51 24.4 51 30zM39.8 43.1L16.9 20.2c-2 2.7-3.3 6.1-3.3 9.8 0 9 7.3 16.3 16.3 16.3 3.8 0 7.2-1.2 9.9-3.2zM46.3 30c0-9-7.3-16.3-16.3-16.3-3.6 0-6.8 1.1-9.5 3.1l22.8 22.8c1.9-2.8 3-6 3-9.6z"/></svg>