<svg viewBox="0 0 60 60"><path d="M43 13.3c0-1-.8-1.7-1.8-1.7H18.7c-1 0-1.8.8-1.8 1.7v33.3c0 1 .8 1.7 1.8 1.7h22.5c1 0 1.8-.8 1.8-1.7V13.3zm-19.6 7.6h-2.2v-.1c.1 0 .8-.1.9-1.2-.2.2-.5.3-.8.3-.7 0-1.2-.5-1.2-1.2 0-1.4 2.2-2.7 2.2-2.7s2.2 1.3 2.2 2.7c0 .7-.5 1.2-1.2 1.2-.3 0-.6-.1-.8-.3.1 1.1.8 1.2.9 1.2v.1zM33 36.3v.3h-6v-.3c.4 0 2.1-.2 2.5-3.2-.6.6-1.4.9-2.3.9-1.8 0-3.3-1.5-3.3-3.3 0-3.9 6.1-7.5 6.1-7.5s6.1 3.6 6.1 7.5c0 1.8-1.5 3.3-3.3 3.3-.9 0-1.7-.3-2.3-.9.4 3 2.2 3.2 2.5 3.2zm4.7 7.6s-2.2-1.3-2.2-2.7c0-.7.5-1.2 1.2-1.2.3 0 .6.1.8.3-.1-1.1-.8-1.2-.9-1.2V39h2.2v.1c-.1 0-.8.1-.9 1.2.2-.2.5-.3.8-.3.7 0 1.2.5 1.2 1.2 0 1.4-2.2 2.7-2.2 2.7z"/></svg>