<svg viewBox="0 0 60 60"><path d="M49.2 25.8c-.5 0-.8.3-.8.8 0 .2-.2.3-.4.5-.6.3-1.2.3-1.9 0C43.9 26 38 23.5 31 23.3V12.8l1.1 1.1c.2.2.3.2.6.2.2 0 .4-.1.6-.2.3-.3.3-.8 0-1.2l-2.4-2.4c-.3-.2-.6-.3-.9-.3-.3 0-.5.1-.7.3L27 12.8c-.3.3-.3.8 0 1.2.3.3.8.3 1.2 0l1.1-1.1v10.5c-7.1.2-13 2.7-15.2 3.8-.4.2-.8.3-1.2.2-.1 0-.2-.1-.3-.1-.1 0-.3-.1-.4-.2-.2-.2-.4-.3-.4-.5 0-.5-.3-.8-.8-.8s-1 .4-1 .9c0 .8.4 1.4 1.2 1.9.3.2.6.3 1 .4l12.9 13v7.2c0 .3.2.6.5.8.1.1.2.1.3.1.2 0 .4-.1.6-.2l3.6-2.9 3.6 2.9c.2.1.3.2.5.2.1 0 .2 0 .4-.1.3-.2.5-.4.5-.8V45c0-.1 0-.2-.1-.3V42l13-13c.3-.1.5-.2.8-.4.7-.5 1.2-1.2 1.2-1.9 0-.5-.3-.9-.8-.9zm-3.9 2.9c.2.1.3.1.5.2L34.6 40.1l-3.7-3V25c6.7.2 12.3 2.6 14.4 3.7zm-18.6 13v-.4l2.5-2v2l-2.5 2v-1.6zm4.2-.5v-2l2.5 2v2l-2.5-2zM29.2 25v12.1l-3.7 3-11.2-11.3c.1 0 .3-.1.4-.2 2.2-1 7.8-3.4 14.5-3.6zm-2.5 20.4l2.5-2v2l-2.5 2v-2zm6.7 2L31 45.5v-2l2.4 1.9v2z"/></svg>