<svg viewBox="0 0 60 60"><path d="M30 23.6c-3.5 0-6.4 2.9-6.4 6.4 0 3.5 2.9 6.4 6.4 6.4 3.5 0 6.4-2.9 6.4-6.4 0-3.5-2.9-6.4-6.4-6.4zm0 10.6c-2.3 0-4.2-1.9-4.2-4.2s1.9-4.2 4.2-4.2 4.2 1.9 4.2 4.2-1.9 4.2-4.2 4.2zm2.1-4.2c0 1.2-1 2.1-2.1 2.1s-2.1-1-2.1-2.1 1-2.1 2.1-2.1 2.1.9 2.1 2.1zm13.8-1.1h-5.4c-.5-5-4.5-9-9.5-9.5V14c0-.6-.5-1.1-1.1-1.1-.6 0-1.1.5-1.1 1.1v5.4c-5 .5-9 4.5-9.5 9.5h-5.4c-.6 0-1.1.5-1.1 1.1 0 .6.5 1.1 1.1 1.1h5.4c.5 5 4.5 9 9.5 9.5V46c0 .6.5 1.1 1.1 1.1.6 0 1.1-.5 1.1-1.1v-5.4c5-.5 9-4.5 9.5-9.5h5.4c.6 0 1.1-.5 1.1-1.1 0-.6-.5-1.1-1.1-1.1zM30 38.5c-4.7 0-8.5-3.8-8.5-8.5s3.8-8.5 8.5-8.5 8.5 3.8 8.5 8.5-3.8 8.5-8.5 8.5zM15.5 26.6c1.3-5.4 5.6-9.8 11.1-11.1.6-.1 1.1.2 1.3.8.1.6-.2 1.1-.8 1.3-4.7 1.1-8.4 4.8-9.5 9.5-.1.5-.6.8-1 .8h-.2c-.6-.2-1-.7-.9-1.3zm12.4 17.1c-.1.5-.6.8-1 .8h-.2c-5.4-1.3-9.8-5.6-11.1-11.1-.1-.6.2-1.1.8-1.3.6-.1 1.1.2 1.3.8 1.1 4.7 4.8 8.4 9.5 9.5.5.1.8.7.7 1.3zm16.6-10.3c-1.3 5.4-5.6 9.8-11.1 11.1h-.3c-.5 0-.9-.3-1-.8-.1-.6.2-1.1.8-1.3 4.7-1.1 8.4-4.8 9.5-9.5.1-.6.7-.9 1.3-.8.5.2.9.7.8 1.3zM32.1 16.3c.1-.6.7-.9 1.3-.8 5.4 1.3 9.8 5.6 11.1 11.1.1.6-.2 1.1-.8 1.3h-.2c-.5 0-.9-.3-1-.8-1.1-4.7-4.8-8.4-9.5-9.5-.7-.1-1-.7-.9-1.3z"/></svg>