<svg viewBox="0 0 60 60"><path d="M35.8 19.2l.9-2C32 15 26.6 15.4 22.3 18.4c-1.7 1.2-3.1 2.7-4.2 4.4l-2.6-3.2c1.2-1.7 2.8-3.2 4.5-4.4 5.4-3.7 12.3-4.3 18.2-1.5l.9-2c.2-.5.9-.7 1.4-.5.2.1.3.2.5.4l3.6 6.3c.3.5.1 1.1-.4 1.4-.1.1-.2.1-.4.1l-7.1 1.1c-.6.1-1.1-.3-1.2-.9.2 0 .2-.2.3-.4zM10.1 32l2.2-.2c.5 6.5 4.5 12.3 10.4 15.1 1.9.9 4 1.5 6.1 1.7l1.4-3.8c-2-.1-4.1-.5-5.9-1.4-4.7-2.2-7.8-6.7-8.2-11.9l2.1-.2c.6 0 1-.5 1-1.1 0-.2-.1-.4-.2-.6L14.5 24c-.4-.4-1-.5-1.5-.2-.1.1-.2.2-.2.3l-3.6 6.3c-.3.6-.2 1.2.3 1.5.2.1.4.2.6.1zm38.8-3.1c-.2-2.1-.7-4.2-1.6-6.2l-4 .6c1 1.8 1.5 3.8 1.7 5.8.4 5.1-1.9 10.1-6.2 13.1l-1.2-1.8c-.3-.5-1-.6-1.4-.3-.2.1-.3.3-.4.5l-2.6 6.8c-.2.5.1 1.1.6 1.3.1 0 .2.1.4.1h7.2c.6 0 1-.4 1.1-1 0-.2-.1-.4-.2-.6l-1.2-1.8c5.4-3.7 8.4-10 7.8-16.5zm-26.4 4.3c-1.6-4.5.8-9.3 5.2-10.9s9.3.8 10.9 5.2c1.6 4.5-.8 9.3-5.2 10.9-.7.3-1.5.4-2.3.5-3.7.2-7.3-2.1-8.6-5.7zm9.6 1.3c2.3-.8 3.5-3.4 2.7-5.7-.8-2.3-3.4-3.5-5.7-2.7s-3.5 3.4-2.7 5.7c.8 2.3 3.3 3.5 5.7 2.7z"/></svg>