<svg viewBox="0 0 60 60"><path fill="none" d="M25.9 31c-.8-.5-2.5-.6-3.8-.2-1.3.4-2.5 1.6-2.7 2.6-.2 1-.1 2.4.2 3.2.3.8 1.3 1.5 2.3 1.5s2.6-.4 3.6-1c1-.5 1.7-1.9 1.8-3 0-1.2-.6-2.5-1.4-3.1zm4.1 5.5c-1.9 0-2 4.9-2 4.9s.4.6 2 .6c1.7 0 2-.6 2-.6s-.1-4.9-2-4.9zm8.2-5.7c-1.3-.4-3-.3-3.8.2-.8.5-1.4 1.9-1.4 3s.8 2.5 1.8 3 2.6 1 3.6 1 2-.7 2.3-1.5.3-2.3.2-3.2c-.2-.9-1.4-2-2.7-2.5z"/><path d="M30 25.8c1 0 1.5-1.1 1.5-3.3s-.5-3.4-1.5-3.4-1.5 1.1-1.5 3.4.5 3.3 1.5 3.3z"/><path d="M43 33.5c.5-1.4 2.3-4.2 2.3-8.9s-5.8-11.7-15.2-11.7c-9.4 0-15.2 7-15.3 11.6 0 4.8 1.8 7.5 2.3 8.9.9 2.8-.2 4.2-.2 4.2s.4 2.9 1.3 4.2c.9 1.3 5.4-.8 5.4 4 0 0 1.8 1.3 6.5 1.3 4.8 0 6.5-1.3 6.5-1.3 0-4.9 4.5-2.7 5.4-4 1-1.3 1.3-4.2 1.3-4.2s-1.1-1.3-.3-4.1zM24.8 18.7c.5-1 1.2-1.8 2.1-2.4.9-.5 1.9-.8 3.1-.8 1.2 0 2.2.3 3.1.8.9.5 1.6 1.3 2.1 2.4.5 1 .8 2.3.8 3.7 0 1.4-.3 2.7-.8 3.7s-1.2 1.8-2.1 2.4-1.9.8-3.1.8c-1.2 0-2.2-.3-3.1-.8s-1.6-1.3-2.1-2.4c-.5-1-.8-2.3-.8-3.7 0-1.4.3-2.6.8-3.7zm.7 18.4c-1 .6-2.6 1-3.6 1s-2-.7-2.3-1.5c-.3-.8-.4-2.2-.2-3.2s1.4-2.2 2.7-2.6c1.3-.4 3-.3 3.8.2.8.6 1.4 1.9 1.4 3.1-.1 1.1-.8 2.5-1.8 3zM30 42c-1.6 0-2-.6-2-.6s.1-4.9 2-4.9 2 4.9 2 4.9-.3.6-2 .6zm10.7-5.5c-.3.8-1.3 1.5-2.3 1.5s-2.6-.5-3.6-1-1.8-1.9-1.8-3 .6-2.5 1.4-3c.8-.5 2.5-.6 3.8-.2 1.3.5 2.5 1.6 2.7 2.5.1.9.1 2.4-.2 3.2z"/></svg>