<svg viewBox="0 0 60 60"><path d="M26.1 46.5l.7-.7-.4-.4.3-.3.7.1 8.6-8.6c.5-.5.6-1.4.9-1.7.1-.3 4.3-4.6 4.3-4.6l-3.4-3.4s-4.5 4-4.7 4.2c-.3.1-1.1.3-1.7.9l-8.6 8.6.1.7-.3.3-.4-.4-.7.7 4.6 4.6zm15.5-16.8l.7-.7c2.1-1.9 4.9-6.6 4.1-7.4-.8-.8-5.5 2-7.4 4l-.7.7 3.3 3.4zm-23.5 8.8l.7-.7-.4-.4.3-.3.7.1 8.6-8.6c.5-.5.6-1.4.9-1.7.1-.3 4.3-4.6 4.3-4.6L29.7 19s-4.5 4-4.7 4.2c-.3.1-1.1.3-1.7.9l-8.6 8.6.1.7-.3.3-.4-.4-.6.7 4.6 4.5zm15.5-16.8l.7-.7c2.1-1.9 4.9-6.6 4.1-7.4-.8-.8-5.5 2-7.4 4l-.7.7 3.3 3.4z"/></svg>