<svg viewBox="0 0 60 60"><path d="M51.3 14.9c-.2-.4-.6-.6-1-.6H9.7c-.4 0-.8.2-1 .6-.2.4-.2.8 0 1.2l20.3 35c.2.4.6.6 1 .6s.8-.2 1-.6l20.3-35c.3-.4.3-.8 0-1.2zM34.6 23c0-1.4.7-4.1 1.2-4.1s1.3 2.7 1.2 4.1v.5h-2.4V23zm-5.9 0c0-1.4.6-4.1 1.2-4.1.5 0 1.3 2.7 1.2 4.1v.5h-2.4V23zm-5.8 0c0-1.4.7-4.1 1.2-4.1s1.3 2.7 1.2 4.1v.5h-2.4V23zm2.9 10.8v.3l-.3.2v.2h.3v.5h-3.2v-.5h.3v-.2l-.3-.2V28c0-.3.3-.8.3-.9 0-.2.1-3.2.1-3.2h2.4s.1 3 .1 3.2c0 .2.3.5.3.9v5.8zm5.8 0v.3l-.3.2v.2h.3v.5h-3.2v-.5h.3v-.2l-.3-.2V28c0-.3.3-.8.3-.9 0-.2.1-3.2.1-3.2h2.4s.1 3 .1 3.2c0 .2.3.5.3.9v5.8zm5.9 0v.3l-.3.2v.2h.3v.5h-3.3v-.5h.3l.1-.2-.3-.2V28c0-.3.3-.8.3-.9 0-.2.1-3.2.1-3.2h2.4s.1 3 .1 3.2c0 .2.3.5.3.9v5.8z"/></svg>