<svg viewBox="0 0 60 60"><path d="M49 43.8l-7.6-23c-.6-1.8-1.7-3.4-3.1-4.6l-1.2-.9c-1.1-.6-2.3-1.1-3.5-1.3l-.5-.1c-1.6-.3-3.3-.2-4.8.2-1 .3-2 .2-3-.2-1.1-.5-2.1-1.1-3-1.9-.3 1.1-.1 2.4.7 3.3-1-.5-3.8-1.7-5.9-1.9-2.7-.3-4.9.1-6 2.1l11.5 4.6c.8.3 1.3.9 1.6 1.6l-.7-.2c-1-.3-2.2-.2-3.2.1l-7 2.3c1.2 1.1 2.7 1.7 4.3 1.8 2 .1 6.3-.9 6.3-.9-2.6.9-4.5 3.2-4.9 5.9-.3 1.7.3 3 .9 4.5.9-1.6 2.3-2.9 4-3.7-1.4 2.2-1.7 4.9-.8 7.4l3.2-2.2s-.3 9.7 8.3 11.1v-.1c-1.6-3.2-1.9-6.8-1-10.2.3 1.3.6 2.6 1.1 3.8 1.1 2.9 3.5 5.1 6.5 5.9.4.1.9.2 1.3.3l-1.1-6.1c3 3.8 7.6 2.4 7.6 2.4zM29.1 21.1c-1.1-.1-1.8-1-1.8-2.1.1-1.1 1-1.8 2.1-1.8 1.1.1 1.8 1 1.8 2.1-.1 1.1-1 1.9-2.1 1.8z"/></svg>