<svg viewBox="0 0 60 60"><path d="M21.3 38.3l-.5-.5c.2-.1.2-.6.2-.8l.8.7c-.1.2-.5.5-.5.6zm5.8-5.3c.3-.7-1.5-2.1-2-2.1L23 32.7c1.1 1.2 1.6 2.2 1.7 2.4l2.4-2.1zm-3.3 7.6l5.3-4.8c.3-.5-1.1-2-1.6-2.3l-2.4 2.1c.5 1.9.6 2.4-.9 3.6L22.4 38l-.7.6c.5.8 1.8 1.8 2.1 2zm-6.4-8.4c-3.3 4.2-3.1 5.8-.2 9.4 3.8-3.2 4.8-6.3.2-9.4zM22 29l-2 1.8c1 .1 2.1.6 2.9 1.3l1.5-1.3c-.9-1.4-2.1-1.6-2.4-1.8zm7.3 7.7l-5.1 4.4c.7.6 1.6 1.2 2.3 1.7L31 39c-.2-1.1-.6-1.7-1.7-2.3zm-5.1 1.8c1.8-2-3.1-9-5.8-6.5 1.7 1.1 2.8 3.3 2.7 4.1.9.8 2.1 1.7 3.1 2.4zm-3.6 0c-1.1 2-1.4 2.4-2.8 3.6.7.8 2.2 2 3.1 2.6.9.6 4.3-.7 5.3-1.5-2.4-1.6-3.5-2.4-5.6-4.7zm-6.4-.1L12 40.3c.7 3 3.4 5.7 6.5 7.2l2.2-2c-3.3-2.2-4.7-3.8-6.5-7.1zm24-24.2c1.9 0 3.3 1.5 3.3 3.4 0 .2 0 .4-.1.7l.6.6c.1-.4.2-.8.2-1.3 0-2.3-1.9-4.1-4.1-4.1-1.6 0-3 .9-3.6 2.3h.9c.6-.9 1.6-1.6 2.8-1.6zM26.7 25.3c1.7 1.1 4.4 1.8 7.4 1.8s5.7-.7 7.4-1.8c-.2-1.4-.8-2.7-1.6-3.8.3-.2.6-.3.9-.5-.2-.3-.4-.5-.5-.6-.3.2-.6.4-.9.5v-.1c-.8-.8-1.8-1.4-2.9-1.7V18h.6c.4.2 2 .8 3.3 2.2.2.2.4.4.5.6.7.9 1.4 2 1.9 3.5.1.3.1.6.2.9.1.6.2 1.2.2 1.9h1.5c-.1-1.2-.2-2.4-.6-3.5-.1-.4-.2-.7-.4-1-.5-1.2-1.2-2.1-1.9-2.9l-.6-.6c-1.9-1.9-3.9-2.5-3.9-2.5l-.1-.1h-5.3v2.6c-2.8.8-4.8 3.2-5.2 6.2zm14.9 1.1v-.2c-1.9 1.1-4.5 1.7-7.5 1.7s-5.6-.7-7.5-1.7v.2c0 4.2 3.3 7.5 7.5 7.5s7.5-3.4 7.5-7.5zM14 31c0-.3-.1-.7-.1-1.1 0-8.4 6.5-15.3 14.7-16v2.3l1.8-2.3 1.3-1.7-1.4-1.8-1.7-2.2v2.3c-10.1.8-18.1 9.2-18.1 19.5v.8l1.7-1.5L14 31zm35.4-2l-1.9 1.7-1.5-1.5v.8c0 8.5-6.6 15.4-15 16v-2.3L29.3 46 28 47.7l1.4 1.7 1.7 2.2v-2.3c10.2-.6 18.4-9 18.4-19.4 0-.2 0-.6-.1-.9z"/></svg>