<svg viewBox="0 0 60 60"><path d="M48.4 44.6c-.7.3-1.3 0-1.5-.6 0 0 0-.1-.2-.3-.1-.2-.3-.5-.5-.7-.1-.1-.2-.3-.3-.3-.1-.1-.2-.1-.3-.1-.3 0-.8.1-1.5.6-.7.4-1.5 1-2.4 1.7-.5.3-.9.7-1.5 1.1-.6.4-1.2.8-1.9 1.1-.4.2-.8.3-1.2.5s-1 .2-1.6.1c-.6 0-1.2-.3-1.8-.6-.3-.2-.5-.3-.7-.6l-.3-.3-.3-.3s0-.1-.1-.1l-.1-.1c0-.1-.1-.2-.2-.3-.1-.2-.2-.3-.3-.5-.1-.4-.2-.8-.2-1.2s.1-.9.3-1.2c.1-.3.3-.6.5-.9.3-.5.7-.9 1.1-1.2.4-.3.7-.6 1.1-.9 1.5-1 3-1.8 4.4-2.7.7-.4 1.5-.9 2.1-1.3s1.2-.9 1.6-1.4c.2-.2.4-.6.1-1-.3-.4-.8-.3-1.1-.1-.6.3-1.3.7-2.1 1.2-1.5 1.1-3 2.5-4.6 3.8-.8.7-1.6 1.4-2.5 2.1-.9.7-1.8 1.4-2.8 2-1 .6-2.2 1.2-3.7 1.6-.8.2-1.7.2-2.6 0-.9-.2-1.8-.7-2.5-1.2l-.9-.9-.2-.2V41c-.1-.2-.3-.3-.3-.6-.4-.8-.7-1.8-.7-2.9 0-1.1.4-2 .9-2.7.4-.7.9-1.2 1.4-1.8 1-.9 2-1.6 3-2.3 1-.6 2-1.2 2.9-1.8 1.9-1.1 3.8-2.1 5.6-3.1.9-.5 1.8-1 2.5-1.5.8-.5 1.5-1.1 2-1.6.3-.3.7-.8.5-1.3-.2-.4-.6-.3-.9-.3-.5.1-1.2.4-1.9.9-1.4.9-2.9 2-4.3 3.1-1.4 1.2-2.8 2.3-4.3 3.4-.7.6-1.5 1.1-2.2 1.6-.8.5-1.6 1-2.5 1.4s-1.9.8-3.1.9c-.6 0-1.2 0-1.9-.1-.6-.1-1.3-.4-1.8-.7-.6-.3-1-.7-1.4-1.2s-.7-.8-.9-1.3c-.5-.8-.9-1.8-1-2.9-.1-1.1.1-2.2.4-3.1.4-.9.9-1.6 1.4-2.1.5-.6 1-1 1.5-1.4.5-.4 1-.7 1.4-1 .9-.5 1.7-.9 2.4-1.2l-.2-.4c-.3-.6-.3-1.3 0-1.8s.9-.9 1.5-1l6-.5c.7-.1 1.4.3 1.8.9l.8-.4.8-1.3c.2-.3.6-.4.9-.2.3.2.4.6.2.9l-.3.5h.6c.3 0 .6.3.6.6s-.3.6-.6.6h-1.6l-.8.4c.3.7.2 1.5-.3 2.1l-4 4.3c-.4.3-.9.6-1.3.6h-.4c-.6-.1-1.2-.5-1.5-1l-.2-.3c-.6.3-1.3.8-2 1.2-.6.5-1.3 1.1-1.8 1.7-.2.3-.4.6-.5.9-.1.3-.3.9.3 1.5.6.7 1.7.6 2.6.3.9-.4 2.4-1.4 3.7-2.5s2.7-2.1 4.2-3.4c1.5-1.2 3-2.4 4.9-3.6 1-.6 2.1-1.1 3.5-1.4.7-.2 1.5-.2 2.5-.1.9.2 1.8.6 2.5 1.2.2.1.3.3.5.4.2.2.3.3.4.5l.1.1v.2l.1.2c.1.2.2.3.3.5.4.7.7 1.7.7 2.8s-.3 2-.8 2.7c-.4.7-.9 1.3-1.3 1.8-.9.9-1.9 1.6-2.9 2.3-.9.6-1.9 1.2-2.9 1.7-1.9 1.1-3.8 2.1-5.6 3.1-.9.5-1.8 1-2.6 1.5s-1.6 1.1-2.1 1.7c-.3.3-.9.9-.6 1.5s.9.5 1.1.5c.6-.1 1.3-.4 2.1-.9 1.5-.9 3.1-2.3 4.7-3.6 1.6-1.3 3.2-2.7 5-4 .9-.6 1.9-1.2 3.1-1.7.6-.3 1.3-.4 2.2-.5.4 0 .9 0 1.3.1.5.1.9.3 1.3.5.4.3.8.5 1.1.8.1.1.3.4.4.4l.1.1.1.1.2.2c.4.6.8 1.3.9 2.2.2.9 0 1.8-.3 2.6s-.7 1.3-1.2 1.8c-.9.9-1.7 1.5-2.6 2.1s-1.7 1-2.5 1.4c-1.6.8-3.1 1.5-4.3 2.3-.3.2-1.4.7-1.2 1.2.2.4.9.1 1.3 0 .5-.2 1-.4 1.5-.7l1.5-.9c.9-.6 1.9-1.2 2.9-1.7l1.5-.6c.6-.1 1.2-.2 1.8 0 .6.1 1.1.4 1.5.7.4.3.6.6.8.9.3.6.5 1 .6 1.3.1.3.1.4.1.4.7.6.4 1.2-.2 1.4z"/></svg>