<svg viewBox="0 0 60 60"><path d="M31.9 20s-3.3.9-3.2 4.1c0 0 5.2-3.3 8 1.5 0 0-5.2-3.8-8.6.9 0 0 4-2.4 6.4.3 0 0-3.4-1.1-4.4.5 0 0 2.8-1.1 6.3 1.3 3.2-2.8 4.1 3.1 7.6 2.6 2.4-.3 1.3-3.7.9-4 0 0-.6 3.8-1.6-.3-1.6 3.7-4.2-1.9-5.4-3.6 0 0 1.6-1.9 6.1-.7 0 0 2.9.5 4.2-.8v1.8c.4-1.1 1.2-3.3 1.9-.1 3.1-5.6-3.5-4.9-6.5-4.7.1-3.6-7.3-1.4-11.4-5.8l.3 1.8c-.6-3-4.8-1.9-6.9-3.7 1 2.6 4.3 1.6 4.3 3.9 0 .2-.9-1.6-3.8-1.1 0 0-5.5-.2-6.1-1.6 1.3 3.9 9.5 1.6 7.7 3.4 0 0-9.4 1.3-12-3.1.4 9.2 14.5 1.3 16.2 7.4zm7.8.5c-.3-1.8-2.9-1.6-2.9-1.6 2.9-1.9 4.8 1.1 4.8 1.1l-1.9.5zm-12.2 5.3s-.6-4.3 2.9-6.3c-2.2-1.8-5.7-.1-9.2-1 0 0 3.5 1.4 3.9 2.3 0 0-7.3-3.7-11.9.5 0 0 4-.6 5.3 1.2 0 0-6.2-1.7-9.4 4 0 0 3.9-1.7 5.4-.5 0 0-4.6.7-5.1 6.1 0 0 .9-1.9 4-2.5 0 0-4.1 2.9-2.5 11.3 0 0 .5-3.6 2-4.6 0 0-1.1 5.7 4.6 9.9v-2.9s5.2 7.4 18.1 5.5c-15.8-1.7-19.5-18.3-8.1-23z"/></svg>