<svg viewBox="0 0 60 60"><path d="M47.7 46H12.3c-1.3 0-2.4-.5-3-1.5-.5-1-.5-2.2.2-3.4L27.2 9.9C27.9 8.7 28.9 8 30 8c1.1 0 2.1.7 2.8 1.9l17.7 31.3c.7 1.2.7 2.4.2 3.4-.6.9-1.7 1.4-3 1.4zM30 10.4c-.2 0-.5.2-.7.7L11.6 42.3c-.3.5-.3.8-.2 1s.4.3.9.3h35.4c.6 0 .9-.2.9-.3.1-.1.1-.5-.2-1L30.7 11.1c-.2-.5-.5-.7-.7-.7zM14.2 41.9l12-21.4s.3.9.5 1.1c.2.2.6.8.9 1.5.3.7.4 2.4.5 2.9s.4 1.3.4 1.8c0 .7.2 1.3.4 1.9.2.5.5 1.4.6 1.8s.1 1.1.5 1.5c.4.4.9.9 1 1.4 0 .5 0 1.5.3 1.9s.9 1.2 1.3 1.5c.5.4 1 1.2 1.3 1.6.3.4.7 1.4.9 1.6.2.2.5.9.5.9H14.2zm23.4-5.6s.8-1.2 1.4-1.4 2.5-.2 3 0 1.1 1.4 1.3 1.8c.3.4.3 1.2.3 1.7s0 1.3-.4 1.7c-.4.5-.9.7-1.8.7s-2.1-.1-2.5-.7-1.1-.8-1.2-1.2c-.2-.3-.5-1.5-.1-2.6zm-.2-4c-.1-.3 0-.8.3-1.1s.9-.6 1.2-.6c.3 0 .9.2 1.1.6.2.3.5.9.4 1.4-.2.5-.5 1.1-1 1.2s-1.3-.4-1.5-.6-.4-.6-.5-.9zm-3 4.9s0-.8.4-1.2c.5-.4.9.3 1.1.6.1.3.4.8 0 1.1s-1.2.3-1.5-.5zm-2.1-4.4s.2-1 .8-.9c.6.1 1.1.5 1 1.1-.1.7-.4 1.3-.9 1.3-.4 0-.9-.2-.9-.8v-.7zm-.8-3.4c-.2-.6-.5-1.2-.2-1.7.2-.5.8-1.7 1.1-1.8s1.3-.2 1.8 0c.4.2.9.5 1.1 1 .2.5 0 1.3.2 1.5.2.2.3 1 0 1.3-.3.3-.9 1-1.3 1.2-.5.2-1.3.3-1.6 0-.4-.2-1-1-1.1-1.5zm-2.4-2.8c0-.4.3-.5.5-.4.1.1.4-.1.4.4s-.1.8-.4.8c-.4 0-.5-.8-.5-.8zm-1-4.2s.2.5.6.5c.4 0 .5-.5.4-.8 0-.3-.4-.5-.5-.4-.3.1-.5.4-.5.7zm1.2 2s-.1-.9.2-.9c.3 0 .9 0 1 .2s.2.4 0 .7c-.2.4-.4.7-.6.7s-.6-.1-.6-.7z"/></svg>