<svg viewBox="0 0 60 60"><path d="M28.9 19.5l1.1-2 1.1 2h-2.2zm1.1 21h-1.1l1.1 2 1.1-2H30zm-9.5-13.6c0-2.3 2.1-5.3 5.5-6.7l3.1-5.9H13.5l7 13.3v-.7zm19 .1v.7l7-13.3H30.9l3.1 5.8c3.5 1.4 5.5 4.4 5.5 6.8zm-1.1 4.8c-.1.2-.2.3-.2.5-.2.8-.1 1.2 0 1.3l.3.2-.1.5c0 .3-.2 1.9-.9 2.8-.4.6-1.2.7-1.8.7-.3 0-.6 0-.7.1l-.3.6v.7l-.4.3s-.1.1-.2.1L31 45.5h15.6l-7.8-14.7c-.2.5-.3.8-.4 1zm-12.6 7.8l-.4-.3v-.6L25 38c-.2 0-.4-.1-.7-.1-.6 0-1.3-.1-1.8-.7-.6-.9-.9-2.5-.9-2.8l-.1-.4.3-.3s.3-.5 0-1.4c0-.1-.1-.3-.2-.5s-.2-.5-.4-.8l-7.8 14.7H29l-3.1-5.9c0-.1-.1-.2-.1-.2zM37.2 32c-.3.9-.2 1.5 0 1.9.1.3.2.4.2.4s-.2 1.6-.7 2.3c-.2.3-.6.3-1.1.3-.9.1-1.9.2-1.9 1.9 0 0-.6.4-2 .6-.4.1-1 .1-1.6.1-.6 0-1.2 0-1.6-.1-1.4-.2-2-.6-2-.6 0-1.8-1.1-1.9-2-1.9-.5 0-.9-.1-1.1-.3-.5-.7-.7-2.3-.7-2.3s.1-.1.2-.4c.1-.4.2-1-.1-2-.2-.6-.9-1.7-1.2-3.4-.1-.5-.1-1-.1-1.5 0-1.6 1.4-3.8 3.7-5.2.9-.5 2-1 3.2-1.2.5-.1 1.1-.1 1.7-.1.6 0 1.1.1 1.6.1 1.2.2 2.3.6 3.2 1.1 2.3 1.4 3.7 3.6 3.7 5.3 0 .5 0 1-.1 1.5-.4 1.7-1.1 2.8-1.3 3.5zm-8.7.3c0-.7-.3-1.4-.8-1.7-.3-.2-.7-.2-1.1-.2-.3 0-.7 0-1 .1-.6.2-1.1.6-1.4 1.1-.1.1-.1.2-.1.4-.1.6-.1 1.3.1 1.8s.7.8 1.3.8h.3c.5-.1 1.2-.3 1.7-.5.5-.4.9-1.2 1-1.8zm2.6 4.1s-.1-2.7-1.1-2.7c-1.1 0-1.1 2.7-1.1 2.7s.2.3 1.1.3c.9 0 1.1-.3 1.1-.3zm4.9-4.6c0-.1-.1-.3-.2-.4-.3-.4-.8-.8-1.3-1-.3-.1-.6-.1-1-.1-.5 0-.9.1-1.1.2-.4.3-.8 1.1-.8 1.7 0 .6.4 1.4 1 1.7.4.2 1.1.4 1.6.5h.4c.6 0 1.1-.4 1.3-.8.2-.4.2-1.3.1-1.8z"/></svg>