<svg viewBox="0 0 60 60"><path d="M38.5 36.9l5.2 5.2-1.6 1.6-5.2-5.2 1.6-1.6zm5.4 5.4l-1.6 1.6c-.3.3-.3.9.1 1.3s1 .4 1.3.1l1.6-1.6c.3-.3.3-.9-.1-1.3s-1-.4-1.3-.1zm-9.1-2.1l5.3-5.3.1.1c.3.3.7.3.9.1.2-.2.2-.6-.1-.9l-1.4-1.4c-.3-.3-.7-.3-.9-.1-.2.2-.2.6.1.9l.1.1-5.3 5.3-.1-.1c-.3-.3-.7-.3-.9-.1-.2.2-.2.6.1.9l1.4 1.4c.3.3.7.3.9.1.2-.2.2-.6-.1-.9l-.1-.1zm-16.9 3.5l-1.6-1.6 5.2-5.2 1.6 1.6-5.2 5.2zm-1.8-1.4c-.3-.3-.9-.3-1.3.1s-.4 1-.1 1.3l1.6 1.6c.3.3.9.3 1.3-.1s.4-1 .1-1.3l-1.6-1.6zm10.4-3.4l-.1.1-5.3-5.3.1-.1c.3-.3.3-.7.1-.9-.2-.2-.6-.2-.9.1L19 34.2c-.3.3-.3.7-.1.9.2.2.6.2.9-.1l.1-.1 5.3 5.3-.1.1c-.3.3-.3.7-.1.9.2.2.6.2.9-.1l1.4-1.4c.3-.3.3-.7.1-.9-.2-.3-.6-.2-.9.1zm11.2-4.3L33.2 30l10.5-10.5 1.8-5-5 1.9L30 26.9 19.5 16.4l-5-1.9 1.8 5L26.9 30l-4.5 4.5 3.2 3.1 4.5-4.5 4.5 4.5 3.1-3zM19.3 19.8c-.2-.2-.2-.4-.1-.5.1-.1.3-.1.5.1l8.9 8.9-.4.4-8.9-8.9zM30 30.5l-1.4 1.4-2.6 2.6c-.2.2-.4.2-.5.1-.1-.1-.1-.3.1-.5l2.7-2.7 1.4-1.4.4-.4 1.4-1.4 8.9-8.9c.2-.2.4-.2.5-.1.1.1.1.3-.1.5l-8.9 8.9-1.5 1.4-.4.5zm4.1 4l-2.7-2.7.4-.4 2.7 2.7c.2.2.2.4.1.5s-.4.1-.5-.1z"/></svg>