<svg viewBox="0 0 60 60"><path d="M19.5 13h-1.8c3.5-2.5 7.7-4 12.3-4 11.6 0 21 9.4 21 21 0 3.9-1.1 7.5-2.9 10.7l-2.9-2.9c1.2-2.3 1.9-4.9 1.9-7.7 0-9.4-7.6-17-17-17-3.5 0-6.8 1.1-9.5 2.9v-3h-1.1zM39 47v-2.6C36.4 46 33.3 47 30 47c-9.4 0-17-7.6-17-17 0-2.6.6-5.1 1.7-7.4l-3-3C10 22.7 9 26.2 9 30c0 11.6 9.4 21 21 21 4.6 0 8.8-1.5 12.3-4H39zm-9.3-12c-1.6 0-2.7 1.1-2.7 2.5s1.1 2.5 2.7 2.5 2.7-1.1 2.7-2.5-1.1-2.5-2.7-2.5zm6.8-9.9c0-3.3-2.9-5.1-7.1-5.1-3.7 0-6.4 1.4-7.9 3.7l3.4 2c.9-1.3 2.2-2.1 4-2.1 1.8 0 3 .9 3 2.2 0 2.4-4.3 3.3-4.3 7.2h4.2c0-2.9 4.7-3.4 4.7-7.9zm11 16.4l-2.9-2.9L40 34v12h12l-4.5-4.5zM15.2 21.7l4.3 4.3V14h-12l4.8 4.8 2.9 2.9z"/></svg>