<svg viewBox="0 0 60 60"><path d="M15.5 34v.3c0 6.8 5.4 12.2 12.1 12.2S39.7 41 39.7 34.3V34c-3 1.7-7.2 2.8-12.1 2.8s-9.1-1.1-12.1-2.8zm18.7-19.3c3 0 5.4 2.5 5.4 5.5 0 .4 0 .7-.1 1.1.3.3.7.6 1 1 .2-.7.3-1.3.3-2.1 0-3.7-3-6.7-6.6-6.7-2.6 0-4.8 1.5-5.9 3.7h1.4c1-1.5 2.6-2.5 4.5-2.5zm3.5 9.8c-.5.4-1.1.8-1.8 1 .3.3.6.6.9 1 .6-.3 1.2-.6 1.7-1-.3-.5-.6-.8-.8-1zm5.9 5.2c-.2-.6-.4-1.1-.6-1.6-.8-1.9-1.9-3.4-3-4.7l-.9-.9c-3-3-6.3-4.1-6.3-4.1l-.2-.1H24v4.2c-4.4 1.4-7.7 5.2-8.3 10 2.8 1.8 7.1 2.9 12 2.9 4.8 0 9.2-1.2 12-2.9-.3-2.3-1.3-4.4-2.7-6.2-.3-.3-.6-.7-.9-1-1.3-1.3-2.9-2.3-4.7-2.8v-1.8h1c.7.3 3.2 1.3 5.4 3.6.3.3.6.6.8.9 1.2 1.5 2.3 3.3 3 5.6.1.5.2.9.3 1.4.2 1 .3 2 .3 3.1h2.4c-.1-2-.4-3.9-1-5.6z"/></svg>