<svg viewBox="0 0 60 60"><path d="M51.3 42.9L31 7.9c-.2-.4-.6-.6-1-.6s-.8.2-1 .6l-20.3 35c-.2.4-.2.8 0 1.2.2.4.6.6 1 .6h40.6c.4 0 .8-.2 1-.6.3-.4.3-.8 0-1.2zm-11.8-16c-.1.3-.1.5-.1.5l-.1.1h-.1v.4h-.1l.1.1s.1 0 .1.2-.1.7-.1.7 0 .3-.5.3c-.5.1-5.2.2-5.2.2s-.5.2-.6.4c-.1.3-.1.7-.1.9 0 .7.2 1 .2 1l.1.2-.3.1s-2.7.1-2.8.1-.7 0-.9-.1c-.2-.1-.5-.3-.7-.3-.3 0-.5.2-.7.6-.4.7-.1 1-.1 1s.1.1-.2.2c-.2.1-.3.3-.5.6-.3.5 0 .8 0 .8s0 .1-.1.2-.3.2-.4.5c-.2.3-.3.8-.3.9v.5c0 .2-.1.3-.2.4s-.4.2-.4.2v.4s.1.4-.6.4c-.6.1-2.9 0-2.9 0s-.4 0-.4-.3.3-.5.3-.5v-.1h-.6s-.5-.2-.7-.5c-.2-.3-.1-.7-.1-.7l.1-.2.1-.1h-.1v-.1c.1 0 .1 0 .1-.1l-.1-.1c0-.1 0-.1.1-.2.1 0 .1 0 .1-.1v-.1c0-.1.1-.1.1-.2 0 0 .1 0 .1-.1s.1-.1.1-.2c0 0 .1 0 .1-.1s.1-.1.1-.2l-.3.5v-.1l.1-.2c.1 0 .1-.1.1-.1v-.1l.1-.2c.1 0 .1-.1.1-.1l-.1-.1.1-.2c.1 0 .1-.1.1-.1s0-.1-.1-.1l.1-.2c.1 0 .1-.1.1-.1s0-.1-.1-.1l.1-.2c.1 0 .1-.1.1-.1s0-.1-.1-.1l.1-.2c.1 0 .1-.1.1-.1s0-.1-.1-.1l.1-.1c.1 0 .2-.1.2-.1l-.1-.1.1-.1c-.1.9 0 .9 0 .9l-.1-.1.1-.1c.1 0 .2-.1.2-.1l-.1-.1.1-.1c.1 0 .2-.1.2-.1 0-.1-.1-.1-.1-.1l.1-.1c.1 0 .2-.1.2-.1 0-.1-.1-.1-.1-.1l.1-.1c.1 0 .2-.1.2-.1 0-.1-.1-.1-.1-.1.4-.7.5-1.1.6-1.7.2-1 .1-1.6-.6-1.8-.6-.2-.7-.2-.7-.2s-.2 0-.2-.2c0-.3.2-.3.2-.3v-1.7s.1-.2.3-.2h.5l.2-.4.2.4h15.1l.2-.4h.1l.4.4h.3s.2 0 .2.2.1.1.1.1v.1c-.2.4-.1.6-.1.9zm-7.4 3.5v.6c0 .4-.4.8-.8.8l-2 .1c-.4 0-.8-.4-.8-.8 0 0-.1-.3.1-.6.1.1.1.1.1.2l-.1.1c0 .1 0 .1.1.1.1.5.4.9.7 1 .1 0 .1-.1.1-.1h.1c.1-.1.1-.2.1-.2l-.3-.9c.1-.3.2-.6.3-.8l1.7-.2c.4-.1.7.2.7.7z"/></svg>