<svg viewBox="0 0 60 60"><path d="M30.4 18.4v5.1c-1.7-1.6-3.4-3-5.1-4.4V24c-1.7-1.4-3.2-2.7-4.8-4.1.1 4.8-.3 9.7.1 14.5.5 3.9 3.9 7.1 7.9 7.1 2.9 0 6.2.6 8.9-.8 2.9-1.8 1.7-5.6 1.9-8.2.7-6.3-5.3-10-8.9-14.1zm6.3 19.9c-3.1 1.4-6.9 1-10.2.3-4.9-2.5-3.2-8.8-3.5-13.2 1.6 1.4 3.1 2.7 4.8 4.1v-4.9c1.7 1.4 3.4 2.9 5.1 4.4v-4.7c1.4 1.7 3.1 3.2 3.9 5.7.5 2.6.5 5.6-.1 8.3zM30 9C18.4 9 9 18.4 9 30s9.4 21 21 21 21-9.4 21-21S41.6 9 30 9zm13.7 31.4l-2.3-2.3-2.6 2.7 2.3 2.3c-3 2.5-6.9 4.1-11.1 4.1-9.5 0-17.2-7.7-17.2-17.2 0-4.2 1.6-8.1 4.1-11.1l1.9 1.9 2.6-2.8-1.8-1.7v-.1c2.8-2.2 6.4-3.5 10.3-3.5 9.5 0 17.2 7.7 17.2 17.2.1 4-1.2 7.6-3.4 10.5z"/></svg>