<svg viewBox="0 0 60 60"><path d="M30 9C18.4 9 9 18.4 9 30s9.4 21 21 21 21-9.4 21-21S41.6 9 30 9zm13.7 31.4L39.9 36l-2.7 2.6 4 4.5c-3 2.5-6.9 4.1-11.1 4.1-9.5 0-17.2-7.7-17.2-17.2 0-4.2 1.6-8.1 4.1-11.1l1.9 1.9 2.6-2.8-1.8-1.7v-.1c2.8-2.2 6.4-3.5 10.3-3.5 9.5 0 17.2 7.7 17.2 17.2 0 4-1.3 7.6-3.5 10.5zM23.6 27.2l-2.3-6.6H29l-5.4 6.6zm.9.5l5.5-6.9 5.5 6.9h-11zm11.9-.5L31 20.5h7.7l-2.3 6.7zm.7.5l2.3-6.6 4.6 6.6h-6.9zm-1.2.9L30 43.5l-5.9-14.8h11.8zm-13-.9H16l4.6-6.6 2.3 6.6zm13.9.9h7L31.4 42.5l5.4-13.9zm-13.6 0l5.4 13.9-12.4-13.9h7z"/></svg>