<svg viewBox="0 0 60 60"><path d="M48.9 41.4l-18.2-30v-.2h-1.4v.1l-18.2 30c0 .1-.1.1-.1.2v.4c0 .1.1.1.1.2s.1.1.2.2h.2L29.7 49h.6l18.2-6.3h.2c.1 0 .1-.1.2-.2v-.4c0-.1.1-.2.1-.3v-.2c0-.1 0-.1-.1-.2zm-13-3.8c-.1.2-.4.5-.7.6-.2.1-.4.2-.6.2h-.4c-.5-.1-1.2-.3-1.6-.5-.3-.2-.6-.5-.8-.8-.1-.3-.2-.6-.2-.9 0-.3.1-.6.2-.9.2-.3.4-.6.6-.8.2-.1.6-.2 1.1-.2.4 0 .7 0 1 .1.5.2 1 .6 1.3 1 .1.1.2.3.2.4.1.3.1.6.1.9-.1.4-.1.7-.2.9zm-6.7 3c-.2-.1-.3-.2-.3-.2s0-1.1.3-1.9c.2-.4.4-.8.8-.8s.6.4.8.9c.3.8.3 1.8.3 1.8s-.1.1-.3.2c-.2.1-.4.1-.8.1s-.6-.1-.8-.1zm-5-2.8c-.1-.3-.2-.7-.2-1.1 0-.2 0-.5.1-.7 0-.2 0-.3.1-.4.3-.5.8-.9 1.4-1.1.3-.1.7-.1 1-.1.4 0 .8 0 1.1.2.2.1.4.4.5.6.2.3.3.7.3 1.1 0 .2-.1.5-.2.7-.2.4-.4.8-.8 1.1-.5.2-1.2.4-1.7.5h-.3c-.3 0-.6-.1-.9-.3-.2-.1-.3-.3-.4-.5zm5-22.9v9.6c-.3 0-.6 0-.8.1-1.2.2-2.3.7-3.2 1.2-2.3 1.4-3.7 3.6-3.7 5.2 0 .5 0 1 .1 1.5.3 1.7 1 2.8 1.2 3.4.1.5.2.9.2 1.2l-9.2 3.2 15.4-25.4zm0 32.1l-14.7-5.1s4.2-1.5 8.3-2.9c.1.5.3 1.2.6 1.6.2.2.6.3 1.1.3.9 0 2 .1 2 1.9 0 0 .6.4 2 .6.2 0 .4.1.7.1V47zm1.6 0v-3.5c.3 0 .7 0 .9-.1 1.4-.2 2-.6 2-.6 0-1.7 1-1.8 1.9-1.9.5 0 .9 0 1.1-.3.3-.4.5-1.1.6-1.6l8.2 2.8L30.8 47zm6.2-9.9c0-.3 0-.7.2-1.1.2-.7.9-1.8 1.3-3.5.1-.5.1-1 .1-1.5 0-1.7-1.4-3.9-3.7-5.3-.9-.5-2-.9-3.2-1.1-.3 0-.6 0-.9-.1v-9.6l15.4 25.4-9.2-3.2z"/></svg>