<svg viewBox="0 0 60 60"><path d="M60 31.1H33.6c0 .2-.1.3-.1.5l6.9 6.2 1.6 1.4 4.7 4.2c.4.4.4 1 .1 1.4-.2.2-.5.3-.7.3-.2 0-.5-.1-.7-.3l-4.6-4.2-1.6-1.4-6.4-5.7 3.4 7.9.8 1.9.5 1.1c.2.5 0 1.1-.5 1.3-.1.1-.3.1-.4.1-.4 0-.7-.2-.9-.6l-.5-1.1-.8-2-3.2-7.4v14.7c0 .5-.4 1-1 1-.5 0-1-.4-1-1V35L26 42.1l-.8 2-.5 1.1c-.2.4-.5.6-.9.6-.1 0-.3 0-.4-.1-.5-.2-.7-.8-.5-1.3l.5-1.2.8-1.9 3.3-7.6-6.1 5.5-1.6 1.4-5.1 4.6c-.2.2-.4.3-.7.3-.3 0-.5-.1-.7-.3-.4-.4-.3-1 .1-1.4l5.1-4.6 1.6-1.4 5.8-5.2-7.6 1.7-2.1.5-.7.2h-.2c-.5 0-.9-.3-1-.8-.1-.5.2-1.1.7-1.2l1.2-.3 1-.2 9-2-9.6-2.1-1.6-.3c-.5-.1-.9-.6-.7-1.2.1-.5.5-.8 1-.8h.2l.5.1 2.1.5 8 1.8L20 23l-1.6-1.4-5.2-4.7c-.4-.4-.4-1-.1-1.4.2-.2.5-.3.7-.3.2 0 .5.1.7.3l5.1 4.6 1.6 1.4 6.1 5.5-3.3-7.5-.8-1.9-.5-1.2c-.2-.5 0-1.1.5-1.3.1-.1.3-.1.4-.1.4 0 .7.2.9.6l.5 1.1.8 2 3.2 7.4V10.5c0-.5.4-1 1-1 .5 0 1 .4 1 1v15l3.1-7.1.8-1.9.5-1.1c.2-.4.5-.6.9-.6.1 0 .3 0 .4.1.5.2.7.8.5 1.3l-.5 1.1-.7 1.8-3.4 7.8 6.3-5.7 1.5-1.4 4.7-4.2c.2-.2.4-.3.7-.3.3 0 .5.1.7.3.4.4.3 1-.1 1.4l-4.7 4.2-1.5 1.4-6.9 6.2c0 .1.1.3.1.4H60v1.9zm-28.2-.9c0-1-.8-1.9-1.7-1.9-1 0-1.7.8-1.7 1.9 0 1 .8 1.9 1.7 1.9.9 0 1.7-.9 1.7-1.9z"/></svg>