<svg viewBox="0 0 60 60"><path d="M26.7 15.7h-1.3v-2.3h1.3v.2l.3.3h1.8c.2-.3.3-1 .3-1.5 0-.1 0-.2.1-.3V9h-.6V7h.2c.4 0 .7-.2.9-.5v-.1h.2l.1.1h.1c.4.3.7.5 1.1.5h.2v2h-.6v2.9c.1.1.1.2.1.3 0 .5.1 1.3.3 1.5h1.9c.1 0 .2-.2.2-.2v-.2h1.3v2.3h-1.2v-.2c-.1-.1-.2-.3-.3-.3h-1.3v.2h-.3v4.1c-.5-.1-1-.1-1.5-.1s-1 0-1.5.1v-4.1h-.2v-.2H27l-.2.2-.1.4zm19.1 16.9c-.1.2-.3.3-.5.4.1.1.1.3 0 .5l-.7 2.8c.3.4.3 1 .1 1.5l-1.5 2.7c-.2.4-.7.7-1.2.7v.2l-1.6 2.4c.1.5-.1 1-.5 1.4l-2.4 2c-.2.2-.5.3-.8.3-.3 0-.6-.1-.9-.2l-.3.1-2.5.5v-1.7l2.2-.4c.1-.3.2-.6.5-.8l2.4-2c.2-.2.5-.3.8-.3h.3l1.5-2.2c-.1-.5-.1-.9.1-1.3l1.5-2.7c.2-.4.5-.6.9-.7l.6-2.6c-.3-.3-.5-.6-.6-1l-.7-3c-.1-.4 0-.8.2-1.1l.1-.2-1-2.5c-.4 0-.8-.2-1-.5l-1.9-2.4c-.2-.3-.3-.7-.3-1.1l-1.9-1-.5.1c-.2 0-.4 0-.6-.1l-2.4-1v-.7l2.7 1.1h.2c-.2-.2-.2-.6-.1-.9.2-.3.5-.5.8-.5l-.3-.3-2.9-1.1-.6.1v-.6c.2 0 .4 0 .6.1l2.9 1.1c.5.2.8.7.9 1.2l2.3 1.2c.6-.1 1.1.1 1.4.5L43 23c.3.4.4 1 .2 1.5l1.1 2.7v.2c.4.2.8.5.9 1l.7 3c.1.5.1.8-.1 1.2zm-3.1-8.7c0-.2-.1-.3-.2-.5L40.6 21c-.1-.1-.3-.2-.4-.3 0 .2 0 .3-.1.5-.2.4-.6.5-1 .4l.2.4 1.9 2.4.3.2c0-.4.2-.7.5-.8.2 0 .5 0 .7.1zm-2.9 20.4c-.2.1-.5 0-.7-.1-.3-.2-.4-.6-.3-.9l-.3.2-2.4 2c-.1.1-.2.3-.3.4.2.1.4.3.4.6v.4c.1.1.3.1.5.1s.3-.1.5-.2l2.4-2c.1-.2.1-.4.2-.5zm4.4-6.8c.1-.2.1-.3.1-.5-.2.1-.4.2-.7.1-.4-.1-.6-.4-.6-.7l-.3.3-1.5 2.7c-.1.2-.1.5 0 .7.2 0 .4 0 .6.1.1.1.2.2.3.4.3 0 .5-.2.6-.4l1.5-2.7zm1.2-5.9l-.7-3c-.1-.3-.3-.5-.5-.6l-.3.3c-.2.1-.5.1-.7 0-.2.2-.3.5-.2.7l.7 3c.1.3.2.4.5.6.2-.1.4-.1.6-.1l.1.1c.4-.2.6-.6.5-1zM28.5 42.7v5.7c0 .1.1 4 1.3 5.2 0 0 .1.1.2.1s.2-.1.2-.1c1.3-1.3 1.3-4.9 1.3-5.2v-5.7c-.4-.2-.9-.4-1.5-.4-.5 0-1 .2-1.5.4zm-4 2.8l2.5.5v1.7l-2.8-.5-.3-.1c-.2.1-.4.2-.7.3-.4 0-.7-.1-1-.3l-2.4-1.9c-.4-.3-.6-.9-.5-1.4l-1.7-2.4-.1-.2c-.5-.1-.9-.3-1.1-.8L15 37.6c-.2-.5-.2-1 .1-1.5l-.6-2.8v-.4l-.4-.4c-.1-.3-.1-.7-.1-1.1l.7-3c.1-.5.4-.9.9-1v-.2l1-2.7c-.2-.5-.2-1 .1-1.5l1.9-2.5c.3-.3.6-.5 1-.6l.6.1.2-.2 2.4-1.1c.1-.5.5-1 1-1.2l3-.9v.7l-2.8.9c-.2.1-.3.2-.4.3.3 0 .6.2.7.5.1.3.1.6-.1.8h.3L27 19v.6l-2.1.6-.3.1c-.3 0-.5-.1-.8-.2l-2.5 1.1c0 .3-.1.6-.3.9l-1.9 2.5c-.2.3-.6.5-1 .6l-.9 2.5c.3.4.4.8.3 1.3l-.7 3c-.1.4-.3.7-.7.9l.5 2.6c.4.1.7.4.9.7l1.4 2.8c.2.3.2.7.1 1.1v.3l1.6 2.2c.4-.1.8.1 1.1.3l2.4 1.9c.2.1.3.4.4.7zm-7.2-22.2c-.1.1-.1.3-.2.5.2-.1.4-.1.7 0 .3.1.5.5.5.8l.3-.2 1.9-2.5c.1-.1.1-.3.2-.5-.2-.1-.4-.2-.5-.4l-.1-.4h-.3c-.2 0-.5.1-.6.3l-1.9 2.4zm-2.1 9c.2 0 .4 0 .6.1.2-.1.4-.3.4-.5l.7-3c.1-.3 0-.5-.2-.7-.2.1-.4.1-.7 0-.1-.1-.3-.2-.3-.3-.2.1-.4.3-.5.6l-.7 3c-.1.3.1.7.4.9l.3-.1zm3.2 7L17 36.6l-.2-.3c0 .3-.3.6-.7.7-.2 0-.5 0-.7-.2 0 .2 0 .3.1.5l1.4 2.8c.1.2.4.4.6.4.1-.1.1-.3.3-.3.2-.2.4-.2.6-.2.1-.2.2-.4 0-.7zm5.5 6.3c0-.2-.1-.3-.3-.4l-2.4-1.9-.3-.2c.1.3 0 .7-.3.9-.2.1-.4.2-.7.1 0 .2.1.3.3.4l2.4 1.9c.2.1.4.2.6.2l.4-.1v-.4c0-.1.1-.3.3-.5zm14.2-12.4c-.5 1.7.2 2.6.2 2.6s-.2 1.8-.8 2.6c-.6.8-3.4-.6-3.4 2.5 0 0-1.1.8-4 .8s-4-.8-4-.8c0-3-2.8-1.7-3.4-2.5s-.8-2.6-.8-2.6.7-.9.1-2.6c-.3-.9-1.4-2.6-1.4-5.5.1-2.9 3.7-7.2 9.5-7.2 5.9 0 9.5 4.4 9.5 7.3-.1 2.8-1.2 4.5-1.5 5.4zm-9.8.4c0-.7-.4-1.6-.9-1.9-.5-.3-1.6-.4-2.4-.1-.8.2-1.6 1-1.7 1.6-.1.6-.1 1.5.1 2s.8.9 1.4.9c.6 0 1.6-.2 2.2-.6.8-.4 1.2-1.3 1.3-1.9zm2.9 4.5S31.1 35 30 35c-1.2 0-1.2 3.1-1.2 3.1s.2.4 1.2.4 1.2-.4 1.2-.4zm5.6-5c-.1-.6-.9-1.2-1.7-1.6-.8-.2-1.9-.2-2.4.1-.5.3-.9 1.2-.9 1.9s.5 1.6 1.1 1.9c.6.3 1.6.6 2.2.6.6 0 1.2-.4 1.4-.9.3-.5.3-1.5.3-2z"/></svg>