<svg viewBox="0 0 60 60"><path d="M22.3 18.6c-6.3 8-5.9 10.9-.3 17.8 7-6.1 9-12.1.3-17.8zm-6.1 11.6L12 33.8c1.4 5.6 6.5 10.8 12.4 13.7l4.2-3.7c-6.4-4.3-9-7.3-12.4-13.6zm12.1.3c-2.1 3.8-2.6 4.5-5.4 6.8 1.4 1.5 4.2 3.8 5.8 5 1.7 1.2 8.1-1.4 10-2.8-4.4-3.1-6.4-4.6-10.4-9zm-4.2-12.3c3.2 2.1 5.4 6.2 5.1 7.7 1.7 1.5 4.1 3.3 5.9 4.6 3.4-3.7-5.8-17.1-11-12.3zM44.8 27l-9.6 8.4c1.4 1.1 3.1 2.2 4.4 3.2l8.4-7.2c-.4-2-1.2-3.2-3.2-4.4zm-3.5-5.8l-4.5 3.9c.9 3.6 1.2 4.6-1.7 6.9-1.2-.8-2.3-1.5-3.4-2.3l-1.3 1.2c1 1.2 3.4 3.2 3.9 3.6l10.1-9c.5-1-2.1-3.8-3.1-4.3zM37 16.1l-3.9 3.4c2.1 2.3 3 4.1 3.2 4.5l4.4-3.9c.6-1.3-2.9-3.9-3.7-4zm-6-3.6L27.2 16c1.8.1 3.9 1.1 5.4 2.4l2.8-2.4c-1.7-2.8-3.9-3.1-4.4-3.5zm-1.9 15.2c-.1.3-.1 1.2-.4 1.5l.9.9c0-.3.7-.8 1-1.1l-1.5-1.3z"/></svg>