<svg viewBox="0 0 60 60"><path d="M6.5 33c-.6.6-.7 1.7-.1 2.3.6.7 1.7.8 2.4.2l.8-.8c-.3 7.5 4.7 14.4 11.9 16.1 1.8.4 3.6.5 5.4.3v.1c.7 1.2 1.9 2.1 3.3 2.5.4.1.9.2 1.3.2 2.7 0 5-2 5.4-4.7.4-3-1.7-5.7-4.7-6-3-.4-5.7 1.7-6 4.7-1.3.1-2.6 0-3.9-.3-5.6-1.4-9.6-6.8-9.3-12.7l.8.8c.7.7 1.7.7 2.4.1.7-.7.7-1.7.1-2.4l-3.6-3.9c-.7-.7-1.7-.7-2.4-.1L6.5 33zM30 49.6c-.2-.3-.3-.6-.3-1 0-1.1.9-2 1.9-2 .2 0 .3 0 .5.1.5.1 1 .4 1.2.9.6.9.3 2.1-.7 2.7-.8.5-2.1.2-2.6-.7zM13.7 14.4l-.1.1c-.7.6-1.8.6-2.4-.2-.6-.7-.6-1.8.2-2.4l1.5-1.5L11.3 9l-.1-.1c-.6-.7-.6-1.8.1-2.4.7-.6 1.8-.6 2.4.1l1.5 1.5 1.5-1.5c.6-.6 1.6-.6 2.3 0 .7.6.8 1.7.1 2.4l-1.5 1.5 1.5 1.5.1.1c.6.7.6 1.8-.1 2.4-.7.6-1.8.6-2.4-.1L15.2 13l-1.5 1.4zM53.5 28c.3.3.5.8.5 1.2 0 1-.8 1.7-1.7 1.7-.5 0-.9-.2-1.2-.5l-1.5-1.5-1.5 1.5-.1.1c-.7.6-1.8.6-2.4-.2-.6-.7-.6-1.8.2-2.4l1.5-1.5-1.6-1.4c-.3-.3-.5-.8-.5-1.2 0-1 .8-1.7 1.7-1.7.5 0 .9.2 1.2.5l1.5 1.5 1.5-1.5c.7-.6 1.7-.6 2.4 0 .7.7.7 1.7.1 2.4L52 26.5l1.5 1.5zm-25.7-2.7c0-.1-.1-.1-.2-.1-2.1 1.3-4.7 0-4.7 0l-2.4 1.6c-.9.6-2.1.3-2.7-.6l-1.5-2.3c-.6-.8-.4-2 .4-2.6l11-9.2V9.2c.1-.3.3-.4.6-.4 2.4.5 3.5 2.4 4.1 4 9.8-.3 10.1 20.9 10 26.2 0 .7-.6 1.2-1.2 1.2H21.3c-.7 0-1.3-.6-1.3-1.3v-2.6c0-.4.2-.8.5-1 3.8-2.9 6.4-8.1 7.3-9.9v-.1z"/></svg>