<svg viewBox="0 0 60 60"><path d="M51.3 42.9L31 7.9c-.2-.4-.6-.6-1-.6s-.8.2-1 .6l-20.3 35c-.2.4-.2.8 0 1.2.2.4.6.6 1 .6h40.6c.4 0 .8-.2 1-.6.3-.4.3-.8 0-1.2zM26.1 19.6c.8 0 1.7 3.4 1.6 5.3v.6h-3.2v-.6c-.1-1.9.8-5.3 1.6-5.3zm-2 20.9l-.1-.6h.4v-.3l-.4-.3v-7.9c0-.6.3-1 .4-1.2 0-.2.2-4.1.2-4.1l3.2-.1s.1 3.9.2 4.1c0 .3.4.7.4 1.2l.1 7.9-.4.3v.3h.4v.6l-4.4.1zm9.5-21c.8 0 1.7 3.4 1.6 5.3v.6H32v-.6c0-1.8.9-5.3 1.6-5.3zm-1.9 20.9v-.6h.4v-.3l-.4-.3-.1-7.9c0-.6.3-1 .4-1.2 0-.2.2-4.1.2-4.1h3.2s.1 3.9.2 4.1c0 .3.4.7.4 1.2l.1 7.9-.4.3v.3h.4v.6h-4.4z"/></svg>