<svg viewBox="0 0 60 60"><path d="M30.6 13.5v7.2c-2.4-2.3-4.8-4.3-7.2-6.3v7c-2.4-2-4.5-3.8-6.8-5.8.1 6.8-.4 13.8.1 20.6.7 5.5 5.5 10.1 11.2 10.1 4.1 0 8.8.9 12.6-1.1 4.1-2.6 2.4-8 2.7-11.6 1-9-7.5-14.3-12.6-20.1zm9 28.3c-4.4 2-9.8 1.4-14.5.4-7-3.6-4.5-12.5-5-18.8 2.3 2 4.4 3.8 6.8 5.8v-7c2.4 2 4.8 4.1 7.2 6.3v-6.7c2 2.4 4.4 4.5 5.5 8.1.8 3.8.8 8.1 0 11.9zm4.6-26.3v2.2h-6.7V16l3-2.8c.3-.2.4-.5.5-.6.1-.2.1-.3.1-.5s-.1-.4-.2-.5c-.1-.1-.3-.2-.6-.2s-.5.1-.7.2c-.2.1-.4.3-.5.6L37 11c.3-.6.8-1.1 1.4-1.4.6-.3 1.4-.5 2.2-.5.7 0 1.3.1 1.8.3.5.2.9.5 1.2.9.3.4.4.9.4 1.4 0 .5-.1.9-.3 1.3-.2.4-.6.9-1.1 1.4l-1.2 1.1h2.8z"/></svg>