<svg viewBox="0 0 60 60"><path d="M37.7 20.8c-.1-.1-.1-.2-.1-.2 0-.1 0-.1.1-.2l.3-.4c.1-.1.3-.1.4 0l2 2c.1.1.1.3 0 .4l-.4.3c-.2.1-.3.1-.4 0l-.5-.5-.5.5c-.2-.3-.5-.5-.8-.8l.5-.5-.6-.6zM28 18.4h1.1v.9c.4-.1.7-.1 1.1-.1s.8 0 1.1.1v-.9h1.1c.3 0 .5-.3.5-.6v-1.1c0-.4-.2-.6-.5-.6H28c-.3 0-.5.3-.5.6v1.1c0 .3.2.5.5.6zm2.3 4.4h-.5V25l8.1 8.1c.2-.7.4-1.5.4-2.4-.1-4.3-3.7-7.9-8-7.9zm11 5.7c-.2-.7-.4-1.4-.6-2-.2-.3-.3-.7-.5-1-.1-.2-.2-.2-.2-.4 0-.1-.1-.1-.1-.2-.1-.2-.2-.3-.3-.5-.1-.2-.2-.3-.3-.5-.3-.5-.7-.8-1.1-1.2l-.8-.8-.3-.3c-.3-.2-.7-.5-1.1-.8-.2-.1-.2-.2-.4-.2l-.4-.2c-.2-.1-.3-.2-.4-.2l-.2-.1-.1.2-.5-.2V20l-.4-.2c-.2-.1-.5-.2-.6-.2s-.2-.1-.4-.1-.3-.1-.5-.1-.5-.1-.7-.1c-.4-.1-.8-.1-1.1-.1s-.8 0-1.1.1c-.2 0-.4.1-.6.1-.2 0-.4.1-.6.1h-.2c-.2 0-.3.1-.5.1-.1 0-.2.1-.2.1-.2 0-.2.1-.4.2l-.2.2c-.2.1-.3.1-.5.2s-.5.2-.7.3l1.6 1.7c2.7-1 5.7-.7 8.3 1 3.5 2.4 4.8 6.9 3.4 10.7l1.6 1.6c.7-1.5 1.1-3.2 1.1-4.9.2-.5.2-1.1.1-1.6 0-.3-.1-.4-.1-.6zm-24-.6h3.4c.3 0 .5-.2.5-.5s-.2-.6-.5-.6h-3.4c-.3 0-.5.2-.5.6-.1.2.1.5.5.5zm12.8 11.9c-2.5 0-4.9-1-6.6-2.9l-.8.8-.8.8c3.9 4.1 10.2 4.7 14.7 1.5L35 38.4c-1.5.9-3.2 1.4-4.9 1.4zm-6.6-9.6c0-.3-.2-.5-.6-.5H15c-.3 0-.5.2-.5.5s.2.6.5.6h7.9c.3-.1.6-.3.6-.6zM16.8 33c0 .3.2.5.5.5h7.9c.3 0 .5-.2.5-.5s-.2-.5-.5-.5h-7.9c-.3 0-.5.2-.5.5zm7.4 2.9l.2.2c1.5 1.6 3.6 2.5 5.8 2.5 1.4 0 2.8-.4 3.9-1l-4.8-4.8c-.1 0-.2-.1-.3-.1-.4-.2-.6-.5-.8-.8l-3.8 3.8-.2.2zm-1.9 0c0-.3-.2-.5-.5-.5h-5.7c-.3 0-.5.2-.5.5s.2.6.5.6h5.7c.3-.1.5-.3.5-.6zM51 30c0 11.6-9.4 21-21 21S9 41.6 9 30 18.4 9 30 9s21 9.4 21 21zm-9.9 13.1l-3.8-3.8-1.6-1.6-.7-.7-4.1-4.1-1.3-1.3-.3-.3L23 25l-1.6-1.6-4.6-4.6c-2.5 3-4.1 6.9-4.1 11.1 0 9.5 7.7 17.2 17.2 17.2 4.3.1 8.2-1.5 11.2-4zM47.2 30c0-9.5-7.7-17.2-17.2-17.2-3.9 0-7.5 1.3-10.3 3.5l4.7 4.7 1.6 1.6 3.7 3.7 7.7 7.7.8.8 1.6 1.6 3.9 3.9c2.2-2.8 3.5-6.4 3.5-10.3z"/></svg>