<svg viewBox="0 0 60 60"><path d="M35.7 12.238l-13.8 4c-.2.1-.5.2-.6.4l-10.1 12.5c-.3.4-.3.9-.1 1.3.2.4.6.7 1.1.7h1.6v11.7c0 .6.4 1.1 1 1.2l17.5 3.7c.3.1.6 0 .9-.2l12.5-7.7c.3-.2.6-.6.6-1v-10.5l2.1-.9c.7-.3.9-1.4.4-1.9l-11.8-13c-.4-.3-.8-.4-1.3-.3zm0 2.5l10.1 11.1c-3.4 1.5-6.8 3.1-10.2 4.6l-11.1-12.4 11.2-3.3zm-13.3 4.6l8.9 9.9v15.8l-3.9-.8v-6.8c0-.6-.5-1.1-1-1.2-1.6-.2-3.2-.5-4.8-.6-.6 0-1.1.6-1.1 1.2v5.9l-4-.9v-11.9c0-.8-.7-1.2-1.5-1.2l7.4-9.4zm21.4 10.1v8.7l-10.1 6.3v-12.4l.7.8c.3.4.9.5 1.4.3l8-3.7zm-21.1 8.8l2.2.3v5.2l-2.2-.5v-5z"/></svg>