<svg viewBox="0 0 60 60"><path d="M20.3 47.4c.1-.4-.1-.7-.2-.8-.2-.2-.4-.3-.7-.3-.4 0-.7-.3-.7-.7v-5.2c-.1 0-.2 0-.3.1h-.5c-.3 0-.6 0-.9-.1v5.2c0 .4-.3.7-.7.7-.3 0-.5.1-.7.3-.1.1-.2.4-.2.8.1.3.3.5.6.6.5.1.9-.2 1.1-.5.1-.3.4-.5.8-.5s.7.2.8.5c.1.4.5.7 1.1.5.2-.1.4-.3.5-.6zm24.3 0c.1-.4-.1-.7-.2-.8-.2-.2-.4-.3-.7-.3-.4 0-.7-.3-.7-.7v-5.2c-.3.1-.6.1-.9.1h-.5c-.1 0-.2 0-.3-.1v5.2c0 .4-.3.7-.7.7-.3 0-.5.1-.7.3-.1.1-.2.4-.2.8.1.3.3.5.6.6.5.1.9-.2 1.1-.5.1-.3.4-.5.8-.5s.7.2.8.6c.1.4.5.7 1.1.5.2-.2.4-.4.5-.7zm-2.9-33.3c.4.8.6 1.6.7 2.4l.3-.3c.3-.3.7-.3 1 0 .3.3.3.8 0 1-.8.8-1.4 1.7-1.7 2.6 0 .1 0 .1-.1.2-.8 2-.6 3.9-.4 5 1.5-1 2.7-2.2 3.5-3.6 1.2-2 1.1-4.7-.4-6.6-.7-.8-1.4-1.5-1.8-1.9-.4-.3-.8-.3-1-.3-.3.1-.5.2-.8.4.3.3.5.7.7 1.1zM15 21.4c.8 1.4 2 2.6 3.5 3.6.2-1.1.3-3-.4-5 0-.1 0-.1-.1-.2-.4-.9-.9-1.8-1.7-2.6-.3-.3-.3-.8 0-1 .3-.3.8-.3 1 0l.3.3c.1-.8.3-1.7.7-2.4.2-.4.4-.7.7-1-.2-.2-.5-.4-.8-.4-.3-.1-.7 0-1 .3-.5.4-1.2 1.1-1.8 1.9-1.5 1.8-1.7 4.5-.4 6.5zM26.2 40c.9-.4 2-.8 3.8-.8s2.9.4 3.8.8c.5.2.9.4 1.5.5 2 .4 3-1.4 3.3-2.1-.6-1-.9-2.4-.9-4 0-.7.3-1.5.8-2s1.3-1.6 1.3-2.7c0-.4.3-.7.7-.7s.7.3.7.7c0 1.6-.9 2.9-1.7 3.7-.3.3-.4.6-.4 1 0 1.4.3 2.5.7 3.3.4.7 1.1 1.1 1.9 1.2h.3c1 .1 2-.6 2.4-1.6 3.1-7.6.9-10.1.2-10.7-.9-.7-1.9-.6-2.4-.2-.2.2-.5.3-.7.5-.1.1-.2.1-.4.1h-.3c-.2-.1-.4-.2-.4-.5-.1-.2-1.1-3.6.3-7.1.4-1 .6-2.9-.2-4.5-.7-1.3-1.9-2.2-3.7-2.6-1.2-.3-1.8 0-2.7.4-.9.4-2 .9-4 .9s-3.1-.5-4-.9c-.9-.4-1.5-.7-2.7-.4-1.8.4-3 1.3-3.7 2.6-.8 1.6-.6 3.6-.2 4.5 1.5 3.5.4 6.9.3 7.1-.1.2-.2.4-.4.5h-.3c-.1 0-.3 0-.4-.1-.2-.1-.5-.3-.7-.5-.5-.4-1.5-.5-2.4.2-.7.6-2.9 3.1.2 10.7.4 1 1.4 1.6 2.4 1.6h.3c.8-.1 1.5-.5 1.9-1.2.5-.8.7-1.9.7-3.3 0-.4-.1-.7-.4-1-.8-.8-1.7-2.2-1.7-3.7 0-.4.3-.7.7-.7s.7.3.7.7c0 1.1.8 2.2 1.3 2.7.5.6.8 1.3.8 2 0 1.6-.3 2.9-.9 4 .3.7 1.3 2.5 3.3 2.1.3-.1.8-.3 1.3-.5zm4.5-6.8c0 .4-.3.7-.7.7s-.7-.3-.7-.7v-7.5c0-.4.3-.7.7-.7s.7.3.7.7v7.5zm-7.1-16.4c-.4 0-.7-.3-.7-.7 0-.4.3-.7.7-.8.2 0 3.6-.1 6.5 4.1 2.8-4.2 6.3-4.1 6.5-4.1.4 0 .7.4.7.8s-.3.7-.8.7c-.1 0-3.3 0-5.8 4.4l-.1.1-.1.1h-.8l-.1-.1-.1-.1c-2.6-4.4-5.8-4.4-5.9-4.4z"/></svg>