<svg viewBox="0 0 60 60"><path d="M31.1 34.4s-.2.3-1.1.3c-.9 0-1.1-.3-1.1-.3s.1-2.7 1.1-2.7 1.1 2.7 1.1 2.7zm-5.5-6c-.7.2-1.4.9-1.5 1.4-.1.6-.1 1.3.1 1.8.2.4.7.8 1.3.8s1.4-.2 2-.6c.6-.3.9-1.1 1-1.7 0-.7-.3-1.4-.8-1.7-.5-.1-1.4-.2-2.1 0zm1.5-2.6c-.3-.6-.4-1.3-.4-2.1s.2-1.4.4-2.1c.3-.6.7-1 1.2-1.3.5-.3 1.1-.4 1.7-.4.7 0 1.2.2 1.7.4s.9.7 1.2 1.3c.3.6.4 1.3.4 2.1s-.2 1.5-.4 2.1-.7 1-1.2 1.3-1.1.4-1.7.4c-.7 0-1.2-.2-1.7-.4s-.9-.7-1.2-1.3zm2-2c0 1.3.3 1.8.8 1.8s.8-.6.8-1.8c0-1.2-.3-1.9-.8-1.9s-.8.6-.8 1.9zm22.2-7.7L31 51.1c-.2.4-.6.6-1 .6s-.8-.2-1-.6l-20.3-35c-.2-.4-.2-.8 0-1.2.2-.4.6-.6 1-.6h40.6c.4 0 .8.2 1 .6.3.4.3.8 0 1.2zM37.2 30c.3-.8 1.3-2.3 1.3-5s-3.2-6.5-8.5-6.5c-5.2 0-8.5 3.9-8.5 6.5 0 2.7 1 4.2 1.3 5 .5 1.6-.1 2.3-.1 2.3s.2 1.6.7 2.3c.5.7 3-.4 3 2.2 0 0 1 .7 3.6.7 2.7 0 3.6-.7 3.6-.7 0-2.7 2.5-1.5 3-2.2.6-.7.7-2.3.7-2.3s-.5-.8-.1-2.3zm-2.7-1.6c-.7-.2-1.7-.2-2.1.1-.4.3-.8 1.1-.8 1.7 0 .6.4 1.4 1 1.7.6.3 1.4.6 2 .6s1.1-.4 1.3-.8c.2-.4.2-1.3.1-1.8-.1-.6-.7-1.2-1.5-1.5z"/></svg>