<svg viewBox="0 0 60 60"><path d="M29.5 47.5h1.3V49c0 .5-.1 1.1-.2 1.6-.1.2-.1.5-.1.8l-.5 1.1-.5-1.2c-.1-.2-.1-.5-.1-.8-.1-.5-.2-1-.2-1.6v-1.5c0 .1.3.1.3.1zM45 14c0 .3-.2.5-.6.5v26.9H32.2V16c-.7.5-1.1 1.2-1.4 1.8v29h-1.6v-29c-.3-.7-.8-1.3-1.4-1.8v25.5H15.4v-27c-.2-.1-.4-.2-.4-.5s.2-.5.4-.5h8c1.5 0 2.9.4 4.1 1 .1 0 .1.1.1.1.8.5 1.6 1.1 2.1 1.9l.2.3.2-.3c.5-.7 1.2-1.3 2-1.8.1 0 .1-.1.2-.1 1-.7 2.5-1.1 4-1.1h8c.5 0 .7.2.7.5zm-19.5 1.2c-.7-.2-1.4-.4-2-.4h-7.4c.5.5 2.6.9 5.1.9 1.8 0 3.4-.2 4.3-.5zm18.2-.4h-7.3c-.7 0-1.3.2-2 .4 1 .3 2.5.5 4.3.5 2.4 0 4.5-.4 5-.9z"/></svg>