<svg viewBox="0 0 124 129"><path class="foreground" d="M120.8 18.1c-.4-.2-.8-.4-1.2-.5L63.6.1c-.2 0-.4-.1-.6-.1h-1.8c-.2 0-.4.1-.6.1L4.4 17.6c-.4.1-.8.3-1.2.5-1.9 1-3.2 3.1-3.2 5.3v.3c.2 8.7.8 16.6 1.8 23.9 7.5 53.5 36.1 70.3 57.4 80.6.3.1 1.1.5 2 .7.2 0 .5.1.7.1.2 0 .5-.1.7-.1.9-.2 1.7-.6 2-.7 21.3-10.3 50-27 57.4-80.6 1.1-7.3 1.7-15.2 1.9-23.9v-.3c.1-2.2-1.2-4.3-3.1-5.3zm-1.6 30.3c-7 51.1-34.4 67-54.7 76.8-.3.1-1 .5-1.9.7-.2 0-.5.1-.7.1-.2 0-.5-.1-.7-.1-.9-.2-1.6-.6-1.9-.7C39 115.4 11.8 99.4 4.6 48.4c-1-7-1.5-14.5-1.7-22.8v-.3c0-2.1 1.2-4.1 3-5.1.4-.2.8-.4 1.1-.5L60.6 3.1c.2 0 .4-.1.6-.1h1.7c.2 0 .4.1.6.1l53.3 16.7c.4.1.8.3 1.1.5 1.8 1 3 3 3 5.1v.2h.1c-.2 8.3-.8 15.8-1.8 22.8zm-2.7-19.9v.3c0 1.7-.1 3.4-.2 5.1-.3-1.3-1.3-2.5-2.6-3.1-.2-.1-.4-.2-.5-.2-.2-.1-.3-.1-.5-.2L63.4 16.1c-.2 0-.4-.1-.5-.1h-1.7c-.1 0-.3.1-.5.1l-14.2 4.1-35.1 10.1c-.4.1-.7.2-1.1.4-1 .5-1.8 1.3-2.3 2.2-.1.3-.2.5-.3.8-.1-1.7-.1-3.3-.2-5v-.3c0-1.9 1.1-3.8 2.8-4.6.4-.2.7-.4 1.1-.4L60.7 8.1c.2 0 .4-.1.5-.1h1.6c.2 0 .4.1.5.1l49.3 15.3c.4.1.7.3 1.1.4 1.7.9 2.8 2.8 2.8 4.7z"/><path class="background" d="M120.9 25.6v-.2c0-2.1-1.2-4.1-3-5.1-.3-.2-.7-.4-1.1-.5L63.5 3.1c-.2 0-.4-.1-.6-.1h-1.7c-.2 0-.4.1-.6.1L7 19.7c-.3.1-.7.3-1.1.5-1.8 1-3 3-3 5.1v.3c.2 8.3.7 15.8 1.7 22.8 7.2 51 34.4 67 54.7 76.8.3.1 1 .5 1.9.7.2 0 .5.1.7.1.2 0 .5-.1.7-.1.9-.2 1.6-.6 1.9-.7 20.3-9.8 47.7-25.7 54.7-76.8 1-7 1.6-14.5 1.7-22.8zm-4.4 3.2c0 1.7-.1 3.4-.2 5.1-.3-1.3-1.3-2.5-2.6-3.1-.2-.1-.4-.2-.5-.2-.2-.1-.3-.1-.5-.2L63.4 16.1c-.2 0-.4-.1-.5-.1h-1.7c-.1 0-.3.1-.5.1l-14.2 4.1-35.1 10.1c-.4.1-.7.2-1.1.4-1 .5-1.8 1.3-2.3 2.2 0 .1-.1.3-.2.4 0 .1-.1.2-.1.3-.1-1.7-.1-3.3-.2-5v-.3c0-1.9 1.1-3.8 2.8-4.6.4-.2.7-.4 1.1-.4L60.7 8.1c.2 0 .4-.1.5-.1h1.6c.2 0 .4.1.5.1l49.3 15.3c.4.1.7.3 1.1.4 1.7.9 2.8 2.8 2.8 4.7v.3z"/></svg>