<svg viewBox="0 0 262 503">
  <path d="M134.5 416.2h3v41.1h-14v-41.1h11zm-8 46h-3v12c0 4.4.5 8.8 1.4 13 .4 2.1 1 4.2 1.6 6.2 1.1 3.3 2.4 6.5 4 9.6 1.6-3.1 2.9-6.3 4-9.6.6-2 1.2-4.1 1.6-6.2.9-4.2 1.4-8.5 1.4-13v-12h-11zM10.9 104h242.2c3 0 5.4-2.4 5.4-5.4v-.2c0-3-2.4-5.4-5.4-5.4H10.9c-3 0-5.4 2.4-5.4 5.4v.2c0 3 2.4 5.4 5.4 5.4zm251.1 9.5c0 2.9-2.2 5.2-5 5.5v286.2H150v-271l-.2.2c-5.6 5.6-9.8 12.2-12.3 19.4v257.4h-14V153.8c-2.6-7.2-6.7-13.8-12.3-19.4l-.2-.2v271H4V118.8c-2.3-.7-4-2.8-4-5.3s1.7-4.6 4-5.3v-.2h70.4c13.1 0 25.4 4.1 35.5 11 .4.3.8.5 1.2.8 7.1 5.1 13.2 11.7 17.7 19.3l1.8 3.3 1.8-3.3c4.5-7.6 10.5-14.1 17.7-19.3.4-.3.8-.6 1.2-.8 10.1-6.9 22.4-11 35.5-11h70.4c2.6.3 4.8 2.7 4.8 5.5zM46.8 173.7c-2.6-4.5-7.3-6.9-12-6.9-2.4 0-4.8.6-7 1.9-6.6 3.8-8.9 12.3-5.1 18.9v.1c2.6 4.4 7.2 6.9 12 6.9 2.4 0 4.8-.6 7-1.9 6.7-3.9 9-12.4 5.1-19zm35.7 35.6c-2.2-1.3-4.6-1.9-7-1.9-4.8 0-9.5 2.5-12 7-3.8 6.6-1.6 15.1 5.1 19 2.2 1.2 4.5 1.8 6.9 1.8 4.8 0 9.5-2.5 12-7 4-6.6 1.7-15.1-5-18.9zm9.5-87.2c-5.6-2-11.5-3.1-17.7-3.1H10.1c4.6 4 22.7 7 44.4 7 15.6 0 29.3-1.5 37.5-3.9zm106.8 92.1c-2.6-4.4-7.2-6.9-12-6.9-2.4 0-4.8.6-7 1.9-6.6 3.9-8.9 12.4-5 19 2.6 4.4 7.2 6.9 12 6.9 2.4 0 4.7-.6 6.9-1.9 6.7-3.9 8.9-12.4 5.1-19zm35.5-45.9c-2.2-1.3-4.6-1.9-6.9-1.9-4.8 0-9.5 2.5-12.1 7-3.8 6.6-1.5 15.1 5.1 19 2.2 1.3 4.6 1.9 6.9 1.9 4.8 0 9.5-2.5 12-6.9v-.1c3.9-6.7 1.6-15.2-5-19zm16.6-49.3h-64.2c-6.1 0-12.1 1.1-17.7 3.1 8.2 2.4 21.9 3.9 37.5 3.9 21.7 0 39.8-3 44.4-7zM27.8 81.5c2.2 1.3 4.6 1.9 6.9 1.9 4.8 0 9.5-2.5 12-6.9 3.8-6.6 1.6-15.1-5.1-19-2.2-1.3-4.6-1.9-6.9-1.9-4.8 0-9.5 2.5-12 6.9v.1c-3.9 6.6-1.6 15.1 5.1 18.9zm47.6-38.8c2.4 0 4.8-.6 6.9-1.9 6.6-3.8 8.9-12.3 5.1-19-2.6-4.4-7.2-6.9-12-6.9-2.3 0-4.7.6-6.9 1.9 0 0-.1 0-.1.1-6.6 3.9-8.9 12.3-5 19 2.6 4.3 7.2 6.8 12 6.8zm139.7 33.5c2.6 4.4 7.2 6.9 12 6.9 2.4 0 4.8-.6 7-1.9 6.6-3.9 8.9-12.3 5-19 0 0 0-.1-.1-.1-2.6-4.4-7.2-6.9-12-6.9-2.4 0-4.8.6-7 1.9-6.5 3.9-8.8 12.4-4.9 19.1zm-35.8-35.6c2.2 1.3 4.6 1.9 6.9 1.9 4.8 0 9.5-2.5 12.1-7 3.8-6.6 1.5-15.1-5.1-18.9h-.1c-2.2-1.3-4.6-1.8-6.9-1.8-4.8 0-9.5 2.5-12.1 7-3.7 6.5-1.4 15 5.2 18.8zM131 27.8c7.7 0 13.9-6.2 13.9-13.9S138.7 0 131 0h-.1C123.2 0 117 6.2 117 13.9c.1 7.7 6.3 13.9 14 13.9z"/>
</svg>
