<svg xmlns="http://www.w3.org/2000/svg" viewBox="0 0 40 50"><style>@media(prefers-color-scheme:dark){*{fill:#fff}}</style><path fill="#000" d="M19.3 43.7H21v1.9c0 .7-.1 1.4-.2 2-.1.3-.2.7-.2 1l-.6 1.5-.6-1.5c-.1-.3-.2-.6-.2-1-.1-.7-.2-1.3-.2-2v-1.9h.3zM40 .7c0 .4-.3.6-.8.7V36H22.9V3.2c-.9.7-1.5 1.5-1.9 2.3v37.3h-2.1V5.5c-.4-.9-1-1.7-1.9-2.3V36H.6V1.3C.3 1.2 0 1 0 .7S.3.1.6 0h10.7c2 0 3.9.5 5.4 1.3.1 0 .1.1.2.1C18 2 19 2.8 19.7 3.8l.3.4.3-.4c.7-.9 1.6-1.7 2.7-2.3.1 0 .1-.1.2-.1C24.6.5 26.5 0 28.5 0h10.7c.5 0 .8.3.8.7zM14 2.2c-.9-.3-1.8-.5-2.7-.5H1.5c.7.6 3.5 1.1 6.8 1.1 2.4 0 4.5-.2 5.7-.6zm24.3-.5h-9.8c-.9 0-1.8.2-2.7.5 1.3.4 3.3.6 5.7.6 3.3 0 6.1-.5 6.8-1.1z"/></svg>
