<svg viewBox="0 0 124 129"><path d="M124 23.8v-.3c0-2.2-1.3-4.3-3.2-5.3-.4-.2-.8-.4-1.2-.5L63.6.2c-.2 0-.4-.1-.6-.1h-1.8c-.2 0-.4.1-.6.1L4.5 17.7c-.4.1-.8.3-1.2.5-1.9 1-3.2 3.1-3.2 5.3v.3c.2 8.7.8 16.6 1.8 23.9 7.5 53.5 36.1 70.2 57.4 80.5.3.1 1.1.5 2 .7.2 0 .5.1.7.1.2 0 .5-.1.7-.1.9-.2 1.7-.6 2-.7 21.3-10.3 50-27 57.4-80.5 1.1-7.3 1.7-15.2 1.9-23.9z"/><path class="shadow" d="M64.6 128.2c24.2-11.7 58-31.6 59.4-104.4 0-2.3-1.2-4.4-3.2-5.5-.3 0-.7 0-1 .1L76.7 31.3c-2 .6-4 3.4-4.8 7-9.8 40.6-12.2 69.5-10.7 90.6.2 0 .5.1.7.1 1.1-.1 2.3-.7 2.7-.8z" fill="#fff" fill-opacity=".25"/></svg>