<svg viewBox="0 0 24 24"><path fill-opacity=".68" d="M20.2 6.1c.3-1.9 0-3.1-1-4.3C18 .5 16 0 13.5 0H6c-.5 0-1 .4-1.1.9L1.8 20.6c-.1.4.2.7.6.7H7l-.3 2c0 .4.3.7.6.7h3.9c.5 0 .9-.3.9-.8V23l.7-4.6v-.3c.1-.5.5-.8.9-.8h.6c3.8 0 6.7-1.5 7.6-5.9.4-1.8.2-3.4-.8-4.5-.2-.3-.5-.6-.9-.8"/><path fill-opacity=".7" d="M20.2 6.1c.3-1.9 0-3.1-1-4.3C18 .5 16 0 13.5 0H6c-.5 0-1 .4-1.1.9L1.8 20.6c-.1.4.2.7.6.7H7L8.2 14v.2c.1-.5.5-.9 1.1-.9h2.2c4.3 0 7.7-1.7 8.6-6.8 0-.1 0-.3.1-.4"/><path d="M9.5 6.1c0-.3.2-.6.5-.7.1-.1.3-.1.4-.1h5.8c.7 0 1.3 0 1.9.1.2 0 .3.1.5.1s.3.1.5.1c.1 0 .1 0 .2.1.3.1.6.2.8.3.3-1.9 0-3.1-1-4.3C18 .5 16 0 13.5 0H6c-.5 0-1 .4-1.1.9L1.8 20.6c-.1.4.2.7.6.7H7L8.2 14l1.3-7.9z"/></svg>