<svg viewBox="0 0 50 37.5"><path d="M8.7.1h3.8l8.7 37.4-1.9-.1-8.2-35.2H10L1.8 37.3H0L8.7.1zm-2.8 25h9.3L18 37.3h-1.8l-2.4-10.4-6.5-.1-2.4 10.4-1.9.1 2.9-12.2zM10.6 5L15 23.9H6.2C6.2 24 10.6 5 10.6 5zm2.1 17.1L10.5 13l-2.1 9.1h4.3zM15.6 0l8.9 35.5h1L34.4.2l1.9-.2-9.4 37.4h-3.7L13.9.2l1.7-.2zm3.2.4l6.2 25L31.4.3l1.8-.1L25 32.6 16.9.2l1.9.2zM37.5.1h3.8L50 37.5l-1.9-.1L40 2.2h-1.1l-8.2 35.1h-1.8L37.5.1zm-2.8 25H44l2.9 12.2h-1.8l-2.4-10.4-6.5-.1-2.4 10.3-1.9.1 2.8-12.1zM39.4 5l4.4 18.9-8.8.1 4.4-19zm2.1 17.1L39.4 13l-2.1 9.1h4.2z"/></svg>