<svg viewBox="0 0 124 129"><path opacity=".5" d="M99.9 37.3L81 70.5l-19 33.4-19-33.4-19-33.3 75.9.1m0-2.1H24.1c-.7 0-1.5.4-1.8 1.1-.4.6-.4 1.5 0 2.1l19 33.3 19 33.4c.4.6 1.1 1.1 1.8 1.1s1.5-.4 1.8-1.1l19-33.4 19-33.3c.4-.6.3-1.5 0-2.1-.5-.7-1.2-1.1-2-1.1z"/><path opacity=".25" d="M63.5 51.3v-27l19.2 8c-.1 0-19.2 19-19.2 19zm-3.1-27.1l-19.2 8 19.2 19.2V24.2zm-2.1 29.3h-27l8-19.2c0 .1 19 19.2 19 19.2zm34.5 0l-8.1-19.3-19.1 19.3h27.2zM41.3 77.7l19.2 8v-27l-19.2 19zM31.2 56.5l8 19.2 19.2-19.2H31.2zm32.3 29.3l19.2-8-19.2-19.2v27.2zm2.1-29.3l19.2 19.2 8-19.2H65.6z"/><path d="M73.2 82H78s-14.7-9.3-16-24c-1.3 14.7-16 24-16 24h4.8c3.5-1.4 8.5-8.7 8.5-8.7-1.8 5.4-4.4 8.7-4.4 8.7H69s-2.6-3.3-4.4-8.7c.1 0 5.1 7.3 8.6 8.7zm-8.5-34.8L62.2 42l-2.6 5.3-5.8.8 4.3 4-1.1 5.8 5.2-2.8 5.2 2.8-1.1-5.8 4.2-4-5.8-.9z"/><path opacity=".75" d="M81.2 89l3.1 1.8-5.8 10.1-3.1-1.9 5.8-10zm-6 10.4c-.6-.3-1.5-.1-1.9.7-.4.8-.2 1.7.4 2l3.1 1.8c.6.3 1.5.1 1.9-.7.4-.8.2-1.7-.4-2l-3.1-1.8zM89.6 90l-.1.2-10.3-5.9.1-.2c.3-.6.2-1.2-.2-1.4-.4-.2-1-.1-1.3.5l-1.6 2.7c-.3.6-.2 1.2.2 1.4.4.2 1 .1 1.3-.5l.1-.2 10.3 5.9-.1.2c-.3.6-.2 1.2.2 1.4.4.2 1 .1 1.3-.5l1.6-2.7c.3-.6.2-1.2-.2-1.4-.4-.4-.9-.1-1.3.5zm19.1-45l-.7 8.4-20.2 35-6.1-3.4 20.2-35 6.8-5zm-5.1 9c-.2-.1-.5 0-.7.4L93 71.6l-1.6 2.7-.4.8-1.6 2.7-3 5.2c-.2.4-.1.7.1.8.2.1.5 0 .7-.4l2.9-5 1.6-2.7.4-.9 1.7-2.7 9.9-17.2c.1-.4.1-.7-.1-.9zM39.5 90.8l3.1-1.8 5.8 10-3.1 1.8-5.8-10zm6 10.4c-.6.3-.8 1.3-.4 2 .4.8 1.4 1 1.9.7l3.1-1.8c.6-.3.8-1.3.4-2-.4-.8-1.4-1-1.9-.7l-3.1 1.8zM44.6 84l.1.2-10.3 5.9-.1-.2c-.3-.6-.9-.7-1.3-.5-.4.2-.6.8-.2 1.4l1.6 2.7c.3.6.9.7 1.3.5.4-.2.6-.8.2-1.4l-.1-.2 10.3-5.9.1.2c.3.6.9.7 1.3.5.4-.2.6-.8.2-1.4l-1.6-2.7c-.3-.6-.9-.7-1.3-.5-.5.1-.5.8-.2 1.4zM15.2 45l6.9 4.8 20.2 35-6 3.6-20.3-35-.8-8.4zm5.2 8.9c-.2.1-.3.4-.1.8l10 17.3 1.6 2.7.4.8 1.6 2.7 3 5.2c.2.4.5.5.7.4s.3-.4.1-.8l-2.9-5-1.6-2.7-.6-.8-1.5-2.9-9.9-17.2c-.3-.5-.6-.6-.8-.5z"/></svg>