<svg viewBox="0 0 124 129"><path opacity=".5" d="M46.1 83.8l-3.7 3.7-.1-.1-2.3 2.3c-.3-.2-.5-.4-.8-.7l2.3-2.3.7-.7 2.9-2.9-.3-.3 1.8-1.8 1.5-1.5 2-2 1.5-1.5.6-.6.3.3c.3.2.6.5.9.7.2.1.3.2.5.3l-.8.8-1.5 1.5-2 2-1.5 1.5-1.7 1.7c-.1-.2-.2-.3-.3-.4zm18.8 5.4l-1.4-1.4-1.5-1.5v-.1l-.1.1-1.5 1.5-1.4 1.4c.2 0 .5 0 .7.1l-7.2 7.2 1.2.3 7.4-7.4h.7l.1-.1.1-.1.1.1.1.1h.7l7.4 7.4 1.2-.3-7.2-7.2c.1-.1.3-.1.6-.1zm-14.3-2.5c.1 0 .1 0 0 0 .1 0 .1 0 .1.1l.9-.9 1.5-1.5 2-2 1.5-1.5 2-2 .3-.3h-.1c-.2 0-.4-.1-.6-.1h-.1c-.3-.1-.7-.2-1-.3-.1 0-.3-.1-.4-.2 0 0-.1 0-.1-.1L55 79.4l-1.5 1.5-2 2-1.5 1.5-1.3 1.3s.1 0 .1.1c.1.1.2.1.4.2l-6.1 6.1.9.6 6.2-6.2c.1 0 .3.1.4.2zm24.4-1s.1 0 .1-.1l-1.3-1.3-1.5-1.5-2-2-1.5-1.5-1.3-1.3s-.1 0-.1.1c-.1.1-.3.1-.4.2-.3.1-.7.2-1 .3h-.1c-.2 0-.4.1-.6.1h-.1l.3.3 2 2 1.5 1.5 2 2 1.5 1.5.9.9h.2c.2-.1.3-.2.5-.2l6.2 6.2.9-.6-6.1-6.1c-.3-.3-.2-.4-.1-.5zM70.2 88c.1 0 .2-.1.3-.1l-.1-.1-1.5-1.5-2-2-1.5-1.5-2-2-1.4-1.4v-.1l-.1.1-1.5 1.5-2 2-1.4 1.4-2 2-1.5 1.5-.1.1c.1 0 .2.1.3.1.1 0 .2.1.3.1l-6.5 6.5c.3.2.7.3 1 .5l6.6-6.6c.2.1.4.1.5.2h.2l2.7-2.7 1.5-1.5 2-2 2 2 1.5 1.5 2.7 2.7h.2c.2 0 .4-.1.5-.2l6.6 6.6c.3-.1.7-.3 1-.5L70 88.1c0-.1.1-.1.2-.1zm3.1-47.3c-.1 0-.1-.1 0 0-.1 0-.1 0-.1-.1l-.9.9-1.5 1.5-2 2-1.5 1.5-2 2-.3.3h.1c.2 0 .4.1.6.1h.1c.3.1.7.2 1 .3.1 0 .3.1.4.2 0 0 .1 0 .1.1l1.5-1.5 1.5-1.5 2-2 1.5-1.5 1.3-1.3s-.1 0-.1-.1c-.1-.1-.2-.1-.4-.2l6.1-6.1-.9-.6-6.2 6.2c0-.1-.2-.2-.3-.2zm-19.6-1.3c-.1 0-.2.1-.3.1l.1.1L55 41l2 2 1.5 1.5 2 2L62 48l.1-.1 1.5-1.5 2-2 1.5-1.5 2-2 1.5-1.5.1-.1c-.1 0-.2-.1-.3-.1-.1 0-.2-.1-.3-.1l6.5-6.5c-.3-.2-.7-.3-1-.5L68.8 39c-.2-.1-.4-.1-.6-.2h-.1l-2.7 2.7-1.5 1.5-2 2-2-2-1.5-1.5-2.7-2.7h-.1c-.2 0-.4.1-.6.2l-6.6-6.6c-.3.1-.7.3-1 .5l6.5 6.5c0-.1-.1 0-.2 0zm-4.8 2.2s-.1 0-.1.1l1.3 1.3 1.5 1.5 2 2 1.5 1.5 1.5 1.5s.1 0 .1-.1c.1-.1.3-.1.4-.2.3-.1.7-.2 1-.3h.1c.2 0 .4-.1.6-.1h.1l-.3-.3-2-2-1.5-1.5-2-2-1.5-1.5-.9-.9s-.1 0-.1.1c-.2.1-.3.2-.5.2L44 34.7l-.9.6 6.1 6.1c-.1.1-.2.2-.3.2zM59 38.2l1.4 1.4 1.5 1.5.1.1V41l1.5-1.5 1.4-1.4c-.2 0-.5 0-.7-.1l7.2-7.2-1.2-.3-7.4 7.4h-.7l-.1.2v.1l-.1-.1-.1-.1h-.7l-7.4-7.4-1.2.3 7.2 7.2c-.2.1-.4.1-.7.1zM36.4 66c0 .2 0 .4.1.6l1.4-1.4.1-.1 1.4-1.4.1-.1-.1-.1-1.4-1.4-.1-.1-1.4-1.4c0 .2 0 .4-.1.6v.1l-7.1-7.1-.1-.1c0 .1 0 .2-.1.3-.1.3-.2.6-.2.9l7.4 7.4v.7l.1.1.1.1-.1.1-.1.1v.7L28.9 72c.1.3.2.6.2.9 0 .1 0 .2.1.3l.1-.1 7.1-7.1c0-.1 0 0 0 0zm1.3 5.9c0 .1.1.2.1.3l.1-.1 1.5-1.5 2-2 .1-.1 1.4-1.4.1-.1 1.9-1.9 1.5-1.5.1-.1-.1-.1-1.5-1.5L43 60l-.1-.1-1.4-1.4-.1-.1-2-2-1.5-1.5-.1-.1c0 .1-.1.2-.1.3 0 .1-.1.2-.1.3l-4.8-4.8-.8-.4-.9-.9c-.2.3-.3.7-.5 1l.6.6.7.7 5.2 5.2c-.1.2-.1.4-.2.5l.2.2.6.6 1.6 1.6.3.3.1.1.1.1 1.2 1.2.1.1 1.9 1.9.1.1-.1.1-1.9 1.9-.1.1-1 1.4-.1.1-.1.1-.3.3-1.6 1.6-.6.6-.2.3c0 .2.1.4.2.5L32 75.7l-.7.7-.6.6c.1.3.3.7.5 1l.9-.9.7-.7 4.8-4.8c0 .1 0 .2.1.3zm39.8-28.6s-.1-.1 0 0l-1.8 1.6-1.5 1.5-2 2-1.5 1.5-.7.7s.1 0 .1.1c.1.1.2.2.3.2.3.2.6.4.9.7l.3.3.1.1.6-.6 1.5-1.5 2-2 1.5-1.5 1.8-1.8-.1-.1-.3-.3 2.9-2.9.7-.7 2.3-2.3c-.3-.2-.5-.5-.8-.7l-2.3 2.3-.1-.1-3.7 3.7-.2-.2zm10.1 20.6l-.2-.2.1-.1.1-.1v-.7l7.4-7.4c-.1-.3-.2-.6-.2-.9 0-.1 0-.2-.1-.3l-.1.1-7.1 7.1c0-.2 0-.5-.1-.7L86 62.1l-1.5 1.5-.1.1.1.1 1.5 1.5 1.4 1.4c0-.2 0-.5.1-.7l7.1 7.1.1.1c0-.1 0-.2.1-.3.1-.3.2-.6.2-.9l-7.4-7.4v-.7zm8.3-2.6c0-.5-.1-.9-.1-1.3l-3.7 3.7 3.7 3.7c0-.4.1-.9.1-1.3l-2.3-2.3 2.3-2.5zM35.4 48.2l3.7 3.7c-.1.2-.2.3-.2.5l.9.9.2.2 1.2 1.2 2 2 .1.1 1.4 1.4.1.1 1.9 1.9.3.3c0-.2.1-.4.1-.6v-.1c.1-.3.2-.7.3-1 .1-.2.1-.4.2-.6l-1.5-1.5-1.5-1.5-2-2-1.5-1.5-1.1-1.2c-.1.2-.2.3-.3.5l-3.5-3.5-.7-.7-1.9-1.9-.6.9 1.7 1.7.7.7zM84.2 51c-.1-.2-.2-.3-.3-.5l-1.3 1.3-1.5 1.5-2 2-1.5 1.5-1.5 1.5c.1.2.1.4.2.6.1.3.2.7.3 1v.1c0 .2.1.4.1.6l.3-.3 2-2 1.5-1.5 2-2 1.5-1.5.9-.9c-.1-.2-.2-.3-.2-.5l3.7-3.7.7-.7 1.7-1.7-.6-.9-1.9 1.9-.7.7-3.4 3.5zM65.6 29.8c-.4 0-.9-.1-1.3-.1L62 32l-2.3-2.3c-.5 0-.9.1-1.3.1l3.7 3.7 3.5-3.7zm16 56.2l-2.9-2.9.3-.3-1.8-1.8-1.5-1.5-2-2-1.5-1.5-.6-.6-.3.3c-.3.2-.6.5-.9.7-.2.1-.3.2-.5.3l.8.8 1.5 1.5 2 2 1.5 1.5 1.7 1.7c.1-.1.3-.2.4-.3l3.7 3.7.1-.1 2.3 2.3c.3-.2.5-.4.8-.7l-2.3-2.3-.8-.8zm10.3-10.3l-5.2-5.2c.1-.2.1-.4.2-.6l-.9-.7-2-2-1.5-1.5-2-2-.1-.1.1-.1 2-2L84 60l2-2 .8-.8c0-.2-.1-.4-.2-.6l5.2-5.2.7-.7.6-.6c-.1-.3-.3-.7-.5-1l-.9.9-.7.7-4.8 4.8c0-.1-.1-.2-.1-.3 0-.1-.1-.2-.1-.3v.3l-1.5 1.5-2 2-1.5 1.5-2 2-1.5 1.5-.1.1.1.1 1.5 1.5 2 2 1.5 1.5 2 2 1.5 1.5.1.1c0-.1.1-.2.1-.3 0-.1.1-.2.1-.3l4.8 4.8.7.7.9.9c.2-.3.3-.7.5-1l-.6-.6-.7-1zm-3.4 3.5l-3.7-3.7c.1-.2.2-.3.2-.5l-.9-.9-1.5-1.5-2-2-1.5-1.5-2-2-.3-.3c0 .2-.1.4-.1.6v.1c-.1.3-.2.7-.3 1-.1.2-.1.4-.2.6l1.5 1.5 1.5 1.5 2 2 1.5 1.5 1.3 1.3c.1-.2.2-.3.3-.5l3.5 3.5.7.7 1.9 1.9.6-.9-1.7-1.7-.8-.7zM28.1 60c0 .4-.1.9-.1 1.3l2.3 2.3L28 66c0 .5.1.9.1 1.3l3.7-3.7-3.7-3.6zm14.2-18.7l2.9 2.9-.3.3-.1.1 1.8 1.8 1.5 1.5 2 2 1.5 1.5.6.6.1-.1.3-.3c.3-.2.6-.5.9-.7.1-.1.2-.2.3-.2 0 0 .1 0 .1-.1l-.8-.8-1.5-1.5-2-2-1.5-1.5-1.7-1.7-.3.3-3.7-3.7-.1.1-2.3-2.2c-.3.2-.5.4-.8.7l2.3 2.3.8.7zM85 82.6l-3-3c.1-.1.2-.3.3-.4l-1.7-1.7-1.5-1.5-2-2-1.5-1.5-.8-.8c-.1.1-.2.3-.3.4-.2.3-.4.6-.6.8-.1.1-.2.3-.3.4l.6.6 1.5 1.5 2 2 1.5 1.5 1.8 1.8c.1-.1.2-.3.3-.4l2.9 2.9.7.7 2.3 2.3c.2-.3.5-.5.7-.8l-2.3-2.3-.6-.5zm-3.6-35.7c-.1-.1-.2-.3-.3-.4l-1.8 1.8-1.5 1.5-2 2-1.5 1.5-.6.6c.1.1.2.3.3.4.2.3.4.6.6.8.1.1.2.3.3.4l.8-.8 1.5-1.5 2-2 1.5-1.5 1.7-1.7c-.1-.1-.2-.3-.3-.4l3-3 .7-.7 2.3-2.3c-.2-.3-.4-.5-.7-.8L85 43.3l-.7.7-2.9 2.9zM58.3 97.6c.4 0 .9.1 1.3.1l2.3-2.3 2.3 2.3c.5 0 .9-.1 1.3-.1L62 93.9l-3.7 3.7zM42.5 80.4c.1.1.2.3.3.4l1.8-1.8 1.5-1.5 2-2 1.5-1.5.6-.6c-.1-.1-.2-.3-.3-.4-.2-.3-.4-.6-.6-.8-.1-.1-.2-.3-.3-.4l-.8.8-1.5 1.5-2 2-1.5 1.5-1.7 1.7c.1.1.2.3.3.4l-3 3-.7.7-2.3 2.3c.2.3.4.5.7.8l2.3-2.3.7-.7 3-3.1zm-2.8-4c.1.2.2.3.3.5l1.3-1.3 1.5-1.5 2-2 1.5-1.5.1-.1 1.4-1.4c-.1-.2-.1-.4-.2-.6-.1-.3-.2-.7-.3-1v-.1c0-.2-.1-.4-.1-.6l-.3.3L45 69l-.1.1-1.4 1.4-.1.1-2 2-1.4 1.3-.2.2-.9.9c.1.2.2.3.2.5l-3.7 3.7-.7.7-1.7 1.7.6.9 1.9-1.9.7-.7 3.5-3.5zm-.8-31.7l3 3c-.1.1-.2.3-.3.4l1.7 1.7 1.5 1.5 2 2 1.5 1.5.8.8c.1-.1.2-.3.3-.4.2-.3.4-.6.6-.8.1-.1.2-.3.3-.4l-.6-.6-1.5-1.5-2-2-1.5-1.5-1.8-1.8c-.1.1-.2.3-.3.4l-3-3-.7-.7-2.3-2.3c-.2.3-.5.5-.7.8l2.3 2.3.7.6z"/><path d="M74.4 61.8c.1-.7.1-1.5.1-2.2 0-2.5-2-5.7-5.4-7.7-1.3-.7-2.9-1.3-4.7-1.6-.7 0-1.5-.1-2.3-.1-.9 0-1.8 0-2.5.1-1.8.3-3.4 1-4.7 1.8-3.4 2-5.4 5.3-5.4 7.6 0 .7 0 1.5.1 2.2.4 2.5 1.5 4.1 1.8 5 .4 1.5.3 2.3.1 2.9-.1.4-.3.6-.3.6s.3 2.3 1 3.4c.3.3.9.4 1.6.4 1.3 0 2.9.1 2.9 2.8 0 0 .9.6 2.9.9.6.1 1.5.1 2.3.1.9 0 1.8 0 2.3-.1 2-.3 2.9-.9 2.9-.9 0-2.5 1.5-2.6 2.8-2.8.7 0 1.3 0 1.6-.4.7-1 1-3.4 1-3.4s-.1-.1-.3-.6c-.3-.6-.4-1.5 0-2.8.6-1.1 1.6-2.7 2.2-5.2zM58.3 70c-.7.3-1.8.6-2.5.7h-.4c-.9 0-1.6-.4-1.9-1.2s-.3-1.8-.1-2.6c0-.3 0-.4.1-.6.4-.7 1.2-1.3 2-1.6.4-.1 1-.1 1.5-.1.6 0 1.2 0 1.6.3.7.4 1.2 1.5 1.2 2.5-.2.8-.7 2-1.5 2.6zm3.7 3.8c-1.3 0-1.6-.4-1.6-.4s0-3.9 1.6-3.9c1.5 0 1.6 3.9 1.6 3.9s-.3.4-1.6.4zm8.6-4.5c-.3.6-1 1.2-1.9 1.2h-.6c-.7-.1-1.8-.4-2.3-.7-.9-.4-1.5-1.6-1.5-2.5s.6-2 1.2-2.5c.3-.1.9-.3 1.6-.3.6 0 1 0 1.5.1.7.3 1.5.9 1.9 1.5.1.1.3.4.3.6.1.7.1 2-.2 2.6zm-7.1-44.2L62.1 22l-1.6 3.2-3.5.5 2.6 2.4-.7 3.5 3.2-1.7 3.1 1.7-.7-3.5 2.5-2.4-3.5-.6zm.7 77.3l-2.1-4.5-2.3 4.6-5 .7 3.7 3.5-.9 5 4.5-2.4 4.5 2.4-1-5 3.6-3.5-5-.8z"/><path opacity=".9" d="M35.2 35.4l-2.3-4.5-2.1 4.6-5 .7 3.6 3.5-1 5 4.5-2.4 4.5 2.4-.9-5 3.7-3.5-5-.8zm58 0l-2.1-4.5-2.3 4.6-5 .7 3.7 3.5-.9 5 4.5-2.4 4.5 2.4-1-5 3.6-3.5-5-.8zm-18.7 71.7l-1.4-3.1-1.6 3.2-3.5.5 2.6 2.4-.7 3.5 3.2-1.7 3.1 1.7-.7-3.5 2.5-2.4-3.5-.6zm-22 0l-1.4-3.1-1.6 3.2-3.5.5 2.6 2.4-.7 3.5 3.2-1.7 3.1 1.7-.7-3.5 2.5-2.4-3.5-.6z"/><path opacity=".75" d="M79.2 87l3.1 1.8-5.8 10.1-3.1-1.9 5.8-10zm-6 10.4c-.6-.3-1.5-.1-1.9.7-.4.8-.2 1.7.4 2l3.1 1.8c.6.3 1.5.1 1.9-.7.4-.8.2-1.7-.4-2l-3.1-1.8zM87.6 88l-.1.2-10.3-5.9.1-.2c.3-.6.2-1.2-.2-1.4-.4-.2-1-.1-1.3.5l-1.6 2.7c-.3.6-.2 1.2.2 1.4.4.2 1 .1 1.3-.5l.1-.2 10.3 5.9-.1.2c-.3.6-.2 1.2.2 1.4.4.2 1 .1 1.3-.5l1.6-2.7c.3-.6.2-1.2-.2-1.4-.4-.4-.9-.1-1.3.5zm19.1-45l-.7 8.4-20.2 35-6.1-3.4 20.2-35 6.8-5zm-5.1 9c-.2-.1-.5 0-.7.4L91 69.6l-1.6 2.7-.4.8-1.6 2.7-3 5.2c-.2.4-.1.7.1.8.2.1.5 0 .7-.4l2.9-5 1.6-2.7.4-.9 1.7-2.7 9.9-17.2c.1-.4.1-.7-.1-.9zM41.5 88.8l3.1-1.8 5.8 10-3.1 1.8-5.8-10zm6 10.4c-.6.3-.8 1.3-.4 2 .4.8 1.4 1 1.9.7l3.1-1.8c.6-.3.8-1.3.4-2-.4-.8-1.4-1-1.9-.7l-3.1 1.8zM46.6 82l.1.2-10.3 5.9-.1-.2c-.3-.6-.9-.7-1.3-.5-.4.2-.6.8-.2 1.4l1.6 2.7c.3.6.9.7 1.3.5.4-.2.6-.8.2-1.4l-.1-.2 10.3-5.9.1.2c.3.6.9.7 1.3.5.4-.2.6-.8.2-1.4l-1.6-2.7c-.3-.6-.9-.7-1.3-.5-.5.1-.5.8-.2 1.4zM17.2 43l6.9 4.8 20.2 35-6 3.6-20.3-35-.8-8.4zm5.2 8.9c-.2.1-.3.4-.1.8l10 17.3 1.6 2.7.4.8 1.6 2.7 3 5.2c.2.4.5.5.7.4s.3-.4.1-.8l-2.9-5-1.6-2.7-.6-.8-1.5-2.9-9.9-17.2c-.3-.5-.6-.6-.8-.5zm26-2.9c.1-.3.1-.7.1-1 0-1.1-.9-2.6-2.5-3.5-.6-.3-1.3-.6-2.1-.7-.3 0-.7-.1-1.1-.1-.4 0-.8 0-1.1.1-.8.1-1.5.5-2.1.8-1.6.9-2.6 2.3-2.6 3.4 0 .3 0 .7.1 1 .2 1.1.7 1.9.8 2.3.2.7.1 1.1.1 1.3-.1.2-.1.3-.1.3s.1 1.1.5 1.5c.1.1.4.2.7.2.6 0 1.3.1 1.3 1.3 0 0 .4.3 1.3.4.3.1.7.1 1.1.1.4 0 .8 0 1.1-.1.9-.1 1.3-.4 1.3-.4 0-1.1.7-1.2 1.3-1.3.3 0 .6 0 .7-.2.3-.5.5-1.5.5-1.5s-.1-.1-.1-.3c-.1-.3-.2-.7 0-1.3 0-.4.5-1.2.8-2.3zM41 52.7c-.3.1-.8.3-1.1.3h-.2c-.4 0-.7-.2-.9-.5s-.1-.8-.1-1.2c0-.1 0-.2.1-.3.2-.3.5-.6.9-.7.2-.1.5-.1.7-.1.3 0 .5 0 .7.1.3.2.5.7.5 1.1 0 .5-.2 1.1-.6 1.3zm1.7 1.8c-.6 0-.7-.2-.7-.2s0-1.8.7-1.8.7 1.8.7 1.8-.1.2-.7.2zm3.9-2.1c-.1.3-.5.5-.9.5h-.3c-.3-.1-.8-.2-1.1-.3-.4-.2-.7-.7-.7-1.1 0-.4.3-.9.5-1.1.1-.1.4-.1.7-.1.3 0 .5 0 .7.1.3.1.7.4.9.7.1.1.1.2.1.3.3.1.3.7.1 1zM87 49c.1-.3.1-.7.1-1 0-1.1-.9-2.6-2.5-3.5-.6-.3-1.3-.6-2.1-.7-.3 0-.7-.1-1.1-.1-.4 0-.8 0-1.1.1-.8.1-1.5.5-2.1.8-1.5.9-2.5 2.4-2.5 3.5 0 .3 0 .7.1 1 .2 1.1.7 1.9.8 2.3.2.7.1 1.1.1 1.3-.1.2-.1.3-.1.3s.1 1.1.5 1.5c.1.1.4.2.7.2.6 0 1.3.1 1.3 1.3 0 0 .4.3 1.3.4.3.1.7.1 1.1.1.4 0 .8 0 1.1-.1.9-.1 1.3-.4 1.3-.4 0-1.1.7-1.2 1.3-1.3.3 0 .6 0 .7-.2.3-.5.5-1.5.5-1.5s-.1-.1-.1-.3c-.1-.3-.2-.7 0-1.3 0-.5.4-1.3.7-2.4zm-7.3 3.7c-.3.1-.8.3-1.1.3h-.2c-.4 0-.7-.2-.9-.5-.1-.3-.1-.8-.1-1.2 0-.1 0-.2.1-.3.2-.3.5-.6.9-.7.2-.1.5-.1.7-.1.3 0 .5 0 .7.1.3.2.5.7.5 1.1 0 .5-.3 1.1-.6 1.3zm1.6 1.8c-.6 0-.7-.2-.7-.2s0-1.8.7-1.8.7 1.8.7 1.8-.1.2-.7.2zm4-2.1c-.1.3-.5.5-.9.5h-.3c-.3-.1-.8-.2-1.1-.3-.4-.2-.7-.7-.7-1.1 0-.4.3-.9.5-1.1.1-.1.4-.1.7-.1.3 0 .5 0 .7.1.3.1.7.4.9.7.1.1.1.2.1.3.2.1.2.7.1 1z"/></svg>