<svg viewBox="0 0 124 129"><path opacity=".25" d="M63.5 51.3v-27l19.2 8c-.1 0-19.2 19-19.2 19zm-3.1-27.1l-19.2 8 19.2 19.2V24.2zm-2.1 29.3h-27l8-19.2c0 .1 19 19.2 19 19.2zm34.5 0l-8.1-19.3-19.1 19.3h27.2zM41.3 77.7l19.2 8v-27l-19.2 19zM31.2 56.5l8 19.2 19.2-19.2H31.2zm32.3 29.3l19.2-8-19.2-19.2v27.2zm2.1-29.3l19.2 19.2 8-19.2H65.6z"/><path d="M62.2 52.9c-4.3 0-7.9 3.6-7.9 7.9s3.6 7.9 7.9 7.9 7.9-3.6 7.9-7.9-3.6-7.9-7.9-7.9zm0 13c-2.8 0-5.2-2.3-5.2-5.2 0-2.8 2.3-5.2 5.2-5.2 2.8 0 5.2 2.3 5.2 5.2 0 2.8-2.4 5.2-5.2 5.2zm2.6-5.1c0 1.5-1.2 2.6-2.6 2.6-1.4 0-2.6-1.2-2.6-2.6 0-1.4 1.2-2.6 2.6-2.6 1.5 0 2.6 1 2.6 2.6zm17-1.5h-6.6c-.6-6.1-5.5-11.1-11.7-11.7V41c0-.7-.6-1.4-1.4-1.4-.7 0-1.4.6-1.4 1.4v6.6c-6.1.6-11.1 5.5-11.7 11.7h-6.6c-.7 0-1.4.6-1.4 1.4 0 .7.6 1.4 1.4 1.4H49c.6 6.1 5.5 11.1 11.7 11.7v6.6c0 .7.6 1.4 1.4 1.4.7 0 1.4-.6 1.4-1.4v-6.6c6.1-.6 11.1-5.5 11.7-11.7h6.6c.7 0 1.4-.6 1.4-1.4s-.6-1.4-1.4-1.4zM62.2 71.1c-5.8 0-10.4-4.7-10.4-10.4s4.7-10.4 10.4-10.4S72.7 55 72.7 60.8 68 71.1 62.2 71.1zM44.4 56.5C46 50 51.3 44.5 58 43c.7-.1 1.4.2 1.6 1 .1.7-.2 1.4-1 1.6-5.8 1.4-10.3 5.9-11.7 11.7-.1.6-.7 1-1.2 1h-.2c-.7-.3-1.2-1-1.1-1.8zm15.2 21.1c-.1.6-.7 1-1.2 1h-.2c-6.6-1.6-12-6.9-13.6-13.6-.1-.7.2-1.4 1-1.6.7-.1 1.4.2 1.6 1C48.5 70.1 53 74.7 58.8 76c.6.1 1 .9.8 1.6zM80 64.9c-1.6 6.6-6.9 12-13.6 13.6H66c-.6 0-1.1-.4-1.2-1-.1-.7.2-1.4 1-1.6 5.8-1.4 10.3-5.9 11.7-11.7.1-.7.9-1.1 1.6-1 .6.3 1.1 1 .9 1.7zM64.8 44c.1-.7.9-1.1 1.6-1 6.6 1.6 12 6.9 13.6 13.6.1.7-.2 1.4-1 1.6h-.2c-.6 0-1.1-.4-1.2-1-1.4-5.8-5.9-10.3-11.7-11.7-.8-.2-1.1-.9-1.1-1.5z"/><path opacity=".5" d="M99.9 37.3L81 70.5l-19 33.4-19-33.4-19-33.3 75.9.1m0-2.1H24.1c-.7 0-1.5.4-1.8 1.1-.4.6-.4 1.5 0 2.1l19 33.3 19 33.4c.4.6 1.1 1.1 1.8 1.1s1.5-.4 1.8-1.1l19-33.4 19-33.3c.4-.6.3-1.5 0-2.1-.5-.7-1.2-1.1-2-1.1z"/><path opacity=".75" d="M81.2 89l3.1 1.8-5.8 10.1-3.1-1.9 5.8-10zm-6 10.4c-.6-.3-1.5-.1-1.9.7-.4.8-.2 1.7.4 2l3.1 1.8c.6.3 1.5.1 1.9-.7.4-.8.2-1.7-.4-2l-3.1-1.8zM89.6 90l-.1.2-10.3-5.9.1-.2c.3-.6.2-1.2-.2-1.4-.4-.2-1-.1-1.3.5l-1.6 2.7c-.3.6-.2 1.2.2 1.4.4.2 1 .1 1.3-.5l.1-.2 10.3 5.9-.1.2c-.3.6-.2 1.2.2 1.4.4.2 1 .1 1.3-.5l1.6-2.7c.3-.6.2-1.2-.2-1.4-.4-.4-.9-.1-1.3.5zm19.1-45l-.7 8.4-20.2 35-6.1-3.4 20.2-35 6.8-5zm-5.1 9c-.2-.1-.5 0-.7.4L93 71.6l-1.6 2.7-.4.8-1.6 2.7-3 5.2c-.2.4-.1.7.1.8.2.1.5 0 .7-.4l2.9-5 1.6-2.7.4-.9 1.7-2.7 9.9-17.2c.1-.4.1-.7-.1-.9zM39.5 90.8l3.1-1.8 5.8 10-3.1 1.8-5.8-10zm6 10.4c-.6.3-.8 1.3-.4 2 .4.8 1.4 1 1.9.7l3.1-1.8c.6-.3.8-1.3.4-2-.4-.8-1.4-1-1.9-.7l-3.1 1.8zM44.6 84l.1.2-10.3 5.9-.1-.2c-.3-.6-.9-.7-1.3-.5-.4.2-.6.8-.2 1.4l1.6 2.7c.3.6.9.7 1.3.5.4-.2.6-.8.2-1.4l-.1-.2 10.3-5.9.1.2c.3.6.9.7 1.3.5.4-.2.6-.8.2-1.4l-1.6-2.7c-.3-.6-.9-.7-1.3-.5-.5.1-.5.8-.2 1.4zM15.2 45l6.9 4.8 20.2 35-6 3.6-20.3-35-.8-8.4zm5.2 8.9c-.2.1-.3.4-.1.8l10 17.3 1.6 2.7.4.8 1.6 2.7 3 5.2c.2.4.5.5.7.4s.3-.4.1-.8l-2.9-5-1.6-2.7-.6-.8-1.5-2.9-9.9-17.2c-.3-.5-.6-.6-.8-.5z"/></svg>