<svg viewBox="0 0 124 129"><path opacity=".5" d="M98 36.6L80 68.2 62 99.9 44 68.2 26 36.6h72m0-2H26c-.7 0-1.4.4-1.7 1-.4.6-.4 1.4 0 2l18 31.6 18 31.7c.4.6 1 1 1.7 1s1.4-.4 1.7-1l18-31.7 18-31.6c.4-.6.3-1.4 0-2s-1-1-1.7-1z"/><path opacity=".75" d="M81.2 89l3.1 1.8-5.8 10.1-3.1-1.9 5.8-10zm-6 10.4c-.6-.3-1.5-.1-1.9.7-.4.8-.2 1.7.4 2l3.1 1.8c.6.3 1.5.1 1.9-.7.4-.8.2-1.7-.4-2l-3.1-1.8zM89.6 90l-.1.2-10.3-5.9.1-.2c.3-.6.2-1.2-.2-1.4-.4-.2-1-.1-1.3.5l-1.6 2.7c-.3.6-.2 1.2.2 1.4.4.2 1 .1 1.3-.5l.1-.2 10.3 5.9-.1.2c-.3.6-.2 1.2.2 1.4.4.2 1 .1 1.3-.5l1.6-2.7c.3-.6.2-1.2-.2-1.4-.4-.4-.9-.1-1.3.5zm19.1-45l-.7 8.4-20.2 35-6.1-3.4 20.2-35 6.8-5zm-5.1 9c-.2-.1-.5 0-.7.4L93 71.6l-1.6 2.7-.4.8-1.6 2.7-3 5.2c-.2.4-.1.7.1.8.2.1.5 0 .7-.4l2.9-5 1.6-2.7.4-.9 1.7-2.7 9.9-17.2c.1-.4.1-.7-.1-.9zM39.5 90.8l3.1-1.8 5.8 10-3.1 1.8-5.8-10zm6 10.4c-.6.3-.8 1.3-.4 2 .4.8 1.4 1 1.9.7l3.1-1.8c.6-.3.8-1.3.4-2-.4-.8-1.4-1-1.9-.7l-3.1 1.8zM44.6 84l.1.2-10.3 5.9-.1-.2c-.3-.6-.9-.7-1.3-.5-.4.2-.6.8-.2 1.4l1.6 2.7c.3.6.9.7 1.3.5.4-.2.6-.8.2-1.4l-.1-.2 10.3-5.9.1.2c.3.6.9.7 1.3.5.4-.2.6-.8.2-1.4l-1.6-2.7c-.3-.6-.9-.7-1.3-.5-.5.1-.5.8-.2 1.4zM15.2 45l6.9 4.8 20.2 35-6 3.6-20.3-35-.8-8.4zm5.2 8.9c-.2.1-.3.4-.1.8l10 17.3 1.6 2.7.4.8 1.6 2.7 3 5.2c.2.4.5.5.7.4s.3-.4.1-.8l-2.9-5-1.6-2.7-.6-.8-1.5-2.9-9.9-17.2c-.3-.5-.6-.6-.8-.5z"/><path opacity=".25" d="M41.3 77.8l19.2 8V58.7L41.3 77.8zM31.2 56.5l8 19.2 19.2-19.2H31.2zm32.3 29.3l19.2-8-19.2-19.2v27.2zm2.1-29.3l19.2 19.2 8-19.2H65.6zm-34.4-3h27.1L39.2 34.3l-8 19.2zm53.6-19.2L65.6 53.5h27.1l-7.9-19.2zm-43.5-2.1l19.2 19.2V24.3l-19.2 7.9zm22.2-8v27.1l19.2-19.2-19.2-7.9z"/><path opacity=".9" d="M62.9 87.8l-.8-1.9-1 1.9-2.1.3 1.6 1.4-.4 2.1 1.9-1 1.9 1-.4-2.1 1.5-1.4-2.2-.3zm1.3 12.6l-2.1-4.5-2.3 4.6-5 .7 3.7 3.5-.9 5 4.5-2.4 4.5 2.4-1-5 3.6-3.5-5-.8zm28.7-61.6l-.8-1.9-1 1.9-2.1.3 1.6 1.4-.4 2.1 1.9-1 1.9 1-.4-2.1 1.5-1.4-2.2-.3zm-60 0l-.8-1.9-1 1.9-2.1.3 1.6 1.4-.4 2.1 1.9-1 1.9 1-.4-2.1 1.5-1.4-2.2-.3z"/><path d="M69.5 54.3l-6.3-7.8h9.1l-2.8 7.8zm-1 .6L62 46.8l-6.5 8.1h13zm-7.6-8.4h-9.1l2.7 7.8 6.4-7.8zm-10 .6l-5.4 7.8h8.1l-2.7-7.8zM45.7 56l14.7 16.4L54 56h-8.3zm9.4 0L62 73.5 68.9 56H55.1zm8.5 16.4L78.3 56H70l-6.4 16.4zm14.9-17.5l-5.4-7.8-2.7 7.8h8.1z"/></svg>