<svg viewBox="0 0 124 129"><path opacity=".5" d="M99.9 37.3L81 70.5l-19 33.4-19-33.4-19-33.3 75.9.1m0-2.1H24.1c-.7 0-1.5.4-1.8 1.1-.4.6-.4 1.5 0 2.1l19 33.3 19 33.4c.4.6 1.1 1.1 1.8 1.1s1.5-.4 1.8-1.1l19-33.4 19-33.3c.4-.6.3-1.5 0-2.1-.5-.7-1.2-1.1-2-1.1z"/><path opacity=".25" d="M63.6 52.8V24.3l20.2 8.4-20.2 20.1zm-3.2-28.6l-20.2 8.4 20.2 20.2V24.2zm-2.2 30.9H29.7l8.4-20.2 20.1 20.2zm36.3 0L86 34.8 65.8 55.1h28.7zM40.2 80.6L60.4 89V60.5L40.2 80.6zM29.6 58.2L38 78.4l20.2-20.2H29.6zm34 30.9l20.2-8.4-20.2-20.3v28.7zm2.2-30.9L86 78.4l8.4-20.2H65.8z"/><path d="M73.3 86.5h4.8s-14.7-9.3-16-24c-1.3 14.7-16 24-16 24h4.8c3.5-1.4 8.5-8.7 8.5-8.7-1.8 5.4-4.4 8.7-4.4 8.7h14.1s-2.6-3.3-4.4-8.7c.1 0 5.1 7.3 8.6 8.7zm-8.5-34.8l-2.5-5.2-2.6 5.3-5.8.8 4.3 4-1.1 5.8 5.2-2.8 5.2 2.8-1.1-5.8 4.2-4-5.8-.9z"/></svg>