<svg viewBox="0 0 124 129"><path d="M78.9 89.1H45.1l-.9-.5-16.8-29.3v-1L44.3 29l.9-.5H79l.9.5 16.9 29.3v1L79.7 88.6l-.8.5zm-33.3-1.9h32.6l16.4-28.4-16.3-28.4H45.6L29.4 58.8l16.2 28.4z" opacity=".5"/><path d="M35.3 47.4l-7.9-13.6h30.8l-7.6 13-7.8 13.6-7.5-13zm11 19.3l7.8 13.5L62 93.8l7.8-13.6 7.9-13.5H46.3zm34.9-6.3l7.6-13 7.8-13.6H65.8l7.6 13.1 7.8 13.5z" opacity=".25"/><path d="M41.5 77.5c.1-.5.1-1 .1-1.5 0-1.7-1.4-3.9-3.7-5.3-.9-.5-2-.9-3.2-1.1-.5 0-1-.1-1.6-.1-.6 0-1.2 0-1.7.1-1.2.2-2.3.7-3.2 1.2-2.3 1.4-3.7 3.6-3.7 5.2 0 .5 0 1 .1 1.5.3 1.7 1 2.8 1.2 3.4.3 1 .2 1.6.1 2-.1.3-.2.4-.2.4s.2 1.6.7 2.3c.2.2.6.3 1.1.3.9 0 2 .1 2 1.9 0 0 .6.4 2 .6.4.1 1 .1 1.6.1.6 0 1.2 0 1.6-.1 1.4-.2 2-.6 2-.6 0-1.7 1-1.8 1.9-1.9.5 0 .9 0 1.1-.3.5-.7.7-2.3.7-2.3s-.1-.1-.2-.4c-.2-.4-.3-1 0-1.9.2-.7.9-1.8 1.3-3.5zm-11 5.6c-.5.2-1.2.4-1.7.5h-.3c-.6 0-1.1-.3-1.3-.8s-.2-1.2-.1-1.8c0-.2 0-.3.1-.4.3-.5.8-.9 1.4-1.1.3-.1.7-.1 1-.1.4 0 .8 0 1.1.2.5.3.8 1 .8 1.7-.1.6-.5 1.4-1 1.8zm2.5 2.6c-.9 0-1.1-.3-1.1-.3s0-2.7 1.1-2.7c1 0 1.1 2.7 1.1 2.7s-.2.3-1.1.3zm5.9-3.1c-.2.4-.7.8-1.3.8h-.4c-.5-.1-1.2-.3-1.6-.5-.6-.3-1-1.1-1-1.7s.4-1.4.8-1.7c.2-.1.6-.2 1.1-.2.4 0 .7 0 1 .1.5.2 1 .6 1.3 1 .1.1.2.3.2.4.1.5.1 1.4-.1 1.8zm60.6-5.1c.1-.5.1-1 .1-1.5 0-1.7-1.4-3.9-3.7-5.3-.9-.5-2-.9-3.2-1.1-.5 0-1-.1-1.6-.1s-1.2 0-1.7.1c-1.2.2-2.3.7-3.2 1.2-2.3 1.4-3.7 3.6-3.7 5.2 0 .5 0 1 .1 1.5.3 1.7 1 2.8 1.2 3.4.3 1 .2 1.6.1 2-.1.3-.2.4-.2.4s.2 1.6.7 2.3c.2.2.6.3 1.1.3.9 0 2 .1 2 1.9 0 0 .6.4 2 .6.4.1 1 .1 1.6.1s1.2 0 1.6-.1c1.4-.2 2-.6 2-.6 0-1.7 1-1.8 1.9-1.9.5 0 .9 0 1.1-.3.5-.7.7-2.3.7-2.3s-.1-.1-.2-.4c-.2-.4-.3-1 0-1.9.2-.7.9-1.8 1.3-3.5zm-11 5.6c-.5.2-1.2.4-1.7.5h-.3c-.6 0-1.1-.3-1.3-.8s-.2-1.2-.1-1.8c0-.2 0-.3.1-.4.3-.5.8-.9 1.4-1.1.3-.1.7-.1 1-.1.4 0 .8 0 1.1.2.5.3.8 1 .8 1.7-.1.6-.5 1.4-1 1.8zm2.5 2.6c-.9 0-1.1-.3-1.1-.3s0-2.7 1.1-2.7c1 0 1.1 2.7 1.1 2.7s-.2.3-1.1.3zm5.9-3.1c-.2.4-.7.8-1.3.8h-.4c-.5-.1-1.2-.3-1.6-.5-.6-.3-1-1.1-1-1.7s.4-1.4.8-1.7c.2-.1.6-.2 1.1-.2.4 0 .7 0 1 .1.5.2 1 .6 1.3 1 .1.1.2.3.2.4.1.5.1 1.4-.1 1.8z" opacity=".75"/><path d="M87.2 52c-2-2.7-3-3.2-4.7-2.8-1.5.4-2.1.1-2.1-.7 0-.9-.7-1.2-2.5-.8-2.4.5-2.5.4-1.2-1.1 1.2-1.5 1.1-1.7-1-1.4-1.4.2-3.1-.5-4.4-1.7-1.1-1-3.3-2.2-4.9-2.5-1.6-.3-3.9-.6-5.3-.5-3 0-11.5 2.8-11.9 3.8-.2.4-.8.7-1.5.7s-2.3.8-3.6 1.8c-1.3 1-2.9 1.8-3.6 1.8-.6 0-2.4 1.3-3.9 3-2.1 2.4-2.4 3.3-1.6 5 .6 1.5.6 2.2-.1 2.4-1.3.5 0 8.1 1.4 8 .6 0 1.9-.4 3-.8 1.7-.7 1.7-.8.2-.8-3.4-.2-.8-2.4 3.6-3.1 2.5-.5 5.2-1.2 6-1.6 2-1.1 3 2 1.6 5.2-.7 1.7-.6 2.9.6 5.3.8 1.7 1.5 3.9 1.5 4.7 0 1.1.5 1.4 1.5 1 .8-.3 1.8-.6 2.2-.6.7 0 4.6-11.3 4.6-13.6 0-.7-.7-1.2-1.6-1-1.9.3-4-.8-4-2.1 0-.5.9-.8 2.1-.8 1.2 0 2.6-.5 3.2-1.1.8-.8 1.4-.8 2.2 0 .6.6 2 1.1 3.2 1.1s2.1.4 2.1.8c0 1.3-2 2.4-3.9 2.1-.9-.2-1.7.3-1.7 1 0 2.3 3.9 13.6 4.6 13.6.5 0 1.4.3 2.2.6 1 .4 1.5.1 1.5-1 0-.8.6-3 1.5-4.7 1.2-2.5 1.3-3.7.6-5.3-1.4-3.1-.5-6.3 1.6-5.2.8.4 3.5 1.1 6 1.6 4.4.7 7 3 3.6 3.1-1.1 0-.8.4.9 1 1.5.5 2.8.7 3 .5.3-.3.7-3 1-6 .5-5.1.3-5.9-2-8.9zm-40.5 7.4L44 57.9l-2.8 1.5.6-3.1-2.3-2.1 3.1-.4L44 51l1.2 2.7 3.1.5-2.2 2.1.6 3.1zM58.1 55l-2.7-1.5-2.8 1.5.6-3.1-2.3-2.1 3.1-.4 1.4-2.8 1.2 2.7 3.1.5-2.2 2.2.6 3zm13.3-3l.6 3-2.7-1.5-2.8 1.5.6-3.1-2.3-2.1 3.1-.4 1.4-2.8 1.2 2.7 3.1.5-2.2 2.2zm11.1 7.4l-2.7-1.5-2.8 1.5.6-3.1-2.3-2.1 3.1-.4 1.4-2.8 1.2 2.7 3.1.5-2.2 2.1.6 3.1zm-18.3 43l-2.1-4.5-2.3 4.6-5 .7 3.7 3.5-.9 5 4.5-2.4 4.5 2.4-1-5 3.6-3.5-5-.8zm-.7-77.3L62.1 22l-1.6 3.2-3.5.5 2.6 2.4-.7 3.5 3.2-1.7 3.1 1.7-.7-3.5 2.5-2.4-3.5-.6z"/><path d="M25.2 45.4l-2.3-4.5-2.1 4.6-5 .7 3.6 3.5-1 5 4.5-2.4 4.5 2.4-.9-5 3.7-3.5-5-.8zm78 0l-2.1-4.5-2.3 4.6-5 .7 3.7 3.5-.9 5 4.5-2.4 4.5 2.4-1-5 3.6-3.5-5-.8zm-26.7 54.7L75.1 97l-1.6 3.2-3.5.5 2.6 2.4-.7 3.5 3.2-1.7 3.1 1.7-.7-3.5 2.5-2.4-3.5-.6zm-26 0L49.1 97l-1.6 3.2-3.5.5 2.6 2.4-.7 3.5 3.2-1.7 3.1 1.7-.7-3.5 2.5-2.4-3.5-.6z" opacity=".9"/></svg>