<svg viewBox="0 0 124 129"><path d="M46.5 84.1l1.7-1.7 1.5-1.5 2-2 1.5-1.5.8-.8c-.2-.1-.3-.2-.5-.3-.3-.2-.6-.4-.9-.7l-.3-.3-.6.6-1.5 1.5-2 2-1.5 1.6-1.8 1.8.3.3-2.9 2.9-.7.7-2.3 2.3c.3.2.5.5.8.7l2.3-2.3.1.1 3.7-3.7c0 .1.1.2.3.3zm18.4 5.1l-1.4-1.4-1.5-1.5v-.1l-.1.1-1.5 1.5-1.4 1.4c.2 0 .5 0 .7.1l-7.2 7.2 1.2.3 7.4-7.4h.7l.1-.1.1-.1.1.1.1.1h.7l7.4 7.4 1.2-.3-7.2-7.2c.1-.1.3-.1.6-.1zm-14.3-2.5c.1 0 .1 0 0 0 .1 0 .1 0 0 0l1-.8 1.5-1.5 2-2 1.5-1.5 2-2 .3-.3h-.1c-.2 0-.4-.1-.6-.1h-.1c-.3-.1-.7-.2-1-.3-.1 0-.3-.1-.4-.2 0 0-.1 0-.1-.1L55 79.4l-1.5 1.5-2 2-1.5 1.5-1.3 1.3s.1 0 .1.1c.1.1.2.1.4.2l-6.1 6.1.9.6 6.2-6.2c.1 0 .3.1.4.2zm24.4-1s.1 0 0 0l-1.2-1.4-1.5-1.5-2-2-1.5-1.5-1.3-1.3s-.1 0-.1.1c-.1.1-.3.1-.4.2-.3.1-.7.2-1 .3h-.1c-.2 0-.4.1-.6.1h-.1l.3.3 2 2 1.5 1.5 2 2 1.5 1.5.9.9h.2c.2-.1.3-.2.5-.2l6.2 6.2.9-.6-6.1-6.1c-.3-.3-.2-.4-.1-.5zM70.2 88c.1 0 .2-.1.3-.1l-.1-.1-1.5-1.5-2-2-1.5-1.5-2-2-1.4-1.4v-.1l-.1.1-1.5 1.5-2 2-1.4 1.4-2 2-1.5 1.5-.1.1c.1 0 .2.1.3.1s.2.1.3.1l-6.5 6.5c.3.2.7.3 1 .5l6.6-6.6c.2.1.4.1.5.2h.2l2.7-2.7 1.5-1.5 2-2 2 2 1.5 1.5 2.7 2.7h.2c.2 0 .4-.1.5-.2l6.6 6.6c.3-.1.7-.3 1-.5L70 88.1c0-.1.1-.1.2-.1zm3.1-47.3c-.1 0-.1-.1 0 0-.1 0-.1 0 0 0l-1 .8-1.5 1.5-2 2-1.5 1.5-2 2-.3.3h.1c.2 0 .4.1.6.1h.1c.3.1.7.2 1 .3.1 0 .3.1.4.2 0 0 .1 0 .1.1l1.5-1.5 1.5-1.5 2-2 1.5-1.5 1.3-1.3s-.1 0-.1-.1c-.1-.1-.2-.1-.4-.2l6.1-6.1-.9-.6-6.2 6.2c0-.1-.2-.2-.3-.2zm-19.6-1.3c-.1 0-.2.1-.3.1l.1.1L55 41l2 2 1.5 1.5 2 2L62 48l.1-.1 1.5-1.5 2-2 1.5-1.5 2-2 1.5-1.5.1-.1c-.1 0-.2-.1-.3-.1-.1 0-.2-.1-.3-.1l6.5-6.5c-.3-.2-.7-.3-1-.5L68.8 39c-.2-.1-.4-.1-.6-.2h-.1l-2.7 2.7-1.5 1.5-2 2-2-2-1.5-1.5-2.7-2.7h-.1c-.2 0-.4.1-.6.2l-6.6-6.6c-.3.1-.7.3-1 .5l6.5 6.5c0-.1-.1 0-.2 0zm-4.8 2.2s-.1 0 0 0l1.2 1.4 1.5 1.5 2 2 1.5 1.5 1.5 1.5s.1 0 .1-.1c.1-.1.3-.1.4-.2.3-.1.7-.2 1-.3h.1c.2 0 .4-.1.6-.1h.1l-.3-.3-2-2-1.5-1.5-2-2-1.5-1.5-.9-.9s-.1 0-.1.1c-.2.1-.3.2-.5.2L44 34.7l-.9.6 6.1 6.1c-.1.1-.2.2-.3.2zM59 38.2l1.4 1.4 1.5 1.5.1.1V41l1.5-1.5 1.4-1.4c-.2 0-.5 0-.7-.1l7.2-7.2-1.2-.3-7.4 7.4h-.7l-.1.2v.1l-.1-.1-.1-.1h-.7l-7.4-7.4-1.2.3 7.2 7.2c-.2.1-.4.1-.7.1zM36.4 66c0 .2 0 .4.1.6l1.4-1.4.1-.1 1.4-1.4.1-.1-.1-.1-1.4-1.4-.1-.1-1.4-1.4c0 .2 0 .4-.1.6v.1l-7.1-7.1-.1-.1c0 .1 0 .2-.1.3-.1.3-.2.6-.2.9l7.4 7.4v.7l.1.1.1.1-.1.1-.1.1v.7L28.9 72c.1.3.2.6.2.9 0 .1 0 .2.1.3l.1-.1 7.1-7.1c0-.1 0 0 0 0zm1.3 5.9c0 .1.1.2.1.3l.1-.1 1.5-1.5 2-2 .1-.1 1.4-1.4.1-.1 1.9-1.9 1.5-1.5.1-.1-.1-.1-1.5-1.5L43 60l-.1-.1-1.4-1.4-.1-.1-2-2-1.5-1.5-.1-.1c0 .1-.1.2-.1.3s-.1.2-.1.3l-4.8-4.8-.8-.4-.9-.9c-.2.3-.3.7-.5 1l.6.6.7.7 5.2 5.2c-.1.2-.1.4-.2.5l.2.2.6.6 1.6 1.6.3.3.1.1.1.1 1.2 1.2.1.1 1.9 1.9.1.1-.1.1-1.9 1.9-.1.1-1 1.4-.1.1-.1.1-.3.3-1.6 1.6-.6.6-.2.3c0 .2.1.4.2.5L32 75.7l-.7.7-.6.6c.1.3.3.7.5 1l.9-.9.7-.7 4.8-4.8c0 .1 0 .2.1.3zm39.8-28.6s-.1-.1 0 0l-1.8 1.6-1.5 1.5-2 2-1.5 1.5-.7.7s.1 0 .1.1c.1.1.2.2.3.2.3.2.6.4.9.7l.3.3.1.1.6-.6 1.5-1.5 2-2 1.5-1.5 1.8-1.8-.1-.1-.3-.3 2.9-2.9.7-.7 2.3-2.3c-.3-.2-.5-.5-.8-.7l-2.3 2.3-.1-.1-3.7 3.7-.2-.2zm10.1 20.6l-.2-.2.1-.1.1-.1v-.7l7.4-7.4c-.1-.3-.2-.6-.2-.9 0-.1 0-.2-.1-.3l-.1.1-7.1 7.1c0-.2 0-.5-.1-.7L86 62.1l-1.5 1.5-.1.1.1.1 1.5 1.5 1.4 1.4c0-.2 0-.5.1-.7l7.1 7.1.1.1c0-.1 0-.2.1-.3.1-.3.2-.6.2-.9l-7.4-7.4v-.7zm8.3-2.6c0-.5-.1-.9-.1-1.3l-3.7 3.7 3.7 3.7c0-.4.1-.9.1-1.3l-2.3-2.3 2.3-2.5zM35.4 48.2l3.7 3.7c-.1.2-.2.3-.2.5l.9.9.2.2 1.2 1.2 2 2 .1.1 1.4 1.4.1.1 1.9 1.9.3.3c0-.2.1-.4.1-.6v-.1c.1-.3.2-.7.3-1 .1-.2.1-.4.2-.6l-1.5-1.5-1.5-1.5-2-2-1.5-1.5-1.1-1.2c-.1.2-.2.3-.3.5l-3.5-3.5-.7-.7-1.9-1.9-.6.9 1.7 1.7.7.7zM84.2 51c-.1-.2-.2-.3-.3-.5l-1.3 1.3-1.5 1.5-2 2-1.5 1.5-1.5 1.5c.1.2.1.4.2.6.1.3.2.7.3 1v.1c0 .2.1.4.1.6l.3-.3 2-2 1.5-1.5 2-2 1.5-1.5.9-.9c-.1-.2-.2-.3-.2-.5l3.7-3.7.7-.7 1.7-1.7-.6-.9-1.9 1.9-.7.7-3.4 3.5zM65.6 29.8c-.4 0-.9-.1-1.3-.1L62 32l-2.3-2.3c-.5 0-.9.1-1.3.1l3.7 3.7 3.5-3.7zm16 56.2l-2.9-2.9.3-.3-1.8-1.8-1.5-1.5-2-2-1.5-1.5-.6-.6-.3.3c-.3.2-.6.5-.9.7-.2.1-.3.2-.5.3l.8.8 1.5 1.5 2 2 1.5 1.5 1.7 1.7c.1-.1.3-.2.4-.3l3.7 3.7.1-.1 2.3 2.3c.3-.2.5-.4.8-.7l-2.3-2.3-.8-.8zm10.3-10.3l-5.2-5.2c.1-.2.1-.4.2-.6l-.9-.7-2-2-1.5-1.5-2-2-.1-.1.1-.1 2-2L84 60l2-2 .8-.8c0-.2-.1-.4-.2-.6l5.2-5.2.7-.7.6-.6c-.1-.3-.3-.7-.5-1l-.9.9-.7.7-4.8 4.8c0-.1-.1-.2-.1-.3s-.1-.2-.1-.3v.3l-1.5 1.5-2 2-1.5 1.5-2 2-1.5 1.5-.1.1.1.1 1.5 1.5 2 2 1.5 1.5 2 2 1.5 1.5.1.1c0-.1.1-.2.1-.3 0-.1.1-.2.1-.3l4.8 4.8.7.7.9.9c.2-.3.3-.7.5-1l-.6-.6-.7-1zm-3.4 3.5l-3.7-3.7c.1-.2.2-.3.2-.5l-.9-.9-1.5-1.5-2-2-1.5-1.5-2-2-.3-.3c0 .2-.1.4-.1.6v.1c-.1.3-.2.7-.3 1-.1.2-.1.4-.2.6l1.5 1.5 1.5 1.5 2 2 1.5 1.5 1.3 1.3c.1-.2.2-.3.3-.5l3.5 3.5.7.7 1.9 1.9.6-.9-1.7-1.7-.8-.7zM28.1 60c0 .4-.1.9-.1 1.3l2.3 2.3L28 66c0 .5.1.9.1 1.3l3.7-3.7-3.7-3.6zm14.2-18.7l2.9 2.9-.3.3-.1.1 1.8 1.8 1.5 1.5 2 2 1.5 1.5.6.6.1-.1.3-.3c.3-.2.6-.5.9-.7.1-.1.2-.2.3-.2 0 0 .1 0 .1-.1l-.8-.8-1.5-1.5-2-2-1.5-1.5-1.7-1.7-.3.3-3.7-3.7-.1.1-2.3-2.2c-.3.2-.5.4-.8.7l2.3 2.3.8.7zM85 82.6l-3-3c.1-.1.2-.3.3-.4l-1.7-1.7-1.5-1.5-2-2-1.5-1.5-.8-.8c-.1.1-.2.3-.3.4-.2.3-.4.6-.6.8-.1.1-.2.3-.3.4l.6.6 1.5 1.5 2 2 1.5 1.5 1.8 1.8c.1-.1.2-.3.3-.4l2.9 2.9.7.7 2.3 2.3c.2-.3.5-.5.7-.8l-2.3-2.3-.6-.5zm-3.6-35.7c-.1-.1-.2-.3-.3-.4l-1.8 1.8-1.5 1.5-2 2-1.5 1.5-.6.6c.1.1.2.3.3.4.2.3.4.6.6.8.1.1.2.3.3.4l.8-.8 1.5-1.5 2-2 1.5-1.5 1.7-1.7c-.1-.1-.2-.3-.3-.4l3-3 .7-.7 2.3-2.3c-.2-.3-.4-.5-.7-.8L85 43.3l-.7.7-2.9 2.9zM58.3 97.6c.4 0 .9.1 1.3.1l2.3-2.3 2.3 2.3c.5 0 .9-.1 1.3-.1L62 93.9l-3.7 3.7zM42.5 80.4c.1.1.2.3.3.4l1.8-1.8 1.5-1.5 2-2 1.5-1.5.6-.6c-.1-.1-.2-.3-.3-.4-.2-.3-.4-.6-.6-.8-.1-.1-.2-.3-.3-.4l-.8.8-1.5 1.5-2 2-1.5 1.5-1.7 1.7c.1.1.2.3.3.4l-3 3-.7.7-2.3 2.3c.2.3.4.5.7.8l2.3-2.3.7-.7 3-3.1zm-2.8-4c.1.2.2.3.3.5l1.3-1.3 1.5-1.5 2-2 1.5-1.5.1-.1 1.4-1.4c-.1-.2-.1-.4-.2-.6-.1-.3-.2-.7-.3-1v-.1c0-.2-.1-.4-.1-.6l-.3.3L45 69l-.1.1-1.4 1.4-.1.1-2 2-1.4 1.3-.2.2-.9.9c.1.2.2.3.2.5l-3.7 3.7-.7.7-1.7 1.7.6.9 1.9-1.9.7-.7 3.5-3.5zm-.8-31.7l3 3c-.1.1-.2.3-.3.4l1.7 1.7 1.5 1.5 2 2 1.5 1.5.8.8c.1-.1.2-.3.3-.4.2-.3.4-.6.6-.8.1-.1.2-.3.3-.4l-.6-.6-1.5-1.5-2-2-1.5-1.5-1.8-1.8c-.1.1-.2.3-.3.4l-3-3-.7-.7-2.3-2.3c-.2.3-.5.5-.7.8l2.3 2.3.7.6z" opacity=".5"/><path d="M74.4 61.8c.1-.7.1-1.5.1-2.2 0-2.5-2-5.7-5.4-7.7-1.3-.7-2.9-1.3-4.7-1.6-.7 0-1.5-.1-2.3-.1-.9 0-1.8 0-2.5.1-1.8.3-3.4 1-4.7 1.8-3.4 2-5.4 5.3-5.4 7.6 0 .7 0 1.5.1 2.2.4 2.5 1.5 4.1 1.8 5 .4 1.5.3 2.3.1 2.9-.1.4-.3.6-.3.6s.3 2.3 1 3.4c.3.3.9.4 1.6.4 1.3 0 2.9.1 2.9 2.8 0 0 .9.6 2.9.9.6.1 1.5.1 2.3.1.9 0 1.8 0 2.3-.1 2-.3 2.9-.9 2.9-.9 0-2.5 1.5-2.6 2.8-2.8.7 0 1.3 0 1.6-.4.7-1 1-3.4 1-3.4s-.1-.1-.3-.6c-.3-.6-.4-1.5 0-2.8.6-1.1 1.6-2.7 2.2-5.2zM58.3 70c-.7.3-1.8.6-2.5.7h-.4c-.9 0-1.6-.4-1.9-1.2s-.3-1.8-.1-2.6c0-.3 0-.4.1-.6.4-.7 1.2-1.3 2-1.6.4-.1 1-.1 1.5-.1.6 0 1.2 0 1.6.3.7.4 1.2 1.5 1.2 2.5-.2.8-.7 2-1.5 2.6zm3.7 3.8c-1.3 0-1.6-.4-1.6-.4s0-3.9 1.6-3.9c1.5 0 1.6 3.9 1.6 3.9s-.3.4-1.6.4zm8.6-4.5c-.3.6-1 1.2-1.9 1.2h-.6c-.7-.1-1.8-.4-2.3-.7-.9-.4-1.5-1.6-1.5-2.5s.6-2 1.2-2.5c.3-.1.9-.3 1.6-.3.6 0 1 0 1.5.1.7.3 1.5.9 1.9 1.5.1.1.3.4.3.6.1.7.1 2-.2 2.6z"/><path d="M35.9 89.7c1.1-3.3.1-6.9-2.7-9.3-2.3 3.6.1 7.7 2.7 9.3zm-6.6-14.6c-1.2 1.1-3 5.7 1 9.4 1.2-2.6 1.6-6.7-1-9.4zm-3.6-32.8c-5.1 4.6-5.8 8.2-4.3 12.8 2.2-1.9 4.1-7.3 4.3-12.8zM25.5 78c1.8-2.2 3.1-5 .8-8.3-2.7 1.3-2.3 5.8-.8 8.3zm.4-13.9c-3 1.3-4.4 4.6-3.3 7.3 2-1.4 4.6-4.6 3.3-7.3zm-.2-6.3c-1.2.3-4.7 2.8-4.1 7.3 2.4-1.1 5.1-3.2 4.1-7.3zm.7-6c-2.2.6-4.9 4.1-4.8 7.4 2.1-.9 5.4-4.5 4.8-7.4zm10 38.7c-3.2-2.8-8.4-3.7-10.9-2.8 2 3.4 6.8 4.8 10.7 3 0-.1.1-.2.2-.2zm1.9-4.3c-.8 1.3-1 5.2 4.2 7.6.2-2.6-.9-6.8-4.2-7.6zm-6.2 7.4c3.1 2.7 7.9 3.1 11.5.9-2.3-1-8-2.4-11.5-.9zm17.5 2.9c-.2-2.6-1.8-5.9-6-6.7-.3 1.5.2 5.3 6 6.7zm1.2.7c-2.6-.7-9.7-1.4-12.8.8 4 2.4 9.3 2.1 12.8-.8zm.2-4.3c-.2 3.2 3.4 5 7.6 5.3-.9-3.2-4.6-4.7-7.6-5.3zm7.5 5.7c-2.7-.2-9.1-.6-10.7 1.4 7.6 2.6 10.6.2 10.7-1.4zm-28-13.1c-1-1.1-6.3-5.3-9.3-5.2-.3 5.6 6.3 5.2 9.3 5.2zM26 79.3c-1.3-2.2-4.6-6.3-8.2-6.7-.3 4.5 4.1 6.8 8.2 6.7zm-3.5-6.8c-.6-2-1.3-5.4-5-7.1-1.3 4 2.7 6.8 5 7.1zm-1.1-6.4c-.2-2.1-1.7-6.3-4-7-1.9 5 2.5 6.5 4 7zm-.2-5.5c.2-1.9.4-6.4-2.6-9.1-2 6.2 1.5 8.7 2.6 9.1zM88 89.7c2.6-1.7 5-5.8 2.7-9.3-2.8 2.5-3.9 6-2.7 9.3zm6.6-14.6c-2.6 2.7-2.2 6.8-1 9.4 4.1-3.6 2.2-8.2 1-9.4zm3.6-32.8c.2 5.4 2 10.9 4.3 12.8 1.4-4.6.8-8.2-4.3-12.8zm-.7 27.2c-2.3 3.4-1 6.1.8 8.3 1.6-2.3 2-6.8-.8-8.3zm.5-5.4c-1.3 2.8 1.2 5.9 3.3 7.3 1.2-2.9-.3-6-3.3-7.3zm.2-6.3c-1 4 1.8 6.2 4.1 7.3.5-4.5-2.9-7-4.1-7.3zm-.7-6c-.6 3 2.7 6.6 4.8 7.4.2-3.3-2.6-6.9-4.8-7.4zm.9 35.8c-2.4-.9-7.7.1-10.9 2.8 3.8 2 8.6.9 10.8-2.6 0 .1.1-.1.1-.2zm-17 6.1c5.2-2.3 5-6.2 4.2-7.6-3.3.9-4.4 5.1-4.2 7.6zm10.4-.1c-3.6-1.6-9.2-.1-11.5.9 3.5 2.2 8.4 1.9 11.5-.9zm-17.5 2.9c5.9-1.4 6.4-5.2 6-6.7-4.2.8-5.8 4.2-6 6.7zm-1.2.7c3.6 3 8.9 3.3 12.8.8-3.2-2.3-10.3-1.5-12.8-.8zm-.2-4.3c-3 .6-6.8 2.1-7.6 5.3 4.2-.2 8-2.1 7.6-5.3zm-7.5 5.7c0 1.6 3.1 4 10.7 1.4-1.5-1.9-7.9-1.6-10.7-1.4zm37.3-18.3c-3-.1-8.4 4.1-9.3 5.2 3 0 9.6.4 9.3-5.2zm3.4-7.7c-3.7.4-6.9 4.6-8.2 6.7 4.1.1 8.5-2.2 8.2-6.7zm.3-7.2c-3.6 1.7-4.4 5.1-5 7.1 2.3-.3 6.3-3.1 5-7.1zm.1-6.3c-2.3.7-3.8 4.9-4 7 1.5-.5 5.9-2 4-7zm-3.8 1.5c1.1-.4 4.6-3 2.6-9.1-3 2.8-2.8 7.3-2.6 9.1z" opacity=".75"/><path d="M63.5 25.1L62.1 22l-1.6 3.2-3.5.5 2.6 2.4-.7 3.5 3.2-1.7 3.1 1.7-.7-3.5 2.5-2.4-3.5-.6zm.7 77.3l-2.1-4.5-2.3 4.6-5 .7 3.7 3.5-.9 5 4.5-2.4 4.5 2.4-1-5 3.6-3.5-5-.8z"/></svg>