<svg viewBox="0 0 124 129"><path d="M35.6 57.5l4.6 5.8-7.3 1.4L15.3 54l20.3 3.5zM64 44.4l1.4 7.3 5.8-4.6 3.4-20.2L64 44.4zm-2.3-1.9h.5l.1-16.7h-.5l-.1 16.7zm-.1 0l-.2-18.1H61l.2 18.1h.4zm-.5 0l-.5-16.9h-.5l.5 17c.2-.1.3-.1.5-.1zm5.9-3.6l.7-1 1.7-11.6-.5-.1L67 38.9zm-7.2 3.7l-1.1-18h-.5l1.1 18h.5zm3-.1l.5-18.8h-.5l-.5 18.9c.2-.1.3-.1.5-.1zm4-3.2l1.9-14.2-.5-.1-2 15.3.6-1zm-2.1 3.4l.5-.8 1.6-17h-.5l-1.6 17.8zm-.7-.1l1.1-19.5h-.5l-1.1 19.5h.5zm-11.1 1.1l-4.8-17.2-.5.1 4.8 17.2c.2 0 .4-.1.5-.1zm1.1-.2l-4-16.6-.5.1 4 16.6c.3-.1.4-.1.5-.1zm.7-.2l-3.9-17.5-.5.1 3.9 17.5c.1 0 .3 0 .5-.1zm1.1-.2l-3.4-18.2H52l3.4 18.2c.1.1.2 0 .4 0zm-2.8.5c.2 0 .3-.1.5-.1l-3.8-14.9-.5.1L53 43.6zm5.2-.9L56 23.3l-.5.1 2.2 19.4c.1 0 .3-.1.5-.1zm-2.3.4c.2 0 .3-.1.5-.1l-2.7-16.3-.5.1 2.7 16.3zm2.9-.4h.5L58 26.8h-.5l1.3 15.9zm-.6 0h.5L57 25.3h-.5l1.7 17.4zm-1.3.2l-2.6-17.5-.5.1L56.5 43c.2-.1.3-.1.4-.1zm8.5-17.6l-1.3 17.3h.5l1.3-17.3h-.5zm-6 3.4l.6 13.9h.5l-.7-13.9h-.4zm-4.2-.4l2 14.6c.2 0 .3 0 .5-.1l-2-14.6-.5.1zm-2.8 3.8l2.2 11.1c.2 0 .3-.1.5-.1L52.9 32l-.5.1zm11.2-4.7l-.7 15.2h.5l.6-15.3-.4.1zM30.1 39.6l9.6 11.2c.1-.1.3-.2.4-.3l-9.6-11.2-.4.3zm22.3 4.3l-4.8-16.1-.5.1L51.9 44c.2-.1.4-.1.5-.1zm17.8-15.1l-1.3 6.9.7-1.1 1-5.7-.4-.1zm2.4 1l.7-1.3.2-.9-.4-.1-.5 2.3zm-5.5-3.4l-1.7 15.2.6-.9 1.6-14.2h-.5zM25.7 48.8l9.3 7.1c.1-.1.2-.3.3-.4L26 48.4l-.3.4zM72 30.7l1.1-5.1-.5-.1-1.4 6.5.8-1.3zM17.6 53.6l1.6.8 1.5.3-2.9-1.5-.2.4zm53.1-20.8l1.4-6.9-.5-.1-1.7 8.1.8-1.1zM25.4 55.4l-5.3-3-.2.4 4.2 2.3 1.3.3zM18.6 51l7.6 4.5 1.3.2-8.7-5.1-.2.4zm8.7-10.7L38.4 52c.1-.1.2-.2.4-.3L27.6 39.9l-.3.4zm.1 3.7l9.8 9.3c.1-.1.2-.2.3-.4l-9.8-9.3-.3.4zm41.1-7.7l1.9-11.4-.5-.1-2.1 12.5.7-1zM20.9 49.4l10.5 7 1.1.2-11.4-7.5-.2.3zm22.9-1.7L34 32.3l-.4.3L43.5 48c.1-.2.2-.2.3-.3zm-6.7 5.6L25.2 42.4l-.3.4 11.9 10.9c.1-.1.2-.2.3-.4zm.8-.9L24.6 39.3l-.4.4 13.4 13.1c.1-.1.2-.3.3-.4zm-2 2.2L23.2 44.1l-.3.4L35.7 55c0-.1.1-.2.2-.4zm.5-.4l-14-11.9-.3.4L36 54.6c.1-.2.2-.3.4-.4zm.3-.5L23.6 42.2l-.3.4 13.1 11.5c.1-.2.2-.3.3-.4zm3.8-3.6l-11.6-14-.4.3 11.6 14c.2-.1.3-.2.4-.3zm.4-.4L30.3 36.3l-.4.3L40.6 50c.2-.1.2-.2.3-.3zm-1.7 1.5L26.3 37.3l-.3.3 12.8 13.9c.2 0 .3-.2.4-.3zm-.9.9L25.7 39.2l-.4.4 12.6 12.8c.2-.2.3-.2.4-.3zm1.3-1.3L28.2 38l-.4.3 11.4 12.8c.2-.1.3-.2.4-.3zM18 54.1l-1.6-.8-.3.5.3.1 1.6.2zm5.3 1l-6.5-3.5-.2.4 5.2 2.8 1.5.3zm6 1L17.6 49l-.3.4 10.8 6.5 1.2.2zM51.8 44l-5.6-17.6-.5.2 5.6 17.6c.2-.1.4-.1.5-.2zM35.5 55.1L21.6 44l-.3.4 13.9 11 .3-.3zm-.6.9l-12.5-9.3-.4.4 12.5 9.3c.2-.1.3-.2.4-.4zm-.9.8L19 46.5l-.3.4 14.1 9.7 1.2.2zm-3-.4l-12.5-8-.3.4 11.5 7.3 1.3.3zm3.3.4c.1-.1.2-.2.2-.3L20.3 46.4l-.3.3 14.3 10.1zm13.5-11.2c.1 0 .2-.1.2-.1l-8.1-17.7-.5.2 8.1 17.7c.1 0 .2-.1.3-.1zm.7-.4L42.7 32l-.4.2 5.8 13.2c.1 0 .2-.1.4-.2zm.6-.2l-6.6-16-.5.2 6.6 16c.2-.1.3-.2.5-.2zm-1.7.7l-7.8-16.2-.5.2L47 46c.1-.1.3-.2.4-.3zm3.8-1.5l-4.6-13.7-.5.2 4.6 13.7c.3-.1.4-.1.5-.2zm-.5.2l-6-16.7-.5.2 6 16.7c.2-.1.4-.1.5-.2zM46.9 46l-8.3-16.7-.4.2 8.2 16.7c.2 0 .3-.1.5-.2zm2.7-1.1l-6.5-16.7-.5.2L49.2 45c.1-.1.3-.1.4-.1zm.5-.3l-5.7-15.2-.5.2 5.7 15.2c.2-.1.4-.1.5-.2zm-7.2 3.7L32.8 33.8l-.4.2 10 14.6c.2-.1.3-.2.5-.3zm-.6.4l-9.5-13.3-.4.3L42 49c.2-.1.3-.2.3-.3zm-.9.6l-11.5-15-.4.3L41 49.5c.2 0 .3-.1.4-.2zm.5-.2l-11-14.9-.4.3 11 14.8c.2 0 .3-.1.4-.2zm1.5-1.1L34 34l-.4.3 9.4 14c.1-.1.2-.2.4-.3zm1.9-1.2l-9.6-16.9-.4.2L45 47c.1-.1.2-.1.3-.2zm-1 .6L35 32.2l-.4.3 9.3 15.2c.1-.1.3-.2.4-.3zm2.1-1.1l-7.7-14.6-.4.2L46 46.4c.1 0 .3 0 .4-.1zm-.5.2l-8.3-15.2-.4.2 8.3 15.2c.1-.1.2-.1.4-.2zm-1 .6L36.5 33l-.4.3 8.3 14.1c.2-.1.3-.2.5-.3zm18.7-2.8l.8-1.3c-5.6-.5-11.3.6-16.5 2.9-5.3 2.4-9.9 6.2-13.3 10.9l1.1.2 2.9 3.7c1.9-2.8 4.1-5.1 6.8-7.1l.1-.1.9 1.7-.1.1c-2 1.1-2.8 2.8-3 3.3 3.9.3 7.2 2.1 8.7 2.9.2.1.3.2.5.3.9.5 4.2.8 5.9 1 1.3.1 1.8 0 1.9-.4.3-3.2.9-6.2 1.2-6.8.1-.4.2-.7 0-.8-.1-.1-.2-.2-.5-.2-.1 0-.2 0-.4-.1-1.2-.2-4.3-.6-7.5-.5H53v-.1l-1.8-3.3h.1c4.1-1.7 8.6-2.3 13-1.9l-.7-4.4zm15.2 19.1c.1 0 .5-.1.8-.1l.6-.5c-.8-.6-3.9-2.4-12.5-5.5-.2-.1-.3-.2-.4-.3l-5.6-.7c-.3 1.1-.7 3.6-1 6.1 0 .3-.2.5-.5.7L77 65.9s0-.1-.1-.1c-.2-.3-.3-.6-.2-.8.1-.4.3-.7.7-.8.4-.3 1.3-.8 1.4-.8zm4.5 20.7c0 .3.4.6.6.7.2.1 5.6 2.7 6.1 3 .3.2.7.3 1 .1.3-.1.4-.4.5-.7 1.7-10.2-.8-19.3-7.5-26.8-4.5-5.1-9.5-8-12.2-9.4-.1 0-.1-.1-.2-.1-.8-.5-1-.2-1-.2s-.9 1.1-1.5 1.8c-.2.2-.3.4-.2.6 0 .2.2.4.2.4l1.1.8-2.5 2.1c-.1.1-.3.3-.3.4l.1.1c10.9 3.8 12.9 5.8 13 5.8l.1.1-1.1.9h-.1c-.3-.1-.7 0-.7.1-.1.1-.9.6-1.3.7-.2.1-.4.3-.4.5 0 .1 0 .3.1.5 3.9 5.1 6.2 18.5 6.2 18.6zm3.8 2.8c-1.4-.7-2.8-1.4-3.3-1.6l-.1-.1c-.1-.1-.7-.5-.7-1v-.3c-.3.7-.7 1.4-1.6 1.7-.9.4-2.2 0-3.6-1-3.9-3.1-19.4-13.7-21.3-15l-2.6 2.5c-.2.6-.2 5 .5 7.4.7 2.4 1.9 3.9 2.2 4.1 16.7 9.4 27 17.4 28.2 18.6.4.4.7.6.9.6.3-.1.4-.5.4-.5v-.1s1.3-1.6 1.6-2.1c.3-.5.8-1.3.3-3.5-.5-1.5-.8-6.8-.9-9.7zm-4.4-3.8c-.6-2.9-2.6-12.3-5.3-16.7l-17.8-3-3 5.8c1.3.8 17.3 11.8 21.3 15 1.1.9 2.2 1.3 3 1 1.1-.2 1.6-1.4 1.8-2.1zm-24.6-20c-1.2-.1-4.7-.5-5.7-1-.1-.1-.2-.1-.4-.2h-.1c-1.4-.7-4.7-2.6-8.6-2.8H43c-.5.6-.6 1.3-.4 2.2.4 2 .5 5.7.6 8v1.5c.1 1.5.6 5.7 1.2 7.1h.4c1.2 0 5.1.2 9.2 1.8 0-.1 0-.1-.1-.2-.7-2.4-.7-7.1-.5-7.7l.1-.1 2.7-2.5 3-5.9-1.1-.2zm24.1 37.4c-2.5-2-11.3-8.5-25.8-16.6-.6-.3-1.5-1.7-2.2-3.6l-.2-.1c-5-2.1-9.5-1.9-9.6-1.9h-.2l-.2-.1v-.1c-.9 1.2-2.3 3.6-1.5 7 .1.6 1 1.1 2.2 1.2.7.1 5.1 1 10.5 3.4 5.1 2.2 12.4 6.1 18.7 12.6 1 1 3.2.7 4.2-.2.4-.4.9-.4 1.5-.4.7-.1 1.7-.2 2.6-1.2z" opacity=".95"/><path d="M62.1 104.5c-8.5 0-15.8 4.8-19.5 11.7 4.8 3.4 10.2 6.4 16.3 8.9 2.3.9 3.1.8 3.1.8s.8.2 3.1-.8c6.1-2.5 11.5-5.5 16.3-8.9-3.5-6.9-10.8-11.7-19.3-11.7zm-16.6 10.8s4.3-7.8 14.3-9.3c0 0-8.8 2.7-14.3 9.3z" opacity=".25"/><path d="M95.8 68.2c-2.6 3.2-2.2 8-1 11 4.1-4.1 2.3-9.6 1-11zM30.6 79.3c1.2-3.1 1.6-7.9-1-11-1.3 1.3-3.1 6.6 1 11zm10.7 6.1c-.2-.8-.3-1.7-.3-2.4-.7-.8-1.4-1.4-2.4-1.7-.7 1.5-.9 6.1 4.4 8.9.1-.9 0-2.1-.2-3.2-.8-.4-1.3-1-1.5-1.6zm2.8 2.1c.4 2.1 1.8 4.7 6.1 5.9-.1-1.5-.6-3.3-1.5-4.8-2.5-.7-4.1-1-4.2-1-.2-.1-.3-.1-.4-.1zM25.7 71.6c1.7-2.4 3-5.5 1.1-9.1l-.7-.4c-2.3 1.7-1.8 6.7-.4 9.5zM25 61.4l-2.4-1.5c-.3 1.3-.3 2.7.2 3.9.7-.5 1.5-1.4 2.2-2.4zm74.5-13.5c-1 4.7 1.9 7.3 4.1 8.6.5-5.3-2.9-8.2-4.1-8.6zm4.5 3.3c1.1-.5 4.7-3.6 2.6-10.7-3 3.3-2.8 8.6-2.6 10.7zm-.2 6.5c1.5-.6 6-2.3 4-8.2-2.2.8-3.8 5.7-4 8.2zM36.3 85.4c1.1-3.8.1-8.1-2.7-10.9-2.4 4.2 0 9 2.7 10.9zm62.9-30.1c-1.3 3.3 1.2 6.9 3.4 8.6 1.2-3.4-.3-7.1-3.4-8.6zm-.5 6.4c-2.3 4-1 7.2.8 9.7 1.7-2.7 2.1-8-.8-9.7zm4.9-12.2c.2-3.8-2.6-8.1-4.9-8.7-.6 3.6 2.8 7.8 4.9 8.7zm-4.1-19.8c.2 6.4 2.1 12.8 4.4 15.1 1.3-5.5.7-9.7-4.4-15.1zm-8.8 59.6c-.2 0-.5 0-.7-.1-.6 0-1.1-.1-1.7 0 .1 1.2.2 2.3.2 3.3 1.6-.4 3.1-1.2 4.3-2.5-.6-.4-1.3-.6-2.1-.7.1 0 .1 0 0 0zm-42.4 8.1c7.7 3.1 10.8.3 10.9-1.7-2.7-.1-9.3-.6-10.9 1.7zm44.8-14c-.1 1.3-.2 2.6-.5 3.9 2.7 0 5.3-1.5 6.8-4.2 0 .1.1-.1.1-.3-1.3-.5-3.8-.3-6.4.6zM22.2 40.8l.7.6.6-.7.3.2v-.1l-1-1 1.9-1.9.2.2c0-.1 0-.1.1-.2l-.3-.3.5-.5c.6-2.3.9-4.9 1-7.5-4.4 4.6-5.5 8.2-4.9 12.5l.9-1.3zm80.5 24.4c2.3-.4 6.4-3.6 5.1-8.3-3.7 1.9-4.5 5.9-5.1 8.3zm-3.6 8c4.1.1 8.6-2.6 8.3-7.9-3.7.4-7 5.4-8.3 7.9zm-4.5 7.2c3.1 0 9.7.5 9.4-6.1-3-.1-8.5 4.9-9.4 6.1zm-43 9.2c.1 3.5 3.6 5.4 7.7 5.7-.3-1.3-1-2.3-2-3.3-2-1-4-1.8-5.7-2.4zM22.7 65.2c-.6-2.1-1.1-5.4-3.8-7.5l-1.2-.7c-1.4 4.6 2.7 7.8 5 8.2zm15.7 29.9c4 2.8 9.4 2.4 13-.9-2.7-.9-9.9-1.6-13 .9zM17.9 65.2c-.3 5.2 4.1 8 8.3 7.9-1.3-2.5-4.6-7.4-8.3-7.9zm.8-20.1l.7.5.6-.7 1.2.8v-.1l-1.4-1.1.8-1c-.4-1.1-1-2.2-1.9-3.1-.6 2.2-.7 3.9-.6 5.3l.6-.6zM44.1 91c-2.3-1.2-8.1-2.8-11.7-1 3.1 3.1 8 3.6 11.7 1zm-7.6-4.4c0-.1.1-.3.2-.3-3.3-3.3-8.5-4.3-11-3.3 2.1 4 6.9 5.6 10.8 3.6zm-5.8-6.2c-1-1.3-6.4-6.3-9.4-6.1-.3 6.6 6.5 6.1 9.4 6.1z" opacity=".75"/><path d="M93.9 48.3s.7 1.8 3.7 2.1c0 0-2.7-2.9-2.8-4-.1-1.1-1.6-2.3-2.9-2.7-1-.4-2.2-.7-2.8-1.4.7-.7 1.8-1 2.8-1.4 1.3-.5 2.8-1.6 2.9-2.7.1-1.1 2.8-4 2.8-4-3 .3-3.7 2.1-3.7 2.1-.5 1.1-3.7 1.6-2.9 1.3.8-.2 1.8-1.5 2.2-2.5.6-1.4 3.9-2.1 3.9-2.1s-.6-.3-2.7-.3c-2.1.1-2 1.7-3 2.8-.7.7-1.2.4-2.3 1.2-1.2 1-1.6 2.8-1.7 3.9-.1-1-.5-2.9-1.7-3.9-1-.9-1.6-.5-2.3-1.2-1-1.1-.9-2.7-3-2.8-2.1-.1-2.7.3-2.7.3s3.3.7 3.9 2.1c.4.9 1.4 2.2 2.2 2.5.8.2-2.4-.2-2.9-1.3 0 0-.7-1.8-3.7-2.1 0 0 2.7 2.9 2.8 4 .1 1.1 1.6 2.3 2.9 2.7 1 .4 2.2.7 2.8 1.4-.7.7-1.8 1-2.8 1.4-1.3.5-2.8 1.6-2.9 2.7-.1 1.1-2.8 4-2.8 4 3-.3 3.7-2.1 3.7-2.1.5-1.1 3.7-1.6 2.9-1.3-.8.2-1.8 1.5-2.2 2.5-.6 1.4-3.9 2.1-3.9 2.1s.6.3 2.7.3c2.1-.1 2-1.7 3-2.8.7-.7 1.2-.4 2.3-1.2 1.2-1 1.6-2.8 1.7-3.9.1 1 .5 2.9 1.7 3.9 1 .9 1.6.5 2.3 1.2 1 1.1.9 2.7 3 2.8 2.1.1 2.7-.3 2.7-.3s-3.3-.7-3.9-2.1c-.4-.9-1.4-2.2-2.2-2.5-.8-.3 2.4.2 2.9 1.3zm-3.1-9.6c1.3 1.3-2.4 2-2.4 2s1-3.3 2.4-2zm-6.8 0c1.3-1.3 2.4 2 2.4 2s-3.7-.7-2.4-2zm0 7c-1.3-1.3 2.4-2 2.4-2s-1.1 3.3-2.4 2zm3.4-2.5c-.5 0-1-.4-1-1s.4-1 1-1c.5 0 1 .4 1 1s-.5 1-1 1zm3.4 2.5c-1.3 1.3-2.4-2-2.4-2s3.7.7 2.4 2z"/></svg>