<svg viewBox="0 0 124 129"><path opacity=".25" d="M61.2 86.2h2.2v2.5c0 .8-.2 1.8-.3 2.7-.2.3-.2.8-.2 1.3l-.9 1.8-.8-2c-.2-.3-.2-.8-.2-1.3-.2-.8-.3-1.7-.3-2.7V86c0 .2.5.2.5.2zM87 30.3c0 .5-.3.8-1 .8V76H65.7V33.7c-1.2.8-1.8 2-2.3 3V85h-2.7V36.7c-.5-1.2-1.3-2.2-2.3-3v42.5H37.7v-45c-.4-.2-.7-.4-.7-.9s.3-.8.7-.8H51c2.5 0 4.8.7 6.8 1.7.2 0 .2.2.2.2 1.3.8 2.7 1.8 3.5 3.2l.3.5.3-.5c.8-1.2 2-2.2 3.3-3 .2 0 .2-.2.3-.2 1.7-1.2 4.2-1.8 6.7-1.8h13.3c1-.1 1.3.2 1.3.7zm-32.5 2c-1.2-.3-2.3-.7-3.3-.7H38.8c.8.8 4.3 1.5 8.5 1.5 3 .1 5.7-.3 7.2-.8zm30.3-.6H72.7c-1.2 0-2.2.3-3.3.7 1.7.5 4.2.8 7.2.8 3.9 0 7.4-.7 8.2-1.5z"/><path opacity=".5" d="M78.9 89.1H45.1l-.9-.5-16.8-29.3v-1L44.3 29l.9-.5H79l.9.5 16.9 29.3v1L79.7 88.6l-.8.5zm-33.3-1.9h32.6l16.4-28.4-16.3-28.4H45.6L29.4 58.8l16.2 28.4z"/><path opacity=".75" d="M35.9 89.7c1.1-3.3.1-6.9-2.7-9.3-2.3 3.6.1 7.7 2.7 9.3zm-6.6-14.6c-1.2 1.1-3 5.7 1 9.4 1.2-2.6 1.6-6.7-1-9.4zm-3.6-32.8c-5.1 4.6-5.8 8.2-4.3 12.8 2.2-1.9 4.1-7.3 4.3-12.8zM25.5 78c1.8-2.2 3.1-5 .8-8.3-2.7 1.3-2.3 5.8-.8 8.3zm.4-13.9c-3 1.3-4.4 4.6-3.3 7.3 2-1.4 4.6-4.6 3.3-7.3zm-.2-6.3c-1.2.3-4.7 2.8-4.1 7.3 2.4-1.1 5.1-3.2 4.1-7.3zm.7-6c-2.2.6-4.9 4.1-4.8 7.4 2.1-.9 5.4-4.5 4.8-7.4zm10 38.7c-3.2-2.8-8.4-3.7-10.9-2.8 2 3.4 6.8 4.8 10.7 3 0-.1.1-.2.2-.2zm1.9-4.3c-.8 1.3-1 5.2 4.2 7.6.2-2.6-.9-6.8-4.2-7.6zm-6.2 7.4c3.1 2.7 7.9 3.1 11.5.9-2.3-1-8-2.4-11.5-.9zm17.5 2.9c-.2-2.6-1.8-5.9-6-6.7-.3 1.5.2 5.3 6 6.7zm1.2.7c-2.6-.7-9.7-1.4-12.8.8 4 2.4 9.3 2.1 12.8-.8zm.2-4.3c-.2 3.2 3.4 5 7.6 5.3-.9-3.2-4.6-4.7-7.6-5.3zm7.5 5.7c-2.7-.2-9.1-.6-10.7 1.4 7.6 2.6 10.6.2 10.7-1.4zm-28-13.1c-1-1.1-6.3-5.3-9.3-5.2-.3 5.6 6.3 5.2 9.3 5.2zM26 79.3c-1.3-2.2-4.6-6.3-8.2-6.7-.3 4.5 4.1 6.8 8.2 6.7zm-3.5-6.8c-.6-2-1.3-5.4-5-7.1-1.3 4 2.7 6.8 5 7.1zm-1.1-6.4c-.2-2.1-1.7-6.3-4-7-1.9 5 2.5 6.5 4 7zm-.2-5.5c.2-1.9.4-6.4-2.6-9.1-2 6.2 1.5 8.7 2.6 9.1zM88 89.7c2.6-1.7 5-5.8 2.7-9.3-2.8 2.5-3.9 6-2.7 9.3zm6.6-14.6c-2.6 2.7-2.2 6.8-1 9.4 4.1-3.6 2.2-8.2 1-9.4zm3.6-32.8c.2 5.4 2 10.9 4.3 12.8 1.4-4.6.8-8.2-4.3-12.8zm-.7 27.2c-2.3 3.4-1 6.1.8 8.3 1.6-2.3 2-6.8-.8-8.3zm.5-5.4c-1.3 2.8 1.2 5.9 3.3 7.3 1.2-2.9-.3-6-3.3-7.3zm.2-6.3c-1 4 1.8 6.2 4.1 7.3.5-4.5-2.9-7-4.1-7.3zm-.7-6c-.6 3 2.7 6.6 4.8 7.4.2-3.3-2.6-6.9-4.8-7.4zm.9 35.8c-2.4-.9-7.7.1-10.9 2.8 3.8 2 8.6.9 10.8-2.6 0 .1.1-.1.1-.2zm-17 6.1c5.2-2.3 5-6.2 4.2-7.6-3.3.9-4.4 5.1-4.2 7.6zm10.4-.1c-3.6-1.6-9.2-.1-11.5.9 3.5 2.2 8.4 1.9 11.5-.9zm-17.5 2.9c5.9-1.4 6.4-5.2 6-6.7-4.2.8-5.8 4.2-6 6.7zm-1.2.7c3.6 3 8.9 3.3 12.8.8-3.2-2.3-10.3-1.5-12.8-.8zm-.2-4.3c-3 .6-6.8 2.1-7.6 5.3 4.2-.2 8-2.1 7.6-5.3zm-7.5 5.7c0 1.6 3.1 4 10.7 1.4-1.5-1.9-7.9-1.6-10.7-1.4zm37.3-18.3c-3-.1-8.4 4.1-9.3 5.2 3 0 9.6.4 9.3-5.2zm3.4-7.7c-3.7.4-6.9 4.6-8.2 6.7 4.1.1 8.5-2.2 8.2-6.7zm.3-7.2c-3.6 1.7-4.4 5.1-5 7.1 2.3-.3 6.3-3.1 5-7.1zm.1-6.3c-2.3.7-3.8 4.9-4 7 1.5-.5 5.9-2 4-7zm-3.8 1.5c1.1-.4 4.6-3 2.6-9.1-3 2.8-2.8 7.3-2.6 9.1z"/><path opacity=".9" d="M40.2 69.4l-2.3-4.5-2.1 4.6-5 .7 3.6 3.5-1 5 4.5-2.4 4.5 2.4-.9-5 3.7-3.5-5-.8zm48 0l-2.1-4.5-2.3 4.6-5 .7 3.7 3.5-.9 5 4.5-2.4 4.5 2.4-1-5 3.6-3.5-5-.8z"/><path d="M63.5 25.1L62.1 22l-1.6 3.2-3.5.5 2.6 2.4-.7 3.5 3.2-1.7 3.1 1.7-.7-3.5 2.5-2.4-3.5-.6zm.7 77.3l-2.1-4.5-2.3 4.6-5 .7 3.7 3.5-.9 5 4.5-2.4 4.5 2.4-1-5 3.6-3.5-5-.8zm-3.6-50.8c.1 0 .1 0 0 0h.3l.1-.1.1-.1V51L53 45.1c0-.5.1-1 .3-1.3.2-.4.6-.6 1.1-.8l3.9 2.8c.1.1.3.1.4.1.1-.1.2-.2.3-.4 0-.1 0-.3-.2-.4l-3.3-2.4c.2-1.1.8-1.7 1.3-1.9l3.7 2.7c.2.1.5.1.6-.1.1-.2.1-.4-.1-.6l-3.2-2.4c0-.4.1-.8.3-1 .2-.2.5-.4.8-.6l3.6 2.6c.2.2.5.1.6-.1.1-.2.1-.4-.1-.6l-2.3-1.6c-.1-.3 0-.6.1-.7.1-.2.3-.3.6-.3.5.3 2.7 1.5 5.1 3.2 1.6 1.1 2.8 2.1 3.8 3.1 1.2 1.1 1.9 2.2 2.1 3l.8 3.1-3.2 5.6c-1-.4-6.8-2.3-9.1-3l-2-.5c0-.2.1-.5.2-.9 0-.2.1-.4.2-.6.5.2.8.3 1 .3.2.2.3.2.3.2zm21 6.1c-.2-.1-.4-.1-.7 0l-1.4 2.4c-.1.2-.4.2-.6.1-.2-.1-.3-.3-.2-.6l2.2-3.8c-.2-.3-.4-.6-.6-.7-.2-.2-.6-.2-1-.2l-2 3.5c-.1.1-.2.2-.3.2h-.3c-.1-.1-.2-.1-.2-.2v-.3l2.3-4c-.2-.5-.9-1-2-1.1l-2 3.5c-.1.1-.2.2-.4.2s-.3-.1-.4-.2-.1-.3 0-.4l2.4-4.2c-.2-.5-.5-.9-.9-1.1-.3-.2-.6-.2-1-.2h-.3l-4.9 8.6c-.2.2-.4.2-.5.1-.2-.1-.3-.3-.1-.6.2-.4.5-1.3.4-1.7l-1.5-.5-.2.7-.4 2.2c-.4 2.5-1.2 7.5-1.3 7.6 0 .1-.1.2-.1.2-.2.2-.5.4-.7.5-.1.1-.2.1-.3.2-.1 0-.1.1-.1.1l5.2 4.8s.1-.1.1-.2c.1-.1.2-.2.2-.3.1-.2.3-.4.5-.6 0 0 .1-.1.2-.1l3.1-1.2c.8-.3 1.8-1.1 2.8-2.4.8-1.1 1.7-2.5 2.7-4.1 1.5-2.7 2.5-5.1 2.7-5.5-.1-.5-.2-.6-.4-.7zm-26.8.4h.2l.1.1.1.1v.5c0 .2-.1.5-.2 1 0 .2 0 .2.1.4.1.1.3.3.5.4.3.1.5.2.6.2l.2-.5.4-2.3c.5-2.4 1.7-7 1.9-7.7L52.8 46l-2.4.8c-.8.3-1.8 1.1-2.8 2.4-.9 1.1-1.8 2.4-2.8 4.1-1.5 2.6-2.6 5.1-2.8 5.4.1.3.2.5.3.6.2.1.4.1.7 0l1.4-2.4c.1-.2.4-.2.6-.1.2.1.3.3.1.6l-1.9 3.7c.2.3.4.6.6.8.2.2.6.2 1 .3l2.1-3.5c.1-.2.4-.2.6-.1s.3.3.1.6l-2.5 3.9c.2.5.8 1 1.9 1.2l2.1-3.5c.1-.2.4-.2.6-.1s.3.3.1.6l-2.5 4.1c.2.5.5.9.9 1.1.3.2.8.3 1.3.3l3.9-6.6c.3-.3.6-.8.8-1.3.1-.2.2-.3.3-.5v-.1c.2-.2.2-.2.3-.2zm8.1 9.4l-.1-.2v-.1l.1-.2.1-.1c.1 0 .1-.1.1-.1h.5c.1 0 .3.1.7.3.1.1.3 0 .3 0 .2 0 .5-.3.6-.4.1-.2.1-.3.1-.4v-.1l-.2-.2-2-.9c-2.4-1-7-2.9-7-2.9-.1 0-.2-.1-.2-.2l-1.3-1.9c-.1.2-.2.3-.2.4v.1l-3.7 6.3.3 2.5c.1.9.7 2 1.7 3.3.8 1.1 2 2.3 3.4 3.5 2.2 2 4.3 3.6 4.7 3.8.3 0 .5-.1.7-.2.1-.1.2-.4.2-.7l-2-1.9c-.2-.2-.2-.4 0-.6.1-.1.4-.2.6 0l3.2 3c.3-.1.6-.2.8-.5.2-.2.4-.5.4-.9l-2.9-2.7c-.2-.2-.2-.4 0-.6.1-.1.4-.2.6 0l3.4 3.2c.5-.1 1.2-.6 1.5-1.7l-2.9-2.8c-.2-.2-.2-.4 0-.6.1-.1.4-.2.6 0l3.5 3.3c.5-.1.9-.3 1.2-.7.3-.3.4-.7.5-1.2l-7.3-6.9c.1 0 .1 0 0 0z"/></svg>