<svg viewBox="0 0 262 410"><path d="M10.9 11H253.1C256.1 11 258.5 8.6 258.5 5.6V5.4C258.5 2.4 256.1 0 253.1 0H10.9C7.9 0 5.5 2.4 5.5 5.4V5.6C5.5 8.6 7.9 11 10.9 11Z M150 41.2C144.459 46.7409 140.077 53.3783 137.5 60.8V318.2H123.5V60.8C120.9 53.6 116.8 47 111.2 41.4C105.331 35.5313 99.8019 31.8864 92 29.1C86.4 27.1 80.5 26 74.3 26H5.4C2.4 26 0 23.6 0 20.6V20.4C0 17.4 2.4 15 5.4 15H74.4C87.5 15 99.8 19.1 109.9 26C110.3 26.3 110.7 26.5 111.1 26.8C118.2 31.9 124.3 38.5 128.8 46.1L130.6 49.4L132.4 46.1C136.9 38.5 142.9 32 150.1 26.8C150.5 26.5 150.9 26.2 151.3 26C161.4 19.1 173.7 15 186.8 15H256.6C259.6 15 262 17.4 262 20.4V20.6C262 23.6 259.6 26 256.6 26H186.7C180.6 26 174.6 27.1 169 29.1C163.4 31.1 154 35.5 150 41.2Z M137.5 323.2V364.3H123.5V323.2H137.5Z M123.5 369.2V381.2C123.5 385.6 124 390 124.9 394.2C125.3 396.3 125.9 398.4 126.5 400.4C127.6 403.7 128.9 406.9 130.5 410C132.1 406.9 133.4 403.7 134.5 400.4C135.1 398.4 135.7 396.3 136.1 394.2C137 390 137.5 385.7 137.5 381.2V369.2H123.5Z"/></svg>
